<svg width="101" height="79" viewBox="0 0 101 79" fill="none" xmlns="http://www.w3.org/2000/svg">
<path d="M0.271034 79L101.895 79L101.895 2.81059L0.271034 2.81059L0.271034 79Z" fill="#7AA343"/>
<path d="M73.1808 74.145H99.8728V47.453H73.1808V74.145Z" fill="#548612"/>
<path d="M59.4386 72.4897H62.6394V67.7458H59.4386V72.4897Z" fill="#F9F8F7"/>
<path d="M60.0097 71.9497H62.1245V71.4353H60.0097V71.9497Z" fill="#E9E5D9"/>
<path d="M60.0097 70.8623H62.1245V70.3479H60.0097V70.8623Z" fill="#E9E5D9"/>
<path d="M60.0097 68.8008H62.1245V68.2864H60.0097V68.8008Z" fill="#E9E5D9"/>
<path d="M60.0097 69.8315H62.1245V69.3171H60.0097V69.8315Z" fill="#E9E5D9"/>
<path d="M59.4386 66.1338H62.6394V61.3898H59.4386V66.1338Z" fill="#F9F8F7"/>
<path d="M60.0097 65.5942H62.1245V65.0798H60.0097V65.5942Z" fill="#E9E5D9"/>
<path d="M60.0097 64.5635H62.1245V64.0491H60.0097V64.5635Z" fill="#E9E5D9"/>
<path d="M60.0097 62.4443H62.1245V61.9299H60.0097V62.4443Z" fill="#E9E5D9"/>
<path d="M60.0097 63.4751H62.1245V62.9607H60.0097V63.4751Z" fill="#E9E5D9"/>
<path d="M59.4389 59.7783H62.6396V55.0343H59.4389V59.7783Z" fill="#F9F8F7"/>
<path d="M60.01 59.2383H62.1248V58.7239H60.01V59.2383Z" fill="#E9E5D9"/>
<path d="M60.01 58.208H62.1248V57.6936H60.01V58.208Z" fill="#E9E5D9"/>
<path d="M60.01 56.0889H62.1248V55.5745H60.01V56.0889Z" fill="#E9E5D9"/>
<path d="M60.01 57.1201H62.1248V56.6057H60.01V57.1201Z" fill="#E9E5D9"/>
<path d="M65.103 72.4902H68.3037V67.7463H65.103V72.4902Z" fill="#F9F8F7"/>
<path d="M65.674 71.9507H67.7888V71.4363H65.674V71.9507Z" fill="#E9E5D9"/>
<path d="M65.674 70.8628H67.7888V70.3484H65.674V70.8628Z" fill="#E9E5D9"/>
<path d="M65.674 68.8013H67.7888V68.2869H65.674V68.8013Z" fill="#E9E5D9"/>
<path d="M65.674 69.832H67.7888V69.3176H65.674V69.832Z" fill="#E9E5D9"/>
<path d="M65.103 66.1343H68.3037V61.3903H65.103V66.1343Z" fill="#F9F8F7"/>
<path d="M65.674 65.5947H67.7888V65.0803H65.674V65.5947Z" fill="#E9E5D9"/>
<path d="M65.674 64.5635H67.7888V64.0491H65.674V64.5635Z" fill="#E9E5D9"/>
<path d="M65.674 62.4443H67.7888V61.9299H65.674V62.4443Z" fill="#E9E5D9"/>
<path d="M65.674 63.4761H67.7888V62.9617H65.674V63.4761Z" fill="#E9E5D9"/>
<path d="M65.103 59.7783H68.3037V55.0343H65.103V59.7783Z" fill="#F9F8F7"/>
<path d="M65.674 59.2388H67.7888V58.7244H65.674V59.2388Z" fill="#E9E5D9"/>
<path d="M65.674 58.208H67.7888V57.6936H65.674V58.208Z" fill="#E9E5D9"/>
<path d="M65.674 56.0889H67.7888V55.5745H65.674V56.0889Z" fill="#E9E5D9"/>
<path d="M65.674 57.1201H67.7888V56.6057H65.674V57.1201Z" fill="#E9E5D9"/>
<path d="M65.1027 51.8511H68.3035V18.5289H65.1027V51.8511Z" fill="#FBBE68"/>
<path d="M65.6738 51.3081H67.7886V50.7937H65.6738V51.3081Z" fill="#E59B42"/>
<path d="M65.6738 50.2773H67.7886V49.7629H65.6738V50.2773Z" fill="#E59B42"/>
<path d="M65.6738 49.1895H67.7886V48.675H65.6738V49.1895Z" fill="#E59B42"/>
<path d="M65.6738 48.1587H67.7886V47.6443H65.6738V48.1587Z" fill="#E59B42"/>
<path d="M65.6738 47.0713H67.7886V46.5569H65.6738V47.0713Z" fill="#E59B42"/>
<path d="M65.6738 46.04H67.7886V45.5256H65.6738V46.04Z" fill="#E59B42"/>
<path d="M65.6738 44.9526H67.7886V44.4382H65.6738V44.9526Z" fill="#E59B42"/>
<path d="M65.6738 43.9219H67.7886V43.4075H65.6738V43.9219Z" fill="#E59B42"/>
<path d="M65.6738 42.834H67.7886V42.3196H65.6738V42.834Z" fill="#E59B42"/>
<path d="M65.6738 41.8032H67.7886V41.2888H65.6738V41.8032Z" fill="#E59B42"/>
<path d="M65.6738 40.7153H67.7886V40.2009H65.6738V40.7153Z" fill="#E59B42"/>
<path d="M65.6738 39.6846H67.7886V39.1702H65.6738V39.6846Z" fill="#E59B42"/>
<path d="M65.6738 38.5967H67.7886V38.0823H65.6738V38.5967Z" fill="#E59B42"/>
<path d="M65.6738 37.5659H67.7886V37.0515H65.6738V37.5659Z" fill="#E59B42"/>
<path d="M65.6738 36.478H67.7886V35.9636H65.6738V36.478Z" fill="#E59B42"/>
<path d="M65.6738 35.4478H67.7886V34.9333H65.6738V35.4478Z" fill="#E59B42"/>
<path d="M65.6738 34.3589H67.7886V33.8445H65.6738V34.3589Z" fill="#E59B42"/>
<path d="M65.6738 33.3286H67.7886V32.8142H65.6738V33.3286Z" fill="#E59B42"/>
<path d="M65.6738 32.2407H67.7886V31.7263H65.6738V32.2407Z" fill="#E59B42"/>
<path d="M65.6738 31.21H67.7886V30.6956H65.6738V31.21Z" fill="#E59B42"/>
<path d="M65.6738 30.1226H67.7886V29.6082H65.6738V30.1226Z" fill="#E59B42"/>
<path d="M65.6738 29.0913H67.7886V28.5769H65.6738V29.0913Z" fill="#E59B42"/>
<path d="M65.6738 28.0039H67.7886V27.4895H65.6738V28.0039Z" fill="#E59B42"/>
<path d="M65.6738 26.9736H67.7886V26.4592H65.6738V26.9736Z" fill="#E59B42"/>
<path d="M65.6738 25.8848H67.7886V25.3704H65.6738V25.8848Z" fill="#E59B42"/>
<path d="M65.6738 24.8545H67.7886V24.3401H65.6738V24.8545Z" fill="#E59B42"/>
<path d="M65.6738 23.7661H67.7886V23.2517H65.6738V23.7661Z" fill="#E59B42"/>
<path d="M65.6738 22.7358H67.7886V22.2214H65.6738V22.7358Z" fill="#E59B42"/>
<path d="M65.6738 21.7051H67.7886V21.1907H65.6738V21.7051Z" fill="#E59B42"/>
<path d="M65.6738 20.6172H67.7886V20.1028H65.6738V20.6172Z" fill="#E59B42"/>
<path d="M65.6738 19.5869H67.7886V19.0725H65.6738V19.5869Z" fill="#E59B42"/>
<path d="M39.7349 19.567V16.3662L6.41271 16.3662V19.567L39.7349 19.567Z" fill="#FBBE68"/>
<path d="M39.2061 19.0103V16.8955H38.6916V19.0103H39.2061Z" fill="#E59B42"/>
<path d="M38.1479 19.0396V16.9248H37.6335V19.0396H38.1479Z" fill="#E59B42"/>
<path d="M37.0896 19.0118V16.897H36.5752V19.0118H37.0896Z" fill="#E59B42"/>
<path d="M36.0315 19.0411V16.9263H35.5171V19.0411H36.0315Z" fill="#E59B42"/>
<path d="M34.9731 19.0132V16.8984H34.4587V19.0132H34.9731Z" fill="#E59B42"/>
<path d="M33.915 19.043V16.9282H33.4006V19.043H33.915Z" fill="#E59B42"/>
<path d="M32.8557 19.0157V16.9009H32.3413V19.0157H32.8557Z" fill="#E59B42"/>
<path d="M31.7986 19.0454V16.9307H31.2842V19.0454H31.7986Z" fill="#E59B42"/>
<path d="M30.7393 19.0176V16.9028H30.2249V19.0176H30.7393Z" fill="#E59B42"/>
<path d="M29.6819 19.0469V16.9321H29.1675V19.0469H29.6819Z" fill="#E59B42"/>
<path d="M28.6228 19.0191V16.9043H28.1084V19.0191H28.6228Z" fill="#E59B42"/>
<path d="M27.5645 19.0484V16.9336H27.05V19.0484H27.5645Z" fill="#E59B42"/>
<path d="M26.5063 19.0215V16.9067H25.9919V19.0215H26.5063Z" fill="#E59B42"/>
<path d="M25.448 19.0508V16.936H24.9336V19.0508H25.448Z" fill="#E59B42"/>
<path d="M24.3887 19.023V16.9082H23.8743V19.023H24.3887Z" fill="#E59B42"/>
<path d="M23.3315 19.0528V16.938H22.8171V19.0528H23.3315Z" fill="#E59B42"/>
<path d="M22.2722 19.0249V16.9102H21.7578V19.0249H22.2722Z" fill="#E59B42"/>
<path d="M21.2151 19.0547V16.9399H20.7007V19.0547H21.2151Z" fill="#E59B42"/>
<path d="M20.1558 19.0274V16.9126H19.6414V19.0274H20.1558Z" fill="#E59B42"/>
<path d="M19.0974 19.0567V16.9419H18.583V19.0567H19.0974Z" fill="#E59B42"/>
<path d="M18.0393 19.0288V16.9141H17.5249V19.0288H18.0393Z" fill="#E59B42"/>
<path d="M16.981 19.001V16.8862H16.4666V19.001H16.981Z" fill="#E59B42"/>
<path d="M15.9238 19.0308V16.916H15.4094V19.0308H15.9238Z" fill="#E59B42"/>
<path d="M14.8645 19.003V16.8882H14.3501V19.003H14.8645Z" fill="#E59B42"/>
<path d="M13.8052 19.0323V16.9175H13.2908V19.0323H13.8052Z" fill="#E59B42"/>
<path d="M12.748 19.0049V16.8901H12.2336V19.0049H12.748Z" fill="#E59B42"/>
<path d="M11.6887 19.0347V16.9199H11.1743V19.0347H11.6887Z" fill="#E59B42"/>
<path d="M10.6316 19.0069V16.8921H10.1172V19.0069H10.6316Z" fill="#E59B42"/>
<path d="M9.57227 19.0362V16.9214H9.05786V19.0362H9.57227Z" fill="#E59B42"/>
<path d="M8.51416 19.0083V16.8936H7.99975V19.0083H8.51416Z" fill="#E59B42"/>
<path d="M7.45679 19.0391V16.9243H6.94238V19.0391H7.45679Z" fill="#E59B42"/>
<path d="M51.886 58.212V55.0112L7.41835 55.0112V58.212L51.886 58.212Z" fill="#F9F8F7"/>
<path d="M51.3711 57.1831V56.0972L7.98943 56.0972V57.1831L51.3711 57.1831Z" fill="#E9E5D9"/>
<path d="M52.9211 57.1768V56.0908H51.8352V57.1768H52.9211Z" fill="#F9F8F7"/>
<path d="M7.41162 57.1324V56.0464H6.32565V57.1324H7.41162Z" fill="#F9F8F7"/>
<path d="M51.9053 62.9742V59.7734L7.43764 59.7734V62.9742L51.9053 62.9742Z" fill="#F9F8F7"/>
<path d="M51.3347 61.9453V60.8594L7.95305 60.8594V61.9453L51.3347 61.9453Z" fill="#E9E5D9"/>
<path d="M52.9404 61.939V60.853H51.8545V61.939H52.9404Z" fill="#F9F8F7"/>
<path d="M7.43091 61.8946V60.8086H6.34494V61.8946H7.43091Z" fill="#F9F8F7"/>
<path d="M51.8657 67.7359V64.5352L7.39808 64.5352V67.7359L51.8657 67.7359Z" fill="#FBBE68"/>
<path d="M51.3508 66.7071V65.6211L7.96916 65.6211V66.7071L51.3508 66.7071Z" fill="#E59B42"/>
<path d="M52.9565 66.7007V65.6147H51.8706V66.7007H52.9565Z" fill="#FBBE68"/>
<path d="M7.448 66.6568V65.5708H6.36203V66.6568H7.448Z" fill="#FBBE68"/>
<path d="M51.885 72.4991V69.2983L7.41737 69.2983V72.4991L51.885 72.4991Z" fill="#FBBE68"/>
<path d="M51.3711 71.4702V70.3843L7.98943 70.3843V71.4702L51.3711 71.4702Z" fill="#E59B42"/>
<path d="M52.9202 71.4639V70.3779H51.8342V71.4639H52.9202Z" fill="#FBBE68"/>
<path d="M7.41064 71.4195V70.3335H6.32467V71.4195H7.41064Z" fill="#FBBE68"/>
<path d="M88.6546 43.1064H98.1997V27.217H88.6546V43.1064Z" fill="#3A4D57"/>
<path d="M89.6827 42.0776H97.113V28.303H89.6827V42.0776Z" fill="#52717F"/>
<path d="M97.7464 43.125H97.5178V44.211H97.7464V43.125Z" fill="#F9F8F7"/>
<path d="M97.232 43.125H97.0034V44.211H97.232V43.125Z" fill="#F9F8F7"/>
<path d="M96.7167 43.125H96.488V44.211H96.7167V43.125Z" fill="#F9F8F7"/>
<path d="M96.2028 43.125H95.9741V44.211H96.2028V43.125Z" fill="#F9F8F7"/>
<path d="M95.632 43.125H95.4033V44.211H95.632V43.125Z" fill="#F9F8F7"/>
<path d="M95.1175 43.125H94.8889V44.211H95.1175V43.125Z" fill="#F9F8F7"/>
<path d="M94.6022 43.125H94.3735V44.211H94.6022V43.125Z" fill="#F9F8F7"/>
<path d="M94.087 43.125H93.8584V44.211H94.087V43.125Z" fill="#F9F8F7"/>
<path d="M93.5172 43.125H93.2886V44.211H93.5172V43.125Z" fill="#F9F8F7"/>
<path d="M93.0018 43.125H92.7732V44.211H93.0018V43.125Z" fill="#F9F8F7"/>
<path d="M92.4879 43.125H92.2593V44.211H92.4879V43.125Z" fill="#F9F8F7"/>
<path d="M91.9725 43.125H91.7439V44.211H91.9725V43.125Z" fill="#F9F8F7"/>
<path d="M91.4015 43.125H91.1729V44.211H91.4015V43.125Z" fill="#F9F8F7"/>
<path d="M90.8873 43.125H90.6587V44.211H90.8873V43.125Z" fill="#F9F8F7"/>
<path d="M90.3734 43.125H90.1448V44.211H90.3734V43.125Z" fill="#F9F8F7"/>
<path d="M89.8024 43.125H89.5737V44.211H89.8024V43.125Z" fill="#F9F8F7"/>
<path d="M89.287 43.125H89.0583V44.211H89.287V43.125Z" fill="#F9F8F7"/>
<path d="M97.7464 26.1489H97.5178V27.2349H97.7464V26.1489Z" fill="#F9F8F7"/>
<path d="M97.232 26.1489H97.0034V27.2349H97.232V26.1489Z" fill="#F9F8F7"/>
<path d="M96.7167 26.1489H96.488V27.2349H96.7167V26.1489Z" fill="#F9F8F7"/>
<path d="M96.2028 26.1489H95.9741V27.2349H96.2028V26.1489Z" fill="#F9F8F7"/>
<path d="M95.632 26.1489H95.4033V27.2349H95.632V26.1489Z" fill="#F9F8F7"/>
<path d="M95.1175 26.1489H94.8889V27.2349H95.1175V26.1489Z" fill="#F9F8F7"/>
<path d="M94.6022 26.1489H94.3735V27.2349H94.6022V26.1489Z" fill="#F9F8F7"/>
<path d="M94.087 26.1489H93.8584V27.2349H94.087V26.1489Z" fill="#F9F8F7"/>
<path d="M93.5172 26.1489H93.2886V27.2349H93.5172V26.1489Z" fill="#F9F8F7"/>
<path d="M93.0018 26.1489H92.7732V27.2349H93.0018V26.1489Z" fill="#F9F8F7"/>
<path d="M92.4879 26.1489H92.2593V27.2349H92.4879V26.1489Z" fill="#F9F8F7"/>
<path d="M91.9733 26.1489H91.7446V27.2349H91.9733V26.1489Z" fill="#F9F8F7"/>
<path d="M91.4015 26.1489H91.1729V27.2349H91.4015V26.1489Z" fill="#F9F8F7"/>
<path d="M90.8873 26.1489H90.6587V27.2349H90.8873V26.1489Z" fill="#F9F8F7"/>
<path d="M90.3734 26.1489H90.1448V27.2349H90.3734V26.1489Z" fill="#F9F8F7"/>
<path d="M89.8024 26.1489H89.5737V27.2349H89.8024V26.1489Z" fill="#F9F8F7"/>
<path d="M89.287 26.1489H89.0583V27.2349H89.287V26.1489Z" fill="#F9F8F7"/>
<path d="M77.0678 70.3726H96.1008V51.3395H77.0678V70.3726Z" fill="#3A4D57"/>
<path d="M95.004 69.3021V52.3838H80.2005L78.0857 54.4986V69.3021H95.004Z" fill="#52717F"/>
<path d="M95.6317 70.3877H95.4031V72.5025H95.6317V70.3877Z" fill="#F9F8F7"/>
<path d="M95.117 70.3877H94.8884V72.5025H95.117V70.3877Z" fill="#F9F8F7"/>
<path d="M94.6029 70.3877H94.3743V72.5025H94.6029V70.3877Z" fill="#F9F8F7"/>
<path d="M94.0878 70.3877H93.8591V72.5025H94.0878V70.3877Z" fill="#F9F8F7"/>
<path d="M93.5179 70.3877H93.2893V72.5025H93.5179V70.3877Z" fill="#F9F8F7"/>
<path d="M93.0016 70.3877H92.7729V72.5025H93.0016V70.3877Z" fill="#F9F8F7"/>
<path d="M92.4886 70.3877H92.26V72.5025H92.4886V70.3877Z" fill="#F9F8F7"/>
<path d="M91.9733 70.3877H91.7446V72.5025H91.9733V70.3877Z" fill="#F9F8F7"/>
<path d="M91.401 70.3877H91.1724V72.5025H91.401V70.3877Z" fill="#F9F8F7"/>
<path d="M90.8871 70.3877H90.6584V72.5025H90.8871V70.3877Z" fill="#F9F8F7"/>
<path d="M90.3719 70.3877H90.1433V72.5025H90.3719V70.3877Z" fill="#F9F8F7"/>
<path d="M89.8019 70.3877H89.5732V72.5025H89.8019V70.3877Z" fill="#F9F8F7"/>
<path d="M89.2867 70.3877H89.0581V72.5025H89.2867V70.3877Z" fill="#F9F8F7"/>
<path d="M88.7714 70.3877H88.5427V72.5025H88.7714V70.3877Z" fill="#F9F8F7"/>
<path d="M88.2574 70.3877H88.0288V72.5025H88.2574V70.3877Z" fill="#F9F8F7"/>
<path d="M87.6852 70.3877H87.4565V72.5025H87.6852V70.3877Z" fill="#F9F8F7"/>
<path d="M87.1712 70.3877H86.9426V72.5025H87.1712V70.3877Z" fill="#F9F8F7"/>
<path d="M86.6571 70.3877H86.4285V72.5025H86.6571V70.3877Z" fill="#F9F8F7"/>
<path d="M86.1437 70.3877H85.915V72.5025H86.1437V70.3877Z" fill="#F9F8F7"/>
<path d="M85.5707 70.3877H85.342V72.5025H85.5707V70.3877Z" fill="#F9F8F7"/>
<path d="M85.0565 70.3877H84.8279V72.5025H85.0565V70.3877Z" fill="#F9F8F7"/>
<path d="M84.5423 70.3877H84.3137V72.5025H84.5423V70.3877Z" fill="#F9F8F7"/>
<path d="M84.0279 70.3877H83.7993V72.5025H84.0279V70.3877Z" fill="#F9F8F7"/>
<path d="M83.4564 70.3877H83.2278V72.5025H83.4564V70.3877Z" fill="#F9F8F7"/>
<path d="M82.9423 70.3877H82.7136V72.5025H82.9423V70.3877Z" fill="#F9F8F7"/>
<path d="M82.4278 70.3877H82.1992V72.5025H82.4278V70.3877Z" fill="#F9F8F7"/>
<path d="M81.9134 70.3877H81.6848V72.5025H81.9134V70.3877Z" fill="#F9F8F7"/>
<path d="M81.3417 70.3877H81.113V72.5025H81.3417V70.3877Z" fill="#F9F8F7"/>
<path d="M80.8285 70.3877H80.5999V72.5025H80.8285V70.3877Z" fill="#F9F8F7"/>
<path d="M80.3131 70.3877H80.0845V72.5025H80.3131V70.3877Z" fill="#F9F8F7"/>
<path d="M79.7992 70.3877H79.5706V72.5025H79.7992V70.3877Z" fill="#F9F8F7"/>
<path d="M79.2274 70.3877H78.9988V72.5025H79.2274V70.3877Z" fill="#F9F8F7"/>
<path d="M78.714 70.3877H78.4854V72.5025H78.714V70.3877Z" fill="#F9F8F7"/>
<path d="M78.1986 70.3877H77.97V72.5025H78.1986V70.3877Z" fill="#F9F8F7"/>
<path d="M77.6835 70.3877H77.4548V72.5025H77.6835V70.3877Z" fill="#F9F8F7"/>
<path d="M95.6317 49.1826H95.4031V51.2974H95.6317V49.1826Z" fill="#F9F8F7"/>
<path d="M95.117 49.1826H94.8884V51.2974H95.117V49.1826Z" fill="#F9F8F7"/>
<path d="M94.6029 49.1826H94.3743V51.2974H94.6029V49.1826Z" fill="#F9F8F7"/>
<path d="M94.0878 49.1826H93.8591V51.2974H94.0878V49.1826Z" fill="#F9F8F7"/>
<path d="M93.5179 49.1826H93.2893V51.2974H93.5179V49.1826Z" fill="#F9F8F7"/>
<path d="M93.0016 49.1826H92.7729V51.2974H93.0016V49.1826Z" fill="#F9F8F7"/>
<path d="M92.4886 49.1826H92.26V51.2974H92.4886V49.1826Z" fill="#F9F8F7"/>
<path d="M91.9733 49.1826H91.7446V51.2974H91.9733V49.1826Z" fill="#F9F8F7"/>
<path d="M91.401 49.1826H91.1724V51.2974H91.401V49.1826Z" fill="#F9F8F7"/>
<path d="M90.8871 49.1826H90.6584V51.2974H90.8871V49.1826Z" fill="#F9F8F7"/>
<path d="M90.3719 49.1826H90.1433V51.2974H90.3719V49.1826Z" fill="#F9F8F7"/>
<path d="M89.8019 49.1826H89.5732V51.2974H89.8019V49.1826Z" fill="#F9F8F7"/>
<path d="M89.2867 49.1826H89.0581V51.2974H89.2867V49.1826Z" fill="#F9F8F7"/>
<path d="M88.7714 49.1826H88.5427V51.2974H88.7714V49.1826Z" fill="#F9F8F7"/>
<path d="M88.2574 49.1826H88.0288V51.2974H88.2574V49.1826Z" fill="#F9F8F7"/>
<path d="M87.6852 49.1826H87.4565V51.2974H87.6852V49.1826Z" fill="#F9F8F7"/>
<path d="M87.1712 49.1826H86.9426V51.2974H87.1712V49.1826Z" fill="#F9F8F7"/>
<path d="M86.6571 49.1826H86.4285V51.2974H86.6571V49.1826Z" fill="#F9F8F7"/>
<path d="M86.1437 49.1826H85.915V51.2974H86.1437V49.1826Z" fill="#F9F8F7"/>
<path d="M85.5707 49.1826H85.342V51.2974H85.5707V49.1826Z" fill="#F9F8F7"/>
<path d="M85.0565 49.1826H84.8279V51.2974H85.0565V49.1826Z" fill="#F9F8F7"/>
<path d="M84.5423 49.1826H84.3137V51.2974H84.5423V49.1826Z" fill="#F9F8F7"/>
<path d="M84.0279 49.1826H83.7993V51.2974H84.0279V49.1826Z" fill="#F9F8F7"/>
<path d="M83.4564 49.1826H83.2278V51.2974H83.4564V49.1826Z" fill="#F9F8F7"/>
<path d="M82.9423 49.1826H82.7136V51.2974H82.9423V49.1826Z" fill="#F9F8F7"/>
<path d="M82.4278 49.1826H82.1992V51.2974H82.4278V49.1826Z" fill="#F9F8F7"/>
<path d="M81.9134 49.1826H81.6848V51.2974H81.9134V49.1826Z" fill="#F9F8F7"/>
<path d="M81.3417 49.1826H81.113V51.2974H81.3417V49.1826Z" fill="#F9F8F7"/>
<path d="M80.8285 49.1826H80.5999V51.2974H80.8285V49.1826Z" fill="#F9F8F7"/>
<path d="M80.3131 49.1826H80.0845V51.2974H80.3131V49.1826Z" fill="#F9F8F7"/>
<path d="M79.7992 49.1826H79.5706V51.2974H79.7992V49.1826Z" fill="#F9F8F7"/>
<path d="M79.2274 49.1826H78.9988V51.2974H79.2274V49.1826Z" fill="#F9F8F7"/>
<path d="M78.714 49.1826H78.4854V51.2974H78.714V49.1826Z" fill="#F9F8F7"/>
<path d="M78.1986 49.1826H77.97V51.2974H78.1986V49.1826Z" fill="#F9F8F7"/>
<path d="M77.6835 49.1826H77.4548V51.2974H77.6835V49.1826Z" fill="#F9F8F7"/>
<path d="M77.0003 69.7017H74.8855V69.9303H77.0003V69.7017Z" fill="#F9F8F7"/>
<path d="M77.0003 69.187H74.8855V69.4156H77.0003V69.187Z" fill="#F9F8F7"/>
<path d="M77.0003 68.6724H74.8855V68.901H77.0003V68.6724Z" fill="#F9F8F7"/>
<path d="M77.0003 68.1006H74.8855V68.3292H77.0003V68.1006Z" fill="#F9F8F7"/>
<path d="M77.0003 67.5864H74.8855V67.8151H77.0003V67.5864Z" fill="#F9F8F7"/>
<path d="M77.0003 67.0718H74.8855V67.3004H77.0003V67.0718Z" fill="#F9F8F7"/>
<path d="M77.0003 66.5576H74.8855V66.7862H77.0003V66.5576Z" fill="#F9F8F7"/>
<path d="M77.0003 65.9858H74.8855V66.2145H77.0003V65.9858Z" fill="#F9F8F7"/>
<path d="M77.0003 65.4717H74.8855V65.7003H77.0003V65.4717Z" fill="#F9F8F7"/>
<path d="M77.0003 64.958H74.8855V65.1866H77.0003V64.958Z" fill="#F9F8F7"/>
<path d="M77.0003 64.3857H74.8855V64.6144H77.0003V64.3857Z" fill="#F9F8F7"/>
<path d="M77.0003 63.8721H74.8855V64.1007H77.0003V63.8721Z" fill="#F9F8F7"/>
<path d="M77.0003 63.3579H74.8855V63.5865H77.0003V63.3579Z" fill="#F9F8F7"/>
<path d="M77.0003 62.8428H74.8855V63.0714H77.0003V62.8428Z" fill="#F9F8F7"/>
<path d="M77.0003 62.2715H74.8855V62.5001H77.0003V62.2715Z" fill="#F9F8F7"/>
<path d="M77.0003 61.7568H74.8855V61.9855H77.0003V61.7568Z" fill="#F9F8F7"/>
<path d="M77.0003 61.2427H74.8855V61.4713H77.0003V61.2427Z" fill="#F9F8F7"/>
<path d="M77.0003 60.728H74.8855V60.9567H77.0003V60.728Z" fill="#F9F8F7"/>
<path d="M77.0003 60.1562H74.8855V60.3849H77.0003V60.1562Z" fill="#F9F8F7"/>
<path d="M77.0003 59.6421H74.8855V59.8707H77.0003V59.6421Z" fill="#F9F8F7"/>
<path d="M77.0003 59.1279H74.8855V59.3566H77.0003V59.1279Z" fill="#F9F8F7"/>
<path d="M77.0003 58.6138H74.8855V58.8424H77.0003V58.6138Z" fill="#F9F8F7"/>
<path d="M77.0003 58.042H74.8855V58.2706H77.0003V58.042Z" fill="#F9F8F7"/>
<path d="M77.0003 57.5278H74.8855V57.7565H77.0003V57.5278Z" fill="#F9F8F7"/>
<path d="M77.0003 57.0132H74.8855V57.2418H77.0003V57.0132Z" fill="#F9F8F7"/>
<path d="M77.0003 56.498H74.8855V56.7267H77.0003V56.498Z" fill="#F9F8F7"/>
<path d="M77.0003 55.9268H74.8855V56.1554H77.0003V55.9268Z" fill="#F9F8F7"/>
<path d="M77.0003 55.4121H74.8855V55.6407H77.0003V55.4121Z" fill="#F9F8F7"/>
<path d="M77.0003 54.8979H74.8855V55.1266H77.0003V54.8979Z" fill="#F9F8F7"/>
<path d="M77.0003 54.3838H74.8855V54.6124H77.0003V54.3838Z" fill="#F9F8F7"/>
<path d="M77.0003 53.8125H74.8855V54.0411H77.0003V53.8125Z" fill="#F9F8F7"/>
<path d="M77.0003 53.2974H74.8855V53.526H77.0003V53.2974Z" fill="#F9F8F7"/>
<path d="M77.0003 52.7827H74.8855V53.0113H77.0003V52.7827Z" fill="#F9F8F7"/>
<path d="M77.0003 52.269H74.8855V52.4977H77.0003V52.269Z" fill="#F9F8F7"/>
<path d="M77.0003 51.6973H74.8855V51.9259H77.0003V51.6973Z" fill="#F9F8F7"/>
<path d="M98.2017 69.7012H96.0869V69.9298H98.2017V69.7012Z" fill="#F9F8F7"/>
<path d="M98.2017 69.1875H96.0869V69.4161H98.2017V69.1875Z" fill="#F9F8F7"/>
<path d="M98.2017 68.6729H96.0869V68.9015H98.2017V68.6729Z" fill="#F9F8F7"/>
<path d="M98.2017 68.1016H96.0869V68.3302H98.2017V68.1016Z" fill="#F9F8F7"/>
<path d="M98.2017 67.5869H96.0869V67.8155H98.2017V67.5869Z" fill="#F9F8F7"/>
<path d="M98.2017 67.0718H96.0869V67.3004H98.2017V67.0718Z" fill="#F9F8F7"/>
<path d="M98.2017 66.5581H96.0869V66.7867H98.2017V66.5581Z" fill="#F9F8F7"/>
<path d="M98.2017 65.9868H96.0869V66.2154H98.2017V65.9868Z" fill="#F9F8F7"/>
<path d="M98.2017 65.4722H96.0869V65.7008H98.2017V65.4722Z" fill="#F9F8F7"/>
<path d="M98.2017 64.9575H96.0869V65.1861H98.2017V64.9575Z" fill="#F9F8F7"/>
<path d="M98.2017 64.3862H96.0869V64.6149H98.2017V64.3862Z" fill="#F9F8F7"/>
<path d="M98.2017 63.8716H96.0869V64.1002H98.2017V63.8716Z" fill="#F9F8F7"/>
<path d="M98.2017 63.3569H96.0869V63.5856H98.2017V63.3569Z" fill="#F9F8F7"/>
<path d="M98.2017 62.8433H96.0869V63.0719H98.2017V62.8433Z" fill="#F9F8F7"/>
<path d="M98.2017 62.2715H96.0869V62.5001H98.2017V62.2715Z" fill="#F9F8F7"/>
<path d="M98.2017 61.7573H96.0869V61.986H98.2017V61.7573Z" fill="#F9F8F7"/>
<path d="M98.2017 61.2427H96.0869V61.4713H98.2017V61.2427Z" fill="#F9F8F7"/>
<path d="M98.2017 60.7285H96.0869V60.9571H98.2017V60.7285Z" fill="#F9F8F7"/>
<path d="M98.2017 60.1567H96.0869V60.3854H98.2017V60.1567Z" fill="#F9F8F7"/>
<path d="M98.2017 59.6421H96.0869V59.8707H98.2017V59.6421Z" fill="#F9F8F7"/>
<path d="M98.2017 59.1279H96.0869V59.3566H98.2017V59.1279Z" fill="#F9F8F7"/>
<path d="M98.2017 58.6133H96.0869V58.8419H98.2017V58.6133Z" fill="#F9F8F7"/>
<path d="M98.2017 58.042H96.0869V58.2706H98.2017V58.042Z" fill="#F9F8F7"/>
<path d="M98.2017 57.5278H96.0869V57.7565H98.2017V57.5278Z" fill="#F9F8F7"/>
<path d="M98.2017 57.0122H96.0869V57.2408H98.2017V57.0122Z" fill="#F9F8F7"/>
<path d="M98.2017 56.498H96.0869V56.7267H98.2017V56.498Z" fill="#F9F8F7"/>
<path d="M98.2017 55.9263H96.0869V56.1549H98.2017V55.9263Z" fill="#F9F8F7"/>
<path d="M98.2017 55.4126H96.0869V55.6412H98.2017V55.4126Z" fill="#F9F8F7"/>
<path d="M98.2017 54.8979H96.0869V55.1266H98.2017V54.8979Z" fill="#F9F8F7"/>
<path d="M98.2017 54.3838H96.0869V54.6124H98.2017V54.3838Z" fill="#F9F8F7"/>
<path d="M98.2017 53.812H96.0869V54.0406H98.2017V53.812Z" fill="#F9F8F7"/>
<path d="M98.2017 53.2974H96.0869V53.526H98.2017V53.2974Z" fill="#F9F8F7"/>
<path d="M98.2017 52.7837H96.0869V53.0123H98.2017V52.7837Z" fill="#F9F8F7"/>
<path d="M98.2017 52.2686H96.0869V52.4972H98.2017V52.2686Z" fill="#F9F8F7"/>
<path d="M98.2019 51.6973H96.0872V51.9259H98.2019V51.6973Z" fill="#F9F8F7"/>
<path d="M59.0442 51.8112V45.4668H45.8411V51.8112H59.0442Z" fill="#FBBE68"/>
<path d="M57.9912 50.7486V46.519H57.4768V50.7486H57.9912Z" fill="#E59B42"/>
<path d="M56.9329 50.7779V46.5483H56.4185V50.7779H56.9329Z" fill="#E59B42"/>
<path d="M55.8735 50.7515V46.522H55.3591V50.7515H55.8735Z" fill="#E59B42"/>
<path d="M54.8164 50.7804V46.5508H54.302V50.7804H54.8164Z" fill="#E59B42"/>
<path d="M53.7583 50.7525V46.5229H53.2439V50.7525H53.7583Z" fill="#E59B42"/>
<path d="M52.7 50.7823V46.5527H52.1855V50.7823H52.7Z" fill="#E59B42"/>
<path d="M51.6418 50.7545V46.5249H51.1274V50.7545H51.6418Z" fill="#E59B42"/>
<path d="M50.5825 50.7838V46.5542H50.0681V50.7838H50.5825Z" fill="#E59B42"/>
<path d="M49.5251 50.7564V46.5269H49.0107V50.7564H49.5251Z" fill="#E59B42"/>
<path d="M48.4661 50.7867V46.5571H47.9517V50.7867H48.4661Z" fill="#E59B42"/>
<path d="M47.4087 50.7589V46.5293H46.8943V50.7589H47.4087Z" fill="#E59B42"/>
<path d="M59.0225 42.8155V36.4712H45.8193V42.8155H59.0225Z" fill="#FBBE68"/>
<path d="M57.9695 41.753V37.5234H57.4551V41.753H57.9695Z" fill="#E59B42"/>
<path d="M56.9111 41.7828V37.5532H56.3967V41.7828H56.9111Z" fill="#E59B42"/>
<path d="M55.854 41.7559V37.5264H55.3396V41.7559H55.854Z" fill="#E59B42"/>
<path d="M54.7947 41.7847V37.5552H54.2803V41.7847H54.7947Z" fill="#E59B42"/>
<path d="M53.7366 41.7574V37.5278H53.2222V41.7574H53.7366Z" fill="#E59B42"/>
<path d="M52.6782 41.7867V37.5571H52.1638V41.7867H52.6782Z" fill="#E59B42"/>
<path d="M51.6201 41.7589V37.5293H51.1057V41.7589H51.6201Z" fill="#E59B42"/>
<path d="M50.5608 41.7882V37.5586H50.0464V41.7882H50.5608Z" fill="#E59B42"/>
<path d="M49.5037 41.7613V37.5317H48.9893V41.7613H49.5037Z" fill="#E59B42"/>
<path d="M48.4443 41.7911V37.5615H47.9299V41.7911H48.4443Z" fill="#E59B42"/>
<path d="M47.387 41.7633V37.5337H46.8726V41.7633H47.387Z" fill="#E59B42"/>
<path d="M50.8645 17.1572H61.9529V6.0689L50.8645 6.0689V17.1572Z" fill="#F9F8F7"/>
<path d="M60.8809 16.3746C60.8809 16.2032 60.9952 16.0889 61.1666 16.0889C61.3381 16.0889 61.4524 16.2032 61.4524 16.3746C61.4524 16.5461 61.3381 16.6604 61.1666 16.6604C60.9952 16.6604 60.8809 16.5461 60.8809 16.3746Z" fill="#E9E5D9"/>
<path d="M59.8511 16.3746C59.8511 16.2032 59.9654 16.0889 60.1369 16.0889C60.3083 16.0889 60.4226 16.2032 60.4226 16.3746C60.4226 16.5461 60.3083 16.6604 60.1369 16.6604C59.9654 16.6604 59.8511 16.5461 59.8511 16.3746Z" fill="#E9E5D9"/>
<path d="M58.7644 16.3746C58.7644 16.2032 58.8787 16.0889 59.0502 16.0889C59.2217 16.0889 59.336 16.2032 59.336 16.3746C59.336 16.5461 59.2217 16.6604 59.0502 16.6604C58.8787 16.6604 58.7644 16.5461 58.7644 16.3746Z" fill="#E9E5D9"/>
<path d="M57.7356 16.3746C57.7356 16.2032 57.8499 16.0889 58.0214 16.0889C58.1928 16.0889 58.3072 16.2032 58.3072 16.3746C58.3072 16.5461 58.1928 16.6604 58.0214 16.6604C57.8499 16.6604 57.7356 16.5461 57.7356 16.3746Z" fill="#E9E5D9"/>
<path d="M56.6501 16.3746C56.6501 16.2032 56.7645 16.0889 56.9359 16.0889C57.1074 16.0889 57.2217 16.2032 57.2217 16.3746C57.2217 16.5461 57.1074 16.6604 56.9359 16.6604C56.7645 16.6604 56.6501 16.5461 56.6501 16.3746Z" fill="#E9E5D9"/>
<path d="M55.5647 16.3746C55.5647 16.2032 55.679 16.0889 55.8505 16.0889C56.0219 16.0889 56.1363 16.2032 56.1363 16.3746C56.1363 16.5461 56.0219 16.6604 55.8505 16.6604C55.7362 16.6604 55.5647 16.5461 55.5647 16.3746Z" fill="#E9E5D9"/>
<path d="M54.5356 16.3746C54.5356 16.2032 54.65 16.0889 54.8214 16.0889C54.9929 16.0889 55.1072 16.2032 55.1072 16.3746C55.1072 16.5461 54.9929 16.6604 54.8214 16.6604C54.65 16.6604 54.5356 16.5461 54.5356 16.3746Z" fill="#E9E5D9"/>
<path d="M53.4492 16.3746C53.4492 16.2032 53.5635 16.0889 53.735 16.0889C53.9065 16.0889 54.0208 16.2032 54.0208 16.3746C54.0208 16.5461 53.9065 16.6604 53.735 16.6604C53.5635 16.6604 53.4492 16.5461 53.4492 16.3746Z" fill="#E9E5D9"/>
<path d="M52.4202 16.3746C52.4202 16.2032 52.5345 16.0889 52.7059 16.0889C52.8774 16.0889 52.9917 16.2032 52.9917 16.3746C52.9917 16.5461 52.8774 16.6604 52.7059 16.6604C52.5345 16.6604 52.4202 16.5461 52.4202 16.3746Z" fill="#E9E5D9"/>
<path d="M51.3347 16.3746C51.3347 16.2032 51.449 16.0889 51.6205 16.0889C51.792 16.0889 51.9063 16.2032 51.9063 16.3746C51.9063 16.5461 51.792 16.6604 51.6205 16.6604C51.449 16.6604 51.3347 16.5461 51.3347 16.3746Z" fill="#E9E5D9"/>
<path d="M60.8809 15.3463C60.8809 15.1749 60.9952 15.0605 61.1666 15.0605C61.3381 15.0605 61.4524 15.1749 61.4524 15.3463C61.4524 15.5178 61.3381 15.6321 61.1666 15.6321C60.9952 15.575 60.8809 15.4606 60.8809 15.3463Z" fill="#E9E5D9"/>
<path d="M60.0792 15.6321C60.2371 15.6321 60.365 15.5042 60.365 15.3463C60.365 15.1885 60.2371 15.0605 60.0792 15.0605C59.9214 15.0605 59.7935 15.1885 59.7935 15.3463C59.7935 15.5042 59.9214 15.6321 60.0792 15.6321Z" fill="#E9E5D9"/>
<path d="M59.0502 15.6321C59.208 15.6321 59.336 15.5042 59.336 15.3463C59.336 15.1885 59.208 15.0605 59.0502 15.0605C58.8924 15.0605 58.7644 15.1885 58.7644 15.3463C58.7644 15.5042 58.8924 15.6321 59.0502 15.6321Z" fill="#E9E5D9"/>
<path d="M57.7356 15.3463C57.7356 15.1749 57.8499 15.0605 58.0214 15.0605C58.1928 15.0605 58.3072 15.1749 58.3072 15.3463C58.3072 15.5178 58.1928 15.6321 58.0214 15.6321C57.8499 15.575 57.7356 15.4606 57.7356 15.3463Z" fill="#E9E5D9"/>
<path d="M56.9359 15.6321C57.0938 15.6321 57.2217 15.5042 57.2217 15.3463C57.2217 15.1885 57.0938 15.0605 56.9359 15.0605C56.7781 15.0605 56.6501 15.1885 56.6501 15.3463C56.6501 15.5042 56.7781 15.6321 56.9359 15.6321Z" fill="#E9E5D9"/>
<path d="M55.8505 15.6321C56.0083 15.6321 56.1363 15.5042 56.1363 15.3463C56.1363 15.1885 56.0083 15.0605 55.8505 15.0605C55.6926 15.0605 55.5647 15.1885 55.5647 15.3463C55.5647 15.5042 55.6926 15.6321 55.8505 15.6321Z" fill="#E9E5D9"/>
<path d="M54.5356 15.3463C54.5356 15.1749 54.65 15.0605 54.8214 15.0605C54.9929 15.0605 55.1072 15.1749 55.1072 15.3463C55.1072 15.5178 54.9929 15.6321 54.8214 15.6321C54.65 15.575 54.5356 15.4606 54.5356 15.3463Z" fill="#E9E5D9"/>
<path d="M53.735 15.6321C53.8928 15.6321 54.0208 15.5042 54.0208 15.3463C54.0208 15.1885 53.8928 15.0605 53.735 15.0605C53.5772 15.0605 53.4492 15.1885 53.4492 15.3463C53.4492 15.5042 53.5772 15.6321 53.735 15.6321Z" fill="#E9E5D9"/>
<path d="M52.7059 15.6321C52.8638 15.6321 52.9917 15.5042 52.9917 15.3463C52.9917 15.1885 52.8638 15.0605 52.7059 15.0605C52.5481 15.0605 52.4202 15.1885 52.4202 15.3463C52.4202 15.5042 52.5481 15.6321 52.7059 15.6321Z" fill="#E9E5D9"/>
<path d="M51.3347 15.3463C51.3347 15.1749 51.449 15.0605 51.6205 15.0605C51.792 15.0605 51.9063 15.1749 51.9063 15.3463C51.9063 15.5178 51.792 15.6321 51.6205 15.6321C51.449 15.575 51.3347 15.4606 51.3347 15.3463Z" fill="#E9E5D9"/>
<path d="M60.8809 14.2604C60.8809 14.0889 60.9952 13.9746 61.1666 13.9746C61.3381 13.9746 61.4524 14.0889 61.4524 14.2604C61.4524 14.4319 61.3381 14.5462 61.1666 14.5462C60.9952 14.5462 60.8809 14.4319 60.8809 14.2604Z" fill="#E9E5D9"/>
<path d="M60.0792 14.5462C60.2371 14.5462 60.365 14.4182 60.365 14.2604C60.365 14.1026 60.2371 13.9746 60.0792 13.9746C59.9214 13.9746 59.7935 14.1026 59.7935 14.2604C59.7935 14.4182 59.9214 14.5462 60.0792 14.5462Z" fill="#E9E5D9"/>
<path d="M59.0502 14.5462C59.208 14.5462 59.336 14.4182 59.336 14.2604C59.336 14.1026 59.208 13.9746 59.0502 13.9746C58.8924 13.9746 58.7644 14.1026 58.7644 14.2604C58.7644 14.4182 58.8924 14.5462 59.0502 14.5462Z" fill="#E9E5D9"/>
<path d="M57.7356 14.2604C57.7356 14.0889 57.8499 13.9746 58.0214 13.9746C58.1928 13.9746 58.3072 14.0889 58.3072 14.2604C58.3072 14.4319 58.1928 14.5462 58.0214 14.5462C57.8499 14.5462 57.7356 14.4319 57.7356 14.2604Z" fill="#E9E5D9"/>
<path d="M56.9359 14.5462C57.0938 14.5462 57.2217 14.4182 57.2217 14.2604C57.2217 14.1026 57.0938 13.9746 56.9359 13.9746C56.7781 13.9746 56.6501 14.1026 56.6501 14.2604C56.6501 14.4182 56.7781 14.5462 56.9359 14.5462Z" fill="#E9E5D9"/>
<path d="M55.8505 14.5462C56.0083 14.5462 56.1363 14.4182 56.1363 14.2604C56.1363 14.1026 56.0083 13.9746 55.8505 13.9746C55.6926 13.9746 55.5647 14.1026 55.5647 14.2604C55.5647 14.4182 55.6926 14.5462 55.8505 14.5462Z" fill="#E9E5D9"/>
<path d="M54.5356 14.2604C54.5356 14.0889 54.65 13.9746 54.8214 13.9746C54.9929 13.9746 55.1072 14.0889 55.1072 14.2604C55.1072 14.4319 54.9929 14.5462 54.8214 14.5462C54.65 14.5462 54.5356 14.4319 54.5356 14.2604Z" fill="#E9E5D9"/>
<path d="M53.735 14.5462C53.8928 14.5462 54.0208 14.4182 54.0208 14.2604C54.0208 14.1026 53.8928 13.9746 53.735 13.9746C53.5772 13.9746 53.4492 14.1026 53.4492 14.2604C53.4492 14.4182 53.5772 14.5462 53.735 14.5462Z" fill="#E9E5D9"/>
<path d="M52.7059 14.5462C52.8638 14.5462 52.9917 14.4182 52.9917 14.2604C52.9917 14.1026 52.8638 13.9746 52.7059 13.9746C52.5481 13.9746 52.4202 14.1026 52.4202 14.2604C52.4202 14.4182 52.5481 14.5462 52.7059 14.5462Z" fill="#E9E5D9"/>
<path d="M51.3347 14.2604C51.3347 14.0889 51.449 13.9746 51.6205 13.9746C51.792 13.9746 51.9063 14.0889 51.9063 14.2604C51.9063 14.4319 51.792 14.5462 51.6205 14.5462C51.449 14.5462 51.3347 14.4319 51.3347 14.2604Z" fill="#E9E5D9"/>
<path d="M60.8809 13.2316C60.8809 13.0601 60.9952 12.9458 61.1666 12.9458C61.3381 12.9458 61.4524 13.0601 61.4524 13.2316C61.4524 13.4031 61.3381 13.5174 61.1666 13.5174C60.9952 13.4602 60.8809 13.3459 60.8809 13.2316Z" fill="#E9E5D9"/>
<path d="M60.0792 13.5174C60.2371 13.5174 60.365 13.3894 60.365 13.2316C60.365 13.0737 60.2371 12.9458 60.0792 12.9458C59.9214 12.9458 59.7935 13.0737 59.7935 13.2316C59.7935 13.3894 59.9214 13.5174 60.0792 13.5174Z" fill="#E9E5D9"/>
<path d="M59.0502 13.5174C59.208 13.5174 59.336 13.3894 59.336 13.2316C59.336 13.0737 59.208 12.9458 59.0502 12.9458C58.8924 12.9458 58.7644 13.0737 58.7644 13.2316C58.7644 13.3894 58.8924 13.5174 59.0502 13.5174Z" fill="#E9E5D9"/>
<path d="M57.7356 13.2316C57.7356 13.0601 57.8499 12.9458 58.0214 12.9458C58.1928 12.9458 58.3072 13.0601 58.3072 13.2316C58.3072 13.4031 58.1928 13.5174 58.0214 13.5174C57.8499 13.4602 57.7356 13.3459 57.7356 13.2316Z" fill="#E9E5D9"/>
<path d="M56.9359 13.5174C57.0938 13.5174 57.2217 13.3894 57.2217 13.2316C57.2217 13.0737 57.0938 12.9458 56.9359 12.9458C56.7781 12.9458 56.6501 13.0737 56.6501 13.2316C56.6501 13.3894 56.7781 13.5174 56.9359 13.5174Z" fill="#E9E5D9"/>
<path d="M55.8505 13.5174C56.0083 13.5174 56.1363 13.3894 56.1363 13.2316C56.1363 13.0737 56.0083 12.9458 55.8505 12.9458C55.6926 12.9458 55.5647 13.0737 55.5647 13.2316C55.5647 13.3894 55.6926 13.5174 55.8505 13.5174Z" fill="#E9E5D9"/>
<path d="M54.5356 13.2316C54.5356 13.0601 54.65 12.9458 54.8214 12.9458C54.9929 12.9458 55.1072 13.0601 55.1072 13.2316C55.1072 13.4031 54.9929 13.5174 54.8214 13.5174C54.65 13.4602 54.5356 13.3459 54.5356 13.2316Z" fill="#E9E5D9"/>
<path d="M53.735 13.5174C53.8928 13.5174 54.0208 13.3894 54.0208 13.2316C54.0208 13.0737 53.8928 12.9458 53.735 12.9458C53.5772 12.9458 53.4492 13.0737 53.4492 13.2316C53.4492 13.3894 53.5772 13.5174 53.735 13.5174Z" fill="#E9E5D9"/>
<path d="M52.7059 13.5174C52.8638 13.5174 52.9917 13.3894 52.9917 13.2316C52.9917 13.0737 52.8638 12.9458 52.7059 12.9458C52.5481 12.9458 52.4202 13.0737 52.4202 13.2316C52.4202 13.3894 52.5481 13.5174 52.7059 13.5174Z" fill="#E9E5D9"/>
<path d="M51.3347 13.2316C51.3347 13.0601 51.449 12.9458 51.6205 12.9458C51.792 12.9458 51.9063 13.0601 51.9063 13.2316C51.9063 13.4031 51.792 13.5174 51.6205 13.5174C51.449 13.4602 51.3347 13.3459 51.3347 13.2316Z" fill="#E9E5D9"/>
<path d="M60.8809 12.1456C60.8809 11.9742 60.9952 11.8599 61.1666 11.8599C61.3381 11.8599 61.4524 11.9742 61.4524 12.1456C61.4524 12.3171 61.3381 12.4314 61.1666 12.4314C60.9952 12.4314 60.8809 12.3171 60.8809 12.1456Z" fill="#E9E5D9"/>
<path d="M60.0792 12.4314C60.2371 12.4314 60.365 12.3035 60.365 12.1456C60.365 11.9878 60.2371 11.8599 60.0792 11.8599C59.9214 11.8599 59.7935 11.9878 59.7935 12.1456C59.7935 12.3035 59.9214 12.4314 60.0792 12.4314Z" fill="#E9E5D9"/>
<path d="M59.0502 12.4314C59.208 12.4314 59.336 12.3035 59.336 12.1456C59.336 11.9878 59.208 11.8599 59.0502 11.8599C58.8924 11.8599 58.7644 11.9878 58.7644 12.1456C58.7644 12.3035 58.8924 12.4314 59.0502 12.4314Z" fill="#E9E5D9"/>
<path d="M57.7356 12.1456C57.7356 11.9742 57.8499 11.8599 58.0214 11.8599C58.1928 11.8599 58.3072 11.9742 58.3072 12.1456C58.3072 12.3171 58.1928 12.4314 58.0214 12.4314C57.8499 12.4314 57.7356 12.3171 57.7356 12.1456Z" fill="#E9E5D9"/>
<path d="M56.9359 12.4314C57.0938 12.4314 57.2217 12.3035 57.2217 12.1456C57.2217 11.9878 57.0938 11.8599 56.9359 11.8599C56.7781 11.8599 56.6501 11.9878 56.6501 12.1456C56.6501 12.3035 56.7781 12.4314 56.9359 12.4314Z" fill="#E9E5D9"/>
<path d="M55.8505 12.4314C56.0083 12.4314 56.1363 12.3035 56.1363 12.1456C56.1363 11.9878 56.0083 11.8599 55.8505 11.8599C55.6926 11.8599 55.5647 11.9878 55.5647 12.1456C55.5647 12.3035 55.6926 12.4314 55.8505 12.4314Z" fill="#E9E5D9"/>
<path d="M54.5356 12.1456C54.5356 11.9742 54.65 11.8599 54.8214 11.8599C54.9929 11.8599 55.1072 11.9742 55.1072 12.1456C55.1072 12.3171 54.9929 12.4314 54.8214 12.4314C54.65 12.4314 54.5356 12.3171 54.5356 12.1456Z" fill="#E9E5D9"/>
<path d="M53.735 12.4314C53.8928 12.4314 54.0208 12.3035 54.0208 12.1456C54.0208 11.9878 53.8928 11.8599 53.735 11.8599C53.5772 11.8599 53.4492 11.9878 53.4492 12.1456C53.4492 12.3035 53.5772 12.4314 53.735 12.4314Z" fill="#E9E5D9"/>
<path d="M52.7059 12.4314C52.8638 12.4314 52.9917 12.3035 52.9917 12.1456C52.9917 11.9878 52.8638 11.8599 52.7059 11.8599C52.5481 11.8599 52.4202 11.9878 52.4202 12.1456C52.4202 12.3035 52.5481 12.4314 52.7059 12.4314Z" fill="#E9E5D9"/>
<path d="M51.3347 12.1456C51.3347 11.9742 51.449 11.8599 51.6205 11.8599C51.792 11.8599 51.9063 11.9742 51.9063 12.1456C51.9063 12.3171 51.792 12.4314 51.6205 12.4314C51.449 12.4314 51.3347 12.3171 51.3347 12.1456Z" fill="#E9E5D9"/>
<path d="M60.8809 11.1173C60.8809 10.9459 60.9952 10.8315 61.1666 10.8315C61.3381 10.8315 61.4524 10.9459 61.4524 11.1173C61.4524 11.2888 61.3381 11.4031 61.1666 11.4031C60.9952 11.346 60.8809 11.2316 60.8809 11.1173Z" fill="#E9E5D9"/>
<path d="M59.8511 11.1173C59.8511 10.9459 59.9654 10.8315 60.1369 10.8315C60.3083 10.8315 60.4226 10.9459 60.4226 11.1173C60.4226 11.2888 60.3083 11.4031 60.1369 11.4031C59.9654 11.346 59.8511 11.2316 59.8511 11.1173Z" fill="#E9E5D9"/>
<path d="M58.7644 11.1173C58.7644 10.9459 58.8787 10.8315 59.0502 10.8315C59.2217 10.8315 59.336 10.9459 59.336 11.1173C59.336 11.2888 59.2217 11.4031 59.0502 11.4031C58.8787 11.346 58.7644 11.2316 58.7644 11.1173Z" fill="#E9E5D9"/>
<path d="M57.7356 11.1173C57.7356 10.9459 57.8499 10.8315 58.0214 10.8315C58.1928 10.8315 58.3072 10.9459 58.3072 11.1173C58.3072 11.2888 58.1928 11.4031 58.0214 11.4031C57.8499 11.346 57.7356 11.2316 57.7356 11.1173Z" fill="#E9E5D9"/>
<path d="M56.6501 11.1173C56.6501 10.9459 56.7645 10.8315 56.9359 10.8315C57.1074 10.8315 57.2217 10.9459 57.2217 11.1173C57.2217 11.2888 57.1074 11.4031 56.9359 11.4031C56.7645 11.346 56.6501 11.2316 56.6501 11.1173Z" fill="#E9E5D9"/>
<path d="M55.5647 11.1173C55.5647 10.9459 55.679 10.8315 55.8505 10.8315C56.0219 10.8315 56.1363 10.9459 56.1363 11.1173C56.1363 11.2888 56.0219 11.4031 55.8505 11.4031C55.7362 11.346 55.5647 11.2316 55.5647 11.1173Z" fill="#E9E5D9"/>
<path d="M54.5356 11.1173C54.5356 10.9459 54.65 10.8315 54.8214 10.8315C54.9929 10.8315 55.1072 10.9459 55.1072 11.1173C55.1072 11.2888 54.9929 11.4031 54.8214 11.4031C54.65 11.346 54.5356 11.2316 54.5356 11.1173Z" fill="#E9E5D9"/>
<path d="M53.4492 11.1173C53.4492 10.9459 53.5635 10.8315 53.735 10.8315C53.9065 10.8315 54.0208 10.9459 54.0208 11.1173C54.0208 11.2888 53.9065 11.4031 53.735 11.4031C53.5635 11.4031 53.4492 11.2316 53.4492 11.1173Z" fill="#E9E5D9"/>
<path d="M52.4202 11.1173C52.4202 10.9459 52.5345 10.8315 52.7059 10.8315C52.8774 10.8315 52.9917 10.9459 52.9917 11.1173C52.9917 11.2888 52.8774 11.4031 52.7059 11.4031C52.5345 11.346 52.4202 11.2316 52.4202 11.1173Z" fill="#E9E5D9"/>
<path d="M51.3347 11.1173C51.3347 10.9459 51.449 10.8315 51.6205 10.8315C51.792 10.8315 51.9063 10.9459 51.9063 11.1173C51.9063 11.2888 51.792 11.4031 51.6205 11.4031C51.449 11.346 51.3347 11.2316 51.3347 11.1173Z" fill="#E9E5D9"/>
<path d="M60.8809 10.0304C60.8809 9.85894 60.9952 9.74463 61.1666 9.74463C61.3381 9.74463 61.4524 9.85894 61.4524 10.0304C61.4524 10.2019 61.3381 10.3162 61.1666 10.3162C60.9952 10.3162 60.8809 10.2019 60.8809 10.0304Z" fill="#E9E5D9"/>
<path d="M60.0792 10.3162C60.2371 10.3162 60.365 10.1882 60.365 10.0304C60.365 9.87258 60.2371 9.74463 60.0792 9.74463C59.9214 9.74463 59.7935 9.87258 59.7935 10.0304C59.7935 10.1882 59.9214 10.3162 60.0792 10.3162Z" fill="#E9E5D9"/>
<path d="M59.0502 10.3162C59.208 10.3162 59.336 10.1882 59.336 10.0304C59.336 9.87258 59.208 9.74463 59.0502 9.74463C58.8924 9.74463 58.7644 9.87258 58.7644 10.0304C58.7644 10.1882 58.8924 10.3162 59.0502 10.3162Z" fill="#E9E5D9"/>
<path d="M57.7356 10.0304C57.7356 9.85894 57.8499 9.74463 58.0214 9.74463C58.1928 9.74463 58.3072 9.85894 58.3072 10.0304C58.3072 10.2019 58.1928 10.3162 58.0214 10.3162C57.8499 10.3162 57.7356 10.2019 57.7356 10.0304Z" fill="#E9E5D9"/>
<path d="M56.9359 10.3162C57.0938 10.3162 57.2217 10.1882 57.2217 10.0304C57.2217 9.87258 57.0938 9.74463 56.9359 9.74463C56.7781 9.74463 56.6501 9.87258 56.6501 10.0304C56.6501 10.1882 56.7781 10.3162 56.9359 10.3162Z" fill="#E9E5D9"/>
<path d="M55.8505 10.3162C56.0083 10.3162 56.1363 10.1882 56.1363 10.0304C56.1363 9.87258 56.0083 9.74463 55.8505 9.74463C55.6926 9.74463 55.5647 9.87258 55.5647 10.0304C55.5647 10.1882 55.6926 10.3162 55.8505 10.3162Z" fill="#E9E5D9"/>
<path d="M54.5356 10.0304C54.5356 9.85894 54.65 9.74463 54.8214 9.74463C54.9929 9.74463 55.1072 9.85894 55.1072 10.0304C55.1072 10.2019 54.9929 10.3162 54.8214 10.3162C54.65 10.3162 54.5356 10.2019 54.5356 10.0304Z" fill="#E9E5D9"/>
<path d="M53.735 10.3162C53.8928 10.3162 54.0208 10.1882 54.0208 10.0304C54.0208 9.87258 53.8928 9.74463 53.735 9.74463C53.5772 9.74463 53.4492 9.87258 53.4492 10.0304C53.4492 10.1882 53.5772 10.3162 53.735 10.3162Z" fill="#E9E5D9"/>
<path d="M52.7059 10.3162C52.8638 10.3162 52.9917 10.1882 52.9917 10.0304C52.9917 9.87258 52.8638 9.74463 52.7059 9.74463C52.5481 9.74463 52.4202 9.87258 52.4202 10.0304C52.4202 10.1882 52.5481 10.3162 52.7059 10.3162Z" fill="#E9E5D9"/>
<path d="M51.3347 10.0304C51.3347 9.85894 51.449 9.74463 51.6205 9.74463C51.792 9.74463 51.9063 9.85894 51.9063 10.0304C51.9063 10.2019 51.792 10.3162 51.6205 10.3162C51.449 10.3162 51.3347 10.2019 51.3347 10.0304Z" fill="#E9E5D9"/>
<path d="M60.8809 9.00209C60.8809 8.83062 60.9952 8.71631 61.1666 8.71631C61.3381 8.71631 61.4524 8.83062 61.4524 9.00209C61.4524 9.17356 61.3381 9.28787 61.1666 9.28787C60.9952 9.23072 60.8809 9.1164 60.8809 9.00209Z" fill="#E9E5D9"/>
<path d="M60.0792 9.28787C60.2371 9.28787 60.365 9.15992 60.365 9.00209C60.365 8.84426 60.2371 8.71631 60.0792 8.71631C59.9214 8.71631 59.7935 8.84426 59.7935 9.00209C59.7935 9.15992 59.9214 9.28787 60.0792 9.28787Z" fill="#E9E5D9"/>
<path d="M59.0502 9.28787C59.208 9.28787 59.336 9.15992 59.336 9.00209C59.336 8.84426 59.208 8.71631 59.0502 8.71631C58.8924 8.71631 58.7644 8.84426 58.7644 9.00209C58.7644 9.15992 58.8924 9.28787 59.0502 9.28787Z" fill="#E9E5D9"/>
<path d="M57.7356 9.00209C57.7356 8.83062 57.8499 8.71631 58.0214 8.71631C58.1928 8.71631 58.3072 8.83062 58.3072 9.00209C58.3072 9.17356 58.1928 9.28787 58.0214 9.28787C57.8499 9.23072 57.7356 9.1164 57.7356 9.00209Z" fill="#E9E5D9"/>
<path d="M56.9359 9.28787C57.0938 9.28787 57.2217 9.15992 57.2217 9.00209C57.2217 8.84426 57.0938 8.71631 56.9359 8.71631C56.7781 8.71631 56.6501 8.84426 56.6501 9.00209C56.6501 9.15992 56.7781 9.28787 56.9359 9.28787Z" fill="#E9E5D9"/>
<path d="M55.8505 9.28787C56.0083 9.28787 56.1363 9.15992 56.1363 9.00209C56.1363 8.84426 56.0083 8.71631 55.8505 8.71631C55.6926 8.71631 55.5647 8.84426 55.5647 9.00209C55.5647 9.15992 55.6926 9.28787 55.8505 9.28787Z" fill="#E9E5D9"/>
<path d="M54.5356 9.00209C54.5356 8.83062 54.65 8.71631 54.8214 8.71631C54.9929 8.71631 55.1072 8.83062 55.1072 9.00209C55.1072 9.17356 54.9929 9.28787 54.8214 9.28787C54.65 9.23072 54.5356 9.1164 54.5356 9.00209Z" fill="#E9E5D9"/>
<path d="M53.735 9.28787C53.8928 9.28787 54.0208 9.15992 54.0208 9.00209C54.0208 8.84426 53.8928 8.71631 53.735 8.71631C53.5772 8.71631 53.4492 8.84426 53.4492 9.00209C53.4492 9.15992 53.5772 9.28787 53.735 9.28787Z" fill="#E9E5D9"/>
<path d="M52.7059 9.28787C52.8638 9.28787 52.9917 9.15992 52.9917 9.00209C52.9917 8.84426 52.8638 8.71631 52.7059 8.71631C52.5481 8.71631 52.4202 8.84426 52.4202 9.00209C52.4202 9.15992 52.5481 9.28787 52.7059 9.28787Z" fill="#E9E5D9"/>
<path d="M51.3347 9.00209C51.3347 8.83062 51.449 8.71631 51.6205 8.71631C51.792 8.71631 51.9063 8.83062 51.9063 9.00209C51.9063 9.17356 51.792 9.28787 51.6205 9.28787C51.449 9.23072 51.3347 9.1164 51.3347 9.00209Z" fill="#E9E5D9"/>
<path d="M60.8809 7.91615C60.8809 7.74468 60.9952 7.63037 61.1666 7.63037C61.3381 7.63037 61.4524 7.74468 61.4524 7.91615C61.4524 8.08762 61.3381 8.20193 61.1666 8.20193C60.9952 8.20193 60.8809 8.08762 60.8809 7.91615Z" fill="#E9E5D9"/>
<path d="M59.8511 7.91615C59.8511 7.74468 59.9654 7.63037 60.1369 7.63037C60.3083 7.63037 60.4226 7.74468 60.4226 7.91615C60.4226 8.08762 60.3083 8.20193 60.1369 8.20193C59.9654 8.20193 59.8511 8.08762 59.8511 7.91615Z" fill="#E9E5D9"/>
<path d="M58.7644 7.91615C58.7644 7.74468 58.8787 7.63037 59.0502 7.63037C59.2217 7.63037 59.336 7.74468 59.336 7.91615C59.336 8.08762 59.2217 8.20193 59.0502 8.20193C58.8787 8.20193 58.7644 8.08762 58.7644 7.91615Z" fill="#E9E5D9"/>
<path d="M57.7356 7.91615C57.7356 7.74468 57.8499 7.63037 58.0214 7.63037C58.1928 7.63037 58.3072 7.74468 58.3072 7.91615C58.3072 8.08762 58.1928 8.20193 58.0214 8.20193C57.8499 8.20193 57.7356 8.08762 57.7356 7.91615Z" fill="#E9E5D9"/>
<path d="M56.6501 7.91615C56.6501 7.74468 56.7645 7.63037 56.9359 7.63037C57.1074 7.63037 57.2217 7.74468 57.2217 7.91615C57.2217 8.08762 57.1074 8.20193 56.9359 8.20193C56.7645 8.20193 56.6501 8.08762 56.6501 7.91615Z" fill="#E9E5D9"/>
<path d="M55.5647 7.91615C55.5647 7.74468 55.679 7.63037 55.8505 7.63037C56.0219 7.63037 56.1363 7.74468 56.1363 7.91615C56.1363 8.08762 56.0219 8.20193 55.8505 8.20193C55.7362 8.20193 55.5647 8.08762 55.5647 7.91615Z" fill="#E9E5D9"/>
<path d="M54.5356 7.91615C54.5356 7.74468 54.65 7.63037 54.8214 7.63037C54.9929 7.63037 55.1072 7.74468 55.1072 7.91615C55.1072 8.08762 54.9929 8.20193 54.8214 8.20193C54.65 8.20193 54.5356 8.08762 54.5356 7.91615Z" fill="#E9E5D9"/>
<path d="M53.4492 7.91615C53.4492 7.74468 53.5635 7.63037 53.735 7.63037C53.9065 7.63037 54.0208 7.74468 54.0208 7.91615C54.0208 8.08762 53.9065 8.20193 53.735 8.20193C53.5635 8.20193 53.4492 8.08762 53.4492 7.91615Z" fill="#E9E5D9"/>
<path d="M52.4202 7.91615C52.4202 7.74468 52.5345 7.63037 52.7059 7.63037C52.8774 7.63037 52.9917 7.74468 52.9917 7.91615C52.9917 8.08762 52.8774 8.20193 52.7059 8.20193C52.5345 8.20193 52.4202 8.08762 52.4202 7.91615Z" fill="#E9E5D9"/>
<path d="M51.3347 7.91615C51.3347 7.74468 51.449 7.63037 51.6205 7.63037C51.792 7.63037 51.9063 7.74468 51.9063 7.91615C51.9063 8.08762 51.792 8.20193 51.6205 8.20193C51.449 8.20193 51.3347 8.08762 51.3347 7.91615Z" fill="#E9E5D9"/>
<path d="M60.8809 6.88686C60.8809 6.71539 60.9952 6.60107 61.1666 6.60107C61.3381 6.60107 61.4524 6.71539 61.4524 6.88686C61.4524 7.05833 61.3381 7.17264 61.1666 7.17264C60.9952 7.11548 60.8809 7.00117 60.8809 6.88686Z" fill="#E9E5D9"/>
<path d="M60.0792 7.17264C60.2371 7.17264 60.365 7.04469 60.365 6.88686C60.365 6.72902 60.2371 6.60107 60.0792 6.60107C59.9214 6.60107 59.7935 6.72902 59.7935 6.88686C59.7935 7.04469 59.9214 7.17264 60.0792 7.17264Z" fill="#E9E5D9"/>
<path d="M59.0502 7.17264C59.208 7.17264 59.336 7.04469 59.336 6.88686C59.336 6.72902 59.208 6.60107 59.0502 6.60107C58.8924 6.60107 58.7644 6.72902 58.7644 6.88686C58.7644 7.04469 58.8924 7.17264 59.0502 7.17264Z" fill="#E9E5D9"/>
<path d="M57.7356 6.88686C57.7356 6.71539 57.8499 6.60107 58.0214 6.60107C58.1928 6.60107 58.3072 6.71539 58.3072 6.88686C58.3072 7.05833 58.1928 7.17264 58.0214 7.17264C57.8499 7.11548 57.7356 7.00117 57.7356 6.88686Z" fill="#E9E5D9"/>
<path d="M56.9359 7.17264C57.0938 7.17264 57.2217 7.04469 57.2217 6.88686C57.2217 6.72902 57.0938 6.60107 56.9359 6.60107C56.7781 6.60107 56.6501 6.72902 56.6501 6.88686C56.6501 7.04469 56.7781 7.17264 56.9359 7.17264Z" fill="#E9E5D9"/>
<path d="M55.8505 7.17264C56.0083 7.17264 56.1363 7.04469 56.1363 6.88686C56.1363 6.72902 56.0083 6.60107 55.8505 6.60107C55.6926 6.60107 55.5647 6.72902 55.5647 6.88686C55.5647 7.04469 55.6926 7.17264 55.8505 7.17264Z" fill="#E9E5D9"/>
<path d="M54.5356 6.88686C54.5356 6.71539 54.65 6.60107 54.8214 6.60107C54.9929 6.60107 55.1072 6.71539 55.1072 6.88686C55.1072 7.05833 54.9929 7.17264 54.8214 7.17264C54.65 7.11548 54.5356 7.00117 54.5356 6.88686Z" fill="#E9E5D9"/>
<path d="M53.735 7.17264C53.8928 7.17264 54.0208 7.04469 54.0208 6.88686C54.0208 6.72902 53.8928 6.60107 53.735 6.60107C53.5772 6.60107 53.4492 6.72902 53.4492 6.88686C53.4492 7.04469 53.5772 7.17264 53.735 7.17264Z" fill="#E9E5D9"/>
<path d="M52.7059 7.17264C52.8638 7.17264 52.9917 7.04469 52.9917 6.88686C52.9917 6.72902 52.8638 6.60107 52.7059 6.60107C52.5481 6.60107 52.4202 6.72902 52.4202 6.88686C52.4202 7.04469 52.5481 7.17264 52.7059 7.17264Z" fill="#E9E5D9"/>
<path d="M51.3347 6.88686C51.3347 6.71539 51.449 6.60107 51.6205 6.60107C51.792 6.60107 51.9063 6.71539 51.9063 6.88686C51.9063 7.05833 51.792 7.17264 51.6205 7.17264C51.449 7.11548 51.3347 7.00117 51.3347 6.88686Z" fill="#E9E5D9"/>
<path d="M87.1241 17.1572H98.2124V6.0689L87.1241 6.0689V17.1572Z" fill="#F9F8F7"/>
<path d="M97.1174 16.3746C97.1174 16.2032 97.2317 16.0889 97.4032 16.0889C97.5747 16.0889 97.689 16.2032 97.689 16.3746C97.689 16.5461 97.5747 16.6604 97.4032 16.6604C97.2317 16.6604 97.1174 16.5461 97.1174 16.3746Z" fill="#E9E5D9"/>
<path d="M96.0874 16.3746C96.0874 16.2032 96.2017 16.0889 96.3732 16.0889C96.5447 16.0889 96.659 16.2032 96.659 16.3746C96.659 16.5461 96.5447 16.6604 96.3732 16.6604C96.2017 16.6604 96.0874 16.5461 96.0874 16.3746Z" fill="#E9E5D9"/>
<path d="M95.0029 16.3746C95.0029 16.2032 95.1172 16.0889 95.2887 16.0889C95.4602 16.0889 95.5745 16.2032 95.5745 16.3746C95.5745 16.5461 95.4602 16.6604 95.2887 16.6604C95.1172 16.6604 95.0029 16.5461 95.0029 16.3746Z" fill="#E9E5D9"/>
<path d="M93.9731 16.3746C93.9731 16.2032 94.0875 16.0889 94.2589 16.0889C94.4304 16.0889 94.5447 16.2032 94.5447 16.3746C94.5447 16.5461 94.4304 16.6604 94.2589 16.6604C94.0875 16.6604 93.9731 16.5461 93.9731 16.3746Z" fill="#E9E5D9"/>
<path d="M92.8877 16.3746C92.8877 16.2032 93.002 16.0889 93.1735 16.0889C93.3449 16.0889 93.4593 16.2032 93.4593 16.3746C93.4593 16.5461 93.3449 16.6604 93.1735 16.6604C93.002 16.6604 92.8877 16.5461 92.8877 16.3746Z" fill="#E9E5D9"/>
<path d="M91.8586 16.3746C91.8586 16.2032 91.973 16.0889 92.1444 16.0889C92.3159 16.0889 92.4302 16.2032 92.4302 16.3746C92.4302 16.5461 92.3159 16.6604 92.1444 16.6604C91.973 16.6604 91.8586 16.5461 91.8586 16.3746Z" fill="#E9E5D9"/>
<path d="M90.7722 16.3746C90.7722 16.2032 90.8865 16.0889 91.058 16.0889C91.2295 16.0889 91.3438 16.2032 91.3438 16.3746C91.3438 16.5461 91.2295 16.6604 91.058 16.6604C90.8865 16.6604 90.7722 16.5461 90.7722 16.3746Z" fill="#E9E5D9"/>
<path d="M89.7444 16.3746C89.7444 16.2032 89.8587 16.0889 90.0302 16.0889C90.2016 16.0889 90.3159 16.2032 90.3159 16.3746C90.3159 16.5461 90.2016 16.6604 90.0302 16.6604C89.8587 16.6604 89.7444 16.5461 89.7444 16.3746Z" fill="#E9E5D9"/>
<path d="M88.6577 16.3746C88.6577 16.2032 88.772 16.0889 88.9435 16.0889C89.115 16.0889 89.2293 16.2032 89.2293 16.3746C89.2293 16.5461 89.115 16.6604 88.9435 16.6604C88.772 16.6604 88.6577 16.5461 88.6577 16.3746Z" fill="#E9E5D9"/>
<path d="M87.6289 16.3746C87.6289 16.2032 87.7432 16.0889 87.9147 16.0889C88.0862 16.0889 88.2005 16.2032 88.2005 16.3746C88.2005 16.5461 88.0862 16.6604 87.9147 16.6604C87.7432 16.6604 87.6289 16.5461 87.6289 16.3746Z" fill="#E9E5D9"/>
<path d="M97.4032 15.6321C97.561 15.6321 97.689 15.5042 97.689 15.3463C97.689 15.1885 97.561 15.0605 97.4032 15.0605C97.2454 15.0605 97.1174 15.1885 97.1174 15.3463C97.1174 15.5042 97.2454 15.6321 97.4032 15.6321Z" fill="#E9E5D9"/>
<path d="M96.0874 15.3463C96.0874 15.1749 96.2017 15.0605 96.3732 15.0605C96.5447 15.0605 96.659 15.1749 96.659 15.3463C96.659 15.5178 96.5447 15.6321 96.3732 15.6321C96.2017 15.575 96.0874 15.4606 96.0874 15.3463Z" fill="#E9E5D9"/>
<path d="M95.2887 15.6321C95.4465 15.6321 95.5745 15.5042 95.5745 15.3463C95.5745 15.1885 95.4465 15.0605 95.2887 15.0605C95.1309 15.0605 95.0029 15.1885 95.0029 15.3463C95.0029 15.5042 95.1309 15.6321 95.2887 15.6321Z" fill="#E9E5D9"/>
<path d="M94.2033 15.6321C94.3611 15.6321 94.489 15.5042 94.489 15.3463C94.489 15.1885 94.3611 15.0605 94.2033 15.0605C94.0454 15.0605 93.9175 15.1885 93.9175 15.3463C93.9175 15.5042 94.0454 15.6321 94.2033 15.6321Z" fill="#E9E5D9"/>
<path d="M92.8877 15.3463C92.8877 15.1749 93.002 15.0605 93.1735 15.0605C93.3449 15.0605 93.4593 15.1749 93.4593 15.3463C93.4593 15.5178 93.3449 15.6321 93.1735 15.6321C93.002 15.575 92.8877 15.4606 92.8877 15.3463Z" fill="#E9E5D9"/>
<path d="M92.0868 15.6321C92.2446 15.6321 92.3726 15.5042 92.3726 15.3463C92.3726 15.1885 92.2446 15.0605 92.0868 15.0605C91.929 15.0605 91.801 15.1885 91.801 15.3463C91.801 15.5042 91.929 15.6321 92.0868 15.6321Z" fill="#E9E5D9"/>
<path d="M90.7722 15.3463C90.7722 15.1749 90.8865 15.0605 91.058 15.0605C91.2295 15.0605 91.3438 15.1749 91.3438 15.3463C91.3438 15.5178 91.2295 15.6321 91.058 15.6321C90.8865 15.575 90.7722 15.4606 90.7722 15.3463Z" fill="#E9E5D9"/>
<path d="M89.7444 15.3463C89.7444 15.1749 89.8587 15.0605 90.0302 15.0605C90.2016 15.0605 90.3159 15.1749 90.3159 15.3463C90.3159 15.5178 90.2016 15.6321 90.0302 15.6321C89.8587 15.575 89.7444 15.4606 89.7444 15.3463Z" fill="#E9E5D9"/>
<path d="M88.9435 15.6321C89.1013 15.6321 89.2293 15.5042 89.2293 15.3463C89.2293 15.1885 89.1013 15.0605 88.9435 15.0605C88.7857 15.0605 88.6577 15.1885 88.6577 15.3463C88.6577 15.5042 88.7857 15.6321 88.9435 15.6321Z" fill="#E9E5D9"/>
<path d="M87.6289 15.3463C87.6289 15.1749 87.7432 15.0605 87.9147 15.0605C88.0862 15.0605 88.2005 15.1749 88.2005 15.3463C88.2005 15.5178 88.0862 15.6321 87.9147 15.6321C87.7432 15.575 87.6289 15.4606 87.6289 15.3463Z" fill="#E9E5D9"/>
<path d="M97.4032 14.5462C97.561 14.5462 97.689 14.4182 97.689 14.2604C97.689 14.1026 97.561 13.9746 97.4032 13.9746C97.2454 13.9746 97.1174 14.1026 97.1174 14.2604C97.1174 14.4182 97.2454 14.5462 97.4032 14.5462Z" fill="#E9E5D9"/>
<path d="M96.0874 14.2604C96.0874 14.0889 96.2017 13.9746 96.3732 13.9746C96.5447 13.9746 96.659 14.0889 96.659 14.2604C96.659 14.4319 96.5447 14.5462 96.3732 14.5462C96.2017 14.5462 96.0874 14.4319 96.0874 14.2604Z" fill="#E9E5D9"/>
<path d="M95.2887 14.5462C95.4465 14.5462 95.5745 14.4182 95.5745 14.2604C95.5745 14.1026 95.4465 13.9746 95.2887 13.9746C95.1309 13.9746 95.0029 14.1026 95.0029 14.2604C95.0029 14.4182 95.1309 14.5462 95.2887 14.5462Z" fill="#E9E5D9"/>
<path d="M94.2033 14.5462C94.3611 14.5462 94.489 14.4182 94.489 14.2604C94.489 14.1026 94.3611 13.9746 94.2033 13.9746C94.0454 13.9746 93.9175 14.1026 93.9175 14.2604C93.9175 14.4182 94.0454 14.5462 94.2033 14.5462Z" fill="#E9E5D9"/>
<path d="M92.8877 14.2604C92.8877 14.0889 93.002 13.9746 93.1735 13.9746C93.3449 13.9746 93.4593 14.0889 93.4593 14.2604C93.4593 14.4319 93.3449 14.5462 93.1735 14.5462C93.002 14.5462 92.8877 14.4319 92.8877 14.2604Z" fill="#E9E5D9"/>
<path d="M92.0868 14.5462C92.2446 14.5462 92.3726 14.4182 92.3726 14.2604C92.3726 14.1026 92.2446 13.9746 92.0868 13.9746C91.929 13.9746 91.801 14.1026 91.801 14.2604C91.801 14.4182 91.929 14.5462 92.0868 14.5462Z" fill="#E9E5D9"/>
<path d="M90.7722 14.2604C90.7722 14.0889 90.8865 13.9746 91.058 13.9746C91.2295 13.9746 91.3438 14.0889 91.3438 14.2604C91.3438 14.4319 91.2295 14.5462 91.058 14.5462C90.8865 14.5462 90.7722 14.4319 90.7722 14.2604Z" fill="#E9E5D9"/>
<path d="M89.7444 14.2604C89.7444 14.0889 89.8587 13.9746 90.0302 13.9746C90.2016 13.9746 90.3159 14.0889 90.3159 14.2604C90.3159 14.4319 90.2016 14.5462 90.0302 14.5462C89.8587 14.5462 89.7444 14.4319 89.7444 14.2604Z" fill="#E9E5D9"/>
<path d="M88.9435 14.5462C89.1013 14.5462 89.2293 14.4182 89.2293 14.2604C89.2293 14.1026 89.1013 13.9746 88.9435 13.9746C88.7857 13.9746 88.6577 14.1026 88.6577 14.2604C88.6577 14.4182 88.7857 14.5462 88.9435 14.5462Z" fill="#E9E5D9"/>
<path d="M87.6289 14.2604C87.6289 14.0889 87.7432 13.9746 87.9147 13.9746C88.0862 13.9746 88.2005 14.0889 88.2005 14.2604C88.2005 14.4319 88.0862 14.5462 87.9147 14.5462C87.7432 14.5462 87.6289 14.4319 87.6289 14.2604Z" fill="#E9E5D9"/>
<path d="M97.4032 13.5174C97.561 13.5174 97.689 13.3894 97.689 13.2316C97.689 13.0737 97.561 12.9458 97.4032 12.9458C97.2454 12.9458 97.1174 13.0737 97.1174 13.2316C97.1174 13.3894 97.2454 13.5174 97.4032 13.5174Z" fill="#E9E5D9"/>
<path d="M96.0874 13.2316C96.0874 13.0601 96.2017 12.9458 96.3732 12.9458C96.5447 12.9458 96.659 13.0601 96.659 13.2316C96.659 13.4031 96.5447 13.5174 96.3732 13.5174C96.2017 13.4602 96.0874 13.3459 96.0874 13.2316Z" fill="#E9E5D9"/>
<path d="M95.2887 13.5174C95.4465 13.5174 95.5745 13.3894 95.5745 13.2316C95.5745 13.0737 95.4465 12.9458 95.2887 12.9458C95.1309 12.9458 95.0029 13.0737 95.0029 13.2316C95.0029 13.3894 95.1309 13.5174 95.2887 13.5174Z" fill="#E9E5D9"/>
<path d="M94.2033 13.5174C94.3611 13.5174 94.489 13.3894 94.489 13.2316C94.489 13.0737 94.3611 12.9458 94.2033 12.9458C94.0454 12.9458 93.9175 13.0737 93.9175 13.2316C93.9175 13.3894 94.0454 13.5174 94.2033 13.5174Z" fill="#E9E5D9"/>
<path d="M92.8877 13.2316C92.8877 13.0601 93.002 12.9458 93.1735 12.9458C93.3449 12.9458 93.4593 13.0601 93.4593 13.2316C93.4593 13.4031 93.3449 13.5174 93.1735 13.5174C93.002 13.4602 92.8877 13.3459 92.8877 13.2316Z" fill="#E9E5D9"/>
<path d="M92.0868 13.5174C92.2446 13.5174 92.3726 13.3894 92.3726 13.2316C92.3726 13.0737 92.2446 12.9458 92.0868 12.9458C91.929 12.9458 91.801 13.0737 91.801 13.2316C91.801 13.3894 91.929 13.5174 92.0868 13.5174Z" fill="#E9E5D9"/>
<path d="M90.7722 13.2316C90.7722 13.0601 90.8865 12.9458 91.058 12.9458C91.2295 12.9458 91.3438 13.0601 91.3438 13.2316C91.3438 13.4031 91.2295 13.5174 91.058 13.5174C90.8865 13.4602 90.7722 13.3459 90.7722 13.2316Z" fill="#E9E5D9"/>
<path d="M89.7444 13.2316C89.7444 13.0601 89.8587 12.9458 90.0302 12.9458C90.2016 12.9458 90.3159 13.0601 90.3159 13.2316C90.3159 13.4031 90.2016 13.5174 90.0302 13.5174C89.8587 13.4602 89.7444 13.3459 89.7444 13.2316Z" fill="#E9E5D9"/>
<path d="M88.9435 13.5174C89.1013 13.5174 89.2293 13.3894 89.2293 13.2316C89.2293 13.0737 89.1013 12.9458 88.9435 12.9458C88.7857 12.9458 88.6577 13.0737 88.6577 13.2316C88.6577 13.3894 88.7857 13.5174 88.9435 13.5174Z" fill="#E9E5D9"/>
<path d="M87.6289 13.2316C87.6289 13.0601 87.7432 12.9458 87.9147 12.9458C88.0862 12.9458 88.2005 13.0601 88.2005 13.2316C88.2005 13.4031 88.0862 13.5174 87.9147 13.5174C87.7432 13.4602 87.6289 13.3459 87.6289 13.2316Z" fill="#E9E5D9"/>
<path d="M97.4032 12.4314C97.561 12.4314 97.689 12.3035 97.689 12.1456C97.689 11.9878 97.561 11.8599 97.4032 11.8599C97.2454 11.8599 97.1174 11.9878 97.1174 12.1456C97.1174 12.3035 97.2454 12.4314 97.4032 12.4314Z" fill="#E9E5D9"/>
<path d="M96.0874 12.1456C96.0874 11.9742 96.2017 11.8599 96.3732 11.8599C96.5447 11.8599 96.659 11.9742 96.659 12.1456C96.659 12.3171 96.5447 12.4314 96.3732 12.4314C96.2017 12.4314 96.0874 12.3171 96.0874 12.1456Z" fill="#E9E5D9"/>
<path d="M95.2887 12.4314C95.4465 12.4314 95.5745 12.3035 95.5745 12.1456C95.5745 11.9878 95.4465 11.8599 95.2887 11.8599C95.1309 11.8599 95.0029 11.9878 95.0029 12.1456C95.0029 12.3035 95.1309 12.4314 95.2887 12.4314Z" fill="#E9E5D9"/>
<path d="M94.2033 12.4314C94.3611 12.4314 94.489 12.3035 94.489 12.1456C94.489 11.9878 94.3611 11.8599 94.2033 11.8599C94.0454 11.8599 93.9175 11.9878 93.9175 12.1456C93.9175 12.3035 94.0454 12.4314 94.2033 12.4314Z" fill="#E9E5D9"/>
<path d="M92.8877 12.1456C92.8877 11.9742 93.002 11.8599 93.1735 11.8599C93.3449 11.8599 93.4593 11.9742 93.4593 12.1456C93.4593 12.3171 93.3449 12.4314 93.1735 12.4314C93.002 12.4314 92.8877 12.3171 92.8877 12.1456Z" fill="#E9E5D9"/>
<path d="M92.0868 12.4314C92.2446 12.4314 92.3726 12.3035 92.3726 12.1456C92.3726 11.9878 92.2446 11.8599 92.0868 11.8599C91.929 11.8599 91.801 11.9878 91.801 12.1456C91.801 12.3035 91.929 12.4314 92.0868 12.4314Z" fill="#E9E5D9"/>
<path d="M90.7722 12.1456C90.7722 11.9742 90.8865 11.8599 91.058 11.8599C91.2295 11.8599 91.3438 11.9742 91.3438 12.1456C91.3438 12.3171 91.2295 12.4314 91.058 12.4314C90.8865 12.4314 90.7722 12.3171 90.7722 12.1456Z" fill="#E9E5D9"/>
<path d="M89.7444 12.1456C89.7444 11.9742 89.8587 11.8599 90.0302 11.8599C90.2016 11.8599 90.3159 11.9742 90.3159 12.1456C90.3159 12.3171 90.2016 12.4314 90.0302 12.4314C89.8587 12.4314 89.7444 12.3171 89.7444 12.1456Z" fill="#E9E5D9"/>
<path d="M88.9435 12.4314C89.1013 12.4314 89.2293 12.3035 89.2293 12.1456C89.2293 11.9878 89.1013 11.8599 88.9435 11.8599C88.7857 11.8599 88.6577 11.9878 88.6577 12.1456C88.6577 12.3035 88.7857 12.4314 88.9435 12.4314Z" fill="#E9E5D9"/>
<path d="M87.6289 12.1456C87.6289 11.9742 87.7432 11.8599 87.9147 11.8599C88.0862 11.8599 88.2005 11.9742 88.2005 12.1456C88.2005 12.3171 88.0862 12.4314 87.9147 12.4314C87.7432 12.4314 87.6289 12.3171 87.6289 12.1456Z" fill="#E9E5D9"/>
<path d="M97.1174 11.1173C97.1174 10.9459 97.2317 10.8315 97.4032 10.8315C97.5747 10.8315 97.689 10.9459 97.689 11.1173C97.689 11.2888 97.5747 11.4031 97.4032 11.4031C97.2317 11.346 97.1174 11.2316 97.1174 11.1173Z" fill="#E9E5D9"/>
<path d="M96.0874 11.1173C96.0874 10.9459 96.2017 10.8315 96.3732 10.8315C96.5447 10.8315 96.659 10.9459 96.659 11.1173C96.659 11.2888 96.5447 11.4031 96.3732 11.4031C96.2017 11.346 96.0874 11.2316 96.0874 11.1173Z" fill="#E9E5D9"/>
<path d="M95.0029 11.1173C95.0029 10.9459 95.1172 10.8315 95.2887 10.8315C95.4602 10.8315 95.5745 10.9459 95.5745 11.1173C95.5745 11.2888 95.4602 11.4031 95.2887 11.4031C95.1172 11.346 95.0029 11.2316 95.0029 11.1173Z" fill="#E9E5D9"/>
<path d="M93.9731 11.1173C93.9731 10.9459 94.0875 10.8315 94.2589 10.8315C94.4304 10.8315 94.5447 10.9459 94.5447 11.1173C94.5447 11.2888 94.4304 11.4031 94.2589 11.4031C94.0875 11.346 93.9731 11.2316 93.9731 11.1173Z" fill="#E9E5D9"/>
<path d="M92.8877 11.1173C92.8877 10.9459 93.002 10.8315 93.1735 10.8315C93.3449 10.8315 93.4593 10.9459 93.4593 11.1173C93.4593 11.2888 93.3449 11.4031 93.1735 11.4031C93.002 11.346 92.8877 11.2316 92.8877 11.1173Z" fill="#E9E5D9"/>
<path d="M91.8586 11.1173C91.8586 10.9459 91.973 10.8315 92.1444 10.8315C92.3159 10.8315 92.4302 10.9459 92.4302 11.1173C92.4302 11.2888 92.3159 11.4031 92.1444 11.4031C91.973 11.346 91.8586 11.2316 91.8586 11.1173Z" fill="#E9E5D9"/>
<path d="M90.7722 11.1173C90.7722 10.9459 90.8865 10.8315 91.058 10.8315C91.2295 10.8315 91.3438 10.9459 91.3438 11.1173C91.3438 11.2888 91.2295 11.4031 91.058 11.4031C90.8865 11.346 90.7722 11.2316 90.7722 11.1173Z" fill="#E9E5D9"/>
<path d="M89.7444 11.1173C89.7444 10.9459 89.8587 10.8315 90.0302 10.8315C90.2016 10.8315 90.3159 10.9459 90.3159 11.1173C90.3159 11.2888 90.2016 11.4031 90.0302 11.4031C89.8587 11.346 89.7444 11.2316 89.7444 11.1173Z" fill="#E9E5D9"/>
<path d="M88.6577 11.1173C88.6577 10.9459 88.772 10.8315 88.9435 10.8315C89.115 10.8315 89.2293 10.9459 89.2293 11.1173C89.2293 11.2888 89.115 11.4031 88.9435 11.4031C88.772 11.346 88.6577 11.2316 88.6577 11.1173Z" fill="#E9E5D9"/>
<path d="M87.6289 11.1173C87.6289 10.9459 87.7432 10.8315 87.9147 10.8315C88.0862 10.8315 88.2005 10.9459 88.2005 11.1173C88.2005 11.2888 88.0862 11.4031 87.9147 11.4031C87.7432 11.346 87.6289 11.2316 87.6289 11.1173Z" fill="#E9E5D9"/>
<path d="M97.4032 10.3162C97.561 10.3162 97.689 10.1882 97.689 10.0304C97.689 9.87258 97.561 9.74463 97.4032 9.74463C97.2454 9.74463 97.1174 9.87258 97.1174 10.0304C97.1174 10.1882 97.2454 10.3162 97.4032 10.3162Z" fill="#E9E5D9"/>
<path d="M96.0874 10.0304C96.0874 9.85894 96.2017 9.74463 96.3732 9.74463C96.5447 9.74463 96.659 9.85894 96.659 10.0304C96.659 10.2019 96.5447 10.3162 96.3732 10.3162C96.2017 10.3162 96.0874 10.2019 96.0874 10.0304Z" fill="#E9E5D9"/>
<path d="M95.2887 10.3162C95.4465 10.3162 95.5745 10.1882 95.5745 10.0304C95.5745 9.87258 95.4465 9.74463 95.2887 9.74463C95.1309 9.74463 95.0029 9.87258 95.0029 10.0304C95.0029 10.1882 95.1309 10.3162 95.2887 10.3162Z" fill="#E9E5D9"/>
<path d="M94.2033 10.3162C94.3611 10.3162 94.489 10.1882 94.489 10.0304C94.489 9.87258 94.3611 9.74463 94.2033 9.74463C94.0454 9.74463 93.9175 9.87258 93.9175 10.0304C93.9175 10.1882 94.0454 10.3162 94.2033 10.3162Z" fill="#E9E5D9"/>
<path d="M92.8877 10.0304C92.8877 9.85894 93.002 9.74463 93.1735 9.74463C93.3449 9.74463 93.4593 9.85894 93.4593 10.0304C93.4593 10.2019 93.3449 10.3162 93.1735 10.3162C93.002 10.3162 92.8877 10.2019 92.8877 10.0304Z" fill="#E9E5D9"/>
<path d="M92.0868 10.3162C92.2446 10.3162 92.3726 10.1882 92.3726 10.0304C92.3726 9.87258 92.2446 9.74463 92.0868 9.74463C91.929 9.74463 91.801 9.87258 91.801 10.0304C91.801 10.1882 91.929 10.3162 92.0868 10.3162Z" fill="#E9E5D9"/>
<path d="M90.7722 10.0304C90.7722 9.85894 90.8865 9.74463 91.058 9.74463C91.2295 9.74463 91.3438 9.85894 91.3438 10.0304C91.3438 10.2019 91.2295 10.3162 91.058 10.3162C90.8865 10.3162 90.7722 10.2019 90.7722 10.0304Z" fill="#E9E5D9"/>
<path d="M89.7444 10.0304C89.7444 9.85894 89.8587 9.74463 90.0302 9.74463C90.2016 9.74463 90.3159 9.85894 90.3159 10.0304C90.3159 10.2019 90.2016 10.3162 90.0302 10.3162C89.8587 10.3162 89.7444 10.2019 89.7444 10.0304Z" fill="#E9E5D9"/>
<path d="M88.9435 10.3162C89.1013 10.3162 89.2293 10.1882 89.2293 10.0304C89.2293 9.87258 89.1013 9.74463 88.9435 9.74463C88.7857 9.74463 88.6577 9.87258 88.6577 10.0304C88.6577 10.1882 88.7857 10.3162 88.9435 10.3162Z" fill="#E9E5D9"/>
<path d="M87.6289 10.0304C87.6289 9.85894 87.7432 9.74463 87.9147 9.74463C88.0862 9.74463 88.2005 9.85894 88.2005 10.0304C88.2005 10.2019 88.0862 10.3162 87.9147 10.3162C87.7432 10.3162 87.6289 10.2019 87.6289 10.0304Z" fill="#E9E5D9"/>
<path d="M97.4032 9.28787C97.561 9.28787 97.689 9.15992 97.689 9.00209C97.689 8.84426 97.561 8.71631 97.4032 8.71631C97.2454 8.71631 97.1174 8.84426 97.1174 9.00209C97.1174 9.15992 97.2454 9.28787 97.4032 9.28787Z" fill="#E9E5D9"/>
<path d="M96.0874 9.00209C96.0874 8.83062 96.2017 8.71631 96.3732 8.71631C96.5447 8.71631 96.659 8.83062 96.659 9.00209C96.659 9.17356 96.5447 9.28787 96.3732 9.28787C96.2017 9.23072 96.0874 9.1164 96.0874 9.00209Z" fill="#E9E5D9"/>
<path d="M95.2887 9.28787C95.4465 9.28787 95.5745 9.15992 95.5745 9.00209C95.5745 8.84426 95.4465 8.71631 95.2887 8.71631C95.1309 8.71631 95.0029 8.84426 95.0029 9.00209C95.0029 9.15992 95.1309 9.28787 95.2887 9.28787Z" fill="#E9E5D9"/>
<path d="M94.2033 9.28787C94.3611 9.28787 94.489 9.15992 94.489 9.00209C94.489 8.84426 94.3611 8.71631 94.2033 8.71631C94.0454 8.71631 93.9175 8.84426 93.9175 9.00209C93.9175 9.15992 94.0454 9.28787 94.2033 9.28787Z" fill="#E9E5D9"/>
<path d="M92.8877 9.00209C92.8877 8.83062 93.002 8.71631 93.1735 8.71631C93.3449 8.71631 93.4593 8.83062 93.4593 9.00209C93.4593 9.17356 93.3449 9.28787 93.1735 9.28787C93.002 9.23072 92.8877 9.1164 92.8877 9.00209Z" fill="#E9E5D9"/>
<path d="M92.0868 9.28787C92.2446 9.28787 92.3726 9.15992 92.3726 9.00209C92.3726 8.84426 92.2446 8.71631 92.0868 8.71631C91.929 8.71631 91.801 8.84426 91.801 9.00209C91.801 9.15992 91.929 9.28787 92.0868 9.28787Z" fill="#E9E5D9"/>
<path d="M90.7722 9.00209C90.7722 8.83062 90.8865 8.71631 91.058 8.71631C91.2295 8.71631 91.3438 8.83062 91.3438 9.00209C91.3438 9.17356 91.2295 9.28787 91.058 9.28787C90.8865 9.23072 90.7722 9.1164 90.7722 9.00209Z" fill="#E9E5D9"/>
<path d="M89.7444 9.00209C89.7444 8.83062 89.8587 8.71631 90.0302 8.71631C90.2016 8.71631 90.3159 8.83062 90.3159 9.00209C90.3159 9.17356 90.2016 9.28787 90.0302 9.28787C89.8587 9.23072 89.7444 9.1164 89.7444 9.00209Z" fill="#E9E5D9"/>
<path d="M88.9435 9.28787C89.1013 9.28787 89.2293 9.15992 89.2293 9.00209C89.2293 8.84426 89.1013 8.71631 88.9435 8.71631C88.7857 8.71631 88.6577 8.84426 88.6577 9.00209C88.6577 9.15992 88.7857 9.28787 88.9435 9.28787Z" fill="#E9E5D9"/>
<path d="M87.6289 9.00209C87.6289 8.83062 87.7432 8.71631 87.9147 8.71631C88.0862 8.71631 88.2005 8.83062 88.2005 9.00209C88.2005 9.17356 88.0862 9.28787 87.9147 9.28787C87.7432 9.23072 87.6289 9.1164 87.6289 9.00209Z" fill="#E9E5D9"/>
<path d="M97.1174 7.91615C97.1174 7.74468 97.2317 7.63037 97.4032 7.63037C97.5747 7.63037 97.689 7.74468 97.689 7.91615C97.689 8.08762 97.5747 8.20193 97.4032 8.20193C97.2317 8.20193 97.1174 8.08762 97.1174 7.91615Z" fill="#E9E5D9"/>
<path d="M96.0874 7.91615C96.0874 7.74468 96.2017 7.63037 96.3732 7.63037C96.5447 7.63037 96.659 7.74468 96.659 7.91615C96.659 8.08762 96.5447 8.20193 96.3732 8.20193C96.2017 8.20193 96.0874 8.08762 96.0874 7.91615Z" fill="#E9E5D9"/>
<path d="M95.0029 7.91615C95.0029 7.74468 95.1172 7.63037 95.2887 7.63037C95.4602 7.63037 95.5745 7.74468 95.5745 7.91615C95.5745 8.08762 95.4602 8.20193 95.2887 8.20193C95.1172 8.20193 95.0029 8.08762 95.0029 7.91615Z" fill="#E9E5D9"/>
<path d="M93.9731 7.91615C93.9731 7.74468 94.0875 7.63037 94.2589 7.63037C94.4304 7.63037 94.5447 7.74468 94.5447 7.91615C94.5447 8.08762 94.4304 8.20193 94.2589 8.20193C94.0875 8.20193 93.9731 8.08762 93.9731 7.91615Z" fill="#E9E5D9"/>
<path d="M92.8877 7.91615C92.8877 7.74468 93.002 7.63037 93.1735 7.63037C93.3449 7.63037 93.4593 7.74468 93.4593 7.91615C93.4593 8.08762 93.3449 8.20193 93.1735 8.20193C93.002 8.20193 92.8877 8.08762 92.8877 7.91615Z" fill="#E9E5D9"/>
<path d="M91.8586 7.91615C91.8586 7.74468 91.973 7.63037 92.1444 7.63037C92.3159 7.63037 92.4302 7.74468 92.4302 7.91615C92.4302 8.08762 92.3159 8.20193 92.1444 8.20193C91.973 8.20193 91.8586 8.08762 91.8586 7.91615Z" fill="#E9E5D9"/>
<path d="M90.7722 7.91615C90.7722 7.74468 90.8865 7.63037 91.058 7.63037C91.2295 7.63037 91.3438 7.74468 91.3438 7.91615C91.3438 8.08762 91.2295 8.20193 91.058 8.20193C90.8865 8.20193 90.7722 8.08762 90.7722 7.91615Z" fill="#E9E5D9"/>
<path d="M89.7444 7.91615C89.7444 7.74468 89.8587 7.63037 90.0302 7.63037C90.2016 7.63037 90.3159 7.74468 90.3159 7.91615C90.3159 8.08762 90.2016 8.20193 90.0302 8.20193C89.8587 8.20193 89.7444 8.08762 89.7444 7.91615Z" fill="#E9E5D9"/>
<path d="M88.6577 7.91615C88.6577 7.74468 88.772 7.63037 88.9435 7.63037C89.115 7.63037 89.2293 7.74468 89.2293 7.91615C89.2293 8.08762 89.115 8.20193 88.9435 8.20193C88.772 8.20193 88.6577 8.08762 88.6577 7.91615Z" fill="#E9E5D9"/>
<path d="M87.6289 7.91615C87.6289 7.74468 87.7432 7.63037 87.9147 7.63037C88.0862 7.63037 88.2005 7.74468 88.2005 7.91615C88.2005 8.08762 88.0862 8.20193 87.9147 8.20193C87.7432 8.20193 87.6289 8.08762 87.6289 7.91615Z" fill="#E9E5D9"/>
<path d="M97.4032 7.17264C97.561 7.17264 97.689 7.04469 97.689 6.88686C97.689 6.72902 97.561 6.60107 97.4032 6.60107C97.2454 6.60107 97.1174 6.72902 97.1174 6.88686C97.1174 7.04469 97.2454 7.17264 97.4032 7.17264Z" fill="#E9E5D9"/>
<path d="M96.0874 6.88686C96.0874 6.71539 96.2017 6.60107 96.3732 6.60107C96.5447 6.60107 96.659 6.71539 96.659 6.88686C96.659 7.05833 96.5447 7.17264 96.3732 7.17264C96.2017 7.11548 96.0874 7.00117 96.0874 6.88686Z" fill="#E9E5D9"/>
<path d="M95.2887 7.17264C95.4465 7.17264 95.5745 7.04469 95.5745 6.88686C95.5745 6.72902 95.4465 6.60107 95.2887 6.60107C95.1309 6.60107 95.0029 6.72902 95.0029 6.88686C95.0029 7.04469 95.1309 7.17264 95.2887 7.17264Z" fill="#E9E5D9"/>
<path d="M94.2033 7.17264C94.3611 7.17264 94.489 7.04469 94.489 6.88686C94.489 6.72902 94.3611 6.60107 94.2033 6.60107C94.0454 6.60107 93.9175 6.72902 93.9175 6.88686C93.9175 7.04469 94.0454 7.17264 94.2033 7.17264Z" fill="#E9E5D9"/>
<path d="M92.8877 6.88686C92.8877 6.71539 93.002 6.60107 93.1735 6.60107C93.3449 6.60107 93.4593 6.71539 93.4593 6.88686C93.4593 7.05833 93.3449 7.17264 93.1735 7.17264C93.002 7.11548 92.8877 7.00117 92.8877 6.88686Z" fill="#E9E5D9"/>
<path d="M92.0868 7.17264C92.2446 7.17264 92.3726 7.04469 92.3726 6.88686C92.3726 6.72902 92.2446 6.60107 92.0868 6.60107C91.929 6.60107 91.801 6.72902 91.801 6.88686C91.801 7.04469 91.929 7.17264 92.0868 7.17264Z" fill="#E9E5D9"/>
<path d="M90.7722 6.88686C90.7722 6.71539 90.8865 6.60107 91.058 6.60107C91.2295 6.60107 91.3438 6.71539 91.3438 6.88686C91.3438 7.05833 91.2295 7.17264 91.058 7.17264C90.8865 7.11548 90.7722 7.00117 90.7722 6.88686Z" fill="#E9E5D9"/>
<path d="M89.7444 6.88686C89.7444 6.71539 89.8587 6.60107 90.0302 6.60107C90.2016 6.60107 90.3159 6.71539 90.3159 6.88686C90.3159 7.05833 90.2016 7.17264 90.0302 7.17264C89.8587 7.11548 89.7444 7.00117 89.7444 6.88686Z" fill="#E9E5D9"/>
<path d="M88.9435 7.17264C89.1013 7.17264 89.2293 7.04469 89.2293 6.88686C89.2293 6.72902 89.1013 6.60107 88.9435 6.60107C88.7857 6.60107 88.6577 6.72902 88.6577 6.88686C88.6577 7.04469 88.7857 7.17264 88.9435 7.17264Z" fill="#E9E5D9"/>
<path d="M87.6289 6.88686C87.6289 6.71539 87.7432 6.60107 87.9147 6.60107C88.0862 6.60107 88.2005 6.71539 88.2005 6.88686C88.2005 7.05833 88.0862 7.17264 87.9147 7.17264C87.7432 7.11548 87.6289 7.00117 87.6289 6.88686Z" fill="#E9E5D9"/>
<path d="M19.0803 31.7242V25.3799L6.39161 25.3799L6.39161 31.7242L19.0803 31.7242Z" fill="#3A4D57"/>
<path d="M18.0063 27.5074V26.4214L7.43242 26.4214V27.5074L18.0063 27.5074Z" fill="#52717F"/>
<path d="M17.9937 29.0952V28.0093L7.41973 28.0093V29.0952L17.9937 29.0952Z" fill="#52717F"/>
<path d="M18.0388 30.6827V29.5967L7.46489 29.5967V30.6827L18.0388 30.6827Z" fill="#52717F"/>
<path d="M18.6415 31.7505H18.4128V32.8365H18.6415V31.7505Z" fill="#F9F8F7"/>
<path d="M18.1285 31.7505H17.8999V32.8365H18.1285V31.7505Z" fill="#F9F8F7"/>
<path d="M17.6122 31.7505H17.3835V32.8365H17.6122V31.7505Z" fill="#F9F8F7"/>
<path d="M17.0389 31.7505H16.8103V32.8365H17.0389V31.7505Z" fill="#F9F8F7"/>
<path d="M16.5257 31.7505H16.2971V32.8365H16.5257V31.7505Z" fill="#F9F8F7"/>
<path d="M16.0116 31.7505H15.783V32.8365H16.0116V31.7505Z" fill="#F9F8F7"/>
<path d="M15.4977 31.7505H15.269V32.8365H15.4977V31.7505Z" fill="#F9F8F7"/>
<path d="M14.9254 31.7505H14.6968V32.8365H14.9254V31.7505Z" fill="#F9F8F7"/>
<path d="M14.4112 31.7505H14.1826V32.8365H14.4112V31.7505Z" fill="#F9F8F7"/>
<path d="M13.8961 31.7505H13.6675V32.8365H13.8961V31.7505Z" fill="#F9F8F7"/>
<path d="M13.3829 31.7505H13.1543V32.8365H13.3829V31.7505Z" fill="#F9F8F7"/>
<path d="M12.8109 31.7505H12.5823V32.8365H12.8109V31.7505Z" fill="#F9F8F7"/>
<path d="M12.2967 31.7505H12.0681V32.8365H12.2967V31.7505Z" fill="#F9F8F7"/>
<path d="M11.7816 31.7505H11.553V32.8365H11.7816V31.7505Z" fill="#F9F8F7"/>
<path d="M11.2684 31.7505H11.0398V32.8365H11.2684V31.7505Z" fill="#F9F8F7"/>
<path d="M10.6964 31.7505H10.4678V32.8365H10.6964V31.7505Z" fill="#F9F8F7"/>
<path d="M10.1825 31.7505H9.95386V32.8365H10.1825V31.7505Z" fill="#F9F8F7"/>
<path d="M9.6671 31.7505H9.43848V32.8365H9.6671V31.7505Z" fill="#F9F8F7"/>
<path d="M9.15392 31.7505H8.92529V32.8365H9.15392V31.7505Z" fill="#F9F8F7"/>
<path d="M8.58092 31.7505H8.35229V32.8365H8.58092V31.7505Z" fill="#F9F8F7"/>
<path d="M8.06798 31.7505H7.83936V32.8365H8.06798V31.7505Z" fill="#F9F8F7"/>
<path d="M7.55358 31.7505H7.32495V32.8365H7.55358V31.7505Z" fill="#F9F8F7"/>
<path d="M7.0382 31.751H6.80957V32.8369H7.0382V31.751Z" fill="#F9F8F7"/>
<path d="M18.6415 24.3208H18.4128V25.4068H18.6415V24.3208Z" fill="#F9F8F7"/>
<path d="M18.1285 24.3203H17.8999V25.4063H18.1285V24.3203Z" fill="#F9F8F7"/>
<path d="M17.6122 24.3203H17.3835V25.4063H17.6122V24.3203Z" fill="#F9F8F7"/>
<path d="M17.0389 24.3208H16.8103V25.4068H17.0389V24.3208Z" fill="#F9F8F7"/>
<path d="M16.5257 24.3203H16.2971V25.4063H16.5257V24.3203Z" fill="#F9F8F7"/>
<path d="M16.0116 24.3208H15.783V25.4068H16.0116V24.3208Z" fill="#F9F8F7"/>
<path d="M15.4977 24.3203H15.269V25.4063H15.4977V24.3203Z" fill="#F9F8F7"/>
<path d="M14.9254 24.3208H14.6968V25.4068H14.9254V24.3208Z" fill="#F9F8F7"/>
<path d="M14.4112 24.3203H14.1826V25.4063H14.4112V24.3203Z" fill="#F9F8F7"/>
<path d="M13.8961 24.3208H13.6675V25.4068H13.8961V24.3208Z" fill="#F9F8F7"/>
<path d="M13.3829 24.3203H13.1543V25.4063H13.3829V24.3203Z" fill="#F9F8F7"/>
<path d="M12.8109 24.3208H12.5823V25.4068H12.8109V24.3208Z" fill="#F9F8F7"/>
<path d="M12.2967 24.3203H12.0681V25.4063H12.2967V24.3203Z" fill="#F9F8F7"/>
<path d="M11.7816 24.3208H11.553V25.4068H11.7816V24.3208Z" fill="#F9F8F7"/>
<path d="M11.2684 24.3203H11.0398V25.4063H11.2684V24.3203Z" fill="#F9F8F7"/>
<path d="M10.6964 24.3208H10.4678V25.4068H10.6964V24.3208Z" fill="#F9F8F7"/>
<path d="M10.1825 24.3203H9.95386V25.4063H10.1825V24.3203Z" fill="#F9F8F7"/>
<path d="M9.6671 24.3208H9.43848V25.4068H9.6671V24.3208Z" fill="#F9F8F7"/>
<path d="M9.15392 24.3203H8.92529V25.4063H9.15392V24.3203Z" fill="#F9F8F7"/>
<path d="M8.58092 24.3208H8.35229V25.4068H8.58092V24.3208Z" fill="#F9F8F7"/>
<path d="M8.06798 24.3203H7.83936V25.4063H8.06798V24.3203Z" fill="#F9F8F7"/>
<path d="M7.55358 24.3208H7.32495V25.4068H7.55358V24.3208Z" fill="#F9F8F7"/>
<path d="M7.03795 24.3203H6.80933V25.4063H7.03795V24.3203Z" fill="#F9F8F7"/>
<path d="M37.6013 31.7218V25.3774L24.9126 25.3774V31.7218L37.6013 31.7218Z" fill="#3A4D57"/>
<path d="M36.5273 27.5054V26.4194L25.9534 26.4194V27.5054L36.5273 27.5054Z" fill="#52717F"/>
<path d="M36.5146 29.0928V28.0068L25.9407 28.0068V29.0928L36.5146 29.0928Z" fill="#52717F"/>
<path d="M36.5598 30.6802V29.5942L25.9859 29.5942V30.6802L36.5598 30.6802Z" fill="#52717F"/>
<path d="M37.1595 31.7505H36.9309V32.8365H37.1595V31.7505Z" fill="#F9F8F7"/>
<path d="M36.6454 31.7505H36.4167V32.8365H36.6454V31.7505Z" fill="#F9F8F7"/>
<path d="M36.1312 31.7505H35.9026V32.8365H36.1312V31.7505Z" fill="#F9F8F7"/>
<path d="M35.6158 31.7505H35.3872V32.8365H35.6158V31.7505Z" fill="#F9F8F7"/>
<path d="M35.0458 31.7505H34.8171V32.8365H35.0458V31.7505Z" fill="#F9F8F7"/>
<path d="M34.5306 31.7505H34.302V32.8365H34.5306V31.7505Z" fill="#F9F8F7"/>
<path d="M34.0157 31.7505H33.7871V32.8365H34.0157V31.7505Z" fill="#F9F8F7"/>
<path d="M33.4437 31.7505H33.2151V32.8365H33.4437V31.7505Z" fill="#F9F8F7"/>
<path d="M32.9305 31.7505H32.7019V32.8365H32.9305V31.7505Z" fill="#F9F8F7"/>
<path d="M32.4161 31.7505H32.1875V32.8365H32.4161V31.7505Z" fill="#F9F8F7"/>
<path d="M31.901 31.7505H31.6724V32.8365H31.901V31.7505Z" fill="#F9F8F7"/>
<path d="M31.3302 31.7505H31.1016V32.8365H31.3302V31.7505Z" fill="#F9F8F7"/>
<path d="M30.8158 31.7505H30.5872V32.8365H30.8158V31.7505Z" fill="#F9F8F7"/>
<path d="M30.3009 31.7505H30.0723V32.8365H30.3009V31.7505Z" fill="#F9F8F7"/>
<path d="M29.7877 31.7505H29.5591V32.8365H29.7877V31.7505Z" fill="#F9F8F7"/>
<path d="M29.2157 31.7505H28.9871V32.8365H29.2157V31.7505Z" fill="#F9F8F7"/>
<path d="M28.7003 31.7505H28.4717V32.8365H28.7003V31.7505Z" fill="#F9F8F7"/>
<path d="M28.1861 31.7505H27.9575V32.8365H28.1861V31.7505Z" fill="#F9F8F7"/>
<path d="M27.6727 31.7505H27.4441V32.8365H27.6727V31.7505Z" fill="#F9F8F7"/>
<path d="M27.1009 31.7505H26.8723V32.8365H27.1009V31.7505Z" fill="#F9F8F7"/>
<path d="M26.586 31.7505H26.3574V32.8365H26.586V31.7505Z" fill="#F9F8F7"/>
<path d="M26.0716 31.7505H25.843V32.8365H26.0716V31.7505Z" fill="#F9F8F7"/>
<path d="M25.5585 31.7505H25.3298V32.8365H25.5585V31.7505Z" fill="#F9F8F7"/>
<path d="M37.1595 24.3203H36.9309V25.4063H37.1595V24.3203Z" fill="#F9F8F7"/>
<path d="M36.6454 24.3208H36.4167V25.4068H36.6454V24.3208Z" fill="#F9F8F7"/>
<path d="M36.1312 24.3203H35.9026V25.4063H36.1312V24.3203Z" fill="#F9F8F7"/>
<path d="M35.6158 24.3208H35.3872V25.4068H35.6158V24.3208Z" fill="#F9F8F7"/>
<path d="M35.0458 24.3203H34.8171V25.4063H35.0458V24.3203Z" fill="#F9F8F7"/>
<path d="M34.5306 24.3208H34.302V25.4068H34.5306V24.3208Z" fill="#F9F8F7"/>
<path d="M34.0157 24.3203H33.7871V25.4063H34.0157V24.3203Z" fill="#F9F8F7"/>
<path d="M33.4437 24.3208H33.2151V25.4068H33.4437V24.3208Z" fill="#F9F8F7"/>
<path d="M32.9305 24.3203H32.7019V25.4063H32.9305V24.3203Z" fill="#F9F8F7"/>
<path d="M32.4161 24.3208H32.1875V25.4068H32.4161V24.3208Z" fill="#F9F8F7"/>
<path d="M31.901 24.3203H31.6724V25.4063H31.901V24.3203Z" fill="#F9F8F7"/>
<path d="M31.3302 24.3208H31.1016V25.4068H31.3302V24.3208Z" fill="#F9F8F7"/>
<path d="M30.8158 24.3203H30.5872V25.4063H30.8158V24.3203Z" fill="#F9F8F7"/>
<path d="M30.3009 24.3208H30.0723V25.4068H30.3009V24.3208Z" fill="#F9F8F7"/>
<path d="M29.7877 24.3203H29.5591V25.4063H29.7877V24.3203Z" fill="#F9F8F7"/>
<path d="M29.2157 24.3208H28.9871V25.4068H29.2157V24.3208Z" fill="#F9F8F7"/>
<path d="M28.7003 24.3203H28.4717V25.4063H28.7003V24.3203Z" fill="#F9F8F7"/>
<path d="M28.1861 24.3208H27.9575V25.4068H28.1861V24.3208Z" fill="#F9F8F7"/>
<path d="M27.6727 24.3203H27.4441V25.4063H27.6727V24.3203Z" fill="#F9F8F7"/>
<path d="M27.1009 24.3208H26.8723V25.4068H27.1009V24.3208Z" fill="#F9F8F7"/>
<path d="M26.586 24.3203H26.3574V25.4063H26.586V24.3203Z" fill="#F9F8F7"/>
<path d="M26.0716 24.3208H25.843V25.4068H26.0716V24.3208Z" fill="#F9F8F7"/>
<path d="M25.5585 24.3203H25.3298V25.4063H25.5585V24.3203Z" fill="#F9F8F7"/>
<path d="M30.2037 51.312H36.5481V38.6233H30.2037V51.312Z" fill="#3A4D57"/>
<path d="M34.407 50.2261H35.4929V39.6521H34.407V50.2261Z" fill="#52717F"/>
<path d="M32.8327 50.2261H33.9187V39.6521H32.8327V50.2261Z" fill="#52717F"/>
<path d="M31.2009 50.2261H32.2869V39.6521H31.2009V50.2261Z" fill="#52717F"/>
<path d="M30.2454 50.6685H29.1594V50.8971H30.2454V50.6685Z" fill="#F9F8F7"/>
<path d="M30.2454 50.1548H29.1594V50.3834H30.2454V50.1548Z" fill="#F9F8F7"/>
<path d="M30.2454 49.5835H29.1594V49.8121H30.2454V49.5835Z" fill="#F9F8F7"/>
<path d="M30.2454 49.0688H29.1594V49.2975H30.2454V49.0688Z" fill="#F9F8F7"/>
<path d="M30.2454 48.5547H29.1594V48.7833H30.2454V48.5547Z" fill="#F9F8F7"/>
<path d="M30.2454 47.9829H29.1594V48.2115H30.2454V47.9829Z" fill="#F9F8F7"/>
<path d="M30.2454 47.4683H29.1594V47.6969H30.2454V47.4683Z" fill="#F9F8F7"/>
<path d="M30.2454 46.9536H29.1594V47.1822H30.2454V46.9536Z" fill="#F9F8F7"/>
<path d="M30.2454 46.4399H29.1594V46.6686H30.2454V46.4399Z" fill="#F9F8F7"/>
<path d="M30.2454 45.8687H29.1594V46.0973H30.2454V45.8687Z" fill="#F9F8F7"/>
<path d="M30.2454 45.3535H29.1594V45.5821H30.2454V45.3535Z" fill="#F9F8F7"/>
<path d="M30.2454 44.8398H29.1594V45.0685H30.2454V44.8398Z" fill="#F9F8F7"/>
<path d="M30.2454 44.3247H29.1594V44.5533H30.2454V44.3247Z" fill="#F9F8F7"/>
<path d="M30.2454 43.7529H29.1594V43.9816H30.2454V43.7529Z" fill="#F9F8F7"/>
<path d="M30.2454 43.2388H29.1594V43.4674H30.2454V43.2388Z" fill="#F9F8F7"/>
<path d="M30.2454 42.7246H29.1594V42.9532H30.2454V42.7246Z" fill="#F9F8F7"/>
<path d="M30.2454 42.2104H29.1594V42.4391H30.2454V42.2104Z" fill="#F9F8F7"/>
<path d="M30.2454 41.6387H29.1594V41.8673H30.2454V41.6387Z" fill="#F9F8F7"/>
<path d="M30.2454 41.125H29.1594V41.3536H30.2454V41.125Z" fill="#F9F8F7"/>
<path d="M30.2454 40.6099H29.1594V40.8385H30.2454V40.6099Z" fill="#F9F8F7"/>
<path d="M30.2454 40.0962H29.1594V40.3248H30.2454V40.0962Z" fill="#F9F8F7"/>
<path d="M30.2454 39.5239H29.1594V39.7526H30.2454V39.5239Z" fill="#F9F8F7"/>
<path d="M30.2454 39.0093H29.1594V39.2379H30.2454V39.0093Z" fill="#F9F8F7"/>
<path d="M37.6192 50.6685H36.5332V50.8971H37.6192V50.6685Z" fill="#F9F8F7"/>
<path d="M37.6192 50.1548H36.5332V50.3834H37.6192V50.1548Z" fill="#F9F8F7"/>
<path d="M37.6192 49.5835H36.5332V49.8121H37.6192V49.5835Z" fill="#F9F8F7"/>
<path d="M37.6192 49.0688H36.5332V49.2975H37.6192V49.0688Z" fill="#F9F8F7"/>
<path d="M37.6192 48.5547H36.5332V48.7833H37.6192V48.5547Z" fill="#F9F8F7"/>
<path d="M37.6192 47.9829H36.5332V48.2115H37.6192V47.9829Z" fill="#F9F8F7"/>
<path d="M37.6192 47.4683H36.5332V47.6969H37.6192V47.4683Z" fill="#F9F8F7"/>
<path d="M37.6192 46.9536H36.5332V47.1822H37.6192V46.9536Z" fill="#F9F8F7"/>
<path d="M37.6192 46.4399H36.5332V46.6686H37.6192V46.4399Z" fill="#F9F8F7"/>
<path d="M37.6192 45.8687H36.5332V46.0973H37.6192V45.8687Z" fill="#F9F8F7"/>
<path d="M37.6192 45.3535H36.5332V45.5821H37.6192V45.3535Z" fill="#F9F8F7"/>
<path d="M37.6192 44.8398H36.5332V45.0685H37.6192V44.8398Z" fill="#F9F8F7"/>
<path d="M37.6192 44.3247H36.5332V44.5533H37.6192V44.3247Z" fill="#F9F8F7"/>
<path d="M37.6192 43.7529H36.5332V43.9816H37.6192V43.7529Z" fill="#F9F8F7"/>
<path d="M37.6192 43.2388H36.5332V43.4674H37.6192V43.2388Z" fill="#F9F8F7"/>
<path d="M37.6192 42.7246H36.5332V42.9532H37.6192V42.7246Z" fill="#F9F8F7"/>
<path d="M37.6192 42.2104H36.5332V42.4391H37.6192V42.2104Z" fill="#F9F8F7"/>
<path d="M37.6192 41.6387H36.5332V41.8673H37.6192V41.6387Z" fill="#F9F8F7"/>
<path d="M37.6192 41.125H36.5332V41.3536H37.6192V41.125Z" fill="#F9F8F7"/>
<path d="M37.6192 40.6099H36.5332V40.8385H37.6192V40.6099Z" fill="#F9F8F7"/>
<path d="M37.6192 40.0962H36.5332V40.3248H37.6192V40.0962Z" fill="#F9F8F7"/>
<path d="M37.6192 39.5239H36.5332V39.7526H37.6192V39.5239Z" fill="#F9F8F7"/>
<path d="M37.6192 39.0093H36.5332V39.2379H37.6192V39.0093Z" fill="#F9F8F7"/>
<path d="M6.40525 51.3237H20.6943V37.0346H6.40525L6.40525 51.3237Z" fill="#3A4D57"/>
<path d="M18.5471 50.2378H19.6331V38.0635H18.5471V50.2378Z" fill="#52717F"/>
<path d="M16.915 50.2378H18.001V38.0635H16.915V50.2378Z" fill="#52717F"/>
<path d="M15.3408 50.2378H16.4268V38.0635H15.3408L15.3408 50.2378Z" fill="#52717F"/>
<path d="M13.7656 50.2378H14.8516L14.8516 38.0635H13.7656L13.7656 50.2378Z" fill="#52717F"/>
<path d="M12.1914 50.2378H13.2773L13.2773 38.0635H12.1914L12.1914 50.2378Z" fill="#52717F"/>
<path d="M10.5603 50.2378H11.6462L11.6462 38.0635H10.5603L10.5603 50.2378Z" fill="#52717F"/>
<path d="M8.98605 50.2378H10.072L10.072 38.0635H8.98605L8.98605 50.2378Z" fill="#52717F"/>
<path d="M7.40988 50.2378H8.49585L8.49585 38.0635H7.40988L7.40988 50.2378Z" fill="#52717F"/>
<path d="M53.2209 27.521C53.2209 26.3779 54.1926 25.4062 55.3357 25.4062C56.4789 25.4062 57.4505 26.3779 57.4505 27.521C57.4505 28.6642 56.4789 29.6358 55.3357 29.6358C54.1355 29.6358 53.2209 28.6642 53.2209 27.521Z" fill="#3A4D57"/>
<path d="M47.9055 27.521C47.9055 26.3779 48.8772 25.4062 50.0203 25.4062C51.1634 25.4062 52.1351 26.3779 52.1351 27.521C52.1351 28.6642 51.1634 29.6358 50.0203 29.6358C48.8772 29.6358 47.9055 28.6642 47.9055 27.521Z" fill="#3A4D57"/>
<path d="M55.3357 24.3204C56.5037 24.3204 57.4505 23.3736 57.4505 22.2056C57.4505 21.0376 56.5037 20.0908 55.3357 20.0908C54.1678 20.0908 53.2209 21.0376 53.2209 22.2056C53.2209 23.3736 54.1678 24.3204 55.3357 24.3204Z" fill="#FBBE68"/>
<path d="M47.9055 22.2056C47.9055 21.0625 48.8772 20.0908 50.0203 20.0908C51.1634 20.0908 52.1351 21.0625 52.1351 22.2056C52.1351 23.3487 51.1634 24.3204 50.0203 24.3204C48.8772 24.3204 47.9055 23.3487 47.9055 22.2056Z" fill="#FBBE68"/>
<path d="M74.9395 40.4639H83.3987V31.4903H74.9395V40.4639Z" fill="#FBBE68"/>
<path d="M75.9686 39.3833H82.313V38.8689H75.9686V39.3833Z" fill="#E59B42"/>
<path d="M75.9686 38.3525H82.313V37.8381H75.9686V38.3525Z" fill="#E59B42"/>
<path d="M75.9686 37.2646H82.313V36.7502H75.9686V37.2646Z" fill="#E59B42"/>
<path d="M75.9686 36.2339H82.313V35.7195H75.9686V36.2339Z" fill="#E59B42"/>
<path d="M75.9686 35.1465H82.313V34.6321H75.9686V35.1465Z" fill="#E59B42"/>
<path d="M75.9686 34.1157H82.313V33.6013H75.9686V34.1157Z" fill="#E59B42"/>
<path d="M75.9686 33.0278H82.313V32.5134H75.9686V33.0278Z" fill="#E59B42"/>
<path d="M74.9408 22.728H83.3999V13.7545L74.9408 13.7545V22.728Z" fill="#FBBE68"/>
<path d="M75.9699 21.7051H82.3142V21.1907H75.9699V21.7051Z" fill="#E59B42"/>
<path d="M75.9699 20.6162H82.3142V20.1018H75.9699V20.6162Z" fill="#E59B42"/>
<path d="M75.9699 19.5859H82.3142V19.0715H75.9699V19.5859Z" fill="#E59B42"/>
<path d="M75.9699 18.498H82.3142V17.9836H75.9699V18.498Z" fill="#E59B42"/>
<path d="M75.9699 17.4673H82.3142V16.9529H75.9699V17.4673Z" fill="#E59B42"/>
<path d="M75.9699 16.3794H82.3142V15.865H75.9699V16.3794Z" fill="#E59B42"/>
<path d="M75.9699 15.3491H82.3142V14.8347H75.9699V15.3491Z" fill="#E59B42"/>
<path d="M29.2257 8.71094L45.1724 8.71094V2.82383L29.2257 2.82383V8.71094Z" fill="#3A4D57"/>
<path d="M9.5419 8.71094L25.4885 8.71094V2.82383L9.5419 2.82383V8.71094Z" fill="#FBBE68"/>
<path d="M10.8564 2.78564L24.1167 2.78564V0.613703L10.8564 0.613703V2.78564Z" fill="#E9E5D9"/>
<path d="M44.0201 0.600098H38.2473V2.77204H44.0201V0.600098Z" fill="#E9E5D9"/>
<path d="M36.1319 0.600098H30.3591V2.77204H36.1319V0.600098Z" fill="#E9E5D9"/>
<path d="M0.306895 78.9985H3.33618L3.33618 34.931H0.306895L0.306895 78.9985Z" fill="#548612"/>
<path d="M0.306895 19.5879H3.33618L3.33618 6.55624H0.306895L0.306895 19.5879Z" fill="#548612"/>
<path d="M15.9392 78.9775L101.902 78.9775V77.2057L15.9392 77.2057V78.9775Z" fill="#548612"/>
<path d="M75.9684 9.14941H82.3127V2.80506L75.9684 2.80506V9.14941Z" fill="#548612"/>
<path d="M64.6466 14.0176H70.991V2.81493H64.6466V14.0176Z" fill="#548612"/>
</svg>
