<svg width="75" height="74" viewBox="0 0 75 74" fill="none" xmlns="http://www.w3.org/2000/svg">
<path d="M68.5425 74H6.00052C2.89729 74 0.271484 71.3742 0.271484 68.271V5.96774C0.271484 2.62581 2.89729 0 6.00052 0H68.3037C71.6457 0 74.2715 2.62581 74.2715 5.96774V68.271C74.2715 71.3742 71.6457 74 68.5425 74Z" fill="#4E4C4F"/>
<path d="M67.3489 36.9998C67.3489 53.4708 53.9812 67.0772 37.2715 67.0772C20.8005 67.0772 7.19409 53.7095 7.19409 36.9998C7.19409 20.5288 20.5618 6.92236 37.2715 6.92236C53.9812 6.92236 67.3489 20.5288 67.3489 36.9998Z" fill="#DFE0E6"/>
<path d="M44.6716 37.0001C44.6716 41.0582 41.3296 44.4001 37.2716 44.4001C33.2135 44.4001 29.8716 41.0582 29.8716 37.0001C29.8716 32.942 33.2135 29.6001 37.2716 29.6001C41.3296 29.6001 44.6716 32.942 44.6716 37.0001Z" fill="#4E4C4F"/>
<path d="M8.86513 6.68366C8.86513 7.6385 8.149 8.35463 7.19416 8.35463C6.23932 8.35463 5.52319 7.6385 5.52319 6.68366C5.52319 5.72882 6.23932 5.0127 7.19416 5.0127C8.149 5.0127 8.86513 5.72882 8.86513 6.68366Z" fill="#D0D1D6"/>
<path d="M69.2587 6.68366C69.2587 7.6385 68.5426 8.35463 67.5877 8.35463C66.6329 8.35463 65.9167 7.6385 65.9167 6.68366C65.9167 5.72882 66.6329 5.0127 67.5877 5.0127C68.5426 5.0127 69.2587 5.72882 69.2587 6.68366Z" fill="#D0D1D6"/>
<path d="M8.86513 67.5548C8.86513 68.5096 8.149 69.2257 7.19416 69.2257C6.23932 69.2257 5.52319 68.5096 5.52319 67.5548C5.52319 66.5999 6.23932 65.8838 7.19416 65.8838C8.149 65.8838 8.86513 66.5999 8.86513 67.5548Z" fill="#D0D1D6"/>
<path d="M69.2587 67.5548C69.2587 68.5096 68.5426 69.2257 67.5877 69.2257C66.6329 69.2257 65.9167 68.5096 65.9167 67.5548C65.9167 66.5999 66.6329 65.8838 67.5877 65.8838C68.5426 65.8838 69.2587 66.5999 69.2587 67.5548Z" fill="#D0D1D6"/>
<path d="M35.8392 32.4646C35.8392 32.4646 37.2715 15.0387 22.7102 15.9936C22.7102 15.9936 25.336 8.11617 35.8392 9.07101C42.0457 9.78714 48.0134 21.7226 37.0328 34.1355L35.8392 32.4646Z" fill="#4E4C4F"/>
<path d="M32.736 38.4321C32.736 38.4321 15.3102 36.9999 16.2651 51.5612C16.2651 51.5612 8.38765 48.9354 9.34249 38.4321C10.0586 32.2257 21.9941 26.2579 34.407 37.2386L32.736 38.4321Z" fill="#4E4C4F"/>
<path d="M38.7036 41.5357C38.7036 41.5357 37.2714 58.9615 51.8327 58.0067C51.8327 58.0067 49.2068 65.8841 38.7036 64.9293C32.4972 64.2131 26.5294 52.2776 37.5101 39.8647L38.7036 41.5357Z" fill="#4E4C4F"/>
<path d="M41.807 35.5675C41.807 35.5675 59.2328 36.9998 58.2779 22.4385C58.2779 22.4385 66.1553 25.0643 65.2005 35.5675C64.4844 41.774 52.5489 47.7417 40.136 36.7611L41.807 35.5675Z" fill="#4E4C4F"/>
<path d="M37.2715 44.8774C32.9747 44.8774 29.394 41.2968 29.394 37C29.394 32.7032 32.9747 29.1226 37.2715 29.1226C41.5682 29.1226 45.1489 32.7032 45.1489 37C45.1489 41.2968 41.5682 44.8774 37.2715 44.8774ZM37.2715 30.3161C33.4521 30.3161 30.5876 33.4193 30.5876 37C30.5876 40.8193 33.6908 43.6838 37.2715 43.6838C41.0908 43.6838 43.9553 40.5806 43.9553 37C43.9553 33.4193 41.0908 30.3161 37.2715 30.3161Z" fill="#50C0D8"/>
<path d="M37.2714 63.9739C22.4714 63.9739 10.5359 52.0384 10.5359 37.2384C10.5359 22.4384 22.4714 10.5029 37.2714 10.5029C52.0714 10.5029 64.0069 22.4384 64.0069 37.2384C64.0069 52.0384 52.0714 63.9739 37.2714 63.9739ZM37.2714 11.4578C23.1875 11.4578 11.7294 22.9158 11.7294 36.9997C11.7294 51.0836 23.1875 62.5416 37.2714 62.5416C51.3552 62.5416 62.8133 51.0836 62.8133 36.9997C63.052 22.9158 51.3552 11.4578 37.2714 11.4578Z" fill="#50C0D8"/>
<path d="M37.2714 57.7674C25.8133 57.7674 16.5037 48.4577 16.5037 36.9997C16.5037 25.5416 25.8133 16.2319 37.2714 16.2319C48.7295 16.2319 58.0392 25.5416 58.0392 36.9997C58.0392 48.4577 48.7295 57.7674 37.2714 57.7674ZM37.2714 17.4255C26.5295 17.4255 17.6972 26.2577 17.6972 36.9997C17.6972 47.7416 26.5295 56.5739 37.2714 56.5739C48.0133 56.5739 56.8456 47.7416 56.8456 36.9997C56.8456 26.2577 48.0133 17.4255 37.2714 17.4255Z" fill="#50C0D8"/>
<path d="M37.2718 50.3673C29.8718 50.3673 23.9041 44.3996 23.9041 36.9996C23.9041 29.5996 29.8718 23.6318 37.2718 23.6318C44.6718 23.6318 50.6395 29.5996 50.6395 36.9996C50.6395 44.3996 44.6718 50.3673 37.2718 50.3673ZM37.2718 24.8254C30.5879 24.8254 25.0976 30.3157 25.0976 36.9996C25.0976 43.6834 30.5879 49.1738 37.2718 49.1738C43.9557 49.1738 49.446 43.6834 49.446 36.9996C49.446 30.3157 43.9557 24.8254 37.2718 24.8254Z" fill="#50C0D8"/>
<path d="M37.9872 6.92236H36.7937V29.5998H37.9872V6.92236Z" fill="#50C0D8"/>
<path d="M37.9872 44.3999H36.7937V67.0773H37.9872V44.3999Z" fill="#50C0D8"/>
<path d="M29.8715 36.5225H7.19409V37.716H29.8715V36.5225Z" fill="#50C0D8"/>
<path d="M67.3491 36.5225H44.6716V37.716H67.3491V36.5225Z" fill="#50C0D8"/>
</svg>
