<svg width="100" height="63" viewBox="0 0 100 63" fill="none" xmlns="http://www.w3.org/2000/svg">
<path d="M35.26 58.563H33.2715V62.4198H35.26V58.563Z" fill="#EBCF6D"/>
<path d="M38.0295 58.563H36.041V62.4198H38.0295V58.563Z" fill="#EBCF6D"/>
<path d="M40.7991 58.563H38.8105V62.4198H40.7991V58.563Z" fill="#EBCF6D"/>
<path d="M43.4983 58.563H41.5098V62.4198H43.4983V58.563Z" fill="#EBCF6D"/>
<path d="M46.2678 58.563H44.2793V62.4198H46.2678V58.563Z" fill="#EBCF6D"/>
<path d="M49.0374 58.563H47.0488V62.4198H49.0374V58.563Z" fill="#EBCF6D"/>
<path d="M51.7366 58.563H49.748V62.4198H51.7366V58.563Z" fill="#EBCF6D"/>
<path d="M54.5061 58.563H52.5176V62.4198H54.5061V58.563Z" fill="#EBCF6D"/>
<path d="M57.2756 58.563H55.2871V62.4198H57.2756V58.563Z" fill="#EBCF6D"/>
<path d="M59.9749 58.563H57.9863V62.4198H59.9749V58.563Z" fill="#EBCF6D"/>
<path d="M62.7444 58.563H60.7559V62.4198H62.7444V58.563Z" fill="#EBCF6D"/>
<path d="M65.26 58.563H63.2715V62.4198H65.26V58.563Z" fill="#EBCF6D"/>
<path d="M68.0295 58.563H66.041V62.4198H68.0295V58.563Z" fill="#EBCF6D"/>
<path d="M70.7991 58.563H68.8105V62.4198H70.7991V58.563Z" fill="#EBCF6D"/>
<path d="M73.4983 58.563H71.5098V62.4198H73.4983V58.563Z" fill="#EBCF6D"/>
<path d="M76.2678 58.563H74.2793V62.4198H76.2678V58.563Z" fill="#EBCF6D"/>
<path d="M79.0374 58.563H77.0488V62.4198H79.0374V58.563Z" fill="#EBCF6D"/>
<path d="M81.7366 58.563H79.748V62.4198H81.7366V58.563Z" fill="#EBCF6D"/>
<path d="M84.5061 58.563H82.5176V62.4198H84.5061V58.563Z" fill="#EBCF6D"/>
<path d="M87.2756 58.563H85.2871V62.4198H87.2756V58.563Z" fill="#EBCF6D"/>
<path d="M0.271484 56.5714V9.15126L7.75888 0H56.011L58.5068 2.4958H89.2883L99.2715 9.15126V44.0924L89.2883 56.5714H32.7169H30.2211V51.5798H26.0614V56.5714H21.0698V51.5798H9.42274V56.5714H0.271484Z" fill="#4E4C4F"/>
<path d="M2.27148 6L60.2715 59" stroke="#6C6C6C" stroke-width="0.5"/>
<path d="M10.2715 0.562988L73.2715 58.563" stroke="#6C6C6C" stroke-width="0.5"/>
<path d="M6.27148 2.56299L66.2715 58.563" stroke="#6C6C6C" stroke-width="0.5"/>
<path d="M16.2715 0.562988L79.2715 58.563" stroke="#6C6C6C" stroke-width="0.5"/>
<path d="M23.2715 0.562988L85.2715 58.563" stroke="#6C6C6C" stroke-width="0.5"/>
<path d="M36.2715 0.562988L92.2715 52.563" stroke="#6C6C6C" stroke-width="0.5"/>
<path d="M29.2715 0.562988L89.2715 56.563" stroke="#6C6C6C" stroke-width="0.5"/>
<path d="M43.2715 0.562988L95.2715 48.563" stroke="#6C6C6C" stroke-width="0.5"/>
<path d="M46.8595 26.6217C46.8595 37.5556 37.9856 46.588 26.8931 46.588C15.9592 46.588 6.92676 37.7141 6.92676 26.6217C6.92676 15.6877 15.8007 6.65527 26.8931 6.65527C37.9856 6.65527 46.8595 15.6877 46.8595 26.6217Z" fill="#DFE0E6"/>
<path d="M33.5487 26.6218C33.5487 30.2715 30.543 33.2772 26.8933 33.2772C23.2435 33.2772 20.2378 30.2715 20.2378 26.6218C20.2378 22.972 23.2435 19.9663 26.8933 19.9663C30.543 19.9663 33.5487 22.972 33.5487 26.6218Z" fill="#4E4C4F"/>
<path d="M24.8635 23.9242C24.8635 23.9242 22.4334 13.8047 14.3775 17.052C14.3775 17.052 14.3976 12.1096 20.514 10.6966C24.1565 9.9476 29.75 15.5868 25.8491 24.6471L24.8635 23.9242Z" fill="#4E4C4F"/>
<path d="M23.7097 26.5913C23.7097 26.5913 13.6443 23.946 12.695 32.5798C12.695 32.5798 8.34994 30.2244 9.99804 24.1671C11.0609 20.6035 18.6751 18.3425 24.8128 26.0649L23.7097 26.5913Z" fill="#4E4C4F"/>
<path d="M28.1693 28.5202C28.1693 28.5202 30.5994 38.6397 38.6554 35.3924C38.6554 35.3924 38.6353 40.3348 32.5188 41.7477C28.8763 42.4968 23.2828 36.8576 27.1838 27.7973L28.1693 28.5202Z" fill="#4E4C4F"/>
<path d="M29.3247 25.8533C29.3247 25.8533 39.39 28.4986 40.3393 19.8649C40.3393 19.8649 44.6844 22.2203 43.0363 28.2776C41.9734 31.8412 34.3592 34.1022 28.2216 26.3798L29.3247 25.8533Z" fill="#4E4C4F"/>
<path d="M25.2038 28.7317C25.2038 28.7317 17.2495 35.4426 23.7652 41.1862C23.7652 41.1862 19.3388 43.3851 15.3325 38.5523C13.0292 35.6327 15.5604 28.104 25.4079 27.5266L25.2038 28.7317Z" fill="#4E4C4F"/>
<path d="M27.8289 23.7136C27.8289 23.7136 35.7833 17.0026 29.2676 11.259C29.2676 11.259 33.6939 9.06012 37.7003 13.893C40.0035 16.8125 37.4724 24.3412 27.6249 24.9187L27.8289 23.7136Z" fill="#4E4C4F"/>
<path d="M26.8948 44.5274C17.07 44.5274 9.14673 36.6045 9.14673 26.7801C9.14673 16.9556 17.07 9.03271 26.8948 9.03271C36.7197 9.03271 44.6429 16.9556 44.6429 26.7801C44.6429 36.6045 36.7197 44.5274 26.8948 44.5274ZM26.8948 9.66655C17.5454 9.66655 9.93905 17.2726 9.93905 26.6216C9.93905 35.9706 17.5454 43.5767 26.8948 43.5767C36.2443 43.5767 43.8506 35.9706 43.8506 26.6216C44.0091 17.2726 36.2443 9.66655 26.8948 9.66655Z" fill="#50C0D8"/>
<path d="M26.8941 40.4062C19.2878 40.4062 13.1077 34.2264 13.1077 26.6204C13.1077 19.0144 19.2878 12.8345 26.8941 12.8345C34.5005 12.8345 40.6806 19.0144 40.6806 26.6204C40.6806 34.2264 34.5005 40.4062 26.8941 40.4062ZM26.8941 13.6268C19.7632 13.6268 13.9 19.4897 13.9 26.6204C13.9 33.751 19.7632 39.614 26.8941 39.614C34.0251 39.614 39.8883 33.751 39.8883 26.6204C39.8883 19.4897 34.0251 13.6268 26.8941 13.6268Z" fill="#50C0D8"/>
<path d="M26.8946 35.4949C21.9821 35.4949 18.0205 31.5334 18.0205 26.6212C18.0205 21.709 21.9821 17.7476 26.8946 17.7476C31.807 17.7476 35.7686 21.709 35.7686 26.6212C35.7686 31.5334 31.807 35.4949 26.8946 35.4949ZM26.8946 18.5399C22.4575 18.5399 18.8128 22.1844 18.8128 26.6212C18.8128 31.0581 22.4575 34.7026 26.8946 34.7026C31.3316 34.7026 34.9763 31.0581 34.9763 26.6212C34.9763 22.1844 31.3316 18.5399 26.8946 18.5399Z" fill="#50C0D8"/>
<path d="M27.3695 6.65576H26.5771V21.7093H27.3695V6.65576Z" fill="#50C0D8"/>
<path d="M27.3695 31.5347H26.5771V46.5882H27.3695V31.5347Z" fill="#50C0D8"/>
<path d="M21.9814 26.3047H6.92725V27.097H21.9814V26.3047Z" fill="#50C0D8"/>
<path d="M46.8594 26.3047H31.8052V27.097H46.8594V26.3047Z" fill="#50C0D8"/>
<path d="M91.7838 26.6221C91.7838 37.5561 82.9099 46.5885 71.8175 46.5885C60.8835 46.5885 51.8511 37.7146 51.8511 26.6221C51.8511 15.6882 60.725 6.65576 71.8175 6.65576C82.9099 6.65576 91.7838 15.6882 91.7838 26.6221Z" fill="#DFE0E6"/>
<path d="M78.473 26.6223C78.473 30.272 75.4673 33.2777 71.8176 33.2777C68.1678 33.2777 65.1621 30.272 65.1621 26.6223C65.1621 22.9725 68.1678 19.9668 71.8176 19.9668C75.4673 19.9668 78.473 22.9725 78.473 26.6223Z" fill="#4E4C4F"/>
<path d="M69.7878 23.9242C69.7878 23.9242 67.3577 13.8047 59.3018 17.052C59.3018 17.052 59.3219 12.1096 65.4383 10.6966C69.0808 9.9476 74.6743 15.5868 70.7734 24.6471L69.7878 23.9242Z" fill="#4E4C4F"/>
<path d="M68.634 26.5913C68.634 26.5913 58.5687 23.946 57.6193 32.5798C57.6193 32.5798 53.2743 30.2244 54.9224 24.1671C55.9853 20.6035 63.5994 18.3425 69.7371 26.0649L68.634 26.5913Z" fill="#4E4C4F"/>
<path d="M73.0936 28.5202C73.0936 28.5202 75.5237 38.6397 83.5797 35.3924C83.5797 35.3924 83.5596 40.3348 77.4431 41.7477C73.8006 42.4968 68.2071 36.8576 72.1081 27.7973L73.0936 28.5202Z" fill="#4E4C4F"/>
<path d="M74.249 25.8533C74.249 25.8533 84.3144 28.4986 85.2637 19.8649C85.2637 19.8649 89.6087 22.2203 87.9606 28.2776C86.8977 31.8412 79.2836 34.1022 73.1459 26.3798L74.249 25.8533Z" fill="#4E4C4F"/>
<path d="M70.1282 28.7317C70.1282 28.7317 62.1738 35.4426 68.6895 41.1862C68.6895 41.1862 64.2632 43.3851 60.2568 38.5523C57.9536 35.6327 60.4847 28.104 70.3322 27.5266L70.1282 28.7317Z" fill="#4E4C4F"/>
<path d="M72.7533 23.7136C72.7533 23.7136 80.7076 17.0026 74.1919 11.259C74.1919 11.259 78.6183 9.06012 82.6246 13.893C84.9279 16.8125 82.3967 24.3412 72.5492 24.9187L72.7533 23.7136Z" fill="#4E4C4F"/>
<path d="M71.8184 44.5274C61.9936 44.5274 54.0703 36.6045 54.0703 26.7801C54.0703 16.9556 61.9936 9.03271 71.8184 9.03271C81.6433 9.03271 89.5665 16.9556 89.5665 26.7801C89.5665 36.6045 81.6433 44.5274 71.8184 44.5274ZM71.8184 9.66655C62.469 9.66655 54.8626 17.2726 54.8626 26.6216C54.8626 35.9706 62.469 43.5767 71.8184 43.5767C81.1679 43.5767 88.7742 35.9706 88.7742 26.6216C88.9327 17.2726 81.1679 9.66655 71.8184 9.66655Z" fill="#50C0D8"/>
<path d="M71.8185 40.4067C64.2121 40.4067 58.032 34.2269 58.032 26.6208C58.032 19.0148 64.2121 12.835 71.8185 12.835C79.4248 12.835 85.6049 19.0148 85.6049 26.6208C85.6049 34.2269 79.4248 40.4067 71.8185 40.4067ZM71.8185 13.6273C64.6875 13.6273 58.8243 19.4902 58.8243 26.6208C58.8243 33.7515 64.6875 39.6144 71.8185 39.6144C78.9494 39.6144 84.8126 33.7515 84.8126 26.6208C84.8126 19.4902 78.9494 13.6273 71.8185 13.6273Z" fill="#50C0D8"/>
<path d="M71.8181 35.4954C66.9057 35.4954 62.9441 31.5339 62.9441 26.6217C62.9441 21.7095 66.9057 17.748 71.8181 17.748C76.7306 17.748 80.6922 21.7095 80.6922 26.6217C80.6922 31.5339 76.7306 35.4954 71.8181 35.4954ZM71.8181 18.5403C67.3811 18.5403 63.7364 22.1849 63.7364 26.6217C63.7364 31.0586 67.3811 34.7031 71.8181 34.7031C76.2552 34.7031 79.8999 31.0586 79.8999 26.6217C79.8999 22.1849 76.2552 18.5403 71.8181 18.5403Z" fill="#50C0D8"/>
<path d="M72.2931 6.65576H71.5007V21.7093H72.2931V6.65576Z" fill="#50C0D8"/>
<path d="M72.2928 31.5352H71.5005V46.5887H72.2928V31.5352Z" fill="#50C0D8"/>
<path d="M66.9048 26.3047H51.8506V27.097H66.9048V26.3047Z" fill="#50C0D8"/>
<path d="M91.7834 26.3047H76.7292V27.097H91.7834V26.3047Z" fill="#50C0D8"/>
<rect x="33.2715" y="56.563" width="54" height="3" fill="#7AA343"/>
<path d="M86.6134 52.234C86.6134 53.1888 85.8973 53.9049 84.9425 53.9049C83.9876 53.9049 83.2715 53.1888 83.2715 52.234C83.2715 51.2791 83.9876 50.563 84.9425 50.563C85.8973 50.563 86.6134 51.2791 86.6134 52.234Z" fill="#D0D1D6"/>
<path d="M96.6134 41.234C96.6134 42.1888 95.8973 42.9049 94.9425 42.9049C93.9876 42.9049 93.2715 42.1888 93.2715 41.234C93.2715 40.2791 93.9876 39.563 94.9425 39.563C95.8973 39.563 96.6134 40.2791 96.6134 41.234Z" fill="#D0D1D6"/>
<path d="M55.6134 4.23395C55.6134 5.18879 54.8973 5.90492 53.9425 5.90492C52.9876 5.90492 52.2715 5.18879 52.2715 4.23395C52.2715 3.27911 52.9876 2.56299 53.9425 2.56299C54.8973 2.56299 55.6134 3.27911 55.6134 4.23395Z" fill="#D0D1D6"/>
<path d="M35.6134 53.234C35.6134 54.1888 34.8973 54.9049 33.9425 54.9049C32.9876 54.9049 32.2715 54.1888 32.2715 53.234C32.2715 52.2791 32.9876 51.563 33.9425 51.563C34.8973 51.563 35.6134 52.2791 35.6134 53.234Z" fill="#D0D1D6"/>
<path d="M6.61342 53.234C6.61342 54.1888 5.89729 54.9049 4.94245 54.9049C3.98761 54.9049 3.27148 54.1888 3.27148 53.234C3.27148 52.2791 3.98761 51.563 4.94245 51.563C5.89729 51.563 6.61342 52.2791 6.61342 53.234Z" fill="#D0D1D6"/>
<path d="M8.61342 8.23395C8.61342 9.18879 7.89729 9.90492 6.94245 9.90492C5.98761 9.90492 5.27148 9.18879 5.27148 8.23395C5.27148 7.27911 5.98761 6.56299 6.94245 6.56299C7.89729 6.56299 8.61342 7.27911 8.61342 8.23395Z" fill="#D0D1D6"/>
</svg>
