<svg width="14" height="14" viewBox="0 0 14 14" fill="none" xmlns="http://www.w3.org/2000/svg">
<path fill-rule="evenodd" clip-rule="evenodd" d="M12.9808 0.460938H1.01923C0.61098 0.460938 0.280029 0.791889 0.280029 1.20014V13.1617C0.280029 13.3578 0.357909 13.5458 0.496536 13.6844C0.635163 13.8231 0.823181 13.9009 1.01923 13.9009H7.45699V8.69294H5.70979V6.67694H7.45699V5.16494C7.38373 4.44638 7.63178 3.73218 8.13468 3.21373C8.63757 2.69528 9.34389 2.42559 10.0643 2.47694C10.5874 2.47372 11.1102 2.50064 11.6301 2.55758V4.37198H10.5616C9.71491 4.37198 9.55363 4.77518 9.55363 5.35982V6.65678H11.5696L11.3075 8.67278H9.55363V13.9009H12.9808C13.1769 13.9009 13.3649 13.8231 13.5035 13.6844C13.6421 13.5458 13.72 13.3578 13.72 13.1617V1.20014C13.72 1.00409 13.6421 0.816071 13.5035 0.677444C13.3649 0.538817 13.1769 0.460937 12.9808 0.460938Z" fill="#F1F1F1"/>
</svg>
