<svg width="25" height="26" viewBox="0 0 25 26" fill="none" xmlns="http://www.w3.org/2000/svg">
<path d="M23.2131 0.95752H1.78593C1.052 0.95752 0.457031 1.55249 0.457031 2.28642V23.7136C0.457031 24.4475 1.052 25.0425 1.78593 25.0425H23.2131C23.947 25.0425 24.542 24.4475 24.542 23.7136V2.28642C24.542 1.55249 23.947 0.95752 23.2131 0.95752Z" fill="#0866FF"/>
<path d="M17.0733 25.0404V15.7137H20.2033L20.6713 12.0791H17.0733V9.7591C17.0733 8.70697 17.3664 7.9886 18.8744 7.9886H20.7995V4.7325C19.8673 4.63534 18.9305 4.58914 17.9932 4.59411C15.2214 4.59411 13.3125 6.28321 13.3125 9.39889V12.0791H10.1826V15.7137H13.3125V25.0404H17.0733Z" fill="white"/>
</svg>
