<svg width="21" height="22" viewBox="0 0 21 22" fill="none" xmlns="http://www.w3.org/2000/svg">
<path d="M7.28927 1.11364C5.17447 1.84728 3.35066 3.23977 2.08574 5.08655C0.820828 6.93334 0.181472 9.13709 0.26159 11.3741C0.341708 13.6111 1.13708 15.7635 2.53087 17.515C3.92466 19.2666 5.84341 20.525 8.00528 21.1055C9.75795 21.5578 11.5942 21.5776 13.3563 21.1634C14.9525 20.8049 16.4283 20.0379 17.6391 18.9377C18.8993 17.7576 19.8139 16.2563 20.2848 14.5953C20.7965 12.7891 20.8875 10.8896 20.5511 9.0426H10.7089V13.1253H16.4088C16.2949 13.7765 16.0508 14.398 15.6911 14.9526C15.3314 15.5072 14.8635 15.9835 14.3154 16.3531C13.6194 16.8137 12.8348 17.1235 12.0119 17.2626C11.1867 17.4161 10.3402 17.4161 9.515 17.2626C8.67854 17.0898 7.88728 16.7446 7.19171 16.2489C6.07413 15.4578 5.23498 14.334 4.79401 13.0377C4.3457 11.7171 4.3457 10.2855 4.79401 8.96488C5.1079 8.03923 5.62681 7.19642 6.312 6.49938C7.09612 5.68705 8.08884 5.10639 9.18124 4.82111C10.2736 4.53583 11.4235 4.55696 12.5047 4.88217C13.3493 5.14132 14.1217 5.59433 14.7602 6.20504C15.4029 5.56565 16.0445 4.92461 16.685 4.28191C17.0157 3.93631 17.3762 3.60725 17.7019 3.25338C16.7272 2.34642 15.5831 1.64064 14.3352 1.17648C12.0627 0.351317 9.57615 0.329142 7.28927 1.11364Z" fill="white"/>
<path d="M7.28907 1.11347C9.57575 0.328436 12.0623 0.350028 14.335 1.17465C15.5831 1.64197 16.7267 2.35114 17.7001 3.26148C17.3693 3.61535 17.0204 3.94606 16.6831 4.29001C16.0415 4.9305 15.4005 5.56878 14.76 6.20487C14.1215 5.59416 13.3491 5.14115 12.5045 4.88199C11.4237 4.55564 10.2738 4.5333 9.18114 4.81741C8.08845 5.10152 7.09512 5.68111 6.31014 6.49259C5.62495 7.18964 5.10604 8.03244 4.79215 8.95809L1.36426 6.30408C2.59123 3.87093 4.71567 2.00975 7.28907 1.11347Z" fill="#E33629"/>
<path d="M0.45504 8.93341C0.63915 8.02025 0.945041 7.13594 1.36451 6.3042L4.7924 8.96482C4.3441 10.2854 4.3441 11.717 4.7924 13.0376C3.65032 13.9195 2.5077 14.8059 1.36451 15.6966C0.314734 13.607 -0.00543016 11.2261 0.45504 8.93341Z" fill="#F8BD00"/>
<path d="M10.7087 9.04102H20.5509C20.8874 10.888 20.7963 12.7875 20.2847 14.5938C19.8138 16.2548 18.8991 17.756 17.6389 18.9361C16.5327 18.0729 15.4215 17.2164 14.3152 16.3532C14.8637 15.9832 15.3318 15.5064 15.6915 14.9512C16.0512 14.3959 16.2952 13.7738 16.4087 13.1221H10.7087C10.7071 11.7628 10.7087 10.4019 10.7087 9.04102Z" fill="#587DBD"/>
<path d="M1.36328 15.6966C2.50646 14.8147 3.64909 13.9283 4.79117 13.0376C5.23302 14.3343 6.07337 15.4583 7.19218 16.2489C7.88991 16.7422 8.68288 17.0847 9.52043 17.2542C10.3457 17.4077 11.1921 17.4077 12.0174 17.2542C12.8402 17.1152 13.6249 16.8054 14.3208 16.3448C15.4271 17.2079 16.5383 18.0645 17.6445 18.9277C16.4339 20.0285 14.9581 20.796 13.3617 21.1551C11.5997 21.5693 9.76338 21.5494 8.01071 21.0972C6.62451 20.7271 5.3297 20.0746 4.20745 19.1807C3.01973 18.2375 2.04958 17.0491 1.36328 15.6966Z" fill="#319F43"/>
</svg>
