<svg width="25" height="25" viewBox="0 0 25 25" fill="none" xmlns="http://www.w3.org/2000/svg">
<path d="M16.8818 23.125C17.8483 23.125 18.6318 22.3415 18.6318 21.375C18.6318 20.4085 17.8483 19.625 16.8818 19.625C15.9153 19.625 15.1318 20.4085 15.1318 21.375C15.1318 22.3415 15.9153 23.125 16.8818 23.125Z" fill="white"/>
<path d="M8.88184 23.125C9.84833 23.125 10.6318 22.3415 10.6318 21.375C10.6318 20.4085 9.84833 19.625 8.88184 19.625C7.91534 19.625 7.13184 20.4085 7.13184 21.375C7.13184 22.3415 7.91534 23.125 8.88184 23.125Z" fill="white"/>
<path d="M5.47184 4.565L5.27184 7.015C5.23184 7.485 5.60184 7.875 6.07184 7.875H21.3818C21.8018 7.875 22.1518 7.555 22.1818 7.135C22.3118 5.365 20.9618 3.925 19.1918 3.925H6.90184C6.80184 3.485 6.60184 3.065 6.29184 2.715C5.79184 2.185 5.09184 1.875 4.37184 1.875H2.63184C2.22184 1.875 1.88184 2.215 1.88184 2.625C1.88184 3.035 2.22184 3.375 2.63184 3.375H4.37184C4.68184 3.375 4.97184 3.505 5.18184 3.725C5.39184 3.955 5.49184 4.255 5.47184 4.565Z" fill="white"/>
<path d="M21.1419 9.375H5.80189C5.38189 9.375 5.04189 9.695 5.00189 10.105L4.64189 14.455C4.50189 16.165 5.84189 17.625 7.55189 17.625H18.6719C20.1719 17.625 21.4919 16.395 21.6019 14.895L21.9319 10.225C21.9719 9.765 21.6119 9.375 21.1419 9.375Z" fill="white"/>
</svg>
