<svg width="25" height="26" viewBox="0 0 25 26" fill="none" xmlns="http://www.w3.org/2000/svg">
<g clip-path="url(#clip0_3168_9143)">
<path d="M5.35686 24.607H10.714M8.03544 24.607V21.0356M0.892578 12.107V19.2499C0.892578 19.7235 1.08072 20.1777 1.4156 20.5126C1.75049 20.8474 2.20469 21.0356 2.67829 21.0356H13.3926C13.8662 21.0356 14.3204 20.8474 14.6553 20.5126C14.9902 20.1777 15.1783 19.7235 15.1783 19.2499V12.107C15.1783 11.6334 14.9902 11.1792 14.6553 10.8443C14.3204 10.5094 13.8662 10.3213 13.3926 10.3213H2.67829C2.20469 10.3213 1.75049 10.5094 1.4156 10.8443C1.08072 11.1792 0.892578 11.6334 0.892578 12.107Z" stroke="white" stroke-width="1.8" strokeLinecap="round" stroke-linejoin="round"/>
<path d="M13.3926 6.75007V5.85721C13.3926 5.62041 13.4866 5.39331 13.6541 5.22587C13.8215 5.05842 14.0486 4.96436 14.2854 4.96436H23.214C23.4508 4.96436 23.6779 5.05842 23.8454 5.22587C24.0128 5.39331 24.1069 5.62041 24.1069 5.85721V23.7144C24.1069 23.9512 24.0128 24.1783 23.8454 24.3457C23.6779 24.5131 23.4508 24.6072 23.214 24.6072H16.0711" stroke="white" stroke-width="1.8" strokeLinecap="round" stroke-linejoin="round"/>
<path d="M18.75 12.9999H24.1071M20.3125 9.20522C20.2533 9.20522 20.1965 9.1817 20.1547 9.13984C20.1128 9.09798 20.0893 9.0412 20.0893 8.982C20.0893 8.9228 20.1128 8.86603 20.1547 8.82417C20.1965 8.78231 20.2533 8.75879 20.3125 8.75879C20.3717 8.75879 20.4285 8.78231 20.4703 8.82417C20.5122 8.86603 20.5357 8.9228 20.5357 8.982C20.5357 9.0412 20.5122 9.09798 20.4703 9.13984C20.4285 9.1817 20.3717 9.20522 20.3125 9.20522Z" stroke="white" stroke-width="1.8" strokeLinecap="round" stroke-linejoin="round"/>
</g>
<defs>
<clipPath id="clip0_3168_9143">
<rect width="25" height="25" fill="white" transform="translate(0 0.5)"/>
</clipPath>
</defs>
</svg>
