<svg width="15" height="15" viewBox="0 0 15 15" fill="none" xmlns="http://www.w3.org/2000/svg">
<path fill-rule="evenodd" clip-rule="evenodd" d="M11.0713 2.93616C10.7315 2.93616 10.4252 3.14082 10.2952 3.45471C10.1652 3.76859 10.237 4.12989 10.4773 4.37013C10.7175 4.61037 11.0788 4.68223 11.3927 4.55222C11.7066 4.4222 11.9113 4.11591 11.9113 3.77616C11.9113 3.31224 11.5352 2.93616 11.0713 2.93616ZM14.2913 4.63016C14.2776 4.04937 14.1689 3.47474 13.9693 2.92916C13.7913 2.46235 13.5142 2.03966 13.1573 1.69016C12.8106 1.33136 12.3869 1.05608 11.9183 0.88516C11.3741 0.679473 10.7988 0.568207 10.2173 0.55616C9.47525 0.51416 9.23725 0.51416 7.33325 0.51416C5.42925 0.51416 5.19125 0.51416 4.44925 0.55616C3.86766 0.568207 3.29239 0.679473 2.74825 0.88516C2.28043 1.05781 1.85711 1.33285 1.50925 1.69016C1.15045 2.03678 0.875175 2.46047 0.704252 2.92916C0.498565 3.4733 0.387299 4.04857 0.375252 4.63016C0.333252 5.37216 0.333252 5.61016 0.333252 7.51416C0.333252 9.41816 0.333252 9.65616 0.375252 10.3982C0.387299 10.9798 0.498565 11.555 0.704252 12.0992C0.875175 12.5679 1.15045 12.9915 1.50925 13.3382C1.85711 13.6955 2.28043 13.9705 2.74825 14.1432C3.29239 14.3488 3.86766 14.4601 4.44925 14.4722C5.19125 14.5142 5.42925 14.5142 7.33325 14.5142C9.23725 14.5142 9.47525 14.5142 10.2173 14.4722C10.7988 14.4601 11.3741 14.3488 11.9183 14.1432C12.3869 13.9722 12.8106 13.697 13.1573 13.3382C13.5158 12.99 13.7931 12.5669 13.9693 12.0992C14.1689 11.5536 14.2776 10.979 14.2913 10.3982C14.2913 9.65616 14.3333 9.41816 14.3333 7.51416C14.3333 5.61016 14.3333 5.37216 14.2913 4.63016ZM13.0313 10.3142C13.0262 10.7585 12.9457 11.1988 12.7933 11.6162C12.6815 11.9208 12.502 12.1961 12.2683 12.4212C12.0412 12.6525 11.7665 12.8317 11.4633 12.9462C11.0458 13.0986 10.6056 13.1791 10.1613 13.1842C9.46125 13.2192 9.20225 13.2262 7.36125 13.2262C5.52025 13.2262 5.26125 13.2262 4.56125 13.1842C4.09988 13.1928 3.64047 13.1218 3.20325 12.9742C2.9133 12.8538 2.6512 12.6751 2.43325 12.4492C2.20091 12.2243 2.02364 11.9488 1.91525 11.6442C1.74435 11.2208 1.64956 10.7705 1.63525 10.3142C1.63525 9.61416 1.59325 9.35516 1.59325 7.51416C1.59325 5.67316 1.59325 5.41416 1.63525 4.71416C1.63839 4.2599 1.72132 3.80972 1.88025 3.38416C2.00348 3.0887 2.19264 2.82532 2.43325 2.61416C2.64592 2.37348 2.90875 2.18233 3.20325 2.05416C3.62994 1.90019 4.07965 1.81972 4.53325 1.81616C5.23325 1.81616 5.49225 1.77416 7.33325 1.77416C9.17425 1.77416 9.43325 1.77416 10.1333 1.81616C10.5776 1.82126 11.0178 1.90173 11.4353 2.05416C11.7534 2.17222 12.0389 2.36415 12.2683 2.61416C12.4976 2.82919 12.6769 3.09207 12.7933 3.38416C12.9488 3.81041 13.0294 4.26041 13.0313 4.71416C13.0663 5.41416 13.0733 5.67316 13.0733 7.51416C13.0733 9.35516 13.0663 9.61416 13.0313 10.3142ZM7.33325 3.92316C5.35091 3.92702 3.74668 5.53648 3.74925 7.51882C3.75183 9.50116 5.36024 11.1064 7.34258 11.1052C9.32492 11.1039 10.9312 9.4965 10.9313 7.51416C10.9331 6.55998 10.5544 5.64445 9.87906 4.9704C9.2037 4.29635 8.28743 3.91943 7.33325 3.92316ZM7.33325 9.84516C6.04588 9.84516 5.00225 8.80154 5.00225 7.51416C5.00225 6.22678 6.04588 5.18316 7.33325 5.18316C8.62063 5.18316 9.66425 6.22678 9.66425 7.51416C9.66425 8.13238 9.41866 8.72528 8.98152 9.16243C8.54437 9.59957 7.95147 9.84516 7.33325 9.84516Z" fill="#F1F1F1"/>
</svg>
