<svg width="113" height="91" viewBox="0 0 113 91" fill="none" xmlns="http://www.w3.org/2000/svg">
<path d="M67.6163 76.7588H45.0168C44.7917 76.7588 44.6012 76.9252 44.5711 77.1483L43.2953 86.5987C43.2819 86.6984 43.2353 86.7908 43.1631 86.861L40.471 89.4783C40.1815 89.7598 40.3808 90.2505 40.7845 90.2505H71.8486C72.2523 90.2505 72.4515 89.7598 72.1621 89.4783L69.4699 86.861C69.3977 86.7908 69.3512 86.6984 69.3377 86.5987L68.0619 77.1483C68.0318 76.9252 67.8414 76.7588 67.6163 76.7588Z" fill="#2C2F30"/>
<rect x="0.101562" y="0.305664" width="112.431" height="77.3525" rx="2.69834" fill="#2C2F30"/>
<rect x="3.69922" y="3.90332" width="105.235" height="63.8608" rx="2.69834" fill="#43474A"/>
<rect x="3.69922" y="3.90332" width="105.235" height="61.1624" rx="1.79889" fill="#4B4B4B"/>
<path opacity="0.05" d="M55.8672 3.90332L23.8686 67.7641H5.33458C4.40787 67.7641 3.69922 66.9572 3.69922 66.035V5.69004C3.69922 4.71023 4.46239 3.96096 5.33458 3.96096H55.8672V3.90332Z" fill="white"/>
<path opacity="0.05" d="M108.934 23.6914L89.1465 67.7643H98.1031L108.934 48.4996V23.6914Z" fill="white"/>
<path d="M106.798 74.2364H105.426C104.877 74.2364 104.438 73.7976 104.438 73.249C104.438 72.7005 104.877 72.2617 105.426 72.2617H106.798C107.347 72.2617 107.787 72.7005 107.787 73.249C107.787 73.7976 107.347 74.2364 106.798 74.2364Z" fill="#B5A34D"/>
</svg>
