<svg width="101" height="100" viewBox="0 0 101 100" fill="none" xmlns="http://www.w3.org/2000/svg">
<g clip-path="url(#clip0_1344_10729)">
<path d="M58.8215 69.6756H41.7215C36.0215 69.6756 31.2715 64 31.2715 57V31.0811H69.2715V57C69.2715 64 64.7115 69.6756 58.8215 69.6756Z" fill="#1D6174"/>
<path d="M66.0414 15H34.6914V31.0811H66.0414V15Z" fill="#B3B3B3"/>
<path d="M59.2014 74.7838H41.3414L38.6814 69.2974H61.8614L59.2014 74.7838Z" fill="#4E4C4F"/>
<path d="M42.6714 54.7299H41.5314V51.1353H37.3514V54.7299H36.4014V46.9731H37.5414V50.3786H41.7214V46.9731H42.6714V54.7299Z" fill="#50C0D8"/>
<path d="M51.4113 50.7569C51.4113 51.3245 51.4113 51.8921 51.2213 52.2704C51.0313 52.838 50.8413 53.2164 50.4613 53.4056C50.0813 53.784 49.7013 53.9731 49.3213 54.1623C48.5613 54.5407 47.9913 54.7299 47.4213 54.7299H44.5713V46.9731H47.4213C47.9913 46.9731 48.5613 46.9731 48.9413 47.1623C49.3213 47.3515 49.8913 47.5407 50.0813 47.9191C50.4613 48.2975 50.6513 48.6758 50.8413 49.0542C51.2213 49.811 51.4113 50.1894 51.4113 50.7569ZM50.2713 50.7569C50.2713 50.1894 50.2713 49.811 50.0813 49.4326C49.8913 49.0542 49.7013 48.6758 49.5113 48.4867C49.3213 48.2975 48.9413 48.1083 48.5613 47.9191C48.1813 47.7299 47.8013 47.7299 47.4213 47.7299H45.5213V53.784H47.4213C47.8013 53.784 48.1813 53.784 48.5613 53.5948C48.9413 53.4056 49.1313 53.2164 49.5113 53.0272C49.7013 52.838 49.8913 52.4596 50.0813 52.0813C50.2713 51.7029 50.2713 51.3245 50.2713 50.7569Z" fill="#50C0D8"/>
<path d="M56.7315 52.0813C56.7315 52.2704 56.7315 52.2704 56.9215 52.4596C56.9215 52.2704 56.9215 52.2704 57.1115 52.0813C57.1115 52.0813 57.1115 51.8921 57.3015 51.8921L59.7715 47.1623L59.9615 46.9731H60.1515H60.9115V54.7299H59.9615V49.0542V48.865V48.6758L57.3015 53.5948C57.3015 53.784 57.1115 53.784 56.9215 53.784H56.7315C56.5415 53.784 56.3515 53.784 56.3515 53.5948L53.6915 48.6758V48.865V49.0542V54.7299H52.7415V46.9731H53.5015H53.6915C53.6915 46.9731 53.8815 46.9731 53.8815 47.1623L56.5415 51.8921C56.7315 51.8921 56.7315 52.0813 56.7315 52.0813Z" fill="#50C0D8"/>
<path d="M64.1415 54.7299H63.0015V46.9731H64.1415V54.7299Z" fill="#50C0D8"/>
<path d="M47.9914 20.6758H42.4814V24.4596H47.9914V20.6758Z" fill="#787878"/>
<path d="M47.9914 24.4595H42.4814V25.2162H47.9914V24.4595Z" fill="#D9D9D9"/>
<path d="M57.6814 20.6758H52.1714V24.4596H57.6814V20.6758Z" fill="#787878"/>
<path d="M57.6814 24.4595H52.1714V25.2162H57.6814V24.4595Z" fill="#D9D9D9"/>
<path d="M59.2015 74.7838H41.3415L40.5815 73.0811H59.9615L59.2015 74.7838Z" fill="#B3B3B3"/>
<path d="M55.5914 74.7837H44.9514V84.9999H55.5914V74.7837Z" fill="#4E4C4F"/>
</g>
<defs>
<clipPath id="clip0_1344_10729">
<rect width="38" height="70" fill="white" transform="translate(31.2715 15)"/>
</clipPath>
</defs>
</svg>
