<svg width="15" height="15" viewBox="0 0 15 15" fill="none" xmlns="http://www.w3.org/2000/svg">
<path fill-rule="evenodd" clip-rule="evenodd" d="M13.2622 0.514258H1.40424C1.13504 0.510519 0.875383 0.613887 0.682402 0.801617C0.489422 0.989346 0.378932 1.24606 0.375244 1.51526V13.5133C0.378932 13.7825 0.489422 14.0392 0.682402 14.2269C0.875383 14.4146 1.13504 14.518 1.40424 14.5143H13.2622C13.5314 14.518 13.7911 14.4146 13.9841 14.2269C14.1771 14.0392 14.2876 13.7825 14.2912 13.5133V1.51526C14.2876 1.24606 14.1771 0.989346 13.9841 0.801617C13.7911 0.613887 13.5314 0.510519 13.2622 0.514258ZM4.59624 12.2323H2.49624V5.93226H4.59624V12.2323ZM3.54624 5.05026C2.94315 5.05026 2.45424 4.56135 2.45424 3.95826C2.45424 3.35516 2.94315 2.86626 3.54624 2.86626C3.9659 2.81867 4.37571 3.01577 4.6005 3.37333C4.82528 3.73089 4.82528 4.18563 4.6005 4.54319C4.37571 4.90074 3.9659 5.09785 3.54624 5.05026ZM12.1702 12.2323H10.0702V8.85126C10.0702 8.00426 9.76924 7.45126 9.00624 7.45126C8.5226 7.4548 8.09238 7.7593 7.92824 8.21426C7.87347 8.37879 7.84973 8.55206 7.85824 8.72526V12.2253H5.75824C5.75824 12.2253 5.75824 6.49926 5.75824 5.92526H7.85824V6.81426C8.24702 6.13965 8.97715 5.73552 9.75524 5.76426C11.1552 5.76426 12.1702 6.66726 12.1702 8.60626V12.2323Z" fill="#F1F1F1"/>
</svg>
