<svg xmlns="http://www.w3.org/2000/svg" width="1006" height="300" fill="none"><g clip-path="url(#a)"><path fill="#03AC0E" fill-rule="evenodd" d="M683.556 225.63c-7.508 7.653-16.484 11.503-26.895 11.503-8.418 0-15.569-1.725-22.868-5.99v-17.555c5.869 4.003 13.245 7.815 20.524 7.815 15.18 0 24.218-10.498 24.218-25.384 0-14.896-9.348-25.708-24.537-25.708-6.779 0-12.277 2.449-16.575 7.362-4.602 5.323-6.984 12.933-6.984 22.987v69.319h-1.144a15.183 15.183 0 0 1-14.004-9.41 15.181 15.181 0 0 1-1.142-5.815v-56.691c0-24.059 14.632-43.482 39.782-43.482 12.412 0 22.498 4.265 30.144 12.842 7.19 8.011 10.749 18.16 10.749 30.378 0 10.865-3.759 20.162-11.268 27.829Zm176.385-.591c-7.48 8.067-17.104 12.094-28.767 12.094-12.316 0-22.354-4.27-29.991-12.842-7.185-8.111-10.749-18.27-10.749-30.373 0-21.429 16.452-39.337 38.106-39.337 8.351 0 15.603 1.773 22.926 5.814v17.726c-5.87-4.003-13.245-7.815-20.525-7.815-15.179 0-24.222 10.503-24.222 25.394 0 14.686 9.567 25.708 24.536 25.708 6.775 0 12.359-2.554 16.818-7.696 4.441-5.113 6.747-12.623 6.747-22.706V135.83a15.175 15.175 0 0 1 4.42-10.749 15.173 15.173 0 0 1 10.725-4.475h1.144v72.988c0 12.851-3.697 23.373-11.168 31.445Zm46-78.249c-1.71 1.925-4.159 2.812-7.147 2.812-5.593 0-9.595-4.146-9.595-9.726 0-5.709 3.926-9.564 9.591-9.564 5.455 0 9.595 4.065 9.595 9.564 0 2.716-.791 5.056-2.444 6.914Zm82.776 44.216c0-6.457-2.43-11.57-7.309-15.439-4.397-3.483-9.891-5.256-16.575-5.256-14.746 0-24.212 11.584-24.212 25.875 0 13.747 10.038 25.222 24.059 25.222 9.753 0 14.965-5.728 20.53-12.866v20.571c-2.835 2.135-6.094 4.465-9.419 5.828-3.511 1.477-7.704 2.192-12.549 2.192-23.446 0-38.911-19.523-38.911-42.081 0-11.584 3.578-21.162 10.787-28.629 7.647-7.915 17.675-11.842 29.958-11.842 23.278 0 39.934 13.438 39.934 37.716v43.22h-1.14a15.199 15.199 0 0 1-14.012-9.413 15.166 15.166 0 0 1-1.141-5.816v-29.282Zm-223.009-4.641c-2.059-6.4-4.641-9.55-10.577-12.88-14.117-7.93-28.015-1.177-34.475 12.818l45.052.062Zm-12.431 50.525c-10.405 2.225-20.615.51-30.577-5.085-9.719-5.456-16.223-13.566-19.486-24.288-6.594-21.681 6.913-45.841 28.643-51.687 10.767-2.902 21.096-1.587 30.906 3.921 16.294 9.159 22.231 23.321 21.197 41.572l-65.634-.139c.967 7.444 5.555 13.267 12.006 16.888 6.547 3.674 12.559 4.556 18.138 2.812 6.194-1.954 11.225-7.039 15.313-11.77l13.373 9.797c-5.455 9.816-12.883 15.63-23.879 17.979Zm137.37-80.689h16.29v79.316h-1.144a15.188 15.188 0 0 1-14.006-9.413 15.203 15.203 0 0 1-1.14-5.816v-64.087Zm-552.543 79.312c-15.937 0-23.841-10.894-23.841-26.104v-57.72a15.191 15.191 0 0 1 15.151-15.23h1.143v19.742h27.524v15.725h-27.524v39.303c0 6.681 2.964 8.559 9.319 8.559h18.2v15.725h-19.972Zm94.61-10.022c-8.052 7.753-17.723 11.642-28.958 11.642-11.134 0-20.753-3.893-28.8-11.642-8.076-7.786-12.101-17.693-12.101-29.634 0-23.292 17.694-41.276 40.901-41.276 11.135 0 20.782 3.922 28.877 11.732 8.128 7.829 12.187 17.707 12.187 29.544 0 11.941-4.03 21.848-12.101 29.634h-.005Zm76.172-50.205c-2.392 4.026-4.245 6.919-5.55 8.663-1.434 1.896-2.854 3.412-4.26 4.46 11.32 3.679 15.537 11.56 15.537 23.306v23.798h-1.144a15.188 15.188 0 0 1-15.15-15.225v-6.957c0-7.605-3.392-12.766-11.406-12.766h-14.808v34.948h-1.143a15.185 15.185 0 0 1-15.141-15.225V135.83a15.192 15.192 0 0 1 4.417-10.749 15.18 15.18 0 0 1 10.724-4.475h1.143v64.072h4.817c5.289 0 8.767-1.82 10.768-5.261l13.678-23.211 18.567-.019-11.058 19.099h.009Zm84.091 50.205c-8.052 7.753-17.724 11.642-28.958 11.642-11.134 0-20.749-3.893-28.8-11.642-8.076-7.786-12.102-17.693-12.102-29.634 0-23.292 17.695-41.276 40.902-41.276 11.139 0 20.782 3.922 28.881 11.732 8.124 7.829 12.183 17.707 12.183 29.544 0 11.941-4.036 21.848-12.106 29.634Zm-11.759-48.089c-4.488-4.723-10.191-7.091-17.199-7.091-14.993 0-23.965 10.984-23.965 25.546 0 14.362 9.186 25.551 23.965 25.551 14.784 0 23.965-11.189 23.965-25.551 0-7.624-2.278-13.743-6.766-18.455Zm-160.258 0c-4.488-4.723-10.195-7.091-17.199-7.091-14.993 0-23.964 10.984-23.964 25.546 0 14.362 9.185 25.551 23.964 25.551 14.779 0 23.965-11.189 23.965-25.551 0-7.624-2.278-13.743-6.766-18.455Z" clip-rule="evenodd"/></g><path fill="#414242" d="M197.176 61.604C193.612 26.911 164.228-.073 128.662 0 93.096.073 63.858 26.911 59.858 61.386l-.728 8 21.456 1.31.364-7.928c3.273-24.874 21.82-41.603 47.64-41.675 25.892 0 44.948 16.946 47.712 42.111l1.382 10.62 20.801-1.455-1.309-10.765Z"/><path fill="#60BB55" d="M8.073 64.512C3.637 64.512 0 68.15 0 72.658l.218 118.626.073 21.238v5.673l.145 73.314a8.132 8.132 0 0 0 8.146 8.146l73.314-.145h12.801l81.242-.146c44.876-.145 81.46-36.875 81.315-81.678v-5.673l-.218-133.173c0-8.146-6.619-14.764-14.765-14.837-14.983-.073-30.257-.073-45.021.8l-18.474 1.6c-16.51 2.037-33.166 5.746-46.476 12.51-2.4 1.164-5.164 1.237-7.492 0-13.964-7.273-29.165-11.055-46.403-12.946l-18.474-1.382c-17.383-.727-35.057-.291-51.858-.073Z"/><path fill="url(#b)" d="m257.254 212.016-.218-133.172c0-8.146-6.619-14.765-14.765-14.838h-19.929c-1.357.049-2.715.073-4.073.073-.776 0-1.576.024-2.4.073-1.309 0-2.618.024-3.927.072-.776 0-1.552.025-2.328.073l-4.218.145c-.679 0-1.358.025-2.037.073-2.036.049-4.073.146-6.109.291l-18.474 1.6c-1.116.146-2.206.291-3.273.437-.388.048-.752.097-1.091.145-.728.097-1.455.218-2.182.364-.388.048-.8.097-1.237.145-.678.097-1.333.218-1.963.364-.485.048-.946.121-1.382.218-.631.097-1.261.218-1.891.364-.437.048-.897.121-1.382.218-.582.145-1.188.267-1.819.364-.484.097-.945.194-1.381.29-.631.146-1.237.267-1.819.364-.436.146-.897.267-1.382.364-.582.145-1.188.29-1.818.436l-1.309.291a19.78 19.78 0 0 0-1.818.51l-1.31.29-1.891.582a10.7 10.7 0 0 0-1.163.364c-.776.194-1.552.436-2.328.727a5.125 5.125 0 0 0-.654.218c-.97.291-1.94.606-2.91.946a4.032 4.032 0 0 0-.8.364c-.727.242-1.43.484-2.109.727l-1.018.436-1.746.728c-.388.194-.776.363-1.164.509l-1.6.727c-.388.194-.751.388-1.091.582a61.958 61.958 0 0 0-4.727 2.473 94.325 94.325 0 0 0-4.873-2.619 22.55 22.55 0 0 0-1.091-.582 27.95 27.95 0 0 0-1.746-.8 7.492 7.492 0 0 0-1.091-.509c-.63-.29-1.261-.581-1.891-.873a6.665 6.665 0 0 1-.873-.363l-2.909-1.164a.646.646 0 0 1-.291-.073 39.523 39.523 0 0 0-2.545-.945 8.567 8.567 0 0 1-1.019-.364 46.8 46.8 0 0 1-1.964-.654 10.769 10.769 0 0 1-1.163-.364 19.859 19.859 0 0 0-1.819-.51 9.19 9.19 0 0 0-1.236-.363 23.737 23.737 0 0 1-1.746-.509l-1.309-.29-1.745-.437a11.496 11.496 0 0 0-1.382-.364 22.33 22.33 0 0 1-1.746-.364 67.155 67.155 0 0 0-1.382-.29 20.096 20.096 0 0 0-1.818-.364l-1.31-.291-1.89-.291c-.437-.097-.897-.17-1.382-.218a34.194 34.194 0 0 1-1.964-.364l-1.31-.145-2.181-.291a63.948 63.948 0 0 1-1.091-.146l-3.346-.436-18.474-1.382c-2.182-.097-4.364-.17-6.546-.218-1.309-.049-2.642-.073-4-.073-.824 0-1.673-.024-2.545-.073h-7.856a91.649 91.649 0 0 0-5.163 0H27.275c-.873.049-1.746.073-2.619.073l-14.837.145c-.582 0-1.14.025-1.673.073A8.133 8.133 0 0 0 0 72.661l.218 118.626.073 21.238v5.673l.145 73.314a8.132 8.132 0 0 0 8.146 8.146l73.314-.145h12.801l81.242-.146c44.876-.145 81.46-36.875 81.315-81.678v-5.673Z" style="mix-blend-mode:multiply"/><path fill="url(#c)" d="M123.061 83.715c-13.965-8-29.166-12-46.767-13.964l-17.238-1.237c-16.146-.727-32.656-.29-48.221-.145-4.219.073-7.564 3.491-7.564 7.637 54.112-9.6 119.79 7.71 119.79 7.71Z" opacity=".8"/><path fill="#84C468" d="m23.493 299.656 58.404-.145h12.8l81.243-.146a81.143 81.143 0 0 0 52.221-19.201c-16.582-38.475-54.84-65.314-99.352-65.168-51.567.073-94.624 36.293-105.316 84.66Z"/><path fill="url(#d)" d="m23.493 299.656 58.404-.145h12.8l81.243-.146a81.143 81.143 0 0 0 52.221-19.201c-16.582-38.475-54.84-65.314-99.352-65.168-51.567.073-94.624 36.293-105.316 84.66Z" style="mix-blend-mode:multiply"/><path fill="#4F9D4D" d="m128.956 299.44 47.931-.8c19.637-.072 37.457-6.982 51.276-18.474 17.892-14.837 29.165-37.239 29.093-62.477v-5.673l-.219-141.318c0-3.637-2.982-6.62-6.691-6.62-17.456-.072-35.639-.29-53.094.728l-18.474 1.6c-18.111 2.255-36.366 6.546-50.258 14.547l.436 218.487Z"/><path fill="url(#e)" d="m128.956 299.44 47.931-.8c19.637-.072 37.457-6.982 51.276-18.474 17.892-14.837 29.165-37.239 29.093-62.477v-5.673l-.219-141.318c0-3.637-2.982-6.62-6.691-6.62-17.456-.072-35.639-.29-53.094.728l-18.474 1.6c-18.111 2.255-36.366 6.546-50.258 14.547l.436 218.487Z" style="mix-blend-mode:multiply"/><path fill="url(#f)" d="M132.953 83.715c13.965-8 29.166-12 46.767-13.964l17.165-1.237c16.147-.727 32.657-.29 48.294-.145 4.219.073 7.564 3.491 7.564 7.637-54.185-9.6-119.79 7.71-119.79 7.71Z" opacity=".8"/><path fill="#60BB55" d="m128.955 299.44 47.348-.073c19.856-.073 37.748-7.273 51.859-19.201-16.365-38.039-55.495-64.659-99.353-65.168l.146 84.442Z"/><path fill="url(#g)" d="m128.955 299.44 47.348-.073c19.856-.073 37.748-7.273 51.859-19.201-16.365-38.039-55.495-64.659-99.353-65.168l.146 84.442Z" style="mix-blend-mode:multiply"/><path fill="#fff" d="M68.005 107.282c30.039-.073 54.477 24.292 54.549 54.331.073 30.111-24.292 54.549-54.33 54.622-30.112 0-54.55-24.293-54.622-54.404-.073-30.038 24.292-54.476 54.403-54.549Z"/><path fill="url(#h)" d="M120.227 146.266c-6.473 22.692-27.42 39.348-52.221 39.421-24.802.073-45.822-16.51-52.44-39.203-1.31 4.801-2.11 9.892-2.11 15.129.073 30.038 24.511 54.403 54.622 54.33 30.039 0 54.404-24.438 54.331-54.549 0-5.236-.727-10.328-2.182-15.128Z"/><path fill="#fff" d="M189.321 106.043c30.62-.073 55.495 24.729 55.567 55.349.073 30.62-24.729 55.494-55.349 55.567-30.62.073-55.567-24.729-55.567-55.349-.073-30.62 24.729-55.495 55.349-55.567Z"/><path fill="url(#i)" d="M242.709 145.973c-6.691 23.129-28.002 40.148-53.24 40.148-25.311.073-46.621-16.801-53.385-39.93-1.382 4.946-2.182 10.11-2.109 15.42 0 30.62 24.947 55.422 55.567 55.349 30.62-.073 55.422-24.947 55.349-55.568 0-5.309-.8-10.546-2.182-15.419Z"/><path fill="#303030" d="M75.132 128.009c19.347 0 35.057 15.637 35.057 34.911.073 19.347-15.638 35.057-34.912 35.057-19.346.073-35.056-15.564-35.056-34.911a35.25 35.25 0 0 1 4.727-17.674c2.546 6.182 8.582 10.473 15.638 10.473 9.31 0 16.873-7.564 16.873-16.873 0-4.146-1.6-8.001-4.073-10.91a20.794 20.794 0 0 1 1.746-.073ZM180.957 127.209c19.71 0 35.711 15.928 35.711 35.566.073 19.638-15.855 35.639-35.566 35.639-19.637.072-35.638-15.856-35.638-35.494 0-6.618 1.745-12.728 4.8-18.037 2.618 6.327 8.728 10.691 15.928 10.691 9.528 0 17.165-7.709 17.165-17.164 0-4.292-1.6-8.146-4.146-11.128a20.802 20.802 0 0 1 1.746-.073Z"/><path fill="url(#j)" d="M159.794 221.399c-5.31-19.638-24.729-21.456-29.966-21.747-.291 0-.436 0-1.236.073-5.092.436-24.584 2.472-29.384 22.547-.073.581 0 2.472 0 3.127v.073s1.673 1.163 4.218 2.764c3.419 9.382 19.638 26.983 26.184 27.056.291 0 .364-.073.654-.073 5.455 0 20.22-15.928 24.584-26.256 2.618-1.746 4.509-2.982 4.873-3.346.146-1.236.291-3.127.073-4.218Z" opacity=".5" style="mix-blend-mode:multiply"/><path fill="url(#k)" d="M130.266 250.708c6.618 0 26.911-22.401 25.747-30.547-4.655-17.602-21.601-19.784-26.256-20.074-.219 0-.437-.073-1.091 0-4.51.436-21.602 3.272-25.748 21.237-1.381 6.764 19.056 29.384 26.693 29.384h.655Z"/><path fill="url(#l)" d="M151.865 230.853c2.764-4.218 4.51-8.146 4.146-10.692-1.891-7.055-5.746-11.637-9.964-14.619-6.546-3.564-13.383-4.291-16.22-4.436-.291-.073-.436-.073-1.236 0-2.691.218-9.528 1.236-16.074 5.091-4.146 3.127-7.928 7.928-9.601 15.128-.436 1.964.946 5.164 3.346 8.728 7.564 4.509 19.201 11.055 23.274 11.055 4.146 0 14.838-5.818 22.329-10.255Z" style="mix-blend-mode:multiply"/><path fill="url(#m)" d="M151.865 230.853c2.764-4.218 4.51-8.146 4.146-10.692-1.891-7.055-5.746-11.637-9.964-14.619-6.546-3.564-13.383-4.291-16.22-4.436-.291-.073-.436-.073-1.236 0-2.691.218-9.528 1.236-16.074 5.091-4.146 3.127-7.928 7.928-9.601 15.128-.436 1.964.946 5.164 3.346 8.728 7.564 4.509 19.201 11.055 23.274 11.055 4.146 0 14.838-5.818 22.329-10.255Z" opacity=".5" style="mix-blend-mode:multiply"/><path fill="url(#n)" d="M159.572 218.928c-5.237-18.765-24.511-21.092-29.747-21.383-.291 0-.437-.073-1.237 0-5.091.509-24.51 3.564-29.238 22.692a12.908 12.908 0 0 0-.145 1.964v.073s24.147 15.274 30.329 15.274c6.473 0 28.802-13.965 30.184-15.201.145-1.164.145-2.328-.146-3.419Z"/><path fill="url(#o)" d="M99.353 220.236a12.908 12.908 0 0 0-.145 1.964v.073s23.419 14.837 30.038 15.274c1.818-36.948-.655-40.003-.655-40.003-5.091.509-24.51 3.564-29.238 22.692Z" opacity=".9" style="mix-blend-mode:multiply"/><path fill="url(#p)" d="M135.866 198.348c-2.618-.582-4.728-.727-6.037-.8-.291 0-.436-.073-1.236 0 0 0 2.473 3.055.654 40.003 3.128-8.364 5.528-28.584 6.619-39.203Z"/><defs><linearGradient id="b" x1="297.629" x2="161.645" y1="187.382" y2="437.523" gradientUnits="userSpaceOnUse"><stop stop-color="#519B4C" stop-opacity="0"/><stop offset="1" stop-color="#519B4C"/></linearGradient><linearGradient id="c" x1="62.14" x2="62.14" y1="90.098" y2="47.037" gradientUnits="userSpaceOnUse"><stop offset=".198" stop-color="#fff" stop-opacity="0"/><stop offset=".972" stop-color="#fff"/></linearGradient><linearGradient id="d" x1="143.718" x2="144.288" y1="259.837" y2="329.861" gradientUnits="userSpaceOnUse"><stop stop-color="#519B4C" stop-opacity="0"/><stop offset="1" stop-color="#519B4C"/></linearGradient><linearGradient id="e" x1="417.053" x2="447.854" y1="136.17" y2="386.199" gradientUnits="userSpaceOnUse"><stop stop-color="#519B4C" stop-opacity="0"/><stop offset="1" stop-color="#519B4C"/></linearGradient><linearGradient id="f" x1="193.856" x2="193.856" y1="91.216" y2="48.154" gradientUnits="userSpaceOnUse"><stop offset=".198" stop-color="#fff" stop-opacity="0"/><stop offset=".972" stop-color="#fff"/></linearGradient><linearGradient id="g" x1="216.257" x2="212.688" y1="265.242" y2="329.483" gradientUnits="userSpaceOnUse"><stop stop-color="#519B4C" stop-opacity="0"/><stop offset="1" stop-color="#519B4C"/></linearGradient><linearGradient id="h" x1="45.658" x2="45.658" y1="215.188" y2="149.753" gradientUnits="userSpaceOnUse"><stop stop-color="#E5E3E3"/><stop offset="1" stop-color="#E5E3E3" stop-opacity="0"/></linearGradient><linearGradient id="i" x1="166.708" x2="166.708" y1="216.178" y2="149.535" gradientUnits="userSpaceOnUse"><stop stop-color="#E5E3E3"/><stop offset="1" stop-color="#E5E3E3" stop-opacity="0"/></linearGradient><linearGradient id="j" x1="155.978" x2="154.561" y1="206.959" y2="276.393" gradientUnits="userSpaceOnUse"><stop stop-color="#3F843F"/><stop offset="1" stop-color="#519B4C"/></linearGradient><linearGradient id="k" x1="150.793" x2="150.743" y1="206.349" y2="250.12" gradientUnits="userSpaceOnUse"><stop stop-color="#F9EC31"/><stop offset="1" stop-color="#F6921E"/></linearGradient><linearGradient id="l" x1="158.247" x2="109.169" y1="276.49" y2="236.871" gradientUnits="userSpaceOnUse"><stop stop-color="#F9EC31"/><stop offset="1" stop-color="#F6921E"/></linearGradient><linearGradient id="m" x1="158.247" x2="109.169" y1="276.49" y2="236.871" gradientUnits="userSpaceOnUse"><stop stop-color="#F9EC31"/><stop offset="1" stop-color="#F6921E"/></linearGradient><linearGradient id="n" x1="143.434" x2="142.405" y1="202.532" y2="252.937" gradientUnits="userSpaceOnUse"><stop stop-color="#F9EC31"/><stop offset="1" stop-color="#F6921E"/></linearGradient><linearGradient id="o" x1="165.907" x2="115.714" y1="228.699" y2="246.157" gradientUnits="userSpaceOnUse"><stop offset=".001" stop-color="#F9EC31" stop-opacity="0"/><stop offset="1" stop-color="#F6921E"/></linearGradient><linearGradient id="p" x1="24.883" x2="16.436" y1="261.953" y2="200.386" gradientUnits="userSpaceOnUse"><stop offset=".198" stop-color="#fff" stop-opacity="0"/><stop offset=".972" stop-color="#fff"/></linearGradient><clipPath id="a"><path fill="#fff" d="M314.263 120.606h690.828v152.485H314.263z"/></clipPath></defs></svg>
