<svg xmlns="http://www.w3.org/2000/svg" width="31" height="40" fill="none"><rect width="24.784" height="39.362" x=".26" y=".641" fill="#108AE3" rx="2.916"/><path fill="#1B59B5" d="M1.719 18.135h21.868v5.831H1.719zM1.719 10.846h21.868v5.831H1.719zM1.719 3.556h21.868v5.831H1.719z"/><path fill="#3DB4E6" d="M16.297 19.593h5.831v2.916h-5.831zM16.297 5.014h5.831V7.93h-5.831zM16.297 12.304h5.831v2.916h-5.831z"/><circle cx="11.924" cy="32.714" r="2.916" fill="#fff"/><circle cx="23.33" cy="32.714" r="7.289" fill="#31B837"/><path fill="#fff" d="M24.34 28.632c.408.1.798.262 1.157.479a.42.42 0 0 1 .198.428c-.047.29.024.512.16.647.135.136.357.208.647.16a.42.42 0 0 1 .428.198c.217.36.378.749.48 1.156a.42.42 0 0 1-.164.444c-.238.17-.345.378-.345.57 0 .192.107.4.345.57a.421.421 0 0 1 .164.443 4.205 4.205 0 0 1-.48 1.157.42.42 0 0 1-.428.197c-.29-.047-.512.025-.647.16-.136.136-.207.358-.16.647a.42.42 0 0 1-.198.429c-.36.217-.749.378-1.156.48a.42.42 0 0 1-.443-.164c-.172-.239-.379-.345-.57-.345-.192 0-.4.106-.571.345a.42.42 0 0 1-.443.163 4.206 4.206 0 0 1-1.157-.48.421.421 0 0 1-.197-.428c.047-.29-.025-.511-.16-.646-.136-.136-.358-.208-.647-.16a.42.42 0 0 1-.429-.198 4.207 4.207 0 0 1-.48-1.157.42.42 0 0 1 .164-.443c.239-.17.345-.378.345-.57 0-.192-.106-.4-.345-.57a.42.42 0 0 1-.163-.443c.1-.408.262-.798.48-1.157a.421.421 0 0 1 .428-.198c.29.048.511-.024.646-.16.136-.135.208-.357.16-.646a.42.42 0 0 1 .198-.429c.36-.217.75-.378 1.157-.48a.42.42 0 0 1 .443.164c.17.238.379.345.57.345.192 0 .4-.107.57-.345a.42.42 0 0 1 .444-.163Zm-1.013 1.98a2.103 2.103 0 1 0 0 4.205 2.103 2.103 0 0 0 0-4.206Zm0 .84a1.262 1.262 0 1 1 0 2.524 1.262 1.262 0 0 1 0-2.524Z"/></svg>
