<?xml version="1.0" encoding="UTF-8" standalone="no"?>
<svg
   version="1.1"
   viewBox="0.00 0.00 863.00 915.00"
   id="svg103"
   sodipodi:docname="produk_memory.svg"
   inkscape:version="1.3 (0e150ed6c4, 2023-07-21)"
   xmlns:inkscape="http://www.inkscape.org/namespaces/inkscape"
   xmlns:sodipodi="http://sodipodi.sourceforge.net/DTD/sodipodi-0.dtd"
   xmlns="http://www.w3.org/2000/svg"
   xmlns:svg="http://www.w3.org/2000/svg">
  <defs
     id="defs103" />
  <sodipodi:namedview
     id="namedview103"
     pagecolor="#505050"
     bordercolor="#eeeeee"
     borderopacity="1"
     inkscape:showpageshadow="0"
     inkscape:pageopacity="0"
     inkscape:pagecheckerboard="0"
     inkscape:deskcolor="#505050"
     inkscape:zoom="0.33268794"
     inkscape:cx="-290.06161"
     inkscape:cy="305.09071"
     inkscape:window-width="1920"
     inkscape:window-height="1057"
     inkscape:window-x="-8"
     inkscape:window-y="-8"
     inkscape:window-maximized="1"
     inkscape:current-layer="svg103" />
  <g
     stroke-width="2.00"
     fill="none"
     strokeLinecap="butt"
     id="g65">
    <path
       stroke="#8c8e90"
       vector-effect="non-scaling-stroke"
       d="   M 698.01 819.38   L 618.52 819.40"
       id="path1" />
    <path
       stroke="#c4c7cb"
       vector-effect="non-scaling-stroke"
       d="   M 618.52 819.40   Q 613.33 819.39 608.19 819.27   Q 608.00 819.26 607.84 819.19   Q 607.68 819.11 607.50 819.03   Q 607.26 818.92 606.98 818.92   C 596.58 818.89 586.28 817.76 575.93 818.27   Q 574.55 818.34 575.92 818.48   Q 577.05 818.60 578.60 818.62   Q 578.63 818.63 578.63 818.66   Q 578.63 818.67 578.63 818.68   Q 578.63 818.72 578.57 818.73   L 557.77 819.32"
       id="path2" />
    <path
       stroke="#afa893"
       stroke-opacity="0.729"
       vector-effect="non-scaling-stroke"
       d="   M 557.77 819.32   L 553.68 819.61"
       id="path3" />
    <path
       stroke="#828284"
       vector-effect="non-scaling-stroke"
       d="   M 618.52 819.40   Q 617.94 819.74 616.78 819.83"
       id="path4" />
    <path
       stroke="#8f8f91"
       vector-effect="non-scaling-stroke"
       d="   M 600.54 819.80   L 588.01 819.35   Q 587.69 819.34 587.98 819.48   Q 588.11 819.54 588.29 819.52   Q 588.56 819.49 588.79 819.64   Q 589.64 820.19 590.78 820.12"
       id="path5" />
    <path
       stroke="#a29983"
       stroke-opacity="0.729"
       vector-effect="non-scaling-stroke"
       d="   M 590.78 820.12   L 580.61 820.14   Q 580.11 820.14 579.64 819.97   Q 579.02 819.74 577.75 819.67   C 571.06 819.29 564.46 819.64 557.77 819.32"
       id="path6" />
    <path
       stroke="#665c44"
       stroke-opacity="0.729"
       vector-effect="non-scaling-stroke"
       d="   M 590.78 820.12   L 593.29 820.59"
       id="path7" />
    <path
       stroke="#323232"
       vector-effect="non-scaling-stroke"
       d="   M 643.07 860.00   L 672.81 859.99"
       id="path8" />
    <path
       stroke="#323232"
       vector-effect="non-scaling-stroke"
       d="   M 72.99 768.67   C 77.53 768.89 82.04 769.39 86.52 769.31   Q 95.28 769.15 104.03 769.19"
       id="path9" />
    <path
       stroke="#8c8e90"
       vector-effect="non-scaling-stroke"
       d="   M 121.06 670.79   Q 121.42 672.56 120.00 672.55   Q 92.37 672.41 64.75 672.48   Q 61.94 672.48 59.35 672.52"
       id="path10" />
    <path
       stroke="#757779"
       vector-effect="non-scaling-stroke"
       d="   M 380.28 57.27   A 19.12 19.12 0.0 0 0 361.16 38.15   L 39.86 38.15   A 19.12 19.12 0.0 0 0 20.74 57.27   L 20.74 545.15   A 19.12 19.12 0.0 0 0 39.86 564.27   L 361.16 564.27   A 19.12 19.12 0.0 0 0 380.28 545.15   L 380.28 57.27"
       id="path11" />
    <path
       stroke="#757779"
       vector-effect="non-scaling-stroke"
       d="   M 53.3129 60.4897   A 9.63 9.43 2.2 0 0 44.0520 50.6970   A 9.63 9.43 2.2 0 0 34.0671 59.7503   A 9.63 9.43 2.2 0 0 43.3280 69.5430   A 9.63 9.43 2.2 0 0 53.3129 60.4897"
       id="path12" />
    <path
       stroke="#323232"
       vector-effect="non-scaling-stroke"
       d="   M 167.22 551.12   C 168.93 550.97 170.78 551.38 172.26 551.37   Q 184.62 551.30 218.00 551.54   Q 242.54 551.72 316.17 551.72   C 318.91 551.72 321.21 551.30 323.02 549.51   Q 342.75 529.94 362.71 510.59   C 366.28 507.13 366.95 505.59 366.95 500.75   Q 367.00 301.55 366.97 102.35   C 366.97 99.55 367.06 96.12 365.20 94.32   Q 343.84 73.55 322.68 52.57   Q 320.99 50.89 319.13 50.89   Q 274.44 50.78 102.25 50.67   Q 91.40 50.66 80.81 51.08   A 3.19 3.18 21.5 0 0 78.66 52.01   L 35.14 94.84   A 3.94 3.91 67.9 0 0 33.97 97.64   Q 34.00 300.93 34.22 504.00   Q 34.23 506.78 36.01 508.49   C 50.02 521.86 63.84 535.53 77.51 549.24   Q 80.14 551.88 82.00 551.85   Q 104.19 551.53 126.38 551.38   C 139.06 551.30 150.99 551.35 161.53 551.35   A 40.27 22.96 -2.2 0 0 167.22 551.12"
       id="path13" />
    <path
       stroke="#757779"
       vector-effect="non-scaling-stroke"
       d="   M 366.6988 59.5018   A 9.63 9.49 -3.8 0 0 356.4611 50.6709   A 9.63 9.49 -3.8 0 0 347.4812 60.7782   A 9.63 9.49 -3.8 0 0 357.7189 69.6091   A 9.63 9.49 -3.8 0 0 366.6988 59.5018"
       id="path14" />
    <path
       stroke="#757779"
       vector-effect="non-scaling-stroke"
       d="   M 53.3368 541.6550   A 9.65 9.47 -3.0 0 0 43.2044 532.7030   A 9.65 9.47 -3.0 0 0 34.0632 542.6650   A 9.65 9.47 -3.0 0 0 44.1956 551.6170   A 9.65 9.47 -3.0 0 0 53.3368 541.6550"
       id="path15" />
    <path
       stroke="#757779"
       vector-effect="non-scaling-stroke"
       d="   M 366.67 542.14   A 9.54 9.54 0.0 0 0 357.13 532.60   A 9.54 9.54 0.0 0 0 347.59 542.14   A 9.54 9.54 0.0 0 0 357.13 551.68   A 9.54 9.54 0.0 0 0 366.67 542.14"
       id="path16" />
    <path
       stroke="#828284"
       vector-effect="non-scaling-stroke"
       d="   M 54.55 374.41   L 44.34 364.45   Q 42.68 362.83 42.68 365.16   Q 42.79 424.67 42.97 485.50   Q 42.97 487.72 44.18 489.07   Q 47.92 493.24 54.05 499.20   Q 75.22 519.76 96.23 540.49   C 98.15 542.39 101.28 541.95 103.75 541.97   Q 163.50 542.34 222.69 541.99   Q 224.62 541.98 223.25 540.62   L 189.39 507.25"
       id="path17" />
    <path
       stroke="#323232"
       vector-effect="non-scaling-stroke"
       d="   M 189.39 507.25   Q 190.98 506.98 190.47 506.07   A 0.74 0.74 0.0 0 1 191.12 504.97   L 233.23 505.30"
       id="path18" />
    <path
       stroke="#828284"
       vector-effect="non-scaling-stroke"
       d="   M 233.23 505.30   Q 231.98 508.95 232.17 510.52   C 233.00 517.29 237.41 518.23 243.67 518.25   Q 264.09 518.31 284.50 518.11   Q 289.74 518.06 291.78 513.50   Q 293.58 509.48 294.94 505.05"
       id="path19" />
    <path
       stroke="#323232"
       vector-effect="non-scaling-stroke"
       d="   M 294.94 505.05   Q 305.33 505.31 315.49 505.25   Q 325.10 505.20 329.57 503.51   Q 339.19 499.87 342.74 489.53   Q 344.83 483.43 343.02 475.44"
       id="path20" />
    <path
       stroke="#565656"
       vector-effect="non-scaling-stroke"
       d="   M 343.02 475.44   Q 347.46 475.95 350.42 474.93   C 353.88 473.73 354.87 470.18 354.97 466.53   Q 355.55 443.88 354.99 421.20   C 354.87 416.40 352.92 413.76 348.23 413.09   Q 347.04 412.92 343.37 412.98"
       id="path21" />
    <path
       stroke="#323232"
       vector-effect="non-scaling-stroke"
       d="   M 343.37 412.98   C 344.05 386.76 343.44 360.47 343.38 334.25   Q 343.33 311.67 343.79 289.11   Q 343.83 287.03 344.67 285.17   C 365.61 239.06 362.54 185.42 336.34 142.17   C 307.19 94.05 255.40 65.92 198.94 66.20   C 191.73 66.23 183.82 67.20 176.25 67.98   Q 169.95 68.63 159.69 71.32   C 78.42 92.56 27.12 173.62 46.37 256.43   Q 49.67 270.66 55.51 284.13   Q 57.09 287.76 57.10 291.75   C 57.14 318.58 56.83 345.42 57.28 372.25   Q 57.31 373.88 54.55 374.41"
       id="path22" />
    <path
       stroke="#3f3f3f"
       vector-effect="non-scaling-stroke"
       d="   M 343.37 412.98   Q 280.84 412.73 218.50 413.09   C 208.31 413.15 207.72 416.74 207.68 425.60   Q 207.64 437.27 207.60 449.04"
       id="path23" />
    <path
       stroke="#323232"
       vector-effect="non-scaling-stroke"
       d="   M 207.60 449.04   C 191.07 451.28 175.56 456.11 163.09 467.57   Q 159.36 470.99 157.03 475.63"
       id="path24" />
    <path
       stroke="#6b6b6d"
       vector-effect="non-scaling-stroke"
       d="   M 157.03 475.63   L 139.73 458.43"
       id="path25" />
    <path
       stroke="#757779"
       vector-effect="non-scaling-stroke"
       d="   M 139.73 458.43   L 205.13 369.13"
       id="path26" />
    <path
       stroke="#6b6b6d"
       vector-effect="non-scaling-stroke"
       d="   M 205.13 369.13   Q 257.86 366.98 296.89 334.65   C 371.74 272.64 367.37 158.97 288.91 102.31   C 232.64 61.68 155.07 65.09 102.15 109.92   Q 74.79 133.09 61.61 165.08   C 29.32 243.41 68.58 329.22 146.43 359.37   Q 147.32 359.72 150.56 360.70"
       id="path27" />
    <path
       stroke="#757779"
       vector-effect="non-scaling-stroke"
       d="   M 150.56 360.70   Q 145.49 364.55 140.32 368.08   Q 114.24 385.87 88.55 404.23   Q 87.96 404.65 87.22 404.98   Q 86.35 405.36 85.84 405.65"
       id="path28" />
    <path
       stroke="#6b6b6d"
       vector-effect="non-scaling-stroke"
       d="   M 85.84 405.65   L 54.55 374.41"
       id="path29" />
    <path
       stroke="#828284"
       vector-effect="non-scaling-stroke"
       d="   M 157.03 475.63   L 162.64 480.98"
       id="path30" />
    <path
       stroke="#6b6b6d"
       vector-effect="non-scaling-stroke"
       d="   M 162.64 480.98   L 189.39 507.25"
       id="path31" />
    <path
       stroke="#3f3f3f"
       vector-effect="non-scaling-stroke"
       d="   M 343.02 475.44   L 305.63 475.19"
       id="path32" />
    <path
       stroke="#8f8f91"
       vector-effect="non-scaling-stroke"
       d="   M 305.63 475.19   C 307.40 469.94 310.98 462.31 310.73 457.68   C 310.36 450.99 304.32 450.42 298.54 450.36   Q 279.77 450.18 261.00 450.28   C 256.95 450.31 252.74 451.24 251.20 455.43   Q 247.23 466.24 243.80 475.71"
       id="path33" />
    <path
       stroke="#3f3f3f"
       vector-effect="non-scaling-stroke"
       d="   M 243.80 475.71   Q 231.26 475.34 218.99 475.46   C 204.33 475.59 208.84 467.54 207.31 457.72"
       id="path34" />
    <path
       stroke="#565656"
       vector-effect="non-scaling-stroke"
       d="   M 207.31 457.72   L 207.60 449.04"
       id="path35" />
    <path
       stroke="#c4c7cb"
       vector-effect="non-scaling-stroke"
       d="   M 205.13 369.13   L 250.17 306.80   A 1.13 1.13 0.0 0 0 249.26 305.01   L 234.24 304.97   A 6.29 6.25 -62.0 0 0 230.71 306.06   L 150.56 360.70"
       id="path36" />
    <path
       stroke="#c4c7cb"
       vector-effect="non-scaling-stroke"
       d="   M 139.73 458.43   Q 126.28 476.65 103.93 475.49   C 92.63 474.90 81.07 467.66 75.06 458.44   C 67.10 446.19 66.67 431.02 74.06 418.36   Q 75.84 415.30 79.60 411.73   Q 82.72 408.76 85.84 405.65"
       id="path37" />
    <path
       stroke="#323232"
       vector-effect="non-scaling-stroke"
       d="   M 207.31 457.72   Q 192.10 460.54 182.02 465.28   Q 171.76 470.11 162.64 480.98"
       id="path38" />
    <path
       stroke="#6b6b6d"
       vector-effect="non-scaling-stroke"
       d="   M 305.63 475.19   L 294.94 505.05"
       id="path39" />
    <path
       stroke="#6b6b6d"
       vector-effect="non-scaling-stroke"
       d="   M 233.23 505.30   L 243.80 475.71"
       id="path40" />
    <path
       stroke="#b7bbbe"
       vector-effect="non-scaling-stroke"
       d="   M 358.48 64.12   Q 359.00 62.25 360.72 61.34   A 1.30 1.29 -33.9 0 0 361.11 59.36   L 358.10 55.78   A 1.08 1.08 0.0 0 0 356.26 56.10   L 355.64 57.73   Q 355.44 58.27 354.91 58.50   C 354.07 58.85 353.21 58.80 352.64 59.39   Q 352.18 59.87 352.27 60.55   Q 352.32 60.99 352.71 61.20   L 355.30 62.59   A 1.16 1.14 4.4 0 1 355.85 63.22   Q 356.11 63.94 356.67 64.55   A 1.06 1.06 0.0 0 0 358.48 64.12"
       id="path41" />
    <path
       stroke="#adafb2"
       vector-effect="non-scaling-stroke"
       d="   M 257.5477 223.1546   A 57.11 56.11 1.6 0 0 202.0267 165.4719   A 57.11 56.11 1.6 0 0 143.3723 219.9654   A 57.11 56.11 1.6 0 0 198.8933 277.6481   A 57.11 56.11 1.6 0 0 257.5477 223.1546"
       id="path42" />
    <path
       stroke="#b7bbbe"
       vector-effect="non-scaling-stroke"
       d="   M 253.1703 220.4768   A 52.78 51.87 -1.1 0 0 199.4042 169.6296   A 52.78 51.87 -1.1 0 0 147.6297 222.5032   A 52.78 51.87 -1.1 0 0 201.3958 273.3504   A 52.78 51.87 -1.1 0 0 253.1703 220.4768"
       id="path43" />
    <path
       stroke="#b7bbbe"
       vector-effect="non-scaling-stroke"
       d="   M 186.55 187.98   A 5.78 5.78 0.0 0 0 180.77 182.20   A 5.78 5.78 0.0 0 0 174.99 187.98   A 5.78 5.78 0.0 0 0 180.77 193.76   A 5.78 5.78 0.0 0 0 186.55 187.98"
       id="path44" />
    <path
       stroke="#b7bbbe"
       vector-effect="non-scaling-stroke"
       d="   M 225.86 188.07   A 5.78 5.78 0.0 0 0 220.08 182.29   A 5.78 5.78 0.0 0 0 214.30 188.07   A 5.78 5.78 0.0 0 0 220.08 193.85   A 5.78 5.78 0.0 0 0 225.86 188.07"
       id="path45" />
    <path
       stroke="#b7bbbe"
       vector-effect="non-scaling-stroke"
       d="   M 224.2718 223.1779   A 23.91 23.52 4.0 0 0 202.0607 198.0473   A 23.91 23.52 4.0 0 0 176.5682 219.8421   A 23.91 23.52 4.0 0 0 198.7793 244.9727   A 23.91 23.52 4.0 0 0 224.2718 223.1779"
       id="path46" />
    <path
       stroke="#b7bbbe"
       vector-effect="non-scaling-stroke"
       d="   M 167.20 221.50   A 5.79 5.79 0.0 0 0 161.41 215.71   A 5.79 5.79 0.0 0 0 155.62 221.50   A 5.79 5.79 0.0 0 0 161.41 227.29   A 5.79 5.79 0.0 0 0 167.20 221.50"
       id="path47" />
    <path
       stroke="#b7bbbe"
       vector-effect="non-scaling-stroke"
       d="   M 245.49 221.58   A 5.84 5.84 0.0 0 0 239.65 215.74   A 5.84 5.84 0.0 0 0 233.81 221.58   A 5.84 5.84 0.0 0 0 239.65 227.42   A 5.84 5.84 0.0 0 0 245.49 221.58"
       id="path48" />
    <path
       stroke="#b7bbbe"
       vector-effect="non-scaling-stroke"
       d="   M 186.43 254.95   A 5.78 5.78 0.0 0 0 180.65 249.17   A 5.78 5.78 0.0 0 0 174.87 254.95   A 5.78 5.78 0.0 0 0 180.65 260.73   A 5.78 5.78 0.0 0 0 186.43 254.95"
       id="path49" />
    <path
       stroke="#b7bbbe"
       vector-effect="non-scaling-stroke"
       d="   M 225.7718 253.4266   A 6.00 5.70 -15.5 0 0 218.4667 249.5373   A 6.00 5.70 -15.5 0 0 214.2082 256.6334   A 6.00 5.70 -15.5 0 0 221.5133 260.5227   A 6.00 5.70 -15.5 0 0 225.7718 253.4266"
       id="path50" />
    <path
       stroke="#b7bbbe"
       vector-effect="non-scaling-stroke"
       d="   M 219.0631 219.4488   A 18.76 18.35 -6.4 0 0 198.3745 203.3044   A 18.76 18.35 -6.4 0 0 181.7769 223.6312   A 18.76 18.35 -6.4 0 0 202.4655 239.7756   A 18.76 18.35 -6.4 0 0 219.0631 219.4488"
       id="path51" />
    <path
       stroke="#c4c7cb"
       vector-effect="non-scaling-stroke"
       d="   M 208.00 221.49   A 7.56 7.56 0.0 0 0 200.44 213.93   A 7.56 7.56 0.0 0 0 192.88 221.49   A 7.56 7.56 0.0 0 0 200.44 229.05   A 7.56 7.56 0.0 0 0 208.00 221.49"
       id="path52" />
    <path
       stroke="#c4c7cb"
       vector-effect="non-scaling-stroke"
       d="   M 631.47 815.37   Q 639.32 815.26 647.16 815.10   C 650.69 815.02 654.40 814.89 657.85 815.25   Q 661.12 815.60 662.69 815.61   Q 678.87 815.65 695.05 815.90   C 697.64 815.94 701.76 816.37 705.50 816.15   C 711.89 815.78 720.07 816.61 726.51 816.61   Q 762.53 816.64 762.94 816.64   Q 783.76 816.63 804.58 816.38   Q 811.80 816.30 819.08 816.53   C 822.23 816.63 825.49 816.00 828.75 815.88   C 830.54 815.82 832.64 813.77 834.33 813.02   Q 838.22 811.30 841.23 807.48   C 844.83 802.93 845.59 799.73 845.66 793.55   Q 845.85 776.14 845.23 758.74   Q 844.82 747.34 844.84 738.75   Q 844.88 719.37 844.72 700.00   Q 844.67 694.00 844.59 688.00   Q 844.47 678.81 844.34 669.62   C 844.32 668.26 844.65 666.67 844.55 665.14   Q 844.33 662.10 844.33 661.83   Q 844.47 642.29 844.84 622.75   C 844.91 618.85 844.61 614.48 844.61 611.08   C 844.61 595.88 844.70 580.69 844.67 565.50   Q 844.58 521.15 844.84 497.31   Q 844.85 497.05 844.75 496.81   Q 844.69 496.65 844.69 496.50   C 844.63 482.71 844.90 468.94 843.98 455.17   Q 843.88 453.67 844.08 447.82   Q 844.20 444.15 843.46 440.42   Q 843.36 439.91 843.21 440.41   Q 842.38 443.16 842.59 446.03   Q 842.74 448.11 842.69 449.00   Q 842.61 450.50 842.50 451.98   C 842.23 455.65 841.72 459.43 841.73 463.03   C 841.78 500.67 841.52 538.26 841.90 576.00   C 842.07 593.42 841.66 610.68 842.04 628.25   Q 842.46 647.59 842.19 670.50   C 841.93 692.86 842.43 730.23 841.34 758.93   C 840.93 769.85 840.96 779.12 840.96 789.25   C 840.96 797.69 839.65 803.09 832.59 808.04   C 827.39 811.70 821.11 810.54 815.19 810.58   C 763.52 810.94 711.84 810.82 660.16 811.10   C 650.63 811.16 637.48 811.92 626.50 811.59   Q 625.35 811.55 624.59 811.82   A 1.08 0.04 -19.9 0 1 623.68 812.11   Q 605.22 812.25 580.75 811.81   C 579.83 811.80 579.16 811.44 578.39 811.41   Q 570.08 811.05 561.75 811.15   Q 561.49 811.16 561.26 811.05   Q 560.90 810.89 560.52 810.89   C 548.15 810.70 535.22 811.01 523.46 810.78   Q 502.97 810.39 494.49 810.61   Q 483.98 810.87 478.08 802.36   Q 475.83 799.12 475.84 797.00   Q 475.92 778.58 475.56 760.16   C 474.73 717.64 475.37 675.70 475.86 633.50   Q 475.96 624.96 475.88 613.51   C 475.76 597.24 476.06 580.16 476.04 564.75   C 475.97 490.14 475.64 427.16 475.78 341.00   C 475.81 328.10 476.45 312.50 476.31 298.24   C 476.21 288.57 484.30 282.50 493.49 282.27   C 501.31 282.07 508.12 282.91 516.85 282.30   Q 522.94 281.88 527.67 281.88   Q 624.04 281.87 719.01 281.87   A 68.88 15.96 -0.9 0 0 728.75 281.73   Q 729.13 281.71 735.75 282.06   C 747.36 282.66 762.20 281.33 775.43 281.80   C 780.00 281.96 784.27 281.65 788.71 281.41   C 791.25 281.28 794.13 281.72 796.90 281.56   C 799.12 281.42 801.07 281.92 803.32 281.94   C 809.79 281.98 816.27 282.29 822.74 282.31   C 833.83 282.33 840.64 290.29 840.90 301.00   Q 841.10 309.60 840.71 318.19   C 840.62 320.24 840.93 322.33 841.04 324.42   C 841.16 326.69 842.18 328.99 841.74 331.73   C 841.25 334.74 842.33 337.17 842.23 340.03   C 842.08 344.30 842.80 347.91 842.35 351.99   Q 842.31 352.37 842.57 352.83   A 0.39 0.30 38.0 0 1 842.61 352.99   L 842.78 364.83   Q 842.79 365.51 843.39 365.17   Q 843.60 365.05 843.62 364.75   Q 843.75 362.86 843.48 359.60   Q 843.47 359.50 843.55 359.44   Q 843.59 359.40 843.64 359.37   A 0.44 0.39 73.6 0 0 843.80 359.03   C 843.62 352.66 844.23 346.24 844.35 339.86   Q 844.37 338.78 844.99 335.23   Q 845.41 332.85 844.93 330.38   A 1.87 1.85 -42.2 0 1 844.98 329.47   Q 846.12 326.04 845.30 322.46   A 2.23 2.14 46.2 0 1 845.30 321.45   Q 845.86 319.18 845.73 316.25   C 845.42 309.43 846.33 300.64 844.89 293.00   C 844.25 289.59 841.31 285.96 839.15 283.42   Q 837.75 281.78 835.31 280.52   C 831.17 278.40 829.20 277.05 823.50 276.95   Q 817.75 276.86 798.42 277.41   C 792.90 277.56 786.60 277.05 781.75 277.04   Q 638.53 276.92 495.30 277.00   Q 488.94 277.01 485.37 278.32   C 472.25 283.14 469.70 294.31 469.80 307.00   C 469.94 326.08 470.35 345.22 470.33 364.26   Q 470.21 464.67 470.12 565.09   C 470.11 572.47 470.54 582.48 470.49 591.75   C 470.34 620.07 470.23 655.28 470.90 691.99   C 471.39 718.65 470.57 741.59 470.50 779.49   C 470.48 785.83 469.18 793.13 470.89 799.38   Q 472.05 803.59 472.88 804.99   Q 474.42 807.57 478.68 811.14   C 481.12 813.17 483.98 814.03 486.88 815.36   Q 489.07 816.38 490.50 816.38   Q 504.25 816.37 518.00 816.37   Q 518.10 816.37 518.29 816.48   Q 518.53 816.62 518.80 816.62   C 539.29 816.68 559.79 816.67 580.27 816.02   Q 586.37 815.83 594.75 815.93   C 596.90 815.96 599.71 815.33 602.41 815.55   C 611.86 816.31 621.19 815.19 630.63 815.87   Q 630.77 815.88 630.86 815.83   Q 631.04 815.75 631.10 815.62   Q 631.21 815.37 631.47 815.37"
       id="path53" />
    <path
       stroke="#7cb9d0"
       vector-effect="non-scaling-stroke"
       d="   M 668.9477 748.1088   A 10.23 10.23 0.0 0 0 658.7355 737.8610   L 657.6355 737.8591   A 10.23 10.23 0.0 0 0 647.3877 748.0712   L 647.3523 768.3312   A 10.23 10.23 0.0 0 0 657.5645 778.5790   L 658.6645 778.5809   A 10.23 10.23 0.0 0 0 668.9123 768.3688   L 668.9477 748.1088"
       id="path54" />
    <path
       stroke="#757779"
       vector-effect="non-scaling-stroke"
       d="   M 180.13 367.35   Q 179.43 367.22 179.31 368.32   Q 178.23 378.79 177.50 390.08   Q 177.41 391.40 178.22 390.35   L 194.60 369.00"
       id="path55" />
    <path
       stroke="#c4c7cb"
       vector-effect="non-scaling-stroke"
       d="   M 194.60 369.00   Q 196.78 366.54 198.90 363.69   C 201.91 359.67 205.53 355.95 208.29 352.02   C 213.37 344.79 218.04 338.86 223.45 331.74   Q 226.57 327.63 229.96 323.73   Q 232.15 321.19 234.20 318.46   Q 234.30 318.31 234.17 318.20   L 233.96 318.02   Q 233.74 317.84 233.55 318.04   Q 230.44 321.23 224.11 326.60   C 221.78 328.58 219.09 331.58 216.38 333.86   Q 210.78 338.57 205.37 343.48   C 198.39 349.80 190.95 356.01 183.98 362.55   C 182.43 364.00 181.39 365.65 180.13 367.35"
       id="path56" />
    <path
       stroke="#6b6b6d"
       vector-effect="non-scaling-stroke"
       d="   M 194.60 369.00   C 190.56 368.95 183.22 369.03 180.13 367.35"
       id="path57" />
    <path
       stroke="#c4c7cb"
       vector-effect="non-scaling-stroke"
       d="   M 132.3403 436.8187   A 24.76 24.39 -1.6 0 0 106.9090 413.1295   A 24.76 24.39 -1.6 0 0 82.8397 438.2013   A 24.76 24.39 -1.6 0 0 108.2710 461.8905   A 24.76 24.39 -1.6 0 0 132.3403 436.8187"
       id="path58" />
    <path
       stroke="#c4c7cb"
       vector-effect="non-scaling-stroke"
       d="   M 198.97 529.78   L 157.22 488.83   A 0.93 0.93 0.0 0 0 155.95 488.80   C 142.92 500.32 126.27 507.38 108.77 507.59   C 98.55 507.72 85.95 505.60 78.58 501.70   Q 73.85 499.19 77.66 502.96   C 85.91 511.12 94.10 519.49 102.19 527.81   C 105.49 531.21 107.93 531.06 113.00 531.08   Q 155.63 531.30 198.25 531.10   Q 198.95 531.09 199.07 530.76   Q 199.31 530.12 198.97 529.78"
       id="path59" />
    <path
       stroke="#c4c7cb"
       vector-effect="non-scaling-stroke"
       d="   M 123.4724 436.7515   A 15.89 15.53 -2.7 0 0 106.8684 421.9872   A 15.89 15.53 -2.7 0 0 91.7276 438.2485   A 15.89 15.53 -2.7 0 0 108.3316 453.0128   A 15.89 15.53 -2.7 0 0 123.4724 436.7515"
       id="path60" />
    <path
       stroke="#b7bbbe"
       vector-effect="non-scaling-stroke"
       d="   M 44.27 537.45   A 0.79 0.79 0.0 0 0 43.16 537.48   L 39.25 541.51   A 0.79 0.79 0.0 0 0 39.20 542.55   L 42.97 547.19   A 0.79 0.79 0.0 0 0 44.16 547.23   L 48.55 542.53   A 0.79 0.79 0.0 0 0 48.51 541.41   L 44.27 537.45"
       id="path61" />
    <path
       stroke="#b7bbbe"
       vector-effect="non-scaling-stroke"
       d="   M 361.29 542.99   A 1.27 1.27 0.0 0 0 361.32 541.36   L 358.39 537.72   A 1.27 1.27 0.0 0 0 356.55 537.57   L 352.59 541.09   A 1.27 1.27 0.0 0 0 352.52 542.92   L 356.23 546.72   A 1.27 1.27 0.0 0 0 358.09 546.67   L 361.29 542.99"
       id="path62" />
    <path
       stroke="#757779"
       vector-effect="non-scaling-stroke"
       d="   M 82.7902 636.5680   A 0.78 0.78 0.0 0 0 82.0021 635.7962   L 69.7827 635.9242   A 0.78 0.78 0.0 0 0 69.0110 636.7123   L 69.0698 642.3320   A 0.78 0.78 0.0 0 0 69.8579 643.1038   L 82.0773 642.9758   A 0.78 0.78 0.0 0 0 82.8490 642.1877   L 82.7902 636.5680"
       id="path63" />
    <path
       stroke="#757779"
       vector-effect="non-scaling-stroke"
       d="   M 110.3903 636.5865   A 0.72 0.72 0.0 0 0 109.6678 635.8690   L 97.6079 635.9111   A 0.72 0.72 0.0 0 0 96.8904 636.6336   L 96.9097 642.1535   A 0.72 0.72 0.0 0 0 97.6322 642.8710   L 109.6921 642.8289   A 0.72 0.72 0.0 0 0 110.4096 642.1064   L 110.3903 636.5865"
       id="path64" />
    <path
       stroke="#8c8e90"
       vector-effect="non-scaling-stroke"
       d="   M 90.30 715.88   Q 90.02 709.13 90.68 701.98   C 90.93 699.19 93.36 698.44 93.97 696.04   C 94.97 692.11 91.56 689.51 87.99 690.28   C 85.09 690.90 82.26 695.06 84.82 697.67   C 86.74 699.63 87.90 700.14 87.95 703.13   Q 88.14 714.30 87.74 725.33   A 0.88 0.88 0.0 0 1 86.45 726.07   Q 79.44 722.36 72.66 718.67   C 69.31 716.85 69.71 712.81 70.52 709.45   Q 70.63 708.98 70.98 708.64   C 80.05 699.76 66.01 695.34 64.10 702.40   C 63.22 705.65 65.76 706.98 67.34 709.24   Q 67.63 709.65 67.63 710.16   Q 67.62 712.83 67.54 715.50   C 67.47 718.04 68.93 718.84 71.14 720.10   Q 78.55 724.31 85.91 728.64   Q 87.39 729.50 87.79 730.64   C 89.57 735.56 81.62 737.66 84.36 742.10   C 87.26 746.79 94.34 745.80 94.12 739.85   C 94.00 736.63 90.43 736.43 90.34 733.25   Q 90.19 727.74 90.36 722.09   A 3.30 3.30 0.0 0 1 91.71 719.53   L 111.05 705.35   A 2.12 2.11 -24.2 0 0 111.87 703.21   C 111.05 699.39 114.35 699.11 115.47 696.66   C 117.90 691.35 108.97 687.20 106.26 693.06   C 103.49 699.04 114.15 700.50 106.91 705.54   C 101.70 709.17 96.88 713.05 91.54 716.52   A 0.81 0.80 -17.6 0 1 90.30 715.88"
       id="path65" />
  </g>
  <path
     fill="#ced2d6"
     d="   M 390.96 52.44   L 390.92 549.82   A 24.10 24.10 0.0 0 1 366.83 573.92   L 33.73 574.07   A 24.10 24.10 0.0 0 1 9.62 549.98   L 9.48 52.67   A 24.10 24.10 0.0 0 1 33.56 28.56   L 366.84 28.34   A 24.10 24.10 0.0 0 1 390.96 52.44   Z   M 380.28 57.27   A 19.12 19.12 0.0 0 0 361.16 38.15   L 39.86 38.15   A 19.12 19.12 0.0 0 0 20.74 57.27   L 20.74 545.15   A 19.12 19.12 0.0 0 0 39.86 564.27   L 361.16 564.27   A 19.12 19.12 0.0 0 0 380.28 545.15   L 380.28 57.27   Z"
     id="path66" />
  <path
     fill="#1b1b1b"
     d="   M 380.28 545.15   A 19.12 19.12 0.0 0 1 361.16 564.27   L 39.86 564.27   A 19.12 19.12 0.0 0 1 20.74 545.15   L 20.74 57.27   A 19.12 19.12 0.0 0 1 39.86 38.15   L 361.16 38.15   A 19.12 19.12 0.0 0 1 380.28 57.27   L 380.28 545.15   Z   M 53.3129 60.4897   A 9.63 9.43 2.2 0 0 44.0520 50.6970   A 9.63 9.43 2.2 0 0 34.0671 59.7503   A 9.63 9.43 2.2 0 0 43.3280 69.5430   A 9.63 9.43 2.2 0 0 53.3129 60.4897   Z   M 167.22 551.12   C 168.93 550.97 170.78 551.38 172.26 551.37   Q 184.62 551.30 218.00 551.54   Q 242.54 551.72 316.17 551.72   C 318.91 551.72 321.21 551.30 323.02 549.51   Q 342.75 529.94 362.71 510.59   C 366.28 507.13 366.95 505.59 366.95 500.75   Q 367.00 301.55 366.97 102.35   C 366.97 99.55 367.06 96.12 365.20 94.32   Q 343.84 73.55 322.68 52.57   Q 320.99 50.89 319.13 50.89   Q 274.44 50.78 102.25 50.67   Q 91.40 50.66 80.81 51.08   A 3.19 3.18 21.5 0 0 78.66 52.01   L 35.14 94.84   A 3.94 3.91 67.9 0 0 33.97 97.64   Q 34.00 300.93 34.22 504.00   Q 34.23 506.78 36.01 508.49   C 50.02 521.86 63.84 535.53 77.51 549.24   Q 80.14 551.88 82.00 551.85   Q 104.19 551.53 126.38 551.38   C 139.06 551.30 150.99 551.35 161.53 551.35   A 40.27 22.96 -2.2 0 0 167.22 551.12   Z   M 366.6988 59.5018   A 9.63 9.49 -3.8 0 0 356.4611 50.6709   A 9.63 9.49 -3.8 0 0 347.4812 60.7782   A 9.63 9.49 -3.8 0 0 357.7189 69.6091   A 9.63 9.49 -3.8 0 0 366.6988 59.5018   Z   M 53.3368 541.6550   A 9.65 9.47 -3.0 0 0 43.2044 532.7030   A 9.65 9.47 -3.0 0 0 34.0632 542.6650   A 9.65 9.47 -3.0 0 0 44.1956 551.6170   A 9.65 9.47 -3.0 0 0 53.3368 541.6550   Z   M 366.67 542.14   A 9.54 9.54 0.0 0 0 357.13 532.60   A 9.54 9.54 0.0 0 0 347.59 542.14   A 9.54 9.54 0.0 0 0 357.13 551.68   A 9.54 9.54 0.0 0 0 366.67 542.14   Z"
     id="path67" />
  <ellipse
     fill="#ced2d6"
     cx="0.00"
     cy="0.00"
     transform="translate(43.69,60.12) rotate(2.2)"
     rx="9.63"
     ry="9.43"
     id="ellipse67" />
  <path
     fill="#494949"
     d="   M 167.22 551.12   A 40.27 22.96 -2.2 0 1 161.53 551.35   C 150.99 551.35 139.06 551.30 126.38 551.38   Q 104.19 551.53 82.00 551.85   Q 80.14 551.88 77.51 549.24   C 63.84 535.53 50.02 521.86 36.01 508.49   Q 34.23 506.78 34.22 504.00   Q 34.00 300.93 33.97 97.64   A 3.94 3.91 67.9 0 1 35.14 94.84   L 78.66 52.01   A 3.19 3.18 21.5 0 1 80.81 51.08   Q 91.40 50.66 102.25 50.67   Q 274.44 50.78 319.13 50.89   Q 320.99 50.89 322.68 52.57   Q 343.84 73.55 365.20 94.32   C 367.06 96.12 366.97 99.55 366.97 102.35   Q 367.00 301.55 366.95 500.75   C 366.95 505.59 366.28 507.13 362.71 510.59   Q 342.75 529.94 323.02 549.51   C 321.21 551.30 318.91 551.72 316.17 551.72   Q 242.54 551.72 218.00 551.54   Q 184.62 551.30 172.26 551.37   C 170.78 551.38 168.93 550.97 167.22 551.12   Z   M 54.55 374.41   L 44.34 364.45   Q 42.68 362.83 42.68 365.16   Q 42.79 424.67 42.97 485.50   Q 42.97 487.72 44.18 489.07   Q 47.92 493.24 54.05 499.20   Q 75.22 519.76 96.23 540.49   C 98.15 542.39 101.28 541.95 103.75 541.97   Q 163.50 542.34 222.69 541.99   Q 224.62 541.98 223.25 540.62   L 189.39 507.25   Q 190.98 506.98 190.47 506.07   A 0.74 0.74 0.0 0 1 191.12 504.97   L 233.23 505.30   Q 231.98 508.95 232.17 510.52   C 233.00 517.29 237.41 518.23 243.67 518.25   Q 264.09 518.31 284.50 518.11   Q 289.74 518.06 291.78 513.50   Q 293.58 509.48 294.94 505.05   Q 305.33 505.31 315.49 505.25   Q 325.10 505.20 329.57 503.51   Q 339.19 499.87 342.74 489.53   Q 344.83 483.43 343.02 475.44   Q 347.46 475.95 350.42 474.93   C 353.88 473.73 354.87 470.18 354.97 466.53   Q 355.55 443.88 354.99 421.20   C 354.87 416.40 352.92 413.76 348.23 413.09   Q 347.04 412.92 343.37 412.98   C 344.05 386.76 343.44 360.47 343.38 334.25   Q 343.33 311.67 343.79 289.11   Q 343.83 287.03 344.67 285.17   C 365.61 239.06 362.54 185.42 336.34 142.17   C 307.19 94.05 255.40 65.92 198.94 66.20   C 191.73 66.23 183.82 67.20 176.25 67.98   Q 169.95 68.63 159.69 71.32   C 78.42 92.56 27.12 173.62 46.37 256.43   Q 49.67 270.66 55.51 284.13   Q 57.09 287.76 57.10 291.75   C 57.14 318.58 56.83 345.42 57.28 372.25   Q 57.31 373.88 54.55 374.41   Z"
     id="path68" />
  <path
     fill="#ced2d6"
     d="   M 366.6988 59.5018   A 9.63 9.49 -3.8 0 1 357.7189 69.6091   A 9.63 9.49 -3.8 0 1 347.4812 60.7782   A 9.63 9.49 -3.8 0 1 356.4611 50.6709   A 9.63 9.49 -3.8 0 1 366.6988 59.5018   Z   M 358.48 64.12   Q 359.00 62.25 360.72 61.34   A 1.30 1.29 -33.9 0 0 361.11 59.36   L 358.10 55.78   A 1.08 1.08 0.0 0 0 356.26 56.10   L 355.64 57.73   Q 355.44 58.27 354.91 58.50   C 354.07 58.85 353.21 58.80 352.64 59.39   Q 352.18 59.87 352.27 60.55   Q 352.32 60.99 352.71 61.20   L 355.30 62.59   A 1.16 1.14 4.4 0 1 355.85 63.22   Q 356.11 63.94 356.67 64.55   A 1.06 1.06 0.0 0 0 358.48 64.12   Z"
     id="path69" />
  <path
     fill="#a0a3a5"
     d="   M 358.48 64.12   A 1.06 1.06 0.0 0 1 356.67 64.55   Q 356.11 63.94 355.85 63.22   A 1.16 1.14 4.4 0 0 355.30 62.59   L 352.71 61.20   Q 352.32 60.99 352.27 60.55   Q 352.18 59.87 352.64 59.39   C 353.21 58.80 354.07 58.85 354.91 58.50   Q 355.44 58.27 355.64 57.73   L 356.26 56.10   A 1.08 1.08 0.0 0 1 358.10 55.78   L 361.11 59.36   A 1.30 1.29 -33.9 0 1 360.72 61.34   Q 359.00 62.25 358.48 64.12   Z"
     id="path70" />
  <path
     fill="#1b1b1b"
     d="   M 343.37 412.98   Q 280.84 412.73 218.50 413.09   C 208.31 413.15 207.72 416.74 207.68 425.60   Q 207.64 437.27 207.60 449.04   C 191.07 451.28 175.56 456.11 163.09 467.57   Q 159.36 470.99 157.03 475.63   L 139.73 458.43   L 205.13 369.13   Q 257.86 366.98 296.89 334.65   C 371.74 272.64 367.37 158.97 288.91 102.31   C 232.64 61.68 155.07 65.09 102.15 109.92   Q 74.79 133.09 61.61 165.08   C 29.32 243.41 68.58 329.22 146.43 359.37   Q 147.32 359.72 150.56 360.70   Q 145.49 364.55 140.32 368.08   Q 114.24 385.87 88.55 404.23   Q 87.96 404.65 87.22 404.98   Q 86.35 405.36 85.84 405.65   L 54.55 374.41   Q 57.31 373.88 57.28 372.25   C 56.83 345.42 57.14 318.58 57.10 291.75   Q 57.09 287.76 55.51 284.13   Q 49.67 270.66 46.37 256.43   C 27.12 173.62 78.42 92.56 159.69 71.32   Q 169.95 68.63 176.25 67.98   C 183.82 67.20 191.73 66.23 198.94 66.20   C 255.40 65.92 307.19 94.05 336.34 142.17   C 362.54 185.42 365.61 239.06 344.67 285.17   Q 343.83 287.03 343.79 289.11   Q 343.33 311.67 343.38 334.25   C 343.44 360.47 344.05 386.76 343.37 412.98   Z"
     id="path71" />
  <path
     fill="#babbbf"
     d="   M 205.13 369.13   L 250.17 306.80   A 1.13 1.13 0.0 0 0 249.26 305.01   L 234.24 304.97   A 6.29 6.25 -62.0 0 0 230.71 306.06   L 150.56 360.70   Q 147.32 359.72 146.43 359.37   C 68.58 329.22 29.32 243.41 61.61 165.08   Q 74.79 133.09 102.15 109.92   C 155.07 65.09 232.64 61.68 288.91 102.31   C 367.37 158.97 371.74 272.64 296.89 334.65   Q 257.86 366.98 205.13 369.13   Z   M 257.5477 223.1546   A 57.11 56.11 1.6 0 0 202.0267 165.4719   A 57.11 56.11 1.6 0 0 143.3723 219.9654   A 57.11 56.11 1.6 0 0 198.8933 277.6481   A 57.11 56.11 1.6 0 0 257.5477 223.1546   Z"
     id="path72" />
  <path
     fill="#a0a3a5"
     d="   M 257.5477 223.1546   A 57.11 56.11 1.6 0 1 198.8933 277.6481   A 57.11 56.11 1.6 0 1 143.3723 219.9654   A 57.11 56.11 1.6 0 1 202.0267 165.4719   A 57.11 56.11 1.6 0 1 257.5477 223.1546   Z   M 253.1703 220.4768   A 52.78 51.87 -1.1 0 0 199.4042 169.6296   A 52.78 51.87 -1.1 0 0 147.6297 222.5032   A 52.78 51.87 -1.1 0 0 201.3958 273.3504   A 52.78 51.87 -1.1 0 0 253.1703 220.4768   Z"
     id="path73" />
  <path
     fill="#ced2d6"
     d="   M 253.1703 220.4768   A 52.78 51.87 -1.1 0 1 201.3958 273.3504   A 52.78 51.87 -1.1 0 1 147.6297 222.5032   A 52.78 51.87 -1.1 0 1 199.4042 169.6296   A 52.78 51.87 -1.1 0 1 253.1703 220.4768   Z   M 186.55 187.98   A 5.78 5.78 0.0 0 0 180.77 182.20   A 5.78 5.78 0.0 0 0 174.99 187.98   A 5.78 5.78 0.0 0 0 180.77 193.76   A 5.78 5.78 0.0 0 0 186.55 187.98   Z   M 225.86 188.07   A 5.78 5.78 0.0 0 0 220.08 182.29   A 5.78 5.78 0.0 0 0 214.30 188.07   A 5.78 5.78 0.0 0 0 220.08 193.85   A 5.78 5.78 0.0 0 0 225.86 188.07   Z   M 224.2718 223.1779   A 23.91 23.52 4.0 0 0 202.0607 198.0473   A 23.91 23.52 4.0 0 0 176.5682 219.8421   A 23.91 23.52 4.0 0 0 198.7793 244.9727   A 23.91 23.52 4.0 0 0 224.2718 223.1779   Z   M 167.20 221.50   A 5.79 5.79 0.0 0 0 161.41 215.71   A 5.79 5.79 0.0 0 0 155.62 221.50   A 5.79 5.79 0.0 0 0 161.41 227.29   A 5.79 5.79 0.0 0 0 167.20 221.50   Z   M 245.49 221.58   A 5.84 5.84 0.0 0 0 239.65 215.74   A 5.84 5.84 0.0 0 0 233.81 221.58   A 5.84 5.84 0.0 0 0 239.65 227.42   A 5.84 5.84 0.0 0 0 245.49 221.58   Z   M 186.43 254.95   A 5.78 5.78 0.0 0 0 180.65 249.17   A 5.78 5.78 0.0 0 0 174.87 254.95   A 5.78 5.78 0.0 0 0 180.65 260.73   A 5.78 5.78 0.0 0 0 186.43 254.95   Z   M 225.7718 253.4266   A 6.00 5.70 -15.5 0 0 218.4667 249.5373   A 6.00 5.70 -15.5 0 0 214.2082 256.6334   A 6.00 5.70 -15.5 0 0 221.5133 260.5227   A 6.00 5.70 -15.5 0 0 225.7718 253.4266   Z"
     id="path74" />
  <circle
     fill="#a0a3a5"
     cx="180.77"
     cy="187.98"
     r="5.78"
     id="circle74" />
  <circle
     fill="#a0a3a5"
     cx="220.08"
     cy="188.07"
     r="5.78"
     id="circle75" />
  <path
     fill="#a0a3a5"
     d="   M 224.2718 223.1779   A 23.91 23.52 4.0 0 1 198.7793 244.9727   A 23.91 23.52 4.0 0 1 176.5682 219.8421   A 23.91 23.52 4.0 0 1 202.0607 198.0473   A 23.91 23.52 4.0 0 1 224.2718 223.1779   Z   M 219.0631 219.4488   A 18.76 18.35 -6.4 0 0 198.3745 203.3044   A 18.76 18.35 -6.4 0 0 181.7769 223.6312   A 18.76 18.35 -6.4 0 0 202.4655 239.7756   A 18.76 18.35 -6.4 0 0 219.0631 219.4488   Z"
     id="path75" />
  <path
     fill="#ced2d6"
     d="   M 219.0631 219.4488   A 18.76 18.35 -6.4 0 1 202.4655 239.7756   A 18.76 18.35 -6.4 0 1 181.7769 223.6312   A 18.76 18.35 -6.4 0 1 198.3745 203.3044   A 18.76 18.35 -6.4 0 1 219.0631 219.4488   Z   M 208.00 221.49   A 7.56 7.56 0.0 0 0 200.44 213.93   A 7.56 7.56 0.0 0 0 192.88 221.49   A 7.56 7.56 0.0 0 0 200.44 229.05   A 7.56 7.56 0.0 0 0 208.00 221.49   Z"
     id="path76" />
  <circle
     fill="#babbbf"
     cx="200.44"
     cy="221.49"
     r="7.56"
     id="circle76" />
  <circle
     fill="#a0a3a5"
     cx="161.41"
     cy="221.50"
     r="5.79"
     id="circle77" />
  <circle
     fill="#a0a3a5"
     cx="239.65"
     cy="221.58"
     r="5.84"
     id="circle78" />
  <circle
     fill="#a0a3a5"
     cx="180.65"
     cy="254.95"
     r="5.78"
     id="circle79" />
  <ellipse
     fill="#a0a3a5"
     cx="0.00"
     cy="0.00"
     transform="translate(219.99,255.03) rotate(-15.5)"
     rx="6.00"
     ry="5.70"
     id="ellipse79" />
  <path
     fill="#ced2d6"
     d="   M 698.01 819.38   L 618.52 819.40   Q 613.33 819.39 608.19 819.27   Q 608.00 819.26 607.84 819.19   Q 607.68 819.11 607.50 819.03   Q 607.26 818.92 606.98 818.92   C 596.58 818.89 586.28 817.76 575.93 818.27   Q 574.55 818.34 575.92 818.48   Q 577.05 818.60 578.60 818.62   Q 578.63 818.63 578.63 818.66   Q 578.63 818.67 578.63 818.68   Q 578.63 818.72 578.57 818.73   L 557.77 819.32   L 553.68 819.61   Q 526.83 819.01 495.75 819.54   C 483.71 819.74 472.59 815.14 468.78 802.95   Q 467.55 799.02 467.56 788.92   C 467.72 625.29 467.11 461.63 467.79 298.00   C 467.85 283.08 478.14 273.75 492.50 273.73   Q 654.48 273.49 816.46 273.49   Q 828.31 273.49 832.87 275.06   C 843.08 278.58 848.70 287.81 848.70 298.76   Q 848.76 461.75 848.76 624.75   C 848.76 682.78 848.75 736.28 848.75 792.00   C 848.75 796.13 848.58 800.92 846.81 804.78   Q 842.37 814.43 832.98 817.69   Q 828.44 819.27 816.35 819.26   Q 758.17 819.25 700.00 819.35   Q 699.27 819.35 698.01 819.38   Z   M 631.47 815.37   Q 639.32 815.26 647.16 815.10   C 650.69 815.02 654.40 814.89 657.85 815.25   Q 661.12 815.60 662.69 815.61   Q 678.87 815.65 695.05 815.90   C 697.64 815.94 701.76 816.37 705.50 816.15   C 711.89 815.78 720.07 816.61 726.51 816.61   Q 762.53 816.64 762.94 816.64   Q 783.76 816.63 804.58 816.38   Q 811.80 816.30 819.08 816.53   C 822.23 816.63 825.49 816.00 828.75 815.88   C 830.54 815.82 832.64 813.77 834.33 813.02   Q 838.22 811.30 841.23 807.48   C 844.83 802.93 845.59 799.73 845.66 793.55   Q 845.85 776.14 845.23 758.74   Q 844.82 747.34 844.84 738.75   Q 844.88 719.37 844.72 700.00   Q 844.67 694.00 844.59 688.00   Q 844.47 678.81 844.34 669.62   C 844.32 668.26 844.65 666.67 844.55 665.14   Q 844.33 662.10 844.33 661.83   Q 844.47 642.29 844.84 622.75   C 844.91 618.85 844.61 614.48 844.61 611.08   C 844.61 595.88 844.70 580.69 844.67 565.50   Q 844.58 521.15 844.84 497.31   Q 844.85 497.05 844.75 496.81   Q 844.69 496.65 844.69 496.50   C 844.63 482.71 844.90 468.94 843.98 455.17   Q 843.88 453.67 844.08 447.82   Q 844.20 444.15 843.46 440.42   Q 843.36 439.91 843.21 440.41   Q 842.38 443.16 842.59 446.03   Q 842.74 448.11 842.69 449.00   Q 842.61 450.50 842.50 451.98   C 842.23 455.65 841.72 459.43 841.73 463.03   C 841.78 500.67 841.52 538.26 841.90 576.00   C 842.07 593.42 841.66 610.68 842.04 628.25   Q 842.46 647.59 842.19 670.50   C 841.93 692.86 842.43 730.23 841.34 758.93   C 840.93 769.85 840.96 779.12 840.96 789.25   C 840.96 797.69 839.65 803.09 832.59 808.04   C 827.39 811.70 821.11 810.54 815.19 810.58   C 763.52 810.94 711.84 810.82 660.16 811.10   C 650.63 811.16 637.48 811.92 626.50 811.59   Q 625.35 811.55 624.59 811.82   A 1.08 0.04 -19.9 0 1 623.68 812.11   Q 605.22 812.25 580.75 811.81   C 579.83 811.80 579.16 811.44 578.39 811.41   Q 570.08 811.05 561.75 811.15   Q 561.49 811.16 561.26 811.05   Q 560.90 810.89 560.52 810.89   C 548.15 810.70 535.22 811.01 523.46 810.78   Q 502.97 810.39 494.49 810.61   Q 483.98 810.87 478.08 802.36   Q 475.83 799.12 475.84 797.00   Q 475.92 778.58 475.56 760.16   C 474.73 717.64 475.37 675.70 475.86 633.50   Q 475.96 624.96 475.88 613.51   C 475.76 597.24 476.06 580.16 476.04 564.75   C 475.97 490.14 475.64 427.16 475.78 341.00   C 475.81 328.10 476.45 312.50 476.31 298.24   C 476.21 288.57 484.30 282.50 493.49 282.27   C 501.31 282.07 508.12 282.91 516.85 282.30   Q 522.94 281.88 527.67 281.88   Q 624.04 281.87 719.01 281.87   A 68.88 15.96 -0.9 0 0 728.75 281.73   Q 729.13 281.71 735.75 282.06   C 747.36 282.66 762.20 281.33 775.43 281.80   C 780.00 281.96 784.27 281.65 788.71 281.41   C 791.25 281.28 794.13 281.72 796.90 281.56   C 799.12 281.42 801.07 281.92 803.32 281.94   C 809.79 281.98 816.27 282.29 822.74 282.31   C 833.83 282.33 840.64 290.29 840.90 301.00   Q 841.10 309.60 840.71 318.19   C 840.62 320.24 840.93 322.33 841.04 324.42   C 841.16 326.69 842.18 328.99 841.74 331.73   C 841.25 334.74 842.33 337.17 842.23 340.03   C 842.08 344.30 842.80 347.91 842.35 351.99   Q 842.31 352.37 842.57 352.83   A 0.39 0.30 38.0 0 1 842.61 352.99   L 842.78 364.83   Q 842.79 365.51 843.39 365.17   Q 843.60 365.05 843.62 364.75   Q 843.75 362.86 843.48 359.60   Q 843.47 359.50 843.55 359.44   Q 843.59 359.40 843.64 359.37   A 0.44 0.39 73.6 0 0 843.80 359.03   C 843.62 352.66 844.23 346.24 844.35 339.86   Q 844.37 338.78 844.99 335.23   Q 845.41 332.85 844.93 330.38   A 1.87 1.85 -42.2 0 1 844.98 329.47   Q 846.12 326.04 845.30 322.46   A 2.23 2.14 46.2 0 1 845.30 321.45   Q 845.86 319.18 845.73 316.25   C 845.42 309.43 846.33 300.64 844.89 293.00   C 844.25 289.59 841.31 285.96 839.15 283.42   Q 837.75 281.78 835.31 280.52   C 831.17 278.40 829.20 277.05 823.50 276.95   Q 817.75 276.86 798.42 277.41   C 792.90 277.56 786.60 277.05 781.75 277.04   Q 638.53 276.92 495.30 277.00   Q 488.94 277.01 485.37 278.32   C 472.25 283.14 469.70 294.31 469.80 307.00   C 469.94 326.08 470.35 345.22 470.33 364.26   Q 470.21 464.67 470.12 565.09   C 470.11 572.47 470.54 582.48 470.49 591.75   C 470.34 620.07 470.23 655.28 470.90 691.99   C 471.39 718.65 470.57 741.59 470.50 779.49   C 470.48 785.83 469.18 793.13 470.89 799.38   Q 472.05 803.59 472.88 804.99   Q 474.42 807.57 478.68 811.14   C 481.12 813.17 483.98 814.03 486.88 815.36   Q 489.07 816.38 490.50 816.38   Q 504.25 816.37 518.00 816.37   Q 518.10 816.37 518.29 816.48   Q 518.53 816.62 518.80 816.62   C 539.29 816.68 559.79 816.67 580.27 816.02   Q 586.37 815.83 594.75 815.93   C 596.90 815.96 599.71 815.33 602.41 815.55   C 611.86 816.31 621.19 815.19 630.63 815.87   Q 630.77 815.88 630.86 815.83   Q 631.04 815.75 631.10 815.62   Q 631.21 815.37 631.47 815.37   Z   M 668.9477 748.1088   A 10.23 10.23 0.0 0 0 658.7355 737.8610   L 657.6355 737.8591   A 10.23 10.23 0.0 0 0 647.3877 748.0712   L 647.3523 768.3312   A 10.23 10.23 0.0 0 0 657.5645 778.5790   L 658.6645 778.5809   A 10.23 10.23 0.0 0 0 668.9123 768.3688   L 668.9477 748.1088   Z"
     id="path79" />
  <path
     fill="#babbbf"
     d="   M 631.10 815.62   Q 631.04 815.75 630.86 815.83   Q 630.77 815.88 630.63 815.87   C 621.19 815.19 611.86 816.31 602.41 815.55   C 599.71 815.33 596.90 815.96 594.75 815.93   Q 586.37 815.83 580.27 816.02   C 559.79 816.67 539.29 816.68 518.80 816.62   Q 518.53 816.62 518.29 816.48   Q 518.10 816.37 518.00 816.37   Q 504.25 816.37 490.50 816.38   Q 489.07 816.38 486.88 815.36   C 483.98 814.03 481.12 813.17 478.68 811.14   Q 474.42 807.57 472.88 804.99   Q 472.05 803.59 470.89 799.38   C 469.18 793.13 470.48 785.83 470.50 779.49   C 470.57 741.59 471.39 718.65 470.90 691.99   C 470.23 655.28 470.34 620.07 470.49 591.75   C 470.54 582.48 470.11 572.47 470.12 565.09   Q 470.21 464.67 470.33 364.26   C 470.35 345.22 469.94 326.08 469.80 307.00   C 469.70 294.31 472.25 283.14 485.37 278.32   Q 488.94 277.01 495.30 277.00   Q 638.53 276.92 781.75 277.04   C 786.60 277.05 792.90 277.56 798.42 277.41   Q 817.75 276.86 823.50 276.95   C 829.20 277.05 831.17 278.40 835.31 280.52   Q 837.75 281.78 839.15 283.42   C 841.31 285.96 844.25 289.59 844.89 293.00   C 846.33 300.64 845.42 309.43 845.73 316.25   Q 845.86 319.18 845.30 321.45   A 2.23 2.14 46.2 0 0 845.30 322.46   Q 846.12 326.04 844.98 329.47   A 1.87 1.85 -42.2 0 0 844.93 330.38   Q 845.41 332.85 844.99 335.23   Q 844.37 338.78 844.35 339.86   C 844.23 346.24 843.62 352.66 843.80 359.03   A 0.44 0.39 73.6 0 1 843.64 359.37   Q 843.59 359.40 843.55 359.44   Q 843.47 359.50 843.48 359.60   Q 843.75 362.86 843.62 364.75   Q 843.60 365.05 843.39 365.17   Q 842.79 365.51 842.78 364.83   L 842.61 352.99   A 0.39 0.30 38.0 0 0 842.57 352.83   Q 842.31 352.37 842.35 351.99   C 842.80 347.91 842.08 344.30 842.23 340.03   C 842.33 337.17 841.25 334.74 841.74 331.73   C 842.18 328.99 841.16 326.69 841.04 324.42   C 840.93 322.33 840.62 320.24 840.71 318.19   Q 841.10 309.60 840.90 301.00   C 840.64 290.29 833.83 282.33 822.74 282.31   C 816.27 282.29 809.79 281.98 803.32 281.94   C 801.07 281.92 799.12 281.42 796.90 281.56   C 794.13 281.72 791.25 281.28 788.71 281.41   C 784.27 281.65 780.00 281.96 775.43 281.80   C 762.20 281.33 747.36 282.66 735.75 282.06   Q 729.13 281.71 728.75 281.73   A 68.88 15.96 -0.9 0 1 719.01 281.87   Q 624.04 281.87 527.67 281.88   Q 522.94 281.88 516.85 282.30   C 508.12 282.91 501.31 282.07 493.49 282.27   C 484.30 282.50 476.21 288.57 476.31 298.24   C 476.45 312.50 475.81 328.10 475.78 341.00   C 475.64 427.16 475.97 490.14 476.04 564.75   C 476.06 580.16 475.76 597.24 475.88 613.51   Q 475.96 624.96 475.86 633.50   C 475.37 675.70 474.73 717.64 475.56 760.16   Q 475.92 778.58 475.84 797.00   Q 475.83 799.12 478.08 802.36   Q 483.98 810.87 494.49 810.61   Q 502.97 810.39 523.46 810.78   C 535.22 811.01 548.15 810.70 560.52 810.89   Q 560.90 810.89 561.26 811.05   Q 561.49 811.16 561.75 811.15   Q 570.08 811.05 578.39 811.41   C 579.16 811.44 579.83 811.80 580.75 811.81   Q 605.22 812.25 623.68 812.11   A 1.08 0.04 -19.9 0 0 624.59 811.82   Q 625.35 811.55 626.50 811.59   C 637.48 811.92 650.63 811.16 660.16 811.10   C 711.84 810.82 763.52 810.94 815.19 810.58   C 821.11 810.54 827.39 811.70 832.59 808.04   C 839.65 803.09 840.96 797.69 840.96 789.25   C 840.96 779.12 840.93 769.85 841.34 758.93   C 842.43 730.23 841.93 692.86 842.19 670.50   Q 842.46 647.59 842.04 628.25   C 841.66 610.68 842.07 593.42 841.90 576.00   C 841.52 538.26 841.78 500.67 841.73 463.03   C 841.72 459.43 842.23 455.65 842.50 451.98   Q 842.61 450.50 842.69 449.00   Q 842.74 448.11 842.59 446.03   Q 842.38 443.16 843.21 440.41   Q 843.36 439.91 843.46 440.42   Q 844.20 444.15 844.08 447.82   Q 843.88 453.67 843.98 455.17   C 844.90 468.94 844.63 482.71 844.69 496.50   Q 844.69 496.65 844.75 496.81   Q 844.85 497.05 844.84 497.31   Q 844.58 521.15 844.67 565.50   C 844.70 580.69 844.61 595.88 844.61 611.08   C 844.61 614.48 844.91 618.85 844.84 622.75   Q 844.47 642.29 844.33 661.83   Q 844.33 662.10 844.55 665.14   C 844.65 666.67 844.32 668.26 844.34 669.62   Q 844.47 678.81 844.59 688.00   Q 844.67 694.00 844.72 700.00   Q 844.88 719.37 844.84 738.75   Q 844.82 747.34 845.23 758.74   Q 845.85 776.14 845.66 793.55   C 845.59 799.73 844.83 802.93 841.23 807.48   Q 838.22 811.30 834.33 813.02   C 832.64 813.77 830.54 815.82 828.75 815.88   C 825.49 816.00 822.23 816.63 819.08 816.53   Q 811.80 816.30 804.58 816.38   Q 783.76 816.63 762.94 816.64   Q 762.53 816.64 726.51 816.61   C 720.07 816.61 711.89 815.78 705.50 816.15   C 701.76 816.37 697.64 815.94 695.05 815.90   Q 678.87 815.65 662.69 815.61   Q 661.12 815.60 657.85 815.25   C 654.40 814.89 650.69 815.02 647.16 815.10   Q 639.32 815.26 631.47 815.37   Q 631.21 815.37 631.10 815.62   Z"
     id="path80" />
  <path
     fill="#ced2d6"
     d="   M 205.13 369.13   L 139.73 458.43   Q 126.28 476.65 103.93 475.49   C 92.63 474.90 81.07 467.66 75.06 458.44   C 67.10 446.19 66.67 431.02 74.06 418.36   Q 75.84 415.30 79.60 411.73   Q 82.72 408.76 85.84 405.65   Q 86.35 405.36 87.22 404.98   Q 87.96 404.65 88.55 404.23   Q 114.24 385.87 140.32 368.08   Q 145.49 364.55 150.56 360.70   L 230.71 306.06   A 6.29 6.25 -62.0 0 1 234.24 304.97   L 249.26 305.01   A 1.13 1.13 0.0 0 1 250.17 306.80   L 205.13 369.13   Z   M 180.13 367.35   Q 179.43 367.22 179.31 368.32   Q 178.23 378.79 177.50 390.08   Q 177.41 391.40 178.22 390.35   L 194.60 369.00   Q 196.78 366.54 198.90 363.69   C 201.91 359.67 205.53 355.95 208.29 352.02   C 213.37 344.79 218.04 338.86 223.45 331.74   Q 226.57 327.63 229.96 323.73   Q 232.15 321.19 234.20 318.46   Q 234.30 318.31 234.17 318.20   L 233.96 318.02   Q 233.74 317.84 233.55 318.04   Q 230.44 321.23 224.11 326.60   C 221.78 328.58 219.09 331.58 216.38 333.86   Q 210.78 338.57 205.37 343.48   C 198.39 349.80 190.95 356.01 183.98 362.55   C 182.43 364.00 181.39 365.65 180.13 367.35   Z   M 132.3403 436.8187   A 24.76 24.39 -1.6 0 0 106.9090 413.1295   A 24.76 24.39 -1.6 0 0 82.8397 438.2013   A 24.76 24.39 -1.6 0 0 108.2710 461.8905   A 24.76 24.39 -1.6 0 0 132.3403 436.8187   Z"
     id="path81" />
  <path
     fill="#babbbf"
     d="   M 194.60 369.00   C 190.56 368.95 183.22 369.03 180.13 367.35   C 181.39 365.65 182.43 364.00 183.98 362.55   C 190.95 356.01 198.39 349.80 205.37 343.48   Q 210.78 338.57 216.38 333.86   C 219.09 331.58 221.78 328.58 224.11 326.60   Q 230.44 321.23 233.55 318.04   Q 233.74 317.84 233.96 318.02   L 234.17 318.20   Q 234.30 318.31 234.20 318.46   Q 232.15 321.19 229.96 323.73   Q 226.57 327.63 223.45 331.74   C 218.04 338.86 213.37 344.79 208.29 352.02   C 205.53 355.95 201.91 359.67 198.90 363.69   Q 196.78 366.54 194.60 369.00   Z"
     id="path82" />
  <path
     fill="#babbbf"
     d="   M 54.55 374.41   L 85.84 405.65   Q 82.72 408.76 79.60 411.73   Q 75.84 415.30 74.06 418.36   C 66.67 431.02 67.10 446.19 75.06 458.44   C 81.07 467.66 92.63 474.90 103.93 475.49   Q 126.28 476.65 139.73 458.43   L 157.03 475.63   L 162.64 480.98   L 189.39 507.25   L 223.25 540.62   Q 224.62 541.98 222.69 541.99   Q 163.50 542.34 103.75 541.97   C 101.28 541.95 98.15 542.39 96.23 540.49   Q 75.22 519.76 54.05 499.20   Q 47.92 493.24 44.18 489.07   Q 42.97 487.72 42.97 485.50   Q 42.79 424.67 42.68 365.16   Q 42.68 362.83 44.34 364.45   L 54.55 374.41   Z   M 198.97 529.78   L 157.22 488.83   A 0.93 0.93 0.0 0 0 155.95 488.80   C 142.92 500.32 126.27 507.38 108.77 507.59   C 98.55 507.72 85.95 505.60 78.58 501.70   Q 73.85 499.19 77.66 502.96   C 85.91 511.12 94.10 519.49 102.19 527.81   C 105.49 531.21 107.93 531.06 113.00 531.08   Q 155.63 531.30 198.25 531.10   Q 198.95 531.09 199.07 530.76   Q 199.31 530.12 198.97 529.78   Z"
     id="path83" />
  <path
     fill="#1b1b1b"
     d="   M 180.13 367.35   C 183.22 369.03 190.56 368.95 194.60 369.00   L 178.22 390.35   Q 177.41 391.40 177.50 390.08   Q 178.23 378.79 179.31 368.32   Q 179.43 367.22 180.13 367.35   Z"
     id="path84" />
  <path
     fill="#636363"
     d="   M 343.37 412.98   Q 347.04 412.92 348.23 413.09   C 352.92 413.76 354.87 416.40 354.99 421.20   Q 355.55 443.88 354.97 466.53   C 354.87 470.18 353.88 473.73 350.42 474.93   Q 347.46 475.95 343.02 475.44   L 305.63 475.19   C 307.40 469.94 310.98 462.31 310.73 457.68   C 310.36 450.99 304.32 450.42 298.54 450.36   Q 279.77 450.18 261.00 450.28   C 256.95 450.31 252.74 451.24 251.20 455.43   Q 247.23 466.24 243.80 475.71   Q 231.26 475.34 218.99 475.46   C 204.33 475.59 208.84 467.54 207.31 457.72   L 207.60 449.04   Q 207.64 437.27 207.68 425.60   C 207.72 416.74 208.31 413.15 218.50 413.09   Q 280.84 412.73 343.37 412.98   Z"
     id="path85" />
  <path
     fill="#babbbf"
     d="   M 132.3403 436.8187   A 24.76 24.39 -1.6 0 1 108.2710 461.8905   A 24.76 24.39 -1.6 0 1 82.8397 438.2013   A 24.76 24.39 -1.6 0 1 106.9090 413.1295   A 24.76 24.39 -1.6 0 1 132.3403 436.8187   Z   M 123.4724 436.7515   A 15.89 15.53 -2.7 0 0 106.8684 421.9872   A 15.89 15.53 -2.7 0 0 91.7276 438.2485   A 15.89 15.53 -2.7 0 0 108.3316 453.0128   A 15.89 15.53 -2.7 0 0 123.4724 436.7515   Z"
     id="path86" />
  <ellipse
     fill="#ced2d6"
     cx="0.00"
     cy="0.00"
     transform="translate(107.60,437.50) rotate(-2.7)"
     rx="15.89"
     ry="15.53"
     id="ellipse86" />
  <path
     fill="#494949"
     d="   M 207.60 449.04   L 207.31 457.72   Q 192.10 460.54 182.02 465.28   Q 171.76 470.11 162.64 480.98   L 157.03 475.63   Q 159.36 470.99 163.09 467.57   C 175.56 456.11 191.07 451.28 207.60 449.04   Z"
     id="path87" />
  <path
     fill="#babbbf"
     d="   M 305.63 475.19   L 294.94 505.05   Q 293.58 509.48 291.78 513.50   Q 289.74 518.06 284.50 518.11   Q 264.09 518.31 243.67 518.25   C 237.41 518.23 233.00 517.29 232.17 510.52   Q 231.98 508.95 233.23 505.30   L 243.80 475.71   Q 247.23 466.24 251.20 455.43   C 252.74 451.24 256.95 450.31 261.00 450.28   Q 279.77 450.18 298.54 450.36   C 304.32 450.42 310.36 450.99 310.73 457.68   C 310.98 462.31 307.40 469.94 305.63 475.19   Z"
     id="path88" />
  <path
     fill="#1b1b1b"
     d="   M 207.31 457.72   C 208.84 467.54 204.33 475.59 218.99 475.46   Q 231.26 475.34 243.80 475.71   L 233.23 505.30   L 191.12 504.97   A 0.74 0.74 0.0 0 0 190.47 506.07   Q 190.98 506.98 189.39 507.25   L 162.64 480.98   Q 171.76 470.11 182.02 465.28   Q 192.10 460.54 207.31 457.72   Z"
     id="path89" />
  <path
     fill="#1b1b1b"
     d="   M 305.63 475.19   L 343.02 475.44   Q 344.83 483.43 342.74 489.53   Q 339.19 499.87 329.57 503.51   Q 325.10 505.20 315.49 505.25   Q 305.33 505.31 294.94 505.05   L 305.63 475.19   Z"
     id="path90" />
  <path
     fill="#ced2d6"
     d="   M 198.97 529.78   Q 199.31 530.12 199.07 530.76   Q 198.95 531.09 198.25 531.10   Q 155.63 531.30 113.00 531.08   C 107.93 531.06 105.49 531.21 102.19 527.81   C 94.10 519.49 85.91 511.12 77.66 502.96   Q 73.85 499.19 78.58 501.70   C 85.95 505.60 98.55 507.72 108.77 507.59   C 126.27 507.38 142.92 500.32 155.95 488.80   A 0.93 0.93 0.0 0 1 157.22 488.83   L 198.97 529.78   Z"
     id="path91" />
  <path
     fill="#ced2d6"
     d="   M 53.3368 541.6550   A 9.65 9.47 -3.0 0 1 44.1956 551.6170   A 9.65 9.47 -3.0 0 1 34.0632 542.6650   A 9.65 9.47 -3.0 0 1 43.2044 532.7030   A 9.65 9.47 -3.0 0 1 53.3368 541.6550   Z   M 44.27 537.45   A 0.79 0.79 0.0 0 0 43.16 537.48   L 39.25 541.51   A 0.79 0.79 0.0 0 0 39.20 542.55   L 42.97 547.19   A 0.79 0.79 0.0 0 0 44.16 547.23   L 48.55 542.53   A 0.79 0.79 0.0 0 0 48.51 541.41   L 44.27 537.45   Z"
     id="path92" />
  <path
     fill="#ced2d6"
     d="   M 366.67 542.14   A 9.54 9.54 0.0 0 1 357.13 551.68   A 9.54 9.54 0.0 0 1 347.59 542.14   A 9.54 9.54 0.0 0 1 357.13 532.60   A 9.54 9.54 0.0 0 1 366.67 542.14   Z   M 361.29 542.99   A 1.27 1.27 0.0 0 0 361.32 541.36   L 358.39 537.72   A 1.27 1.27 0.0 0 0 356.55 537.57   L 352.59 541.09   A 1.27 1.27 0.0 0 0 352.52 542.92   L 356.23 546.72   A 1.27 1.27 0.0 0 0 358.09 546.67   L 361.29 542.99   Z"
     id="path93" />
  <path
     fill="#a0a3a5"
     d="   M 361.29 542.99   L 358.09 546.67   A 1.27 1.27 0.0 0 1 356.23 546.72   L 352.52 542.92   A 1.27 1.27 0.0 0 1 352.59 541.09   L 356.55 537.57   A 1.27 1.27 0.0 0 1 358.39 537.72   L 361.32 541.36   A 1.27 1.27 0.0 0 1 361.29 542.99   Z"
     id="path94" />
  <path
     fill="#a0a3a5"
     d="   M 44.27 537.45   L 48.51 541.41   A 0.79 0.79 0.0 0 1 48.55 542.53   L 44.16 547.23   A 0.79 0.79 0.0 0 1 42.97 547.19   L 39.20 542.55   A 0.79 0.79 0.0 0 1 39.25 541.51   L 43.16 537.48   A 0.79 0.79 0.0 0 1 44.27 537.45   Z"
     id="path95" />
  <path
     fill="#ced2d6"
     d="   M 121.06 670.79   Q 121.42 672.56 120.00 672.55   Q 92.37 672.41 64.75 672.48   Q 61.94 672.48 59.35 672.52   Q 59.74 650.73 59.49 629.50   Q 59.47 627.68 60.13 626.04   Q 60.32 625.55 60.85 625.48   Q 63.52 625.14 64.87 625.14   Q 102.88 625.22 116.64 625.07   Q 120.42 625.02 120.48 628.73   C 120.58 634.32 120.03 640.14 120.23 645.42   Q 120.71 658.10 121.06 670.79   Z   M 82.7902 636.5680   A 0.78 0.78 0.0 0 0 82.0021 635.7962   L 69.7827 635.9242   A 0.78 0.78 0.0 0 0 69.0110 636.7123   L 69.0698 642.3320   A 0.78 0.78 0.0 0 0 69.8579 643.1038   L 82.0773 642.9758   A 0.78 0.78 0.0 0 0 82.8490 642.1877   L 82.7902 636.5680   Z   M 110.3903 636.5865   A 0.72 0.72 0.0 0 0 109.6678 635.8690   L 97.6079 635.9111   A 0.72 0.72 0.0 0 0 96.8904 636.6336   L 96.9097 642.1535   A 0.72 0.72 0.0 0 0 97.6322 642.8710   L 109.6921 642.8289   A 0.72 0.72 0.0 0 0 110.4096 642.1064   L 110.3903 636.5865   Z"
     id="path96" />
  <rect
     fill="#1b1b1b"
     x="-6.89"
     y="-3.59"
     transform="translate(75.93,639.45) rotate(-0.6)"
     width="13.78"
     height="7.18"
     rx="0.78"
     id="rect96" />
  <rect
     fill="#1b1b1b"
     x="-6.75"
     y="-3.48"
     transform="translate(103.65,639.37) rotate(-0.2)"
     width="13.50"
     height="6.96"
     rx="0.72"
     id="rect97" />
  <path
     fill="#1b1b1b"
     d="   M 643.07 860.00   L 672.81 859.99   C 671.32 866.69 673.37 869.96 665.12 871.55   A 1.35 1.34 -5.5 0 0 664.02 872.87   C 664.02 878.05 664.33 883.19 662.47 888.42   C 659.05 898.05 651.45 905.53 641.84 908.44   Q 636.68 910.01 622.51 910.01   Q 511.38 910.03 400.25 910.12   Q 397.12 910.13 393.99 910.24   C 374.22 911.00 358.88 896.86 358.95 876.75   C 359.18 812.74 358.80 748.72 359.05 684.71   C 359.08 675.74 353.87 668.12 345.98 665.27   Q 341.64 663.70 328.84 663.72   Q 286.39 663.78 243.94 663.69   C 233.03 663.66 224.13 666.51 220.30 677.26   Q 218.80 681.45 218.79 691.17   Q 218.73 746.33 218.78 801.50   C 218.79 814.57 207.23 826.32 195.89 829.41   Q 190.91 830.77 176.01 830.72   Q 146.00 830.64 116.00 830.75   C 102.20 830.80 90.39 822.61 85.79 809.82   C 82.88 801.74 83.23 790.93 83.76 781.81   A 1.25 1.25 0.0 0 0 82.77 780.52   C 81.35 780.24 80.08 780.57 78.84 779.71   Q 75.18 777.16 75.66 771.09   Q 75.77 769.75 74.52 769.26   L 72.99 768.67   C 77.53 768.89 82.04 769.39 86.52 769.31   Q 95.28 769.15 104.03 769.19   Q 103.99 772.48 103.55 775.48   C 102.89 780.06 99.85 780.19 96.13 780.81   A 0.62 0.61 84.1 0 0 95.62 781.44   Q 95.81 787.55 95.92 793.64   Q 96.07 802.57 97.11 805.73   C 99.81 813.98 107.65 818.54 116.25 818.58   Q 151.37 818.78 186.50 818.84   C 197.90 818.86 206.73 810.49 206.76 799.00   Q 206.92 746.54 206.95 694.09   Q 206.96 679.64 208.49 674.58   C 211.81 663.59 221.58 654.89 232.94 652.53   Q 236.56 651.78 246.11 651.77   Q 291.56 651.73 337.00 651.72   C 356.83 651.72 371.29 666.05 371.23 686.00   Q 370.83 807.25 371.14 877.50   C 371.20 890.05 380.30 898.01 392.75 898.01   Q 513.50 897.98 634.25 898.04   C 635.73 898.04 638.28 897.34 639.82 896.61   C 649.73 891.89 652.65 883.33 652.39 872.78   Q 652.37 872.22 651.86 872.02   C 649.49 871.10 646.79 870.73 645.15 868.27   Q 644.34 867.05 644.28 864.53   Q 644.21 861.65 643.07 860.00   Z"
     id="path97" />
  <path
     fill="#494949"
     d="   M 121.06 670.79   L 121.22 672.23   A 0.74 0.72 4.0 0 0 121.79 672.87   C 125.59 673.72 129.12 673.59 129.18 678.76   Q 129.56 710.50 129.25 742.25   Q 129.20 746.97 128.18 749.90   C 127.04 753.16 118.58 752.58 115.93 752.46   Q 112.70 752.32 112.76 755.56   Q 112.85 760.63 112.94 765.51   C 113.02 769.87 107.06 768.88 104.03 769.19   Q 95.28 769.15 86.52 769.31   C 82.04 769.39 77.53 768.89 72.99 768.67   Q 71.05 768.58 69.01 768.05   Q 67.36 767.62 67.16 766.73   C 66.09 762.14 66.83 757.73 65.82 753.35   A 1.35 1.34 -5.7 0 0 64.53 752.30   Q 60.26 752.24 56.24 751.95   C 49.94 751.51 50.45 747.39 50.41 741.98   Q 50.14 710.24 50.48 678.49   Q 50.51 676.10 52.12 674.82   C 54.25 673.13 56.90 674.04 59.35 672.52   Q 61.94 672.48 64.75 672.48   Q 92.37 672.41 120.00 672.55   Q 121.42 672.56 121.06 670.79   Z   M 90.30 715.88   Q 90.02 709.13 90.68 701.98   C 90.93 699.19 93.36 698.44 93.97 696.04   C 94.97 692.11 91.56 689.51 87.99 690.28   C 85.09 690.90 82.26 695.06 84.82 697.67   C 86.74 699.63 87.90 700.14 87.95 703.13   Q 88.14 714.30 87.74 725.33   A 0.88 0.88 0.0 0 1 86.45 726.07   Q 79.44 722.36 72.66 718.67   C 69.31 716.85 69.71 712.81 70.52 709.45   Q 70.63 708.98 70.98 708.64   C 80.05 699.76 66.01 695.34 64.10 702.40   C 63.22 705.65 65.76 706.98 67.34 709.24   Q 67.63 709.65 67.63 710.16   Q 67.62 712.83 67.54 715.50   C 67.47 718.04 68.93 718.84 71.14 720.10   Q 78.55 724.31 85.91 728.64   Q 87.39 729.50 87.79 730.64   C 89.57 735.56 81.62 737.66 84.36 742.10   C 87.26 746.79 94.34 745.80 94.12 739.85   C 94.00 736.63 90.43 736.43 90.34 733.25   Q 90.19 727.74 90.36 722.09   A 3.30 3.30 0.0 0 1 91.71 719.53   L 111.05 705.35   A 2.12 2.11 -24.2 0 0 111.87 703.21   C 111.05 699.39 114.35 699.11 115.47 696.66   C 117.90 691.35 108.97 687.20 106.26 693.06   C 103.49 699.04 114.15 700.50 106.91 705.54   C 101.70 709.17 96.88 713.05 91.54 716.52   A 0.81 0.80 -17.6 0 1 90.30 715.88   Z"
     id="path98" />
  <path
     fill="#ced2d6"
     d="   M 90.30 715.88   A 0.81 0.80 -17.6 0 0 91.54 716.52   C 96.88 713.05 101.70 709.17 106.91 705.54   C 114.15 700.50 103.49 699.04 106.26 693.06   C 108.97 687.20 117.90 691.35 115.47 696.66   C 114.35 699.11 111.05 699.39 111.87 703.21   A 2.12 2.11 -24.2 0 1 111.05 705.35   L 91.71 719.53   A 3.30 3.30 0.0 0 0 90.36 722.09   Q 90.19 727.74 90.34 733.25   C 90.43 736.43 94.00 736.63 94.12 739.85   C 94.34 745.80 87.26 746.79 84.36 742.10   C 81.62 737.66 89.57 735.56 87.79 730.64   Q 87.39 729.50 85.91 728.64   Q 78.55 724.31 71.14 720.10   C 68.93 718.84 67.47 718.04 67.54 715.50   Q 67.62 712.83 67.63 710.16   Q 67.63 709.65 67.34 709.24   C 65.76 706.98 63.22 705.65 64.10 702.40   C 66.01 695.34 80.05 699.76 70.98 708.64   Q 70.63 708.98 70.52 709.45   C 69.71 712.81 69.31 716.85 72.66 718.67   Q 79.44 722.36 86.45 726.07   A 0.88 0.88 0.0 0 0 87.74 725.33   Q 88.14 714.30 87.95 703.13   C 87.90 700.14 86.74 699.63 84.82 697.67   C 82.26 695.06 85.09 690.90 87.99 690.28   C 91.56 689.51 94.97 692.11 93.97 696.04   C 93.36 698.44 90.93 699.19 90.68 701.98   Q 90.02 709.13 90.30 715.88   Z"
     id="path99" />
  <rect
     fill="#2a9fca"
     x="-10.78"
     y="-20.36"
     transform="translate(658.15,758.22) rotate(0.1)"
     width="21.56"
     height="40.72"
     rx="10.23"
     id="rect99" />
  <path
     fill="#babbbf"
     d="   M 618.52 819.40   Q 617.94 819.74 616.78 819.83   L 600.54 819.80   L 588.01 819.35   Q 587.69 819.34 587.98 819.48   Q 588.11 819.54 588.29 819.52   Q 588.56 819.49 588.79 819.64   Q 589.64 820.19 590.78 820.12   L 580.61 820.14   Q 580.11 820.14 579.64 819.97   Q 579.02 819.74 577.75 819.67   C 571.06 819.29 564.46 819.64 557.77 819.32   L 578.57 818.73   Q 578.63 818.72 578.63 818.68   Q 578.63 818.67 578.63 818.66   Q 578.63 818.63 578.60 818.62   Q 577.05 818.60 575.92 818.48   Q 574.55 818.34 575.93 818.27   C 586.28 817.76 596.58 818.89 606.98 818.92   Q 607.26 818.92 607.50 819.03   Q 607.68 819.11 607.84 819.19   Q 608.00 819.26 608.19 819.27   Q 613.33 819.39 618.52 819.40   Z"
     id="path100" />
  <path
     fill="#636363"
     d="   M 600.54 819.80   L 593.29 820.59   L 590.78 820.12   Q 589.64 820.19 588.79 819.64   Q 588.56 819.49 588.29 819.52   Q 588.11 819.54 587.98 819.48   Q 587.69 819.34 588.01 819.35   L 600.54 819.80   Z"
     id="path102" />
  <path
     fill="#494949"
     d="   M 698.01 819.38   Q 697.85 826.44 697.46 833.20   Q 696.86 843.60 686.24 843.38   Q 682.06 843.30 681.70 847.49   C 681.33 851.87 682.06 855.13 677.94 858.51   Q 677.59 858.80 677.14 858.91   L 672.81 859.99   L 643.07 860.00   Q 639.31 859.64 637.04 857.52   C 633.18 853.92 637.66 844.94 631.57 843.63   C 629.51 843.18 626.65 843.53 624.49 842.74   Q 618.23 840.46 618.23 832.99   Q 618.23 827.16 618.21 821.30   Q 618.21 820.58 617.89 820.27   Q 617.49 819.87 616.78 819.83   Q 617.94 819.74 618.52 819.40   L 698.01 819.38   Z"
     id="path103" />
  <path
     style="fill:#ffeb65;fill-opacity:1;stroke:none;stroke-width:1.30931"
     d="m 542.3626,820.1594 c 0,0 -10.52036,4.83077 -10.89609,19.96723 v 0 c 42.83293,-0.96616 43.02079,-1.28822 43.02079,-1.28822 0,0 -4.133,-16.42464 -8.82959,-19.00106 z"
     id="path104"
     sodipodi:nodetypes="csscc" />
</svg>
