<svg width="101" height="100" viewBox="0 0 101 100" fill="none" xmlns="http://www.w3.org/2000/svg">
<path d="M81.1647 82.4286V90.0002H77.7848C76.9142 90.0002 76.1461 89.4375 75.89 88.5678C75.2755 86.5725 73.432 85.1401 71.2811 85.1401H34.9221V82.3774H81.1647V82.4286Z" fill="#2C2F30"/>
<path d="M5.27148 82.4284H36.7656V15H7.06383C6.09084 15 5.27148 15.8186 5.27148 16.8417V82.4284Z" fill="#43474A"/>
<path d="M33.6417 15H10.1876C9.16335 15 8.34399 15.8186 8.34399 16.8417V49.0211C8.34399 51.8861 10.6484 54.1883 13.5162 54.1883H26.6771C29.5449 54.1883 31.8493 51.8861 31.8493 49.0211V16.8417C31.7981 15.8186 32.6175 15 33.6417 15Z" fill="#393E40"/>
<path d="M34.8708 82.4282V89.9998H37.7386C38.6092 89.9998 39.3773 89.4371 39.6334 88.5674C40.2479 86.5722 42.0914 85.1397 44.2423 85.1397H86.9001C89.1021 85.1397 90.9457 86.5722 91.509 88.5674C91.765 89.3859 92.5332 89.9998 93.4038 89.9998H96.2715V82.4282H34.8708Z" fill="#666B70"/>
<path d="M5.27148 82.4282V89.9998H8.13924C9.00981 89.9998 9.77796 89.4371 10.034 88.5674C10.6485 86.5722 12.4921 85.1397 14.6429 85.1397H24.9873C27.1893 85.1397 29.0329 86.5722 29.5962 88.5674C29.8522 89.3859 30.6204 89.9998 31.491 89.9998H34.8708V82.4282H5.27148Z" fill="#CEDAE3"/>
<path d="M34.8708 82.4284H96.2715V16.8417C96.2715 15.8186 95.4522 15 94.428 15H36.7144C35.6902 15 34.8708 15.8186 34.8708 16.8417V82.4284Z" fill="#2C2F30"/>
<path d="M41.8865 77.0565H89.3069C90.1774 77.0565 90.8944 76.3403 90.8944 75.4706V22.0088C90.8944 21.1391 90.1774 20.4229 89.3069 20.4229H41.8865C41.0159 20.4229 40.299 21.1391 40.299 22.0088V75.4706C40.2478 76.3403 40.9647 77.0565 41.8865 77.0565Z" fill="#424242"/>
<path opacity="0.05" d="M89.3072 20.3716L59.247 77.0564H41.8356C40.965 77.0564 40.2993 76.3402 40.2993 75.5216V21.9575C40.2993 21.0878 41.0163 20.4227 41.8356 20.4227H89.3072V20.3716Z" fill="white"/>
<path d="M44.3957 23.4925C44.3957 22.9298 43.9348 22.5205 43.4227 22.5205C42.8594 22.5205 42.4497 22.9809 42.4497 23.4925C42.4497 24.0553 42.9106 24.4646 43.4227 24.4646C43.9348 24.5157 44.3957 24.0553 44.3957 23.4925Z" fill="#292929"/>
<path d="M44.3957 73.9359C44.3957 73.3731 43.9348 72.9639 43.4227 72.9639C42.8594 72.9639 42.4497 73.4243 42.4497 73.9359C42.4497 74.4987 42.9106 74.9079 43.4227 74.9079C43.9348 74.9079 44.3957 74.4475 44.3957 73.9359Z" fill="#292929"/>
<path d="M88.7436 23.4925C88.7436 22.9298 88.2827 22.5205 87.7706 22.5205C87.2073 22.5205 86.7976 22.9809 86.7976 23.4925C86.7976 24.0553 87.2585 24.4646 87.7706 24.4646C88.2827 24.5157 88.7436 24.0553 88.7436 23.4925Z" fill="#292929"/>
<path d="M88.7436 73.9359C88.7436 73.3731 88.2827 72.9639 87.7706 72.9639C87.2073 72.9639 86.7976 73.4243 86.7976 73.9359C86.7976 74.4987 87.2585 74.9079 87.7706 74.9079C88.2827 74.9079 88.7436 74.4475 88.7436 73.9359Z" fill="#292929"/>
<path opacity="0.05" d="M90.8943 35.9751L71.4346 77.0563H80.2427L90.8943 59.0992V35.9751Z" fill="white"/>
<path d="M31.7981 24.5156H8.34399V25.283H31.7981V24.5156Z" fill="#34393B"/>
<path d="M31.7981 31.064H8.34399V31.8314H31.7981V31.064Z" fill="#34393B"/>
<path d="M31.7981 37.6128H8.34399V38.3802H31.7981V37.6128Z" fill="#34393B"/>
<path d="M26.5599 69.8385C27.4093 66.2649 25.198 62.6801 21.6209 61.8316C18.0438 60.9831 14.4555 63.1922 13.6062 66.7658C12.7569 70.3394 14.9682 73.9242 18.5452 74.7727C22.1223 75.6211 25.7106 73.412 26.5599 69.8385Z" fill="#4E5357"/>
<path d="M20.6857 78.3867H19.4054C18.8933 78.3867 18.4836 77.9774 18.4836 77.4658C18.4836 76.9542 18.8933 76.5449 19.4054 76.5449H20.6857C21.1978 76.5449 21.6074 76.9542 21.6074 77.4658C21.6074 77.9774 21.1978 78.3867 20.6857 78.3867Z" fill="#B5A34D"/>
<path d="M18.7397 65.6992C17.6131 66.2108 16.845 67.3363 16.845 68.6153C16.845 70.4059 18.2788 71.8384 20.0712 71.8384C21.8635 71.8384 23.2974 70.4059 23.2974 68.6153C23.2974 67.3363 22.5293 66.2108 21.4027 65.6992" stroke="#CEDAE3" stroke-miterlimit="10" strokeLinecap="round"/>
<path d="M20.0713 68.2571V64.7271" stroke="#CEDAE3" stroke-miterlimit="10" strokeLinecap="round"/>
<path d="M29.7499 42.0122H10.3926V47.2816H29.7499V42.0122Z" fill="#313738"/>
<path d="M16.6914 43.9053H13.1067V45.1331H16.6914V43.9053Z" fill="#242829"/>
<path d="M21.6587 43.9053H18.074V45.1331H21.6587V43.9053Z" fill="#242829"/>
<path d="M23.707 45.1331C24.0464 45.1331 24.3216 44.8582 24.3216 44.5192C24.3216 44.1801 24.0464 43.9053 23.707 43.9053C23.3677 43.9053 23.0925 44.1801 23.0925 44.5192C23.0925 44.8582 23.3677 45.1331 23.707 45.1331Z" fill="#242829"/>
<path d="M26.4212 45.1331C26.7605 45.1331 27.0357 44.8582 27.0357 44.5192C27.0357 44.1801 26.7605 43.9053 26.4212 43.9053C26.0818 43.9053 25.8066 44.1801 25.8066 44.5192C25.8066 44.8582 26.0818 45.1331 26.4212 45.1331Z" fill="#242829"/>
</svg>
