<svg width="100" height="68" viewBox="0 0 100 68" fill="none" xmlns="http://www.w3.org/2000/svg">
<path d="M0.271484 23.6502H2.33103V31H97.2119V23.6502H99.2715V20.3028H96.5728L99.2715 16.9554V13.8991H96.5728V8.00469H99.2715V0H0.271484V8.00469H2.97019V13.8991H0.271484V16.9554L2.97019 20.3028H0.271484V23.6502Z" fill="#7AA343"/>
<path d="M14.9723 6.62207H6.80518V22.0493H14.9723V6.62207Z" fill="#4E4C4F"/>
<path d="M24.4889 6.62207H16.3218V22.0493H24.4889V6.62207Z" fill="#4E4C4F"/>
<path d="M34.0053 6.62207H25.8381V22.0493H34.0053V6.62207Z" fill="#4E4C4F"/>
<path d="M43.5219 6.62207H35.3547V22.0493H43.5219V6.62207Z" fill="#4E4C4F"/>
<path d="M63.62 6.62207H55.4529V22.0493H63.62V6.62207Z" fill="#4E4C4F"/>
<path d="M73.1366 6.62207H64.9695V22.0493H73.1366V6.62207Z" fill="#4E4C4F"/>
<path d="M82.653 6.62207H74.4858V22.0493H82.653V6.62207Z" fill="#4E4C4F"/>
<path d="M92.1696 6.62207H84.0024V22.0493H92.1696V6.62207Z" fill="#4E4C4F"/>
<path d="M5.38476 27.1431H3.39624V30.9999H5.38476V27.1431Z" fill="#EBCF6D"/>
<path d="M8.15454 27.1431H6.16602V30.9999H8.15454V27.1431Z" fill="#EBCF6D"/>
<path d="M10.9243 27.1431H8.93579V30.9999H10.9243V27.1431Z" fill="#EBCF6D"/>
<path d="M13.623 27.1431H11.6345V30.9999H13.623V27.1431Z" fill="#EBCF6D"/>
<path d="M16.3926 27.1431H14.4041V30.9999H16.3926V27.1431Z" fill="#EBCF6D"/>
<path d="M19.1624 27.1431H17.1738V30.9999H19.1624V27.1431Z" fill="#EBCF6D"/>
<path d="M21.8611 27.1431H19.8726V30.9999H21.8611V27.1431Z" fill="#EBCF6D"/>
<path d="M24.6309 27.1431H22.6423V30.9999H24.6309V27.1431Z" fill="#EBCF6D"/>
<path d="M27.3296 27.1431H25.3411V30.9999H27.3296V27.1431Z" fill="#EBCF6D"/>
<path d="M30.0994 27.1431H28.1108V30.9999H30.0994V27.1431Z" fill="#EBCF6D"/>
<path d="M32.8689 27.1431H30.8804V30.9999H32.8689V27.1431Z" fill="#EBCF6D"/>
<path d="M35.5676 27.1431H33.5791V30.9999H35.5676V27.1431Z" fill="#EBCF6D"/>
<path d="M38.3374 27.1431H36.3489V30.9999H38.3374V27.1431Z" fill="#EBCF6D"/>
<path d="M41.1072 27.1431H39.1187V30.9999H41.1072V27.1431Z" fill="#EBCF6D"/>
<path d="M49.2742 27.1431H47.2856V30.9999H49.2742V27.1431Z" fill="#EBCF6D"/>
<path d="M52.0439 27.1431H50.0554V30.9999H52.0439V27.1431Z" fill="#EBCF6D"/>
<path d="M54.8137 27.1431H52.8252V30.9999H54.8137V27.1431Z" fill="#EBCF6D"/>
<path d="M57.5124 27.1431H55.5239V30.9999H57.5124V27.1431Z" fill="#EBCF6D"/>
<path d="M60.2822 27.1431H58.2937V30.9999H60.2822V27.1431Z" fill="#EBCF6D"/>
<path d="M63.052 27.1431H61.0635V30.9999H63.052V27.1431Z" fill="#EBCF6D"/>
<path d="M65.7507 27.1431H63.7622V30.9999H65.7507V27.1431Z" fill="#EBCF6D"/>
<path d="M68.5203 27.1431H66.5317V30.9999H68.5203V27.1431Z" fill="#EBCF6D"/>
<path d="M71.29 27.1431H69.3015V30.9999H71.29V27.1431Z" fill="#EBCF6D"/>
<path d="M73.9888 27.1431H72.0002V30.9999H73.9888V27.1431Z" fill="#EBCF6D"/>
<path d="M76.7585 27.1431H74.77V30.9999H76.7585V27.1431Z" fill="#EBCF6D"/>
<path d="M79.4573 27.1431H77.4688V30.9999H79.4573V27.1431Z" fill="#EBCF6D"/>
<path d="M82.227 27.1431H80.2385V30.9999H82.227V27.1431Z" fill="#EBCF6D"/>
<path d="M84.9966 27.1431H83.0081V30.9999H84.9966V27.1431Z" fill="#EBCF6D"/>
<path d="M87.6953 27.1431H85.7068V30.9999H87.6953V27.1431Z" fill="#EBCF6D"/>
<path d="M90.4651 27.1431H88.4766V30.9999H90.4651V27.1431Z" fill="#EBCF6D"/>
<path d="M93.2349 27.1431H91.2463V30.9999H93.2349V27.1431Z" fill="#EBCF6D"/>
<path d="M95.9336 27.1431H93.9451V30.9999H95.9336V27.1431Z" fill="#EBCF6D"/>
<path d="M7.2313 7.13135H5.52686V8.07736H7.2313V7.13135Z" fill="#BFBFBF"/>
<path d="M7.2313 9.2417H5.52686V10.1877H7.2313V9.2417Z" fill="#BFBFBF"/>
<path d="M7.2313 11.4248H5.52686V12.3708H7.2313V11.4248Z" fill="#BFBFBF"/>
<path d="M7.2313 13.5352H5.52686V14.4812H7.2313V13.5352Z" fill="#BFBFBF"/>
<path d="M7.2313 15.7183H5.52686V16.6643H7.2313V15.7183Z" fill="#BFBFBF"/>
<path d="M7.2313 17.8286H5.52686V18.7746H7.2313V17.8286Z" fill="#BFBFBF"/>
<path d="M7.2313 19.939H5.52686V20.885H7.2313V19.939Z" fill="#BFBFBF"/>
<path d="M44.8002 7.13135H43.0957V8.07736H44.8002V7.13135Z" fill="#BFBFBF"/>
<path d="M44.8002 9.2417H43.0957V10.1877H44.8002V9.2417Z" fill="#BFBFBF"/>
<path d="M44.8002 11.4248H43.0957V12.3708H44.8002V11.4248Z" fill="#BFBFBF"/>
<path d="M44.8002 13.5352H43.0957V14.4812H44.8002V13.5352Z" fill="#BFBFBF"/>
<path d="M44.8002 15.7183H43.0957V16.6643H44.8002V15.7183Z" fill="#BFBFBF"/>
<path d="M44.8002 17.8286H43.0957V18.7746H44.8002V17.8286Z" fill="#BFBFBF"/>
<path d="M44.8002 19.939H43.0957V20.885H44.8002V19.939Z" fill="#BFBFBF"/>
<path d="M16.7477 7.13135H14.6172V8.07736H16.7477V7.13135Z" fill="#BFBFBF"/>
<path d="M16.7477 9.2417H14.6172V10.1877H16.7477V9.2417Z" fill="#BFBFBF"/>
<path d="M16.7477 11.4248H14.6172V12.3708H16.7477V11.4248Z" fill="#BFBFBF"/>
<path d="M16.7477 13.5352H14.6172V14.4812H16.7477V13.5352Z" fill="#BFBFBF"/>
<path d="M16.7477 15.7183H14.6172V16.6643H16.7477V15.7183Z" fill="#BFBFBF"/>
<path d="M16.7477 17.8286H14.6172V18.7746H16.7477V17.8286Z" fill="#BFBFBF"/>
<path d="M16.7477 19.939H14.6172V20.885H16.7477V19.939Z" fill="#BFBFBF"/>
<path d="M26.2643 7.13135H24.1338V8.07736H26.2643V7.13135Z" fill="#BFBFBF"/>
<path d="M26.2643 9.2417H24.1338V10.1877H26.2643V9.2417Z" fill="#BFBFBF"/>
<path d="M26.2643 11.4248H24.1338V12.3708H26.2643V11.4248Z" fill="#BFBFBF"/>
<path d="M26.2643 13.5352H24.1338V14.4812H26.2643V13.5352Z" fill="#BFBFBF"/>
<path d="M26.2643 15.7183H24.1338V16.6643H26.2643V15.7183Z" fill="#BFBFBF"/>
<path d="M26.2643 17.8286H24.1338V18.7746H26.2643V17.8286Z" fill="#BFBFBF"/>
<path d="M26.2643 19.939H24.1338V20.885H26.2643V19.939Z" fill="#BFBFBF"/>
<path d="M35.7807 7.13135H33.6501V8.07736H35.7807V7.13135Z" fill="#BFBFBF"/>
<path d="M35.7807 9.2417H33.6501V10.1877H35.7807V9.2417Z" fill="#BFBFBF"/>
<path d="M35.7807 11.4248H33.6501V12.3708H35.7807V11.4248Z" fill="#BFBFBF"/>
<path d="M35.7807 13.5352H33.6501V14.4812H35.7807V13.5352Z" fill="#BFBFBF"/>
<path d="M35.7807 15.7183H33.6501V16.6643H35.7807V15.7183Z" fill="#BFBFBF"/>
<path d="M35.7807 17.8286H33.6501V18.7746H35.7807V17.8286Z" fill="#BFBFBF"/>
<path d="M35.7807 19.939H33.6501V20.885H35.7807V19.939Z" fill="#BFBFBF"/>
<path d="M55.879 7.13135H54.1746V8.07736H55.879V7.13135Z" fill="#BFBFBF"/>
<path d="M55.879 9.2417H54.1746V10.1877H55.879V9.2417Z" fill="#BFBFBF"/>
<path d="M55.879 11.4248H54.1746V12.3708H55.879V11.4248Z" fill="#BFBFBF"/>
<path d="M55.879 13.5352H54.1746V14.4812H55.879V13.5352Z" fill="#BFBFBF"/>
<path d="M55.879 15.7183H54.1746V16.6643H55.879V15.7183Z" fill="#BFBFBF"/>
<path d="M55.879 17.8286H54.1746V18.7746H55.879V17.8286Z" fill="#BFBFBF"/>
<path d="M55.879 19.939H54.1746V20.885H55.879V19.939Z" fill="#BFBFBF"/>
<path d="M93.3768 7.13135H91.6724V8.07736H93.3768V7.13135Z" fill="#BFBFBF"/>
<path d="M93.3768 9.2417H91.6724V10.1877H93.3768V9.2417Z" fill="#BFBFBF"/>
<path d="M93.3768 11.4248H91.6724V12.3708H93.3768V11.4248Z" fill="#BFBFBF"/>
<path d="M93.3768 13.5352H91.6724V14.4812H93.3768V13.5352Z" fill="#BFBFBF"/>
<path d="M93.3768 15.7183H91.6724V16.6643H93.3768V15.7183Z" fill="#BFBFBF"/>
<path d="M93.3768 17.8286H91.6724V18.7746H93.3768V17.8286Z" fill="#BFBFBF"/>
<path d="M93.3768 19.939H91.6724V20.885H93.3768V19.939Z" fill="#BFBFBF"/>
<path d="M65.3955 7.13135H63.2649V8.07736H65.3955V7.13135Z" fill="#BFBFBF"/>
<path d="M65.3955 9.2417H63.2649V10.1877H65.3955V9.2417Z" fill="#BFBFBF"/>
<path d="M65.3955 11.4248H63.2649V12.3708H65.3955V11.4248Z" fill="#BFBFBF"/>
<path d="M65.3955 13.5352H63.2649V14.4812H65.3955V13.5352Z" fill="#BFBFBF"/>
<path d="M65.3955 15.7183H63.2649V16.6643H65.3955V15.7183Z" fill="#BFBFBF"/>
<path d="M65.3955 17.8286H63.2649V18.7746H65.3955V17.8286Z" fill="#BFBFBF"/>
<path d="M65.3955 19.939H63.2649V20.885H65.3955V19.939Z" fill="#BFBFBF"/>
<path d="M74.841 7.13135H72.7104V8.07736H74.841V7.13135Z" fill="#BFBFBF"/>
<path d="M74.841 9.2417H72.7104V10.1877H74.841V9.2417Z" fill="#BFBFBF"/>
<path d="M74.841 11.4248H72.7104V12.3708H74.841V11.4248Z" fill="#BFBFBF"/>
<path d="M74.841 13.5352H72.7104V14.4812H74.841V13.5352Z" fill="#BFBFBF"/>
<path d="M74.841 15.7183H72.7104V16.6643H74.841V15.7183Z" fill="#BFBFBF"/>
<path d="M74.841 17.8286H72.7104V18.7746H74.841V17.8286Z" fill="#BFBFBF"/>
<path d="M74.841 19.939H72.7104V20.885H74.841V19.939Z" fill="#BFBFBF"/>
<path d="M84.4284 7.13135H82.2979V8.07736H84.4284V7.13135Z" fill="#BFBFBF"/>
<path d="M84.4284 9.2417H82.2979V10.1877H84.4284V9.2417Z" fill="#BFBFBF"/>
<path d="M84.4284 11.4248H82.2979V12.3708H84.4284V11.4248Z" fill="#BFBFBF"/>
<path d="M84.4284 13.5352H82.2979V14.4812H84.4284V13.5352Z" fill="#BFBFBF"/>
<path d="M84.4284 15.7183H82.2979V16.6643H84.4284V15.7183Z" fill="#BFBFBF"/>
<path d="M84.4284 17.8286H82.2979V18.7746H84.4284V17.8286Z" fill="#BFBFBF"/>
<path d="M84.4284 19.939H82.2979V20.885H84.4284V19.939Z" fill="#BFBFBF"/>
<path d="M0.271484 60.6502H2.33103V68H97.2119V60.6502H99.2715V57.3028H96.5728L99.2715 53.9554V50.8991H96.5728V45.0047H99.2715V37H0.271484V45.0047H2.97019V50.8991H0.271484V53.9554L2.97019 57.3028H0.271484V60.6502Z" fill="#7AA343"/>
<path d="M14.9723 43.6221H6.80518V59.0493H14.9723V43.6221Z" fill="#4E4C4F"/>
<path d="M24.4889 43.6221H16.3218V59.0493H24.4889V43.6221Z" fill="#4E4C4F"/>
<path d="M34.0053 43.6221H25.8381V59.0493H34.0053V43.6221Z" fill="#4E4C4F"/>
<path d="M43.5219 43.6221H35.3547V59.0493H43.5219V43.6221Z" fill="#4E4C4F"/>
<path d="M63.62 43.6221H55.4529V59.0493H63.62V43.6221Z" fill="#4E4C4F"/>
<path d="M73.1366 43.6221H64.9695V59.0493H73.1366V43.6221Z" fill="#4E4C4F"/>
<path d="M82.653 43.6221H74.4858V59.0493H82.653V43.6221Z" fill="#4E4C4F"/>
<path d="M92.1696 43.6221H84.0024V59.0493H92.1696V43.6221Z" fill="#4E4C4F"/>
<path d="M5.38476 64.1431H3.39624V67.9999H5.38476V64.1431Z" fill="#EBCF6D"/>
<path d="M8.15454 64.1431H6.16602V67.9999H8.15454V64.1431Z" fill="#EBCF6D"/>
<path d="M10.9243 64.1431H8.93579V67.9999H10.9243V64.1431Z" fill="#EBCF6D"/>
<path d="M13.623 64.1431H11.6345V67.9999H13.623V64.1431Z" fill="#EBCF6D"/>
<path d="M16.3926 64.1431H14.4041V67.9999H16.3926V64.1431Z" fill="#EBCF6D"/>
<path d="M19.1624 64.1431H17.1738V67.9999H19.1624V64.1431Z" fill="#EBCF6D"/>
<path d="M21.8611 64.1431H19.8726V67.9999H21.8611V64.1431Z" fill="#EBCF6D"/>
<path d="M24.6309 64.1431H22.6423V67.9999H24.6309V64.1431Z" fill="#EBCF6D"/>
<path d="M27.3296 64.1431H25.3411V67.9999H27.3296V64.1431Z" fill="#EBCF6D"/>
<path d="M30.0994 64.1431H28.1108V67.9999H30.0994V64.1431Z" fill="#EBCF6D"/>
<path d="M32.8689 64.1431H30.8804V67.9999H32.8689V64.1431Z" fill="#EBCF6D"/>
<path d="M35.5676 64.1431H33.5791V67.9999H35.5676V64.1431Z" fill="#EBCF6D"/>
<path d="M38.3374 64.1431H36.3489V67.9999H38.3374V64.1431Z" fill="#EBCF6D"/>
<path d="M41.1072 64.1431H39.1187V67.9999H41.1072V64.1431Z" fill="#EBCF6D"/>
<path d="M49.2742 64.1431H47.2856V67.9999H49.2742V64.1431Z" fill="#EBCF6D"/>
<path d="M52.0439 64.1431H50.0554V67.9999H52.0439V64.1431Z" fill="#EBCF6D"/>
<path d="M54.8137 64.1431H52.8252V67.9999H54.8137V64.1431Z" fill="#EBCF6D"/>
<path d="M57.5124 64.1431H55.5239V67.9999H57.5124V64.1431Z" fill="#EBCF6D"/>
<path d="M60.2822 64.1431H58.2937V67.9999H60.2822V64.1431Z" fill="#EBCF6D"/>
<path d="M63.052 64.1431H61.0635V67.9999H63.052V64.1431Z" fill="#EBCF6D"/>
<path d="M65.7507 64.1431H63.7622V67.9999H65.7507V64.1431Z" fill="#EBCF6D"/>
<path d="M68.5203 64.1431H66.5317V67.9999H68.5203V64.1431Z" fill="#EBCF6D"/>
<path d="M71.29 64.1431H69.3015V67.9999H71.29V64.1431Z" fill="#EBCF6D"/>
<path d="M73.9888 64.1431H72.0002V67.9999H73.9888V64.1431Z" fill="#EBCF6D"/>
<path d="M76.7585 64.1431H74.77V67.9999H76.7585V64.1431Z" fill="#EBCF6D"/>
<path d="M79.4573 64.1431H77.4688V67.9999H79.4573V64.1431Z" fill="#EBCF6D"/>
<path d="M82.227 64.1431H80.2385V67.9999H82.227V64.1431Z" fill="#EBCF6D"/>
<path d="M84.9966 64.1431H83.0081V67.9999H84.9966V64.1431Z" fill="#EBCF6D"/>
<path d="M87.6953 64.1431H85.7068V67.9999H87.6953V64.1431Z" fill="#EBCF6D"/>
<path d="M90.4651 64.1431H88.4766V67.9999H90.4651V64.1431Z" fill="#EBCF6D"/>
<path d="M93.2349 64.1431H91.2463V67.9999H93.2349V64.1431Z" fill="#EBCF6D"/>
<path d="M95.9336 64.1431H93.9451V67.9999H95.9336V64.1431Z" fill="#EBCF6D"/>
<path d="M7.2313 44.1313H5.52686V45.0774H7.2313V44.1313Z" fill="#BFBFBF"/>
<path d="M7.2313 46.2417H5.52686V47.1877H7.2313V46.2417Z" fill="#BFBFBF"/>
<path d="M7.2313 48.4248H5.52686V49.3708H7.2313V48.4248Z" fill="#BFBFBF"/>
<path d="M7.2313 50.5352H5.52686V51.4812H7.2313V50.5352Z" fill="#BFBFBF"/>
<path d="M7.2313 52.7183H5.52686V53.6643H7.2313V52.7183Z" fill="#BFBFBF"/>
<path d="M7.2313 54.8286H5.52686V55.7746H7.2313V54.8286Z" fill="#BFBFBF"/>
<path d="M7.2313 56.939H5.52686V57.885H7.2313V56.939Z" fill="#BFBFBF"/>
<path d="M44.8002 44.1313H43.0957V45.0774H44.8002V44.1313Z" fill="#BFBFBF"/>
<path d="M44.8002 46.2417H43.0957V47.1877H44.8002V46.2417Z" fill="#BFBFBF"/>
<path d="M44.8002 48.4248H43.0957V49.3708H44.8002V48.4248Z" fill="#BFBFBF"/>
<path d="M44.8002 50.5352H43.0957V51.4812H44.8002V50.5352Z" fill="#BFBFBF"/>
<path d="M44.8002 52.7183H43.0957V53.6643H44.8002V52.7183Z" fill="#BFBFBF"/>
<path d="M44.8002 54.8286H43.0957V55.7746H44.8002V54.8286Z" fill="#BFBFBF"/>
<path d="M44.8002 56.939H43.0957V57.885H44.8002V56.939Z" fill="#BFBFBF"/>
<path d="M16.7477 44.1313H14.6172V45.0774H16.7477V44.1313Z" fill="#BFBFBF"/>
<path d="M16.7477 46.2417H14.6172V47.1877H16.7477V46.2417Z" fill="#BFBFBF"/>
<path d="M16.7477 48.4248H14.6172V49.3708H16.7477V48.4248Z" fill="#BFBFBF"/>
<path d="M16.7477 50.5352H14.6172V51.4812H16.7477V50.5352Z" fill="#BFBFBF"/>
<path d="M16.7477 52.7183H14.6172V53.6643H16.7477V52.7183Z" fill="#BFBFBF"/>
<path d="M16.7477 54.8286H14.6172V55.7746H16.7477V54.8286Z" fill="#BFBFBF"/>
<path d="M16.7477 56.939H14.6172V57.885H16.7477V56.939Z" fill="#BFBFBF"/>
<path d="M26.2643 44.1313H24.1338V45.0774H26.2643V44.1313Z" fill="#BFBFBF"/>
<path d="M26.2643 46.2417H24.1338V47.1877H26.2643V46.2417Z" fill="#BFBFBF"/>
<path d="M26.2643 48.4248H24.1338V49.3708H26.2643V48.4248Z" fill="#BFBFBF"/>
<path d="M26.2643 50.5352H24.1338V51.4812H26.2643V50.5352Z" fill="#BFBFBF"/>
<path d="M26.2643 52.7183H24.1338V53.6643H26.2643V52.7183Z" fill="#BFBFBF"/>
<path d="M26.2643 54.8286H24.1338V55.7746H26.2643V54.8286Z" fill="#BFBFBF"/>
<path d="M26.2643 56.939H24.1338V57.885H26.2643V56.939Z" fill="#BFBFBF"/>
<path d="M35.7807 44.1313H33.6501V45.0774H35.7807V44.1313Z" fill="#BFBFBF"/>
<path d="M35.7807 46.2417H33.6501V47.1877H35.7807V46.2417Z" fill="#BFBFBF"/>
<path d="M35.7807 48.4248H33.6501V49.3708H35.7807V48.4248Z" fill="#BFBFBF"/>
<path d="M35.7807 50.5352H33.6501V51.4812H35.7807V50.5352Z" fill="#BFBFBF"/>
<path d="M35.7807 52.7183H33.6501V53.6643H35.7807V52.7183Z" fill="#BFBFBF"/>
<path d="M35.7807 54.8286H33.6501V55.7746H35.7807V54.8286Z" fill="#BFBFBF"/>
<path d="M35.7807 56.939H33.6501V57.885H35.7807V56.939Z" fill="#BFBFBF"/>
<path d="M55.879 44.1313H54.1746V45.0774H55.879V44.1313Z" fill="#BFBFBF"/>
<path d="M55.879 46.2417H54.1746V47.1877H55.879V46.2417Z" fill="#BFBFBF"/>
<path d="M55.879 48.4248H54.1746V49.3708H55.879V48.4248Z" fill="#BFBFBF"/>
<path d="M55.879 50.5352H54.1746V51.4812H55.879V50.5352Z" fill="#BFBFBF"/>
<path d="M55.879 52.7183H54.1746V53.6643H55.879V52.7183Z" fill="#BFBFBF"/>
<path d="M55.879 54.8286H54.1746V55.7746H55.879V54.8286Z" fill="#BFBFBF"/>
<path d="M55.879 56.939H54.1746V57.885H55.879V56.939Z" fill="#BFBFBF"/>
<path d="M93.3768 44.1313H91.6724V45.0774H93.3768V44.1313Z" fill="#BFBFBF"/>
<path d="M93.3768 46.2417H91.6724V47.1877H93.3768V46.2417Z" fill="#BFBFBF"/>
<path d="M93.3768 48.4248H91.6724V49.3708H93.3768V48.4248Z" fill="#BFBFBF"/>
<path d="M93.3768 50.5352H91.6724V51.4812H93.3768V50.5352Z" fill="#BFBFBF"/>
<path d="M93.3768 52.7183H91.6724V53.6643H93.3768V52.7183Z" fill="#BFBFBF"/>
<path d="M93.3768 54.8286H91.6724V55.7746H93.3768V54.8286Z" fill="#BFBFBF"/>
<path d="M93.3768 56.939H91.6724V57.885H93.3768V56.939Z" fill="#BFBFBF"/>
<path d="M65.3955 44.1313H63.2649V45.0774H65.3955V44.1313Z" fill="#BFBFBF"/>
<path d="M65.3955 46.2417H63.2649V47.1877H65.3955V46.2417Z" fill="#BFBFBF"/>
<path d="M65.3955 48.4248H63.2649V49.3708H65.3955V48.4248Z" fill="#BFBFBF"/>
<path d="M65.3955 50.5352H63.2649V51.4812H65.3955V50.5352Z" fill="#BFBFBF"/>
<path d="M65.3955 52.7183H63.2649V53.6643H65.3955V52.7183Z" fill="#BFBFBF"/>
<path d="M65.3955 54.8286H63.2649V55.7746H65.3955V54.8286Z" fill="#BFBFBF"/>
<path d="M65.3955 56.939H63.2649V57.885H65.3955V56.939Z" fill="#BFBFBF"/>
<path d="M74.841 44.1313H72.7104V45.0774H74.841V44.1313Z" fill="#BFBFBF"/>
<path d="M74.841 46.2417H72.7104V47.1877H74.841V46.2417Z" fill="#BFBFBF"/>
<path d="M74.841 48.4248H72.7104V49.3708H74.841V48.4248Z" fill="#BFBFBF"/>
<path d="M74.841 50.5352H72.7104V51.4812H74.841V50.5352Z" fill="#BFBFBF"/>
<path d="M74.841 52.7183H72.7104V53.6643H74.841V52.7183Z" fill="#BFBFBF"/>
<path d="M74.841 54.8286H72.7104V55.7746H74.841V54.8286Z" fill="#BFBFBF"/>
<path d="M74.841 56.939H72.7104V57.885H74.841V56.939Z" fill="#BFBFBF"/>
<path d="M84.4284 44.1313H82.2979V45.0774H84.4284V44.1313Z" fill="#BFBFBF"/>
<path d="M84.4284 46.2417H82.2979V47.1877H84.4284V46.2417Z" fill="#BFBFBF"/>
<path d="M84.4284 48.4248H82.2979V49.3708H84.4284V48.4248Z" fill="#BFBFBF"/>
<path d="M84.4284 50.5352H82.2979V51.4812H84.4284V50.5352Z" fill="#BFBFBF"/>
<path d="M84.4284 52.7183H82.2979V53.6643H84.4284V52.7183Z" fill="#BFBFBF"/>
<path d="M84.4284 54.8286H82.2979V55.7746H84.4284V54.8286Z" fill="#BFBFBF"/>
<path d="M84.4284 56.939H82.2979V57.885H84.4284V56.939Z" fill="#BFBFBF"/>
</svg>
