<svg width="100" height="63" viewBox="0 0 100 63" fill="none" xmlns="http://www.w3.org/2000/svg">
<path d="M54.2715 50H74.7715H92.8149C93.8223 50 94.639 49.1833 94.639 48.1759V31.3289C94.639 30.3215 93.8223 29.5049 92.8149 29.5049H86.6898" stroke="#2C2F30" stroke-width="2"/>
<path d="M54.2715 53.5H71.7715H96.1934C97.2008 53.5 98.0174 52.6833 98.0174 51.6759V27.3241C98.0174 26.3167 97.2008 25.5 96.1934 25.5H82.7715" stroke="#2C2F30" stroke-width="2"/>
<rect x="55.2717" y="47.9995" width="8" height="3" rx="1.5" transform="rotate(90 55.2717 47.9995)" fill="#2C2F30"/>
<circle cx="46.0053" cy="52.4767" r="8.58314" fill="#2C2F30"/>
<path d="M49.333 59.6555C51.0045 58.907 52.3672 57.6058 53.1919 55.9706C54.0166 54.3355 54.2531 52.4662 53.8614 50.6771C53.4698 48.8881 52.4741 47.2886 51.0416 46.1475C49.6092 45.0064 47.8274 44.3935 45.9962 44.4118C44.1649 44.4301 42.3958 45.0785 40.9864 46.2479C39.577 47.4174 38.6134 49.0365 38.2576 50.833C37.9017 52.6294 38.1755 54.4937 39.0327 56.112C39.8899 57.7304 41.2783 59.0042 42.9644 59.7191L46.0757 52.3814L49.333 59.6555Z" fill="#DFE0E6"/>
<circle cx="46.1264" cy="52.4315" r="5.8788" fill="#2C2F30"/>
<rect x="0.271484" y="2.41504" width="88.1094" height="36.3409" rx="1.37135" fill="#2C2F30"/>
<rect x="2.67139" y="0.697754" width="41.1677" height="40.1121" rx="2.05703" fill="#4E4C4F"/>
<path d="M6.99478 3.37318C6.99478 3.92376 6.5826 4.3367 6.03303 4.3367C5.48347 4.3367 5.07129 3.92376 5.07129 3.37318C5.07129 2.8226 5.48347 2.40967 6.03303 2.40967C6.5826 2.40967 6.99478 2.8226 6.99478 3.37318Z" fill="#D0D1D6"/>
<path d="M41.7548 3.37318C41.7548 3.92376 41.3426 4.3367 40.793 4.3367C40.2435 4.3367 39.8313 3.92376 39.8313 3.37318C39.8313 2.8226 40.2435 2.40967 40.793 2.40967C41.3426 2.40967 41.7548 2.8226 41.7548 3.37318Z" fill="#D0D1D6"/>
<path d="M6.99478 38.4728C6.99478 39.0234 6.5826 39.4363 6.03303 39.4363C5.48347 39.4363 5.07129 39.0234 5.07129 38.4728C5.07129 37.9222 5.48347 37.5093 6.03303 37.5093C6.5826 37.5093 6.99478 37.9222 6.99478 38.4728Z" fill="#D0D1D6"/>
<path d="M41.7548 38.4728C41.7548 39.0234 41.3426 39.4363 40.793 39.4363C40.2435 39.4363 39.8313 39.0234 39.8313 38.4728C39.8313 37.9222 40.2435 37.5093 40.793 37.5093C41.3426 37.5093 41.7548 37.9222 41.7548 38.4728Z" fill="#D0D1D6"/>
<rect x="3.70002" y="1.04059" width="39.4264" height="39.0836" rx="14.0564" fill="#DFE0E6" stroke="#50C0D8" stroke-width="0.685676"/>
<circle cx="23.3646" cy="20.7066" r="5.3673" fill="#4E4C4F"/>
<path d="M21.5114 18.1359C21.5114 18.1359 18.9028 7.27306 10.2551 10.7588C10.2551 10.7588 10.2767 5.4534 16.8424 3.93666C20.7525 3.13261 26.7569 9.18605 22.5694 18.9119L21.5114 18.1359Z" fill="#4E4C4F"/>
<path d="M20.2727 21.0001C20.2727 21.0001 9.46794 18.1604 8.4489 27.4284C8.4489 27.4284 3.78463 24.9 5.55379 18.3977C6.69479 14.5724 14.8683 12.1453 21.4568 20.435L20.2727 21.0001Z" fill="#4E4C4F"/>
<path d="M25.06 23.0684C25.06 23.0684 27.6686 33.9313 36.3164 30.4455C36.3164 30.4455 36.2948 35.7509 29.729 37.2677C25.819 38.0717 19.8146 32.0183 24.0021 22.2924L25.06 23.0684Z" fill="#4E4C4F"/>
<path d="M26.3001 20.2067C26.3001 20.2067 37.1048 23.0464 38.1239 13.7784C38.1239 13.7784 42.7882 16.3068 41.019 22.8091C39.878 26.6344 31.7045 29.0615 25.116 20.7718L26.3001 20.2067Z" fill="#4E4C4F"/>
<path d="M21.8762 23.2963C21.8762 23.2963 13.3375 30.5002 20.3319 36.6657C20.3319 36.6657 15.5804 39.0261 11.2798 33.8382C8.80729 30.7042 11.5244 22.6225 22.0953 22.0026L21.8762 23.2963Z" fill="#4E4C4F"/>
<path d="M24.6945 17.9098C24.6945 17.9098 33.2333 10.7059 26.2389 4.5404C26.2389 4.5404 30.9904 2.17995 35.291 7.36783C37.7635 10.5018 35.0464 18.5836 24.4755 19.2034L24.6945 17.9098Z" fill="#4E4C4F"/>
<path d="M23.4132 25.701C20.597 25.701 18.2502 23.3746 18.2502 20.5829C18.2502 17.7912 20.597 15.4648 23.4132 15.4648C26.2294 15.4648 28.5762 17.7912 28.5762 20.5829C28.5762 23.3746 26.2294 25.701 23.4132 25.701ZM23.4132 16.2403C20.91 16.2403 19.0325 18.2565 19.0325 20.5829C19.0325 23.0644 21.0664 24.9255 23.4132 24.9255C25.9165 24.9255 27.7939 22.9093 27.7939 20.5829C27.7939 18.2565 25.9165 16.2403 23.4132 16.2403Z" fill="#50C0D8"/>
<path d="M23.4127 38.1086C13.7126 38.1086 5.88989 30.3539 5.88989 20.7381C5.88989 11.1224 13.7126 3.36768 23.4127 3.36768C33.1128 3.36768 40.9355 11.1224 40.9355 20.7381C40.9355 30.3539 33.1128 38.1086 23.4127 38.1086ZM23.4127 3.98805C14.1819 3.98805 6.67216 11.4325 6.67216 20.583C6.67216 29.7336 14.1819 37.1781 23.4127 37.1781C32.6434 37.1781 40.1532 29.7336 40.1532 20.583C40.3097 11.4325 32.6434 3.98805 23.4127 3.98805Z" fill="#50C0D8"/>
<path d="M23.4132 34.0737C15.9034 34.0737 9.80176 28.025 9.80176 20.5805C9.80176 13.136 15.9034 7.0874 23.4132 7.0874C30.923 7.0874 37.0247 13.136 37.0247 20.5805C37.0247 28.025 30.923 34.0737 23.4132 34.0737ZM23.4132 7.86287C16.3728 7.86287 10.584 13.6013 10.584 20.5805C10.584 27.5597 16.3728 33.2982 23.4132 33.2982C30.4536 33.2982 36.2424 27.5597 36.2424 20.5805C36.2424 13.6013 30.4536 7.86287 23.4132 7.86287Z" fill="#50C0D8"/>
<path d="M23.4135 29.267C18.5634 29.267 14.6521 25.3896 14.6521 20.5817C14.6521 15.7738 18.5634 11.8965 23.4135 11.8965C28.2636 11.8965 32.1749 15.7738 32.1749 20.5817C32.1749 25.3896 28.2636 29.267 23.4135 29.267ZM23.4135 12.672C19.0328 12.672 15.4344 16.2391 15.4344 20.5817C15.4344 24.9243 19.0328 28.4915 23.4135 28.4915C27.7942 28.4915 31.3926 24.9243 31.3926 20.5817C31.3926 16.2391 27.7942 12.672 23.4135 12.672Z" fill="#50C0D8"/>
<path d="M23.8826 1.04102H23.1003V15.7749H23.8826V1.04102Z" fill="#50C0D8"/>
<path d="M23.8826 25.3916H23.1003V40.1255H23.8826V25.3916Z" fill="#50C0D8"/>
<path d="M18.563 20.2725H3.69995V21.0479H18.563V20.2725Z" fill="#50C0D8"/>
<path d="M43.126 20.2725H28.2629V21.0479H43.126V20.2725Z" fill="#50C0D8"/>
<rect x="44.8406" y="0.697754" width="41.1677" height="40.1121" rx="2.05703" fill="#4E4C4F"/>
<path d="M49.164 3.37318C49.164 3.92376 48.7518 4.3367 48.2022 4.3367C47.6527 4.3367 47.2405 3.92376 47.2405 3.37318C47.2405 2.8226 47.6527 2.40967 48.2022 2.40967C48.7518 2.40967 49.164 2.8226 49.164 3.37318Z" fill="#D0D1D6"/>
<path d="M83.924 3.37318C83.924 3.92376 83.5118 4.3367 82.9622 4.3367C82.4127 4.3367 82.0005 3.92376 82.0005 3.37318C82.0005 2.8226 82.4127 2.40967 82.9622 2.40967C83.5118 2.40967 83.924 2.8226 83.924 3.37318Z" fill="#D0D1D6"/>
<path d="M49.164 38.4728C49.164 39.0234 48.7518 39.4363 48.2022 39.4363C47.6527 39.4363 47.2405 39.0234 47.2405 38.4728C47.2405 37.9222 47.6527 37.5093 48.2022 37.5093C48.7518 37.5093 49.164 37.9222 49.164 38.4728Z" fill="#D0D1D6"/>
<path d="M83.924 38.4728C83.924 39.0234 83.5118 39.4363 82.9622 39.4363C82.4127 39.4363 82.0005 39.0234 82.0005 38.4728C82.0005 37.9222 82.4127 37.5093 82.9622 37.5093C83.5118 37.5093 83.924 37.9222 83.924 38.4728Z" fill="#D0D1D6"/>
<rect x="45.8692" y="1.04059" width="39.4264" height="39.0836" rx="14.0564" fill="#DFE0E6" stroke="#50C0D8" stroke-width="0.685676"/>
<circle cx="65.5338" cy="20.7066" r="5.3673" fill="#4E4C4F"/>
<path d="M63.6806 18.1359C63.6806 18.1359 61.072 7.27306 52.4243 10.7588C52.4243 10.7588 52.4459 5.4534 59.0116 3.93666C62.9217 3.13261 68.9261 9.18605 64.7386 18.9119L63.6806 18.1359Z" fill="#4E4C4F"/>
<path d="M62.4424 21.0001C62.4424 21.0001 51.6376 18.1604 50.6186 27.4284C50.6186 27.4284 45.9543 24.9 47.7235 18.3977C48.8645 14.5724 57.038 12.1453 63.6265 20.435L62.4424 21.0001Z" fill="#4E4C4F"/>
<path d="M67.2292 23.0684C67.2292 23.0684 69.8378 33.9313 78.4856 30.4455C78.4856 30.4455 78.464 35.7509 71.8982 37.2677C67.9882 38.0717 61.9838 32.0183 66.1713 22.2924L67.2292 23.0684Z" fill="#4E4C4F"/>
<path d="M68.4693 20.2067C68.4693 20.2067 79.274 23.0464 80.2931 13.7784C80.2931 13.7784 84.9573 16.3068 83.1882 22.8091C82.0472 26.6344 73.8737 29.0615 67.2852 20.7718L68.4693 20.2067Z" fill="#4E4C4F"/>
<path d="M64.0459 23.2963C64.0459 23.2963 55.5072 30.5002 62.5015 36.6657C62.5015 36.6657 57.7501 39.0261 53.4494 33.8382C50.977 30.7042 53.694 22.6225 64.2649 22.0026L64.0459 23.2963Z" fill="#4E4C4F"/>
<path d="M66.864 17.9093C66.864 17.9093 75.4027 10.7054 68.4083 4.53992C68.4083 4.53992 73.1598 2.17946 77.4604 7.36734C79.9329 10.5014 77.2158 18.5831 66.645 19.203L66.864 17.9093Z" fill="#4E4C4F"/>
<path d="M65.5829 25.701C62.7667 25.701 60.4199 23.3746 60.4199 20.5829C60.4199 17.7912 62.7667 15.4648 65.5829 15.4648C68.3991 15.4648 70.7459 17.7912 70.7459 20.5829C70.7459 23.3746 68.3991 25.701 65.5829 25.701ZM65.5829 16.2403C63.0796 16.2403 61.2022 18.2565 61.2022 20.5829C61.2022 23.0644 63.2361 24.9255 65.5829 24.9255C68.0861 24.9255 69.9636 22.9093 69.9636 20.5829C69.9636 18.2565 68.0861 16.2403 65.5829 16.2403Z" fill="#50C0D8"/>
<path d="M65.5824 38.1086C55.8822 38.1086 48.0596 30.3539 48.0596 20.7381C48.0596 11.1224 55.8822 3.36768 65.5824 3.36768C75.2825 3.36768 83.1052 11.1224 83.1052 20.7381C83.1052 30.3539 75.2825 38.1086 65.5824 38.1086ZM65.5824 3.98805C56.3516 3.98805 48.8418 11.4325 48.8418 20.583C48.8418 29.7336 56.3516 37.1781 65.5824 37.1781C74.8131 37.1781 82.3229 29.7336 82.3229 20.583C82.4793 11.4325 74.8131 3.98805 65.5824 3.98805Z" fill="#50C0D8"/>
<path d="M65.5824 34.0737C58.0726 34.0737 51.9709 28.025 51.9709 20.5805C51.9709 13.136 58.0726 7.0874 65.5824 7.0874C73.0922 7.0874 79.1939 13.136 79.1939 20.5805C79.1939 28.025 73.0922 34.0737 65.5824 34.0737ZM65.5824 7.86287C58.542 7.86287 52.7532 13.6013 52.7532 20.5805C52.7532 27.5597 58.542 33.2982 65.5824 33.2982C72.6228 33.2982 78.4116 27.5597 78.4116 20.5805C78.4116 13.6013 72.6228 7.86287 65.5824 7.86287Z" fill="#50C0D8"/>
<path d="M65.5824 29.267C60.7324 29.267 56.821 25.3896 56.821 20.5817C56.821 15.7738 60.7324 11.8965 65.5824 11.8965C70.4325 11.8965 74.3438 15.7738 74.3438 20.5817C74.3438 25.3896 70.4325 29.267 65.5824 29.267ZM65.5824 12.672C61.2017 12.672 57.6033 16.2391 57.6033 20.5817C57.6033 24.9243 61.2017 28.4915 65.5824 28.4915C69.9631 28.4915 73.5616 24.9243 73.5616 20.5817C73.5616 16.2391 69.9631 12.672 65.5824 12.672Z" fill="#50C0D8"/>
<path d="M66.052 1.04102H65.2698V15.7749H66.052V1.04102Z" fill="#50C0D8"/>
<path d="M66.052 25.3916H65.2698V40.1255H66.052V25.3916Z" fill="#50C0D8"/>
<path d="M60.7327 20.2725H45.8696V21.0479H60.7327V20.2725Z" fill="#50C0D8"/>
<path d="M85.2957 20.2725H70.4326V21.0479H85.2957V20.2725Z" fill="#50C0D8"/>
</svg>
