<svg width="87" height="85" viewBox="0 0 87 85" fill="none" xmlns="http://www.w3.org/2000/svg">
<path d="M76.934 79.2454H10.2369C8.11827 79.2454 6.47046 77.5345 6.47046 75.5126V9.41009C6.47046 7.31037 8.19674 5.67725 10.2369 5.67725H76.934C79.0526 5.67725 80.7004 7.38813 80.7004 9.41009V75.5126C80.7004 77.6123 79.0526 79.2454 76.934 79.2454Z" fill="#4E4C4F"/>
<path d="M26.0872 63.3031C24.1255 63.3031 22.5562 61.7477 22.5562 59.8035V25.1192C22.5562 23.175 24.1255 21.6196 26.0872 21.6196H61.0835C63.0452 21.6196 64.6145 23.175 64.6145 25.1192V59.8035C64.6145 61.7477 63.0452 63.3031 61.0835 63.3031H26.0872Z" fill="#3C3B3D"/>
<path d="M61.0835 61.7475H26.0872C24.9886 61.7475 24.1255 60.8921 24.1255 59.8033V25.119C24.1255 24.0302 24.9886 23.1748 26.0872 23.1748H61.0835C62.1821 23.1748 63.0452 24.0302 63.0452 25.119V59.8033C63.0452 60.8921 62.1821 61.7475 61.0835 61.7475Z" fill="#E7E8ED"/>
<path d="M37.6219 44.0163C37.6219 45.1829 37.308 46.1161 36.6018 46.816C35.8956 47.4381 34.8756 47.827 33.5416 47.827C32.2077 47.827 31.1876 47.4381 30.3245 46.5827C29.5398 45.7272 29.1475 44.6385 29.1475 43.3164V41.1389C29.1475 39.8169 29.5398 38.7281 30.3245 37.8727C31.1091 37.0173 32.1292 36.6284 33.3847 36.6284C34.7186 36.6284 35.7387 36.9395 36.5234 37.5616C37.308 38.1838 37.6219 39.117 37.6219 40.2835V40.3613H35.5033C35.5033 39.6614 35.3464 39.117 35.0325 38.8059C34.7186 38.4948 34.1694 38.2615 33.4632 38.2615C32.8354 38.2615 32.2861 38.4948 31.8938 39.0392C31.5015 39.5836 31.3445 40.2057 31.3445 41.0612V43.2387C31.3445 44.0941 31.5015 44.7163 31.8938 45.2606C32.2861 45.805 32.8354 46.0383 33.5416 46.0383C34.1694 46.0383 34.7186 45.8828 35.0325 45.4939C35.3464 45.1829 35.5033 44.6385 35.5033 43.9386H37.6219V44.0163Z" fill="#282729"/>
<path d="M41.3882 43.7055V47.6716H39.1912V36.7842H43.3499C44.6054 36.7842 45.6255 37.0953 46.3317 37.7174C47.0379 38.3395 47.4302 39.195 47.4302 40.206C47.4302 41.2169 47.0379 42.0724 46.3317 42.6945C45.6255 43.3167 44.6054 43.6277 43.3499 43.6277H41.3882V43.7055ZM41.3882 42.0724H43.3499C43.9777 42.0724 44.4485 41.9168 44.7623 41.6058C45.0762 41.2947 45.2331 40.8281 45.2331 40.3615C45.2331 39.8171 45.0762 39.4283 44.7623 39.0394C44.4485 38.7284 43.9777 38.4951 43.3499 38.4951H41.3882V42.0724Z" fill="#282729"/>
<path d="M57.7095 36.7842V43.861C57.7095 45.1053 57.3171 46.0385 56.454 46.7384C55.6693 47.4383 54.5708 47.7494 53.2368 47.7494C51.9029 47.7494 50.8828 47.4383 50.0981 46.7384C49.3135 46.0385 48.9211 45.1053 48.9211 43.861V36.7842H51.1182V43.861C51.1182 44.5609 51.2752 45.1053 51.6675 45.4942C52.0598 45.883 52.6091 46.0385 53.2368 46.0385C53.943 46.0385 54.4138 45.883 54.8846 45.4942C55.277 45.1053 55.5124 44.5609 55.5124 43.861V36.7842H57.7095Z" fill="#282729"/>
<path d="M12.12 12.9094C11.4138 12.9094 10.8645 12.365 10.8645 11.6651V1.24428C10.8645 0.544373 11.4138 0 12.12 0C12.8262 0 13.3755 0.544373 13.3755 1.24428V11.6651C13.3755 12.365 12.7477 12.9094 12.12 12.9094Z" fill="#4A4E4F"/>
<path d="M18.3973 12.9094C17.6911 12.9094 17.1418 12.365 17.1418 11.6651V1.24428C17.1418 0.544373 17.6911 0 18.3973 0C19.1035 0 19.6528 0.544373 19.6528 1.24428V11.6651C19.6528 12.365 19.1035 12.9094 18.3973 12.9094Z" fill="#4A4E4F"/>
<path d="M24.6747 12.9094C23.9685 12.9094 23.4192 12.365 23.4192 11.6651V1.24428C23.4192 0.544373 23.9685 0 24.6747 0C25.3809 0 25.9301 0.544373 25.9301 1.24428V11.6651C25.9301 12.365 25.3809 12.9094 24.6747 12.9094Z" fill="#4A4E4F"/>
<path d="M30.952 12.9094C30.2458 12.9094 29.6965 12.365 29.6965 11.6651V1.24428C29.6965 0.544373 30.2458 0 30.952 0C31.6582 0 32.2075 0.544373 32.2075 1.24428V11.6651C32.2859 12.365 31.6582 12.9094 30.952 12.9094Z" fill="#4A4E4F"/>
<path d="M37.308 12.9094C36.6018 12.9094 36.0525 12.365 36.0525 11.6651V1.24428C36.0525 0.544373 36.6018 0 37.308 0C38.0142 0 38.5634 0.544373 38.5634 1.24428V11.6651C38.5634 12.365 38.0142 12.9094 37.308 12.9094Z" fill="#4A4E4F"/>
<path d="M43.5853 12.9094C42.8791 12.9094 42.3298 12.365 42.3298 11.6651V1.24428C42.3298 0.544373 42.8791 0 43.5853 0C44.2915 0 44.8408 0.544373 44.8408 1.24428V11.6651C44.8408 12.365 44.2915 12.9094 43.5853 12.9094Z" fill="#4A4E4F"/>
<path d="M49.8627 12.9094C49.1564 12.9094 48.6072 12.365 48.6072 11.6651V1.24428C48.6072 0.544373 49.1564 0 49.8627 0C50.5689 0 51.1181 0.544373 51.1181 1.24428V11.6651C51.1181 12.365 50.5689 12.9094 49.8627 12.9094Z" fill="#4A4E4F"/>
<path d="M56.2186 12.9094C55.5124 12.9094 54.9631 12.365 54.9631 11.6651V1.24428C54.9631 0.544373 55.5124 0 56.2186 0C56.9248 0 57.4741 0.544373 57.4741 1.24428V11.6651C57.4741 12.365 56.8464 12.9094 56.2186 12.9094Z" fill="#4A4E4F"/>
<path d="M62.496 12.9094C61.7898 12.9094 61.2405 12.365 61.2405 11.6651V1.24428C61.2405 0.544373 61.7898 0 62.496 0C63.2022 0 63.7514 0.544373 63.7514 1.24428V11.6651C63.7514 12.365 63.2022 12.9094 62.496 12.9094Z" fill="#4A4E4F"/>
<path d="M68.7733 12.9094C68.0671 12.9094 67.5178 12.365 67.5178 11.6651V1.24428C67.5178 0.544373 68.0671 0 68.7733 0C69.4795 0 70.0288 0.544373 70.0288 1.24428V11.6651C70.0288 12.365 69.4795 12.9094 68.7733 12.9094Z" fill="#4A4E4F"/>
<path d="M75.0506 12.9094C74.3444 12.9094 73.7952 12.365 73.7952 11.6651V1.24428C73.7952 0.544373 74.3444 0 75.0506 0C75.7568 0 76.3061 0.544373 76.3061 1.24428V11.6651C76.3061 12.365 75.7568 12.9094 75.0506 12.9094Z" fill="#4A4E4F"/>
<path d="M12.12 84.9998C11.4138 84.9998 10.8645 84.4554 10.8645 83.7555V73.3346C10.8645 72.6347 11.4138 72.0903 12.12 72.0903C12.8262 72.0903 13.3755 72.6347 13.3755 73.3346V83.7555C13.3755 84.3776 12.7477 84.9998 12.12 84.9998Z" fill="#4A4E4F"/>
<path d="M18.3973 84.9998C17.6911 84.9998 17.1418 84.4554 17.1418 83.7555V73.3346C17.1418 72.6347 17.6911 72.0903 18.3973 72.0903C19.1035 72.0903 19.6528 72.6347 19.6528 73.3346V83.7555C19.6528 84.3776 19.1035 84.9998 18.3973 84.9998Z" fill="#4A4E4F"/>
<path d="M24.6747 84.9998C23.9685 84.9998 23.4192 84.4554 23.4192 83.7555V73.3346C23.4192 72.6347 23.9685 72.0903 24.6747 72.0903C25.3809 72.0903 25.9301 72.6347 25.9301 73.3346V83.7555C25.9301 84.3776 25.3809 84.9998 24.6747 84.9998Z" fill="#4A4E4F"/>
<path d="M30.952 84.9998C30.2458 84.9998 29.6965 84.4554 29.6965 83.7555V73.3346C29.6965 72.6347 30.2458 72.0903 30.952 72.0903C31.6582 72.0903 32.2075 72.6347 32.2075 73.3346V83.7555C32.2859 84.3776 31.6582 84.9998 30.952 84.9998Z" fill="#4A4E4F"/>
<path d="M37.308 84.9998C36.6018 84.9998 36.0525 84.4554 36.0525 83.7555V73.3346C36.0525 72.6347 36.6018 72.0903 37.308 72.0903C38.0142 72.0903 38.5634 72.6347 38.5634 73.3346V83.7555C38.5634 84.3776 38.0142 84.9998 37.308 84.9998Z" fill="#4A4E4F"/>
<path d="M43.5853 84.9998C42.8791 84.9998 42.3298 84.4554 42.3298 83.7555V73.3346C42.3298 72.6347 42.8791 72.0903 43.5853 72.0903C44.2915 72.0903 44.8408 72.6347 44.8408 73.3346V83.7555C44.8408 84.3776 44.2915 84.9998 43.5853 84.9998Z" fill="#4A4E4F"/>
<path d="M49.8627 84.9998C49.1564 84.9998 48.6072 84.4554 48.6072 83.7555V73.3346C48.6072 72.6347 49.1564 72.0903 49.8627 72.0903C50.5689 72.0903 51.1181 72.6347 51.1181 73.3346V83.7555C51.1181 84.3776 50.5689 84.9998 49.8627 84.9998Z" fill="#4A4E4F"/>
<path d="M56.2186 84.9998C55.5124 84.9998 54.9631 84.4554 54.9631 83.7555V73.3346C54.9631 72.6347 55.5124 72.0903 56.2186 72.0903C56.9248 72.0903 57.4741 72.6347 57.4741 73.3346V83.7555C57.4741 84.3776 56.8464 84.9998 56.2186 84.9998Z" fill="#4A4E4F"/>
<path d="M62.496 84.9998C61.7898 84.9998 61.2405 84.4554 61.2405 83.7555V73.3346C61.2405 72.6347 61.7898 72.0903 62.496 72.0903C63.2022 72.0903 63.7514 72.6347 63.7514 73.3346V83.7555C63.7514 84.3776 63.2022 84.9998 62.496 84.9998Z" fill="#4A4E4F"/>
<path d="M68.7733 84.9998C68.0671 84.9998 67.5178 84.4554 67.5178 83.7555V73.3346C67.5178 72.6347 68.0671 72.0903 68.7733 72.0903C69.4795 72.0903 70.0288 72.6347 70.0288 73.3346V83.7555C70.0288 84.3776 69.4795 84.9998 68.7733 84.9998Z" fill="#4A4E4F"/>
<path d="M75.0506 84.9998C74.3444 84.9998 73.7952 84.4554 73.7952 83.7555V73.3346C73.7952 72.6347 74.3444 72.0903 75.0506 72.0903C75.7568 72.0903 76.3061 72.6347 76.3061 73.3346V83.7555C76.3061 84.3776 75.7568 84.9998 75.0506 84.9998Z" fill="#4A4E4F"/>
<path d="M85.0159 12.5208H74.5013C73.7951 12.5208 73.2458 11.9764 73.2458 11.2765C73.2458 10.5766 73.7951 10.0322 74.5013 10.0322H85.0159C85.7221 10.0322 86.2714 10.5766 86.2714 11.2765C86.2714 11.9764 85.7221 12.5208 85.0159 12.5208Z" fill="#4A4E4F"/>
<path d="M85.0159 18.742H74.5013C73.7951 18.742 73.2458 18.1976 73.2458 17.4977C73.2458 16.7978 73.7951 16.2534 74.5013 16.2534H85.0159C85.7221 16.2534 86.2714 16.7978 86.2714 17.4977C86.2714 18.1976 85.7221 18.742 85.0159 18.742Z" fill="#4A4E4F"/>
<path d="M85.0159 24.9637H74.5013C73.7951 24.9637 73.2458 24.4193 73.2458 23.7194C73.2458 23.0195 73.7951 22.4751 74.5013 22.4751H85.0159C85.7221 22.4751 86.2714 23.0195 86.2714 23.7194C86.2714 24.4193 85.7221 24.9637 85.0159 24.9637Z" fill="#4A4E4F"/>
<path d="M85.0159 31.263H74.5013C73.7951 31.263 73.2458 30.7186 73.2458 30.0187C73.2458 29.3188 73.7951 28.7744 74.5013 28.7744H85.0159C85.7221 28.7744 86.2714 29.3188 86.2714 30.0187C86.2714 30.7186 85.7221 31.263 85.0159 31.263Z" fill="#4A4E4F"/>
<path d="M85.0159 37.4842H74.5013C73.7951 37.4842 73.2458 36.9398 73.2458 36.2399C73.2458 35.54 73.7951 34.9956 74.5013 34.9956H85.0159C85.7221 34.9956 86.2714 35.54 86.2714 36.2399C86.2714 36.9398 85.7221 37.4842 85.0159 37.4842Z" fill="#4A4E4F"/>
<path d="M85.0159 43.7054H74.5013C73.7951 43.7054 73.2458 43.161 73.2458 42.4611C73.2458 41.7612 73.7951 41.2168 74.5013 41.2168H85.0159C85.7221 41.2168 86.2714 41.7612 86.2714 42.4611C86.2714 43.161 85.7221 43.7054 85.0159 43.7054Z" fill="#4A4E4F"/>
<path d="M85.0159 49.927H74.5013C73.7951 49.927 73.2458 49.3827 73.2458 48.6828C73.2458 47.9828 73.7951 47.4385 74.5013 47.4385H85.0159C85.7221 47.4385 86.2714 47.9828 86.2714 48.6828C86.2714 49.3827 85.7221 49.927 85.0159 49.927Z" fill="#4A4E4F"/>
<path d="M85.0159 56.2264H74.5013C73.7951 56.2264 73.2458 55.682 73.2458 54.9821C73.2458 54.2822 73.7951 53.7378 74.5013 53.7378H85.0159C85.7221 53.7378 86.2714 54.2822 86.2714 54.9821C86.2714 55.6042 85.7221 56.2264 85.0159 56.2264Z" fill="#4A4E4F"/>
<path d="M85.0159 62.4476H74.5013C73.7951 62.4476 73.2458 61.9032 73.2458 61.2033C73.2458 60.5034 73.7951 59.959 74.5013 59.959H85.0159C85.7221 59.959 86.2714 60.5034 86.2714 61.2033C86.2714 61.9032 85.7221 62.4476 85.0159 62.4476Z" fill="#4A4E4F"/>
<path d="M85.0159 68.6692H74.5013C73.7951 68.6692 73.2458 68.1249 73.2458 67.4249C73.2458 66.725 73.7951 66.1807 74.5013 66.1807H85.0159C85.7221 66.1807 86.2714 66.725 86.2714 67.4249C86.2714 68.1249 85.7221 68.6692 85.0159 68.6692Z" fill="#4A4E4F"/>
<path d="M85.0159 74.8904H74.5013C73.7951 74.8904 73.2458 74.346 73.2458 73.6461C73.2458 72.9462 73.7951 72.4019 74.5013 72.4019H85.0159C85.7221 72.4019 86.2714 72.9462 86.2714 73.6461C86.2714 74.346 85.7221 74.8904 85.0159 74.8904Z" fill="#4A4E4F"/>
<path d="M12.0416 12.5208H1.52696C0.820754 12.5208 0.271484 11.9764 0.271484 11.2765C0.271484 10.5766 0.820754 10.0322 1.52696 10.0322H12.0416C12.7478 10.0322 13.297 10.5766 13.297 11.2765C13.297 11.9764 12.7478 12.5208 12.0416 12.5208Z" fill="#4A4E4F"/>
<path d="M12.0416 18.742H1.52696C0.820754 18.742 0.271484 18.1976 0.271484 17.4977C0.271484 16.7978 0.820754 16.2534 1.52696 16.2534H12.0416C12.7478 16.2534 13.297 16.7978 13.297 17.4977C13.297 18.1976 12.7478 18.742 12.0416 18.742Z" fill="#4A4E4F"/>
<path d="M12.0416 24.9637H1.52696C0.820754 24.9637 0.271484 24.4193 0.271484 23.7194C0.271484 23.0195 0.820754 22.4751 1.52696 22.4751H12.0416C12.7478 22.4751 13.297 23.0195 13.297 23.7194C13.297 24.4193 12.7478 24.9637 12.0416 24.9637Z" fill="#4A4E4F"/>
<path d="M12.0416 31.263H1.52696C0.820754 31.263 0.271484 30.7186 0.271484 30.0187C0.271484 29.3188 0.820754 28.7744 1.52696 28.7744H12.0416C12.7478 28.7744 13.297 29.3188 13.297 30.0187C13.297 30.7186 12.7478 31.263 12.0416 31.263Z" fill="#4A4E4F"/>
<path d="M12.0416 37.4842H1.52696C0.820754 37.4842 0.271484 36.9398 0.271484 36.2399C0.271484 35.54 0.820754 34.9956 1.52696 34.9956H12.0416C12.7478 34.9956 13.297 35.54 13.297 36.2399C13.297 36.9398 12.7478 37.4842 12.0416 37.4842Z" fill="#4A4E4F"/>
<path d="M12.0416 43.7054H1.52696C0.820754 43.7054 0.271484 43.161 0.271484 42.4611C0.271484 41.7612 0.820754 41.2168 1.52696 41.2168H12.0416C12.7478 41.2168 13.297 41.7612 13.297 42.4611C13.297 43.161 12.7478 43.7054 12.0416 43.7054Z" fill="#4A4E4F"/>
<path d="M12.0416 49.927H1.52696C0.820754 49.927 0.271484 49.3827 0.271484 48.6828C0.271484 47.9828 0.820754 47.4385 1.52696 47.4385H12.0416C12.7478 47.4385 13.297 47.9828 13.297 48.6828C13.297 49.3827 12.7478 49.927 12.0416 49.927Z" fill="#4A4E4F"/>
<path d="M12.0416 56.2264H1.52696C0.820754 56.2264 0.271484 55.682 0.271484 54.9821C0.271484 54.2822 0.820754 53.7378 1.52696 53.7378H12.0416C12.7478 53.7378 13.297 54.2822 13.297 54.9821C13.297 55.6042 12.7478 56.2264 12.0416 56.2264Z" fill="#4A4E4F"/>
<path d="M12.0416 62.4476H1.52696C0.820754 62.4476 0.271484 61.9032 0.271484 61.2033C0.271484 60.5034 0.820754 59.959 1.52696 59.959H12.0416C12.7478 59.959 13.297 60.5034 13.297 61.2033C13.297 61.9032 12.7478 62.4476 12.0416 62.4476Z" fill="#4A4E4F"/>
<path d="M12.0416 68.6692H1.52696C0.820754 68.6692 0.271484 68.1249 0.271484 67.4249C0.271484 66.725 0.820754 66.1807 1.52696 66.1807H12.0416C12.7478 66.1807 13.297 66.725 13.297 67.4249C13.297 68.1249 12.7478 68.6692 12.0416 68.6692Z" fill="#4A4E4F"/>
<path d="M12.0416 74.8904H1.52696C0.820754 74.8904 0.271484 74.346 0.271484 73.6461C0.271484 72.9462 0.820754 72.4019 1.52696 72.4019H12.0416C12.7478 72.4019 13.297 72.9462 13.297 73.6461C13.297 74.346 12.7478 74.8904 12.0416 74.8904Z" fill="#4A4E4F"/>
</svg>
