<svg width="97" height="59" viewBox="0 0 97 59" fill="none" xmlns="http://www.w3.org/2000/svg">
<path d="M91.3887 0H5.15424C2.42321 0 0.271484 2.1728 0.271484 4.93059V54.0694C0.271484 56.8272 2.42321 59 5.15424 59H91.3887C94.1198 59 96.2715 56.8272 96.2715 54.0694V4.93059C96.2715 2.1728 94.1198 0 91.3887 0Z" fill="#4E4C4F"/>
<path d="M89.7336 4.17871H6.80942C5.48529 4.17871 4.40942 5.26511 4.40942 6.60222V52.3147C4.40942 53.6518 5.48529 54.7382 6.80942 54.7382H89.6508C90.9749 54.7382 92.0508 53.6518 92.0508 52.3147V6.60222C92.1336 5.26511 91.0577 4.17871 89.7336 4.17871Z" fill="#E3E4E9"/>
<path d="M9.78883 8.18959C9.78883 9.27599 8.96124 10.1117 7.88538 10.1117C6.80952 10.1117 5.98193 9.27599 5.98193 8.18959C5.98193 7.10319 6.80952 6.26749 7.88538 6.26749C8.96124 6.18392 9.78883 7.10319 9.78883 8.18959Z" fill="#4E4C4F"/>
<path d="M89.8164 8.18959C89.8164 9.27599 88.9888 10.1117 87.913 10.1117C86.8371 10.1117 86.0095 9.27599 86.0095 8.18959C86.0095 7.10319 86.8371 6.26749 87.913 6.26749C88.9888 6.18392 89.8164 7.10319 89.8164 8.18959Z" fill="#4E4C4F"/>
<path d="M9.78883 50.8102C9.78883 51.8966 8.96124 52.7323 7.88538 52.7323C6.80952 52.7323 5.98193 51.8966 5.98193 50.8102C5.98193 49.7238 6.80952 48.8881 7.88538 48.8881C8.96124 48.8045 9.78883 49.7238 9.78883 50.8102Z" fill="#4E4C4F"/>
<path d="M89.8164 50.8102C89.8164 51.8966 88.9888 52.7323 87.913 52.7323C86.8371 52.7323 86.0095 51.8966 86.0095 50.8102C86.0095 49.7238 86.8371 48.8881 87.913 48.8881C88.9888 48.8045 89.8164 49.7238 89.8164 50.8102Z" fill="#4E4C4F"/>
<path d="M45.36 43.8261C53.2135 35.8957 53.2135 23.0379 45.36 15.1075C37.5065 7.17702 24.7735 7.17702 16.92 15.1075C9.06647 23.0379 9.06647 35.8957 16.92 43.8261C24.7735 51.7566 37.5065 51.7566 45.36 43.8261Z" fill="#4E4C4F"/>
<path d="M51.2507 28.5805H49.3473C48.8507 19.2207 41.4025 11.6159 32.1335 11.1145V9.19238C31.8025 9.19238 31.4714 9.19238 31.2231 9.19238C30.8921 9.19238 30.5611 9.19238 30.3128 9.19238V11.1145C21.0438 11.6159 13.5128 19.1371 13.099 28.5805H11.1956C11.1956 28.9148 11.1956 29.249 11.1956 29.4997C11.1956 29.834 11.1956 30.1683 11.1956 30.419H13.099C13.5956 39.7788 21.0438 47.3836 30.3128 47.885V49.8071C30.6438 49.8071 30.9749 49.8071 31.2231 49.8071C31.5542 49.8071 31.8852 49.8071 32.1335 49.8071V47.885C41.4025 47.3836 48.9335 39.8624 49.3473 30.419H51.2507C51.2507 30.0847 51.2507 29.834 51.2507 29.4997C51.2507 29.1655 51.2507 28.8312 51.2507 28.5805ZM30.1473 46.1301C21.7887 45.7122 15.0852 38.8595 14.5887 30.419H16.4093C16.9059 37.8567 22.7818 43.7901 30.1473 44.2915V46.1301ZM30.1473 42.6201C23.6921 42.1187 18.5611 36.9374 18.0645 30.419H20.63C21.0438 35.5167 25.099 39.6116 30.1473 40.0295V42.6201ZM30.1473 38.3581C26.0093 37.9403 22.699 34.5975 22.2852 30.419H24.9335C25.3473 33.1768 27.499 35.266 30.1473 35.6839V38.3581ZM30.1473 23.232C27.4162 23.6499 25.3473 25.8227 24.9335 28.4969H22.2852C22.699 24.3184 26.0093 20.9757 30.1473 20.5578V23.232ZM30.1473 18.97C25.099 19.3879 21.0438 23.4828 20.63 28.5805H18.0645C18.5611 22.0621 23.6921 16.8808 30.1473 16.3794V18.97ZM30.1473 14.708C22.7818 15.2094 16.9059 21.1428 16.4093 28.5805H14.5887C15.0852 20.0564 21.7887 13.2873 30.1473 12.7859V14.708ZM32.0507 16.3794C38.5059 16.8808 43.6369 22.0621 44.1335 28.5805H41.568C41.1542 23.4828 37.099 19.3879 32.0507 18.97V16.3794ZM32.0507 20.6414C36.1887 21.0592 39.499 24.402 39.9128 28.5805H37.2645C36.8507 25.8227 34.699 23.7335 32.0507 23.3156V20.6414ZM32.0507 35.6839C34.7818 35.266 36.8507 33.0932 37.2645 30.419H39.9128C39.499 34.5975 36.1887 37.9403 32.0507 38.3581V35.6839ZM32.0507 40.0295C37.099 39.6116 41.1542 35.5167 41.568 30.419H44.1335C43.6369 36.9374 38.5059 42.1187 32.0507 42.6201V40.0295ZM32.0507 46.1301V44.2915C39.4162 43.7901 45.2921 37.8567 45.7887 30.419H47.6094C47.1128 38.8595 40.4094 45.7122 32.0507 46.1301ZM45.7887 28.5805C45.2921 21.1428 39.4162 15.2094 32.0507 14.708V12.8694C40.4094 13.3709 47.1128 20.14 47.6094 28.5805H45.7887Z" fill="#E3E4E9"/>
<path d="M80.1336 38.1914L78.2301 35.4336C77.9819 35.0993 77.5681 34.8486 77.1543 34.8486H68.2164C67.8026 34.8486 67.3888 35.0158 67.1405 35.4336L65.237 38.1914C65.0715 38.4421 64.9888 38.6928 64.9888 38.9435V46.1305C64.9888 46.7991 65.5681 47.384 66.2301 47.384H78.975C79.637 47.384 80.2164 46.7991 80.2164 46.1305V38.9435C80.3819 38.6928 80.2991 38.4421 80.1336 38.1914Z" fill="#6B696D"/>
<path d="M73.1818 36.353H72.2714C71.8576 36.353 71.5266 36.6873 71.5266 37.1052V40.3644C71.5266 40.7822 71.8576 41.1165 72.2714 41.1165H73.1818C73.5956 41.1165 73.9266 40.7822 73.9266 40.3644V37.1052C73.8439 36.6873 73.5956 36.353 73.1818 36.353Z" fill="#E3E4E9"/>
<path d="M72.2715 40.6988C72.1059 40.6988 71.9404 40.5316 71.9404 40.3645V37.1053C71.9404 36.9381 72.1059 36.771 72.2715 36.771H73.1818C73.3473 36.771 73.5128 36.9381 73.5128 37.1053V40.3645C73.5128 40.5316 73.3473 40.6988 73.1818 40.6988H72.2715Z" fill="#4E4C4F"/>
<path d="M69.1266 41.1167H68.2163C67.8025 41.1167 67.4714 41.451 67.4714 41.8688V45.128C67.4714 45.5459 67.8025 45.8802 68.2163 45.8802H69.1266C69.5404 45.8802 69.8714 45.5459 69.8714 45.128V41.8688C69.8714 41.451 69.5404 41.1167 69.1266 41.1167Z" fill="#E3E4E9"/>
<path d="M68.2163 45.4624C68.0508 45.4624 67.8853 45.2953 67.8853 45.1282V41.8689C67.8853 41.7018 68.0508 41.5347 68.2163 41.5347H69.1266C69.2922 41.5347 69.4577 41.7018 69.4577 41.8689V45.1282C69.4577 45.2953 69.2922 45.4624 69.1266 45.4624H68.2163Z" fill="#4E4C4F"/>
<path d="M77.1542 41.1167H76.2439C75.8301 41.1167 75.499 41.451 75.499 41.8688V45.128C75.499 45.5459 75.8301 45.8802 76.2439 45.8802H77.1542C77.568 45.8802 77.899 45.5459 77.899 45.128V41.8688C77.899 41.451 77.568 41.1167 77.1542 41.1167Z" fill="#E3E4E9"/>
<path d="M76.3266 45.4624C76.1611 45.4624 75.9956 45.2953 75.9956 45.1282V41.8689C75.9956 41.7018 76.1611 41.5347 76.3266 41.5347H77.237C77.4025 41.5347 77.568 41.7018 77.568 41.8689V45.1282C77.568 45.2953 77.4025 45.4624 77.237 45.4624H76.3266Z" fill="#4E4C4F"/>
<path d="M74.837 11.5327H70.6163C69.6232 11.5327 68.7957 12.3684 68.7957 13.3712V25.7395C68.7957 26.7423 69.6232 27.578 70.6163 27.578H74.837C75.8301 27.578 76.6577 26.7423 76.6577 25.7395V13.3712C76.6577 12.3684 75.8301 11.5327 74.837 11.5327Z" fill="#FF6600"/>
<path d="M72.6854 26.4079C70.9474 26.4079 69.5405 24.9872 69.5405 23.2323C69.5405 21.4773 70.9474 20.0566 72.6854 20.0566C74.4233 20.0566 75.8302 21.4773 75.8302 23.2323C75.8302 24.9872 74.4233 26.4079 72.6854 26.4079ZM72.6854 21.3102C71.6923 21.3102 70.7819 22.1459 70.7819 23.2323C70.7819 24.2351 71.6095 25.1544 72.6854 25.1544C73.6785 25.1544 74.5888 24.3187 74.5888 23.2323C74.5888 22.1459 73.7612 21.3102 72.6854 21.3102Z" fill="#E3E4E9"/>
<path d="M72.6853 17.5497C72.3542 17.5497 72.0232 17.299 72.0232 16.8811V13.3712C72.0232 13.0369 72.2715 12.7026 72.6853 12.7026C73.0163 12.7026 73.3473 12.9533 73.3473 13.3712V16.8811C73.3473 17.299 73.0991 17.5497 72.6853 17.5497Z" fill="#E3E4E9"/>
<path d="M44.1336 8.35689C44.2164 9.44329 45.2095 10.1954 46.2026 10.1954H63.1681C64.2439 10.1954 65.237 9.44329 65.3198 8.35689C65.4026 7.18691 64.4922 6.18408 63.3336 6.18408H46.1198C44.9612 6.18408 43.9681 7.18691 44.1336 8.35689Z" fill="#D9DADD"/>
<path d="M68.7957 8.35689C68.8785 9.44329 69.8716 10.1954 70.8647 10.1954H73.7612C74.8371 10.1954 75.8302 9.44329 75.9129 8.35689C75.9957 7.18691 75.0854 6.18408 73.9267 6.18408H70.7819C69.6233 6.18408 68.6302 7.18691 68.7957 8.35689Z" fill="#D9DADD"/>
<path d="M87.4992 15.7108C86.4233 15.7944 85.6785 16.7972 85.6785 17.8001V29.9176C85.6785 31.004 86.4233 32.0069 87.4992 32.0905C88.6578 32.174 89.6509 31.2548 89.6509 30.0848V17.7165C89.7336 16.5465 88.6578 15.6273 87.4992 15.7108Z" fill="#D9DADD"/>
<path d="M87.4992 35.7675C86.4233 35.8511 85.6785 36.8539 85.6785 37.8567V42.453C85.6785 43.5394 86.4233 44.5423 87.4992 44.6258C88.6578 44.7094 89.6509 43.7901 89.6509 42.6202V37.7732C89.7336 36.6032 88.6578 35.6839 87.4992 35.7675Z" fill="#D9DADD"/>
</svg>
