<svg width="15" height="13" viewBox="0 0 15 13" fill="none" xmlns="http://www.w3.org/2000/svg">
<path fill-rule="evenodd" clip-rule="evenodd" d="M14.3333 2.15131C13.8071 2.38079 13.2507 2.53248 12.6813 2.60168C13.282 2.24091 13.7321 1.67334 13.9483 1.00428C13.3837 1.3421 12.7658 1.58011 12.1213 1.70798C11.2352 0.741993 9.81176 0.499901 8.65891 1.11911C7.50605 1.73832 6.91501 3.06241 7.22125 4.33983C4.9129 4.22246 2.76275 3.12507 1.30625 1.32094C1.05365 1.76439 0.920915 2.26659 0.921252 2.77761C0.919433 3.74148 1.39768 4.64228 2.19525 5.17724C1.73884 5.16475 1.29217 5.04163 0.893252 4.81835V4.85353C0.900304 6.22434 1.86585 7.40089 3.20325 7.66835C2.95353 7.74475 2.69426 7.78503 2.43325 7.78798C2.25258 7.78586 2.07235 7.76939 1.89425 7.73872C2.27293 8.91119 3.34924 9.71351 4.57525 9.73724C3.56529 10.5361 2.31837 10.9721 1.03325 10.9758C0.799267 10.9765 0.565467 10.9624 0.333252 10.9335C1.64535 11.7852 3.17442 12.2373 4.73625 12.2354C6.91344 12.2581 9.00834 11.4001 10.5499 9.8544C12.0915 8.30866 12.9503 6.20488 12.9333 4.01613C12.9333 3.8965 12.9333 3.76983 12.9333 3.64316C13.4825 3.23136 13.9563 2.72654 14.3333 2.15131Z" fill="#F1F1F1"/>
</svg>
