<svg width="36" height="37" viewBox="0 0 36 37" fill="none" xmlns="http://www.w3.org/2000/svg">
<path d="M3.5973 0.957031L2.83381 1.67712L0.927124 3.58381L0.207031 4.3473L0.75761 5.2369L3.5973 9.98327L3.97836 10.6613H7.96396L13.3884 16.0437C8.54166 20.9121 2.37545 27.0987 2.15847 27.317C0.0334498 29.4407 0.0293811 32.9205 2.19915 34.9451C4.31875 37.0362 7.77275 37.0905 9.78657 34.9451L9.82725 34.9017L18.1754 26.5115L26.567 34.9438L26.6931 35.0292C28.8222 37.0362 32.2084 37.0634 34.1951 34.9438V34.9031H34.2358C36.3134 32.7781 36.3351 29.3241 34.1951 27.3157L34.1517 27.275L27.0756 20.2395C31.8369 19.7947 35.5661 15.7738 35.6353 10.9163H35.6773C35.6828 10.8892 35.6773 10.858 35.6773 10.8308V10.7888C35.8102 9.22114 35.4712 7.72129 34.6603 6.4235L33.73 4.98467L27.4146 11.2987L25.5079 9.30658L31.9494 2.86507L30.0848 2.10294C28.8953 1.57967 27.6115 1.30509 26.3121 1.29606C21.0992 1.29606 16.8193 5.57593 16.8193 10.7888C16.8193 11.3557 16.9414 11.8479 17.0309 12.3565C16.4383 12.9504 15.9935 13.4373 15.2937 14.137L9.91133 8.75464V4.72836L9.23327 4.3473L4.4869 1.50761L3.5973 0.957031ZM26.3121 4.00827C26.5019 4.00827 26.6348 4.11947 26.8206 4.13574L21.6932 9.26318L22.6248 10.2382L26.4396 14.1791L27.3712 15.1541L32.7536 9.77172C32.7807 10.0836 33.0031 10.3115 32.9651 10.6613V10.7888C32.9651 14.5235 29.9193 17.5693 26.1846 17.5693C25.6869 17.5693 25.0834 17.4527 24.4054 17.3144L23.6839 17.1883L23.1754 17.6968L7.87852 33.0371H7.83513V33.0805C6.87229 34.1342 5.18665 34.1599 4.0638 33.0371V32.995H4.0204C2.96671 32.0322 2.94094 30.3466 4.0638 29.2237C4.57776 28.7084 14.5302 18.6705 19.4041 13.798L19.956 13.2474L19.7431 12.4839C19.6144 11.9277 19.5435 11.3596 19.5315 10.7888C19.5315 7.05408 22.5774 4.00827 26.3121 4.00827ZM4.0204 4.3473L7.19912 6.29738V7.65348L6.90348 7.94911H5.54738L3.5973 4.77176L4.0204 4.3473ZM23.8535 20.8321L32.2884 29.2237V29.2657H32.3291C33.3842 30.2286 33.4099 31.9142 32.2884 33.0371H32.245V33.0805C31.2822 34.1342 29.5966 34.1599 28.4737 33.0371L20.0821 24.6048L23.8535 20.8321Z" fill="#F1F1F1" fill-opacity="0.945098"/>
</svg>
