<svg width="36" height="37" viewBox="0 0 36 37" fill="none" xmlns="http://www.w3.org/2000/svg">
<mask id="path-1-inside-1_4697_7709" fill="white">
<path d="M7.62161 3.92286C6.44173 3.92286 5.31018 4.39157 4.47587 5.22587C3.64157 6.06018 3.17286 7.19173 3.17286 8.37161V29.1324C3.17286 30.3123 3.64157 31.4439 4.47587 32.2782C5.31018 33.1125 6.44173 33.5812 7.62161 33.5812H20.9679V3.92286H7.62161ZM32.8312 12.8204V8.37161C32.8312 7.19173 32.3625 6.06018 31.5282 5.22587C30.6939 4.39157 29.5623 3.92286 28.3824 3.92286H23.9337V12.8204H32.8312ZM23.9337 33.5812H28.3824C29.5623 33.5812 30.6939 33.1125 31.5282 32.2782C32.3625 31.4439 32.8312 30.3123 32.8312 29.1324V24.6837H23.9337V33.5812ZM32.8312 15.7862H23.9337V21.7179H32.8312V15.7862ZM0.207031 8.37161C0.207031 6.40515 0.988208 4.51922 2.37871 3.12871C3.76922 1.73821 5.65515 0.957031 7.62161 0.957031H28.3824C30.3489 0.957031 32.2348 1.73821 33.6254 3.12871C35.0159 4.51922 35.797 6.40515 35.797 8.37161V29.1324C35.797 31.0989 35.0159 32.9848 33.6254 34.3754C32.2348 35.7659 30.3489 36.547 28.3824 36.547H7.62161C5.65515 36.547 3.76922 35.7659 2.37871 34.3754C0.988208 32.9848 0.207031 31.0989 0.207031 29.1324V8.37161ZM6.1387 8.37161C6.1387 7.97832 6.29493 7.60114 6.57303 7.32303C6.85114 7.04493 7.22832 6.8887 7.62161 6.8887H16.5191C16.9124 6.8887 17.2896 7.04493 17.5677 7.32303C17.8458 7.60114 18.002 7.97832 18.002 8.37161V17.2691C18.002 17.6624 17.8458 18.0396 17.5677 18.3177C17.2896 18.5958 16.9124 18.752 16.5191 18.752H7.62161C7.22832 18.752 6.85114 18.5958 6.57303 18.3177C6.29493 18.0396 6.1387 17.6624 6.1387 17.2691V8.37161ZM9.10453 9.85453V15.7862H15.0362V9.85453H9.10453ZM7.62161 21.7179C7.22832 21.7179 6.85114 21.8741 6.57303 22.1522C6.29493 22.4303 6.1387 22.8075 6.1387 23.2008C6.1387 23.5941 6.29493 23.9713 6.57303 24.2494C6.85114 24.5275 7.22832 24.6837 7.62161 24.6837H16.5191C16.9124 24.6837 17.2896 24.5275 17.5677 24.2494C17.8458 23.9713 18.002 23.5941 18.002 23.2008C18.002 22.8075 17.8458 22.4303 17.5677 22.1522C17.2896 21.8741 16.9124 21.7179 16.5191 21.7179H7.62161ZM7.62161 27.6495C7.22832 27.6495 6.85114 27.8058 6.57303 28.0839C6.29493 28.362 6.1387 28.7392 6.1387 29.1324C6.1387 29.5257 6.29493 29.9029 6.57303 30.181C6.85114 30.4591 7.22832 30.6154 7.62161 30.6154H16.5191C16.9124 30.6154 17.2896 30.4591 17.5677 30.181C17.8458 29.9029 18.002 29.5257 18.002 29.1324C18.002 28.7392 17.8458 28.362 17.5677 28.0839C17.2896 27.8058 16.9124 27.6495 16.5191 27.6495H7.62161Z"/>
</mask>
<path d="M7.62161 33.5812V36.5812V33.5812ZM20.9679 33.5812V36.5812H23.9679V33.5812H20.9679ZM20.9679 3.92286H23.9679V0.922865H20.9679V3.92286ZM32.8312 12.8204V15.8204H35.8312V12.8204H32.8312ZM32.8312 8.37161H35.8312H32.8312ZM23.9337 3.92286V0.922865H20.9337V3.92286H23.9337ZM23.9337 12.8204H20.9337V15.8204H23.9337V12.8204ZM23.9337 33.5812H20.9337V36.5812H23.9337V33.5812ZM28.3824 33.5812V36.5812V33.5812ZM32.8312 29.1324H35.8312H32.8312ZM32.8312 24.6837H35.8312V21.6837H32.8312V24.6837ZM23.9337 24.6837V21.6837H20.9337V24.6837H23.9337ZM32.8312 15.7862H35.8312V12.7862H32.8312V15.7862ZM23.9337 15.7862V12.7862H20.9337V15.7862H23.9337ZM23.9337 21.7179H20.9337V24.7179H23.9337V21.7179ZM32.8312 21.7179V24.7179H35.8312V21.7179H32.8312ZM7.62161 0.957031V-2.04297V0.957031ZM35.797 29.1324H32.797H35.797ZM7.62161 36.547V33.547V36.547ZM6.1387 8.37161H9.1387H6.1387ZM7.62161 6.8887V9.8887V6.8887ZM16.5191 6.8887V9.8887V6.8887ZM6.1387 17.2691H9.1387H6.1387ZM9.10453 9.85453V6.85453H6.10453V9.85453H9.10453ZM9.10453 15.7862H6.10453V18.7862H9.10453V15.7862ZM15.0362 15.7862V18.7862H18.0362V15.7862H15.0362ZM15.0362 9.85453H18.0362V6.85453H15.0362V9.85453ZM6.1387 23.2008H9.1387H6.1387ZM6.1387 29.1324H9.1387H6.1387ZM7.62161 0.922865C5.64608 0.922865 3.75146 1.70764 2.35455 3.10455L6.59719 7.34719C6.86889 7.0755 7.23738 6.92286 7.62161 6.92286V0.922865ZM2.35455 3.10455C0.957643 4.50146 0.172865 6.39608 0.172865 8.37161H6.17286C6.17286 7.98738 6.3255 7.61889 6.59719 7.34719L2.35455 3.10455ZM0.172865 8.37161V29.1324H6.17286V8.37161H0.172865ZM0.172865 29.1324C0.172865 31.108 0.957641 33.0026 2.35455 34.3995L6.59719 30.1569C6.3255 29.8852 6.17286 29.5167 6.17286 29.1324H0.172865ZM2.35455 34.3995C3.75147 35.7964 5.64609 36.5812 7.62161 36.5812V30.5812C7.23738 30.5812 6.86889 30.4286 6.59719 30.1569L2.35455 34.3995ZM7.62161 36.5812H20.9679V30.5812H7.62161V36.5812ZM23.9679 33.5812V3.92286H17.9679V33.5812H23.9679ZM20.9679 0.922865H7.62161V6.92286H20.9679V0.922865ZM35.8312 12.8204V8.37161H29.8312V12.8204H35.8312ZM35.8312 8.37161C35.8312 6.39609 35.0464 4.50147 33.6495 3.10455L29.4069 7.34719C29.6786 7.61889 29.8312 7.98738 29.8312 8.37161H35.8312ZM33.6495 3.10455C32.2526 1.70764 30.358 0.922865 28.3824 0.922865V6.92286C28.7667 6.92286 29.1352 7.0755 29.4069 7.34719L33.6495 3.10455ZM28.3824 0.922865H23.9337V6.92286H28.3824V0.922865ZM20.9337 3.92286V12.8204H26.9337V3.92286H20.9337ZM23.9337 15.8204H32.8312V9.82036H23.9337V15.8204ZM23.9337 36.5812H28.3824V30.5812H23.9337V36.5812ZM28.3824 36.5812C30.358 36.5812 32.2526 35.7964 33.6495 34.3995L29.4069 30.1569C29.1352 30.4286 28.7667 30.5812 28.3824 30.5812V36.5812ZM33.6495 34.3995C35.0464 33.0026 35.8312 31.108 35.8312 29.1324H29.8312C29.8312 29.5167 29.6786 29.8852 29.4069 30.1569L33.6495 34.3995ZM35.8312 29.1324V24.6837H29.8312V29.1324H35.8312ZM32.8312 21.6837H23.9337V27.6837H32.8312V21.6837ZM20.9337 24.6837V33.5812H26.9337V24.6837H20.9337ZM32.8312 12.7862H23.9337V18.7862H32.8312V12.7862ZM20.9337 15.7862V21.7179H26.9337V15.7862H20.9337ZM23.9337 24.7179H32.8312V18.7179H23.9337V24.7179ZM35.8312 21.7179V15.7862H29.8312V21.7179H35.8312ZM3.20703 8.37161C3.20703 7.20079 3.67214 6.07793 4.50003 5.25003L0.257392 1.00739C-1.69572 2.96051 -2.79297 5.6095 -2.79297 8.37161H3.20703ZM4.50003 5.25003C5.32793 4.42214 6.45079 3.95703 7.62161 3.95703V-2.04297C4.8595 -2.04297 2.21051 -0.945721 0.257392 1.00739L4.50003 5.25003ZM7.62161 3.95703H28.3824V-2.04297H7.62161V3.95703ZM28.3824 3.95703C29.5533 3.95703 30.6761 4.42214 31.504 5.25003L35.7467 1.00739C33.7936 -0.945721 31.1446 -2.04297 28.3824 -2.04297V3.95703ZM31.504 5.25003C32.3319 6.07793 32.797 7.2008 32.797 8.37161H38.797C38.797 5.60949 37.6998 2.9605 35.7467 1.00739L31.504 5.25003ZM32.797 8.37161V29.1324H38.797V8.37161H32.797ZM32.797 29.1324C32.797 30.3033 32.3319 31.4261 31.504 32.254L35.7467 36.4967C37.6998 34.5436 38.797 31.8946 38.797 29.1324H32.797ZM31.504 32.254C30.6761 33.0819 29.5533 33.547 28.3824 33.547V39.547C31.1446 39.547 33.7936 38.4498 35.7467 36.4967L31.504 32.254ZM28.3824 33.547H7.62161V39.547H28.3824V33.547ZM7.62161 33.547C6.4508 33.547 5.32793 33.0819 4.50003 32.254L0.257392 36.4967C2.2105 38.4498 4.85949 39.547 7.62161 39.547V33.547ZM4.50003 32.254C3.67214 31.4261 3.20703 30.3033 3.20703 29.1324H-2.79297C-2.79297 31.8946 -1.69572 34.5436 0.257392 36.4967L4.50003 32.254ZM3.20703 29.1324V8.37161H-2.79297V29.1324H3.20703ZM9.1387 8.37161C9.1387 8.77397 8.97886 9.15985 8.69436 9.44436L4.45171 5.20171C3.61101 6.04242 3.1387 7.18267 3.1387 8.37161H9.1387ZM8.69436 9.44436C8.40985 9.72886 8.02397 9.8887 7.62161 9.8887V3.8887C6.43267 3.8887 5.29242 4.36101 4.45171 5.20171L8.69436 9.44436ZM7.62161 9.8887H16.5191V3.8887H7.62161V9.8887ZM16.5191 9.8887C16.1168 9.8887 15.7309 9.72886 15.4464 9.44436L19.689 5.20171C18.8483 4.36101 17.7081 3.8887 16.5191 3.8887V9.8887ZM15.4464 9.44436C15.1619 9.15985 15.002 8.77397 15.002 8.37161H21.002C21.002 7.18267 20.5297 6.04242 19.689 5.20171L15.4464 9.44436ZM15.002 8.37161V17.2691H21.002V8.37161H15.002ZM15.002 17.2691C15.002 16.8668 15.1619 16.4809 15.4464 16.1964L19.689 20.439C20.5297 19.5983 21.002 18.4581 21.002 17.2691H15.002ZM15.4464 16.1964C15.7309 15.9119 16.1168 15.752 16.5191 15.752V21.752C17.7081 21.752 18.8483 21.2797 19.689 20.439L15.4464 16.1964ZM16.5191 15.752H7.62161V21.752H16.5191V15.752ZM7.62161 15.752C8.02397 15.752 8.40985 15.9119 8.69436 16.1964L4.45171 20.439C5.29242 21.2797 6.43267 21.752 7.62161 21.752V15.752ZM8.69436 16.1964C8.97886 16.4809 9.1387 16.8668 9.1387 17.2691H3.1387C3.1387 18.4581 3.61101 19.5983 4.45171 20.439L8.69436 16.1964ZM9.1387 17.2691V8.37161H3.1387V17.2691H9.1387ZM6.10453 9.85453V15.7862H12.1045V9.85453H6.10453ZM9.10453 18.7862H15.0362V12.7862H9.10453V18.7862ZM18.0362 15.7862V9.85453H12.0362V15.7862H18.0362ZM15.0362 6.85453H9.10453V12.8545H15.0362V6.85453ZM7.62161 18.7179C6.43267 18.7179 5.29243 19.1902 4.45171 20.0309L8.69436 24.2735C8.40985 24.558 8.02397 24.7179 7.62161 24.7179V18.7179ZM4.45171 20.0309C3.61101 20.8716 3.1387 22.0118 3.1387 23.2008H9.1387C9.1387 23.6031 8.97886 23.989 8.69436 24.2735L4.45171 20.0309ZM3.1387 23.2008C3.1387 24.3897 3.611 25.53 4.45171 26.3707L8.69436 22.128C8.97886 22.4126 9.1387 22.7984 9.1387 23.2008H3.1387ZM4.45171 26.3707C5.29243 27.2114 6.43267 27.6837 7.62161 27.6837V21.6837C8.02397 21.6837 8.40985 21.8435 8.69436 22.128L4.45171 26.3707ZM7.62161 27.6837H16.5191V21.6837H7.62161V27.6837ZM16.5191 27.6837C17.7081 27.6837 18.8483 27.2114 19.689 26.3707L15.4464 22.128C15.7309 21.8435 16.1168 21.6837 16.5191 21.6837V27.6837ZM19.689 26.3707C20.5297 25.53 21.002 24.3897 21.002 23.2008H15.002C15.002 22.7984 15.1619 22.4126 15.4464 22.128L19.689 26.3707ZM21.002 23.2008C21.002 22.0118 20.5297 20.8716 19.689 20.0309L15.4464 24.2735C15.1619 23.989 15.002 23.6031 15.002 23.2008H21.002ZM19.689 20.0309C18.8483 19.1902 17.7081 18.7179 16.5191 18.7179V24.7179C16.1168 24.7179 15.7309 24.558 15.4464 24.2735L19.689 20.0309ZM16.5191 18.7179H7.62161V24.7179H16.5191V18.7179ZM7.62161 24.6495C6.43269 24.6495 5.29244 25.1218 4.45171 25.9625L8.69436 30.2052C8.40983 30.4897 8.02395 30.6495 7.62161 30.6495V24.6495ZM4.45171 25.9625C3.611 26.8033 3.1387 27.9435 3.1387 29.1324H9.1387C9.1387 29.5348 8.97886 29.9207 8.69436 30.2052L4.45171 25.9625ZM3.1387 29.1324C3.1387 30.3214 3.611 31.4616 4.45171 32.3024L8.69436 28.0597C8.97886 28.3442 9.1387 28.7301 9.1387 29.1324H3.1387ZM4.45171 32.3024C5.29243 33.1431 6.43267 33.6154 7.62161 33.6154V27.6154C8.02397 27.6154 8.40985 27.7752 8.69436 28.0597L4.45171 32.3024ZM7.62161 33.6154H16.5191V27.6154H7.62161V33.6154ZM16.5191 33.6154C17.7081 33.6154 18.8483 33.1431 19.689 32.3024L15.4464 28.0597C15.7309 27.7752 16.1168 27.6154 16.5191 27.6154V33.6154ZM19.689 32.3024C20.5297 31.4616 21.002 30.3214 21.002 29.1324H15.002C15.002 28.7301 15.1619 28.3442 15.4464 28.0597L19.689 32.3024ZM21.002 29.1324C21.002 27.9435 20.5297 26.8033 19.689 25.9625L15.4464 30.2052C15.1619 29.9207 15.002 29.5348 15.002 29.1324H21.002ZM19.689 25.9625C18.8483 25.1218 17.708 24.6495 16.5191 24.6495V30.6495C16.1168 30.6495 15.7309 30.4897 15.4464 30.2052L19.689 25.9625ZM16.5191 24.6495H7.62161V30.6495H16.5191V24.6495Z" fill="#F1F1F1" mask="url(#path-1-inside-1_4697_7709)"/>
</svg>
