<svg width="36" height="36" viewBox="0 0 36 36" fill="none" xmlns="http://www.w3.org/2000/svg">
<path d="M19.3639 4.23844L29.0166 9.33448C30.1435 9.92974 30.1435 11.6284 29.0166 12.2237L19.3639 17.3197C18.5039 17.7698 17.4956 17.7698 16.6356 17.3197L6.98287 12.2237C5.85597 11.6284 5.85597 9.92974 6.98287 9.33448L16.6356 4.23844C17.4956 3.78836 18.5039 3.78836 19.3639 4.23844Z" stroke="white" stroke-width="2.22413" strokeLinecap="round" stroke-linejoin="round"/>
<path d="M5.56009 15.6643L14.5308 20.0635C15.6428 20.6152 16.3545 21.7331 16.3545 22.9527V31.2574C16.3545 32.4624 15.0645 33.2319 13.9673 32.6947L4.99664 28.2956C3.88457 27.7438 3.17285 26.6259 3.17285 25.4063V17.1017C3.17285 15.8966 4.46285 15.1271 5.56009 15.6643Z" stroke="white" stroke-width="2.22413" strokeLinecap="round" stroke-linejoin="round"/>
<path d="M30.4409 15.6643L21.4703 20.0635C20.3582 20.6152 19.6465 21.7331 19.6465 22.9527V31.2574C19.6465 32.4624 20.9365 33.2319 22.0337 32.6947L31.0044 28.2956C32.1165 27.7438 32.8282 26.6259 32.8282 25.4063V17.1017C32.8282 15.8966 31.5382 15.1271 30.4409 15.6643Z" stroke="white" stroke-width="2.22413" strokeLinecap="round" stroke-linejoin="round"/>
</svg>
