<svg width="14" height="11" viewBox="0 0 14 11" fill="none" xmlns="http://www.w3.org/2000/svg">
<path d="M13.6092 1.78648C13.4798 1.07214 12.8631 0.55193 12.1475 0.389523C11.0767 0.162407 9.0948 0 6.95052 0C4.8075 0 2.79391 0.162407 1.72177 0.389523C1.00743 0.55193 0.389523 1.03915 0.260105 1.78648C0.129418 2.59851 0 3.73536 0 5.19703C0 6.65869 0.129418 7.79554 0.291825 8.60758C0.422512 9.32191 1.03915 9.84212 1.75349 10.0045C2.89034 10.2316 4.83922 10.3941 6.98351 10.3941C9.12779 10.3941 11.0767 10.2316 12.2135 10.0045C12.9279 9.84212 13.5445 9.3549 13.6752 8.60758C13.8046 7.79554 13.967 6.6257 14 5.19703C13.934 3.73536 13.7716 2.59851 13.6092 1.78648ZM5.19703 7.47073V2.92333L9.15951 5.19703L5.19703 7.47073Z" fill="#F1F1F1"/>
</svg>
