<svg width="161" height="49" viewBox="0 0 161 49" fill="none" xmlns="http://www.w3.org/2000/svg">
<g clip-path="url(#clip0_1280_6025)">
<path fill-rule="evenodd" clip-rule="evenodd" d="M109.494 36.7996C108.292 38.0255 106.854 38.6422 105.186 38.6422C103.838 38.6422 102.692 38.3659 101.523 37.6828V34.8708C102.463 35.512 103.645 36.1226 104.811 36.1226C107.242 36.1226 108.69 34.4411 108.69 32.0565C108.69 29.6704 107.193 27.9385 104.76 27.9385C103.674 27.9385 102.793 28.3309 102.105 29.1178C101.367 29.9704 100.986 31.1894 100.986 32.8V43.9037H100.803C100.483 43.9029 100.167 43.8391 99.8723 43.7161C99.5775 43.5932 99.3099 43.4133 99.0846 43.1868C98.8593 42.9604 98.6808 42.6918 98.5593 42.3963C98.4379 42.1009 98.3757 41.7844 98.3765 41.4649V32.384C98.3765 28.5301 100.72 25.4189 104.749 25.4189C106.737 25.4189 108.353 26.102 109.578 27.476C110.729 28.7591 111.299 30.3849 111.299 32.342C111.299 34.0823 110.697 35.5715 109.494 36.7996ZM137.748 36.705C136.55 37.9973 135.008 38.6422 133.14 38.6422C131.167 38.6422 129.559 37.9583 128.336 36.5852C127.185 35.286 126.614 33.6587 126.614 31.7199C126.614 28.2873 129.25 25.4189 132.718 25.4189C134.056 25.4189 135.218 25.7028 136.391 26.3501V29.1896C135.45 28.5484 134.269 27.9378 133.103 27.9378C130.671 27.9378 129.223 29.6201 129.223 32.0054C129.223 34.3579 130.755 36.1234 133.153 36.1234C134.238 36.1234 135.133 35.7142 135.847 34.8906C136.558 34.0716 136.928 32.8687 136.928 31.2535V22.4153C136.927 22.0958 136.989 21.7794 137.111 21.4839C137.232 21.1885 137.411 20.9198 137.636 20.6934C137.861 20.4669 138.129 20.2871 138.424 20.1641C138.718 20.0411 139.035 19.9774 139.354 19.9766H139.537V31.668C139.537 33.7266 138.945 35.412 137.748 36.705ZM145.117 24.1709C144.843 24.4793 144.45 24.6212 143.972 24.6212C143.076 24.6212 142.435 23.9572 142.435 23.0633C142.435 22.1489 143.064 21.5314 143.971 21.5314C144.845 21.5314 145.508 22.1825 145.508 23.0633C145.508 23.4984 145.381 23.8732 145.117 24.1709ZM158.376 31.2535C158.376 30.2193 157.987 29.4002 157.205 28.7804C156.501 28.2225 155.621 27.9385 154.55 27.9385C152.188 27.9385 150.672 29.7941 150.672 32.0832C150.672 34.2853 152.28 36.1234 154.526 36.1234C156.088 36.1234 156.923 35.2059 157.814 34.0625V37.3576C157.36 37.6996 156.838 38.0728 156.305 38.2911C155.743 38.5277 155.071 38.6422 154.295 38.6422C150.54 38.6422 148.062 35.515 148.062 31.9016C148.062 30.046 148.636 28.5118 149.79 27.3157C151.015 26.0478 152.622 25.4189 154.589 25.4189C158.318 25.4189 160.986 27.5714 160.986 31.4604V38.3835H160.803C160.483 38.3827 160.167 38.3189 159.872 38.1959C159.577 38.0729 159.309 37.893 159.084 37.6664C158.859 37.4399 158.68 37.1712 158.559 36.8757C158.437 36.5801 158.375 36.2635 158.376 35.944V31.2535ZM122.654 30.5101C122.324 29.485 121.91 28.9804 120.959 28.4469C118.698 27.1767 116.472 28.2583 115.437 30.5001L122.654 30.5101ZM120.662 38.6033C118.996 38.9598 117.36 38.685 115.764 37.7889C114.208 36.9149 113.166 35.6158 112.643 33.8983C111.587 30.4253 113.751 26.5554 117.231 25.6189C118.956 25.154 120.611 25.3647 122.182 26.2471C124.792 27.7141 125.743 29.9826 125.577 32.9061L115.064 32.8839C115.219 34.0762 115.954 35.0089 116.987 35.5891C118.036 36.1776 118.999 36.3188 119.892 36.0394C120.885 35.7264 121.69 34.912 122.345 34.1541L124.487 35.7234C123.614 37.2958 122.424 38.227 120.662 38.6033ZM142.667 25.6784H145.276V38.3835H145.093C144.773 38.3827 144.457 38.3189 144.162 38.1959C143.868 38.0729 143.6 37.8929 143.375 37.6664C143.149 37.4399 142.971 37.1711 142.849 36.8756C142.728 36.5801 142.666 36.2635 142.667 35.944V25.6784ZM54.1587 38.3827C51.6059 38.3827 50.3399 36.6378 50.3399 34.2014V24.9556C50.339 24.636 50.4012 24.3194 50.5227 24.0239C50.6442 23.7283 50.8228 23.4596 51.0481 23.2331C51.2735 23.0066 51.5412 22.8266 51.8361 22.7036C52.131 22.5806 52.4472 22.5169 52.7667 22.5161H52.9499V25.6784H57.3587V28.1973H52.9499V34.493C52.9499 35.5631 53.4246 35.8638 54.4426 35.8638H57.3579V38.3827H54.1587ZM69.3137 36.7775C68.0239 38.0194 66.4747 38.6422 64.6752 38.6422C62.8916 38.6422 61.3508 38.0186 60.0618 36.7775C58.7683 35.5303 58.1234 33.9434 58.1234 32.0306C58.1234 28.2996 60.9578 25.4189 64.6752 25.4189C66.4587 25.4189 68.0041 26.0471 69.3007 27.2981C70.6027 28.5522 71.2529 30.1345 71.2529 32.0306C71.2529 33.9434 70.6072 35.5303 69.3144 36.7775H69.3137ZM81.5152 28.7354C81.132 29.3804 80.8352 29.8437 80.6261 30.1231C80.3964 30.4269 80.1689 30.6696 79.9438 30.8375C81.7571 31.4268 82.4325 32.6893 82.4325 34.5708V38.3827H82.2493C81.6042 38.3811 80.9861 38.1233 80.531 37.6659C80.0759 37.2086 79.821 36.5892 79.8225 35.944V34.8296C79.8225 33.6113 79.2791 32.7847 77.9954 32.7847H75.6235V38.3827H75.4404C74.7954 38.3809 74.1776 38.123 73.7228 37.6656C73.268 37.2083 73.0134 36.589 73.015 35.944V22.4153C73.0141 22.0959 73.0761 21.7794 73.1975 21.484C73.319 21.1885 73.4974 20.9199 73.7226 20.6934C73.9478 20.467 74.2154 20.2871 74.5102 20.1641C74.8049 20.0411 75.121 19.9774 75.4404 19.9766H75.6235V30.2399H76.3951C77.2422 30.2399 77.7993 29.9483 78.1198 29.3972L80.3109 25.6792L83.2849 25.6761L81.5136 28.7354H81.5152ZM94.985 36.7775C93.6953 38.0194 92.1461 38.6422 90.3465 38.6422C88.563 38.6422 87.0229 38.0186 85.7332 36.7775C84.4396 35.5303 83.7947 33.9434 83.7947 32.0306C83.7947 28.2996 86.6291 25.4189 90.3465 25.4189C92.1308 25.4189 93.6754 26.0471 94.9728 27.2981C96.274 28.5522 96.9242 30.1345 96.9242 32.0306C96.9242 33.9434 96.2778 35.5303 94.985 36.7775ZM93.1015 29.0743C92.3826 28.3179 91.4691 27.9385 90.3465 27.9385C87.9448 27.9385 86.5078 29.6979 86.5078 32.0306C86.5078 34.3311 87.9792 36.1234 90.3465 36.1234C92.7146 36.1234 94.1852 34.3311 94.1852 32.0306C94.1852 30.8093 93.8204 29.8292 93.1015 29.0743ZM67.4309 29.0743C66.712 28.3179 65.7978 27.9385 64.6759 27.9385C62.2742 27.9385 60.8372 29.6979 60.8372 32.0306C60.8372 34.3311 62.3086 36.1234 64.6759 36.1234C67.0433 36.1234 68.5146 34.3311 68.5146 32.0306C68.5146 30.8093 68.1498 29.8292 67.4309 29.0743Z" fill="#03AC0E"/>
</g>
<path d="M31.5843 10.5252C31.0134 4.96792 26.3066 0.6456 20.6095 0.65725C14.9124 0.668901 10.229 4.96792 9.58818 10.4902L9.47168 11.7718L12.9086 11.9815L12.9668 10.7116C13.4911 6.72714 16.462 4.04753 20.5979 4.03588C24.7454 4.03588 27.7979 6.75044 28.2406 10.7815L28.4619 12.4825L31.794 12.2495L31.5843 10.5252Z" fill="#414242"/>
<path d="M1.2932 10.9905C0.582522 10.9905 0 11.573 0 12.2953L0.0349517 31.2972L0.0466011 34.6992V35.6079L0.0699017 47.3516C0.0699017 48.0739 0.652426 48.6564 1.37475 48.6564L13.1184 48.6331H15.1689L28.1825 48.6098C35.3708 48.5865 41.231 42.703 41.2077 35.5264V34.6176L41.1727 13.2856C41.1727 11.9808 40.1125 10.9206 38.8077 10.9089C36.4077 10.8973 33.9611 10.8973 31.5961 11.0371L28.6368 11.2934C25.9922 11.6196 23.3242 12.2138 21.1922 13.2973C20.8077 13.4837 20.365 13.4953 19.9922 13.2973C17.7553 12.1322 15.3204 11.5264 12.5592 11.2235L9.59998 11.0021C6.81552 10.8856 3.98446 10.9555 1.2932 10.9905Z" fill="#60BB55"/>
<path style="mix-blend-mode:multiply" d="M41.2077 34.6188L41.1727 13.2869C41.1727 11.982 40.1125 10.9218 38.8077 10.9102C38.6446 10.9102 38.4776 10.9102 38.3067 10.9102C38.1902 10.9102 38.0737 10.9102 37.9572 10.9102C37.6232 10.9102 37.2931 10.9102 36.9669 10.9102C36.8892 10.9102 36.8116 10.9102 36.7339 10.9102C36.4776 10.9102 36.2252 10.9102 35.9766 10.9102C35.8524 10.9102 35.732 10.9102 35.6155 10.9102C35.398 10.9179 35.1805 10.9218 34.963 10.9218C34.8388 10.9218 34.7106 10.9257 34.5786 10.9335C34.3689 10.9335 34.1592 10.9373 33.9494 10.9451C33.8252 10.9451 33.7009 10.949 33.5766 10.9568C33.3514 10.9645 33.1261 10.9723 32.9009 10.9801C32.7922 10.9801 32.6834 10.9839 32.5747 10.9917C32.2485 10.9995 31.9223 11.015 31.5961 11.0383L28.6368 11.2946C28.4582 11.3179 28.2834 11.3412 28.1126 11.3645C28.0504 11.3723 27.9922 11.3801 27.9378 11.3878C27.8213 11.4034 27.7048 11.4228 27.5883 11.4461C27.5262 11.4538 27.4601 11.4616 27.3902 11.4694C27.2815 11.4849 27.1766 11.5043 27.0757 11.5276C26.998 11.5354 26.9242 11.547 26.8543 11.5626C26.7533 11.5781 26.6524 11.5975 26.5514 11.6208C26.4815 11.6286 26.4077 11.6403 26.33 11.6558C26.2368 11.6791 26.1398 11.6985 26.0388 11.714C25.9611 11.7296 25.8873 11.7451 25.8174 11.7606C25.7165 11.7839 25.6194 11.8034 25.5262 11.8189C25.4563 11.8422 25.3825 11.8616 25.3048 11.8771C25.2116 11.9004 25.1145 11.9237 25.0135 11.947C24.9436 11.9626 24.8737 11.9781 24.8038 11.9936C24.7029 12.0169 24.6058 12.0441 24.5126 12.0752C24.4427 12.0907 24.3728 12.1063 24.3029 12.1218C24.2019 12.1529 24.1009 12.1839 23.9999 12.215C23.9378 12.2305 23.8757 12.25 23.8135 12.2733C23.6893 12.3043 23.565 12.3432 23.4407 12.3898C23.4097 12.3975 23.3747 12.4092 23.3359 12.4247C23.1805 12.4713 23.0252 12.5218 22.8699 12.5762C22.8233 12.5917 22.7805 12.6111 22.7417 12.6344C22.6252 12.6733 22.5126 12.7121 22.4038 12.7509C22.3495 12.7742 22.2951 12.7975 22.2407 12.8208C22.1475 12.8597 22.0543 12.8985 21.9611 12.9373C21.899 12.9684 21.8368 12.9956 21.7747 13.0189C21.6893 13.0577 21.6038 13.0966 21.5184 13.1354C21.4563 13.1665 21.398 13.1975 21.3436 13.2286C21.0796 13.3529 20.8271 13.4849 20.5864 13.6247C20.3301 13.4771 20.0699 13.3373 19.8058 13.2053C19.7514 13.1742 19.6932 13.1432 19.631 13.1121C19.5378 13.0655 19.4446 13.0228 19.3514 12.9839C19.297 12.9529 19.2388 12.9257 19.1767 12.9024C19.0757 12.8558 18.9747 12.8092 18.8737 12.7626C18.8271 12.747 18.7805 12.7276 18.7339 12.7043C18.5786 12.6422 18.4233 12.5801 18.2679 12.5179C18.2524 12.5179 18.2369 12.514 18.2213 12.5063C18.0893 12.4519 17.9534 12.4014 17.8136 12.3548C17.7592 12.3393 17.7048 12.3199 17.6504 12.2966C17.5495 12.2655 17.4446 12.2305 17.3359 12.1917C17.2738 12.1762 17.2116 12.1568 17.1495 12.1335C17.0563 12.1024 16.9592 12.0752 16.8582 12.0519C16.7961 12.0286 16.7301 12.0092 16.6602 11.9936C16.567 11.9703 16.4738 11.9432 16.3805 11.9121C16.3106 11.8966 16.2407 11.881 16.1708 11.8655C16.0776 11.8422 15.9844 11.8189 15.8912 11.7956C15.8213 11.7723 15.7475 11.7529 15.6699 11.7373C15.5767 11.7218 15.4835 11.7024 15.3903 11.6791C15.3204 11.6636 15.2466 11.648 15.1689 11.6325C15.0757 11.6092 14.9786 11.5898 14.8776 11.5742C14.8077 11.5587 14.7378 11.5432 14.6679 11.5276C14.567 11.5121 14.466 11.4966 14.365 11.481C14.2951 11.4655 14.2213 11.4538 14.1437 11.4461C14.0427 11.4305 13.9378 11.4111 13.8291 11.3878C13.7592 11.3801 13.6893 11.3723 13.6194 11.3645C13.5029 11.349 13.3864 11.3335 13.2699 11.3179C13.2077 11.3102 13.1495 11.3024 13.0951 11.2946C12.9165 11.2713 12.7378 11.248 12.5592 11.2247L9.59998 11.0034C9.25047 10.9878 8.90095 10.9762 8.55144 10.9684C8.34173 10.9606 8.12814 10.9568 7.91066 10.9568C7.77863 10.9568 7.6427 10.9529 7.5029 10.9451C7.36309 10.9451 7.22717 10.9451 7.09513 10.9451C6.87766 10.9451 6.66407 10.9451 6.45436 10.9451C6.38445 10.9451 6.31455 10.9451 6.24465 10.9451C5.96504 10.9373 5.68931 10.9373 5.41746 10.9451C5.21552 10.9451 5.01746 10.9451 4.82329 10.9451C4.67572 10.9451 4.52426 10.9451 4.36892 10.9451C4.22912 10.9529 4.08931 10.9568 3.94951 10.9568C3.14951 10.9645 2.35728 10.9723 1.57281 10.9801C1.47961 10.9801 1.39029 10.9839 1.30485 10.9917C0.582523 10.9917 0 11.5742 0 12.2966L0.0349517 31.2985L0.0466011 34.7004V35.6091L0.0699017 47.3528C0.0699017 48.0751 0.652426 48.6577 1.37475 48.6577L13.1184 48.6344H15.1689L28.1825 48.611C35.3708 48.5877 41.231 42.7043 41.2077 35.5276V34.6188Z" fill="url(#paint0_linear_1280_6025)"/>
<path opacity="0.8" d="M19.7127 14.0668C17.4758 12.7852 15.0409 12.1444 12.2215 11.8299L9.46032 11.6318C6.87392 11.5153 4.22926 11.5852 1.73606 11.6085C1.06033 11.6202 0.524414 12.1677 0.524414 12.8318C9.19236 11.294 19.7127 14.0668 19.7127 14.0668Z" fill="url(#paint1_linear_1280_6025)"/>
<path d="M3.7627 48.6569L13.118 48.6336H15.1685L28.1821 48.6103C31.3626 48.5987 34.2869 47.4453 36.5471 45.5346C33.8908 39.3715 27.7626 35.0725 20.6326 35.0958C12.3724 35.1074 5.47531 40.9094 3.7627 48.6569Z" fill="#84C468"/>
<path style="mix-blend-mode:multiply" d="M3.7627 48.6569L13.118 48.6336H15.1685L28.1821 48.6103C31.3626 48.5987 34.2869 47.4453 36.5471 45.5346C33.8908 39.3715 27.7626 35.0725 20.6326 35.0958C12.3724 35.1074 5.47531 40.9094 3.7627 48.6569Z" fill="url(#paint2_linear_1280_6025)"/>
<path d="M20.6568 48.6224L28.3345 48.4942C31.4801 48.4826 34.3345 47.3758 36.548 45.535C39.4141 43.1583 41.2199 39.57 41.2082 35.5272V34.6185L41.1733 11.9817C41.1733 11.3991 40.6956 10.9215 40.1014 10.9215C37.3053 10.9098 34.3927 10.8749 31.5966 11.038L28.6374 11.2943C25.7364 11.6554 22.8122 12.3428 20.5869 13.6244L20.6568 48.6224Z" fill="#4F9D4D"/>
<path style="mix-blend-mode:multiply" d="M20.6568 48.6224L28.3345 48.4942C31.4801 48.4826 34.3345 47.3758 36.548 45.535C39.4141 43.1583 41.2199 39.57 41.2082 35.5272V34.6185L41.1733 11.9817C41.1733 11.3991 40.6956 10.9215 40.1014 10.9215C37.3053 10.9098 34.3927 10.8749 31.5966 11.038L28.6374 11.2943C25.7364 11.6554 22.8122 12.3428 20.5869 13.6244L20.6568 48.6224Z" fill="url(#paint3_linear_1280_6025)"/>
<path opacity="0.8" d="M21.2969 14.0668C23.5338 12.7852 25.9687 12.1444 28.7881 11.8299L31.5376 11.6318C34.124 11.5153 36.7687 11.5852 39.2735 11.6085C39.9493 11.6202 40.4852 12.1677 40.4852 12.8318C31.8056 11.294 21.2969 14.0668 21.2969 14.0668Z" fill="url(#paint4_linear_1280_6025)"/>
<path d="M20.6561 48.6219L28.2406 48.6102C31.4211 48.5986 34.2872 47.4452 36.5473 45.5345C33.926 39.4413 27.658 35.1773 20.6328 35.0957L20.6561 48.6219Z" fill="#60BB55"/>
<path style="mix-blend-mode:multiply" d="M20.6561 48.6219L28.2406 48.6102C31.4211 48.5986 34.2872 47.4452 36.5473 45.5345C33.926 39.4413 27.658 35.1773 20.6328 35.0957L20.6561 48.6219Z" fill="url(#paint5_linear_1280_6025)"/>
<path d="M10.8933 17.8418C15.7049 17.8302 19.6195 21.7331 19.6311 26.5447C19.6428 31.368 15.7399 35.2826 10.9282 35.2942C6.10494 35.2942 2.19039 31.403 2.17874 26.5797C2.16709 21.768 6.06999 17.8535 10.8933 17.8418Z" fill="white"/>
<path d="M19.2582 24.0869C18.2213 27.7219 14.8659 30.3898 10.8931 30.4015C6.92031 30.4131 3.55333 27.7568 2.49314 24.1219C2.28343 24.8908 2.15527 25.7063 2.15527 26.5452C2.16692 31.3568 6.08148 35.2597 10.9048 35.2481C15.7164 35.2481 19.6193 31.3335 19.6077 26.5102C19.6077 25.6714 19.4912 24.8558 19.2582 24.0869Z" fill="url(#paint6_linear_1280_6025)"/>
<path d="M30.326 17.6436C35.2308 17.6319 39.2153 21.6047 39.2269 26.5096C39.2386 31.4144 35.2658 35.3989 30.3609 35.4105C25.4561 35.4222 21.46 31.4494 21.46 26.5445C21.4483 21.6397 25.4211 17.6552 30.326 17.6436Z" fill="white"/>
<path d="M38.8781 24.04C37.8063 27.7449 34.3927 30.4711 30.35 30.4711C26.2956 30.4827 22.882 27.7798 21.7986 24.075C21.5772 24.8672 21.449 25.6944 21.4607 26.5449C21.4607 31.4497 25.4568 35.4225 30.3616 35.4109C35.2665 35.3992 39.2393 31.4148 39.2276 26.5099C39.2276 25.6595 39.0995 24.8206 38.8781 24.04Z" fill="url(#paint7_linear_1280_6025)"/>
<path d="M12.0346 21.1621C15.1336 21.1621 17.6501 23.667 17.6501 26.7543C17.6618 29.8534 15.1453 32.3699 12.0579 32.3699C8.95888 32.3815 6.44238 29.8767 6.44238 26.7776C6.44238 25.7407 6.72199 24.7738 7.19966 23.9466C7.60743 24.9369 8.57442 25.6242 9.70451 25.6242C11.1958 25.6242 12.4074 24.4126 12.4074 22.9213C12.4074 22.2573 12.1511 21.6398 11.755 21.1738C11.8482 21.166 11.9414 21.1621 12.0346 21.1621Z" fill="#303030"/>
<path d="M28.9862 21.0342C32.1435 21.0342 34.7066 23.5856 34.7066 26.7313C34.7182 29.8769 32.1668 32.44 29.0095 32.44C25.8639 32.4516 23.3008 29.9002 23.3008 26.7546C23.3008 25.6944 23.5804 24.7157 24.0697 23.8652C24.4891 24.8788 25.4678 25.5779 26.6212 25.5779C28.1474 25.5779 29.3707 24.3429 29.3707 22.8283C29.3707 22.141 29.1144 21.5235 28.7066 21.0458C28.7998 21.0381 28.893 21.0342 28.9862 21.0342Z" fill="#303030"/>
<path style="mix-blend-mode:multiply" opacity="0.5" d="M25.5967 36.1212C24.7462 32.9756 21.6356 32.6843 20.7967 32.6377C20.7501 32.6377 20.7268 32.6377 20.5987 32.6493C19.7832 32.7192 16.6608 33.0455 15.8919 36.261C15.8802 36.3542 15.8919 36.6571 15.8919 36.762V36.7736C15.8919 36.7736 16.1599 36.96 16.5676 37.2163C17.1152 38.7192 19.7132 41.5386 20.7618 41.5503C20.8084 41.5503 20.82 41.5387 20.8666 41.5387C21.7404 41.5387 24.1055 38.9872 24.8045 37.3328C25.2239 37.0532 25.5268 36.8552 25.5851 36.7969C25.6084 36.5989 25.6317 36.2959 25.5967 36.1212Z" fill="url(#paint8_linear_1280_6025)"/>
<path d="M20.8669 40.8161C21.9271 40.8161 25.1775 37.2277 24.9911 35.9229C24.2455 33.1034 21.5309 32.7539 20.7853 32.7073C20.7504 32.7073 20.7154 32.6957 20.6105 32.7073C19.8882 32.7772 17.1504 33.2316 16.4863 36.1093C16.2649 37.1928 19.5387 40.8161 20.762 40.8161C20.8086 40.8161 20.8203 40.8161 20.8669 40.8161Z" fill="url(#paint9_linear_1280_6025)"/>
<path style="mix-blend-mode:multiply" d="M24.3272 37.6351C24.7699 36.9594 25.0495 36.3303 24.9913 35.9225C24.6884 34.7924 24.0709 34.0584 23.3952 33.5807C22.3466 33.0099 21.2515 32.8934 20.7971 32.8701C20.7505 32.8584 20.7272 32.8584 20.5991 32.8701C20.168 32.905 19.0729 33.0681 18.0243 33.6856C17.3602 34.1866 16.7544 34.9555 16.4864 36.1089C16.4165 36.4235 16.6379 36.9361 17.0224 37.5069C18.234 38.2293 20.0981 39.2778 20.7505 39.2778C21.4146 39.2778 23.1272 38.3458 24.3272 37.6351Z" fill="url(#paint10_linear_1280_6025)"/>
<path style="mix-blend-mode:multiply" opacity="0.5" d="M24.3272 37.6351C24.7699 36.9594 25.0495 36.3303 24.9913 35.9225C24.6884 34.7924 24.0709 34.0584 23.3952 33.5807C22.3466 33.0099 21.2515 32.8934 20.7971 32.8701C20.7505 32.8584 20.7272 32.8584 20.5991 32.8701C20.168 32.905 19.0729 33.0681 18.0243 33.6856C17.3602 34.1866 16.7544 34.9555 16.4864 36.1089C16.4165 36.4235 16.6379 36.9361 17.0224 37.5069C18.234 38.2293 20.0981 39.2778 20.7505 39.2778C21.4146 39.2778 23.1272 38.3458 24.3272 37.6351Z" fill="url(#paint11_linear_1280_6025)"/>
<path d="M25.5615 35.7253C24.7227 32.7195 21.6353 32.3467 20.7964 32.3001C20.7498 32.3001 20.7265 32.2884 20.5984 32.3001C19.7829 32.3817 16.6722 32.871 15.9149 35.935C15.8994 36.036 15.8916 36.1409 15.8916 36.2496V36.2613C15.8916 36.2613 19.7596 38.7079 20.7498 38.7079C21.7867 38.7079 25.3634 36.471 25.5848 36.2729C25.6081 36.0865 25.6081 35.9001 25.5615 35.7253Z" fill="url(#paint12_linear_1280_6025)"/>
<path style="mix-blend-mode:multiply" opacity="0.9" d="M15.9149 35.9348C15.8994 36.0357 15.8916 36.1406 15.8916 36.2493V36.261C15.8916 36.261 19.643 38.6377 20.7032 38.7076C20.9945 32.7891 20.5984 32.2998 20.5984 32.2998C19.7829 32.3814 16.6722 32.8707 15.9149 35.9348Z" fill="url(#paint13_linear_1280_6025)"/>
<path d="M21.7637 32.4283C21.3443 32.3351 21.0064 32.3118 20.7967 32.3001C20.7501 32.3001 20.7268 32.2884 20.5986 32.3001C20.5986 32.3001 20.9947 32.7894 20.7035 38.7079C21.2045 37.3681 21.5889 34.1292 21.7637 32.4283Z" fill="url(#paint14_linear_1280_6025)"/>
<defs>
<linearGradient id="paint0_linear_1280_6025" x1="47.6751" y1="30.6728" x2="25.8928" y2="70.7413" gradientUnits="userSpaceOnUse">
<stop stop-color="#519B4C" stop-opacity="0"/>
<stop offset="1" stop-color="#519B4C"/>
</linearGradient>
<linearGradient id="paint1_linear_1280_6025" x1="9.9543" y1="15.0892" x2="9.9543" y2="8.19145" gradientUnits="userSpaceOnUse">
<stop offset="0.198" stop-color="white" stop-opacity="0"/>
<stop offset="0.972" stop-color="white"/>
</linearGradient>
<linearGradient id="paint2_linear_1280_6025" x1="23.0207" y1="42.2785" x2="23.1119" y2="53.4953" gradientUnits="userSpaceOnUse">
<stop stop-color="#519B4C" stop-opacity="0"/>
<stop offset="1" stop-color="#519B4C"/>
</linearGradient>
<linearGradient id="paint3_linear_1280_6025" x1="66.8051" y1="22.4692" x2="71.7389" y2="62.5196" gradientUnits="userSpaceOnUse">
<stop stop-color="#519B4C" stop-opacity="0"/>
<stop offset="1" stop-color="#519B4C"/>
</linearGradient>
<linearGradient id="paint4_linear_1280_6025" x1="31.0525" y1="15.2683" x2="31.0525" y2="8.37052" gradientUnits="userSpaceOnUse">
<stop offset="0.198" stop-color="white" stop-opacity="0"/>
<stop offset="0.972" stop-color="white"/>
</linearGradient>
<linearGradient id="paint5_linear_1280_6025" x1="34.6404" y1="43.144" x2="34.0687" y2="53.4344" gradientUnits="userSpaceOnUse">
<stop stop-color="#519B4C" stop-opacity="0"/>
<stop offset="1" stop-color="#519B4C"/>
</linearGradient>
<linearGradient id="paint6_linear_1280_6025" x1="7.3134" y1="35.127" x2="7.3134" y2="24.6454" gradientUnits="userSpaceOnUse">
<stop stop-color="#E5E3E3"/>
<stop offset="1" stop-color="#E5E3E3" stop-opacity="0"/>
</linearGradient>
<linearGradient id="paint7_linear_1280_6025" x1="26.7041" y1="35.2856" x2="26.7041" y2="24.6106" gradientUnits="userSpaceOnUse">
<stop stop-color="#E5E3E3"/>
<stop offset="1" stop-color="#E5E3E3" stop-opacity="0"/>
</linearGradient>
<linearGradient id="paint8_linear_1280_6025" x1="24.9855" y1="33.8081" x2="24.7585" y2="44.9303" gradientUnits="userSpaceOnUse">
<stop stop-color="#3F843F"/>
<stop offset="1" stop-color="#519B4C"/>
</linearGradient>
<linearGradient id="paint9_linear_1280_6025" x1="24.155" y1="33.7105" x2="24.147" y2="40.7219" gradientUnits="userSpaceOnUse">
<stop stop-color="#F9EC31"/>
<stop offset="1" stop-color="#F6921E"/>
</linearGradient>
<linearGradient id="paint10_linear_1280_6025" x1="25.3494" y1="44.9454" x2="17.488" y2="38.599" gradientUnits="userSpaceOnUse">
<stop stop-color="#F9EC31"/>
<stop offset="1" stop-color="#F6921E"/>
</linearGradient>
<linearGradient id="paint11_linear_1280_6025" x1="25.3494" y1="44.9454" x2="17.488" y2="38.599" gradientUnits="userSpaceOnUse">
<stop stop-color="#F9EC31"/>
<stop offset="1" stop-color="#F6921E"/>
</linearGradient>
<linearGradient id="paint12_linear_1280_6025" x1="22.9764" y1="33.099" x2="22.8116" y2="41.173" gradientUnits="userSpaceOnUse">
<stop stop-color="#F9EC31"/>
<stop offset="1" stop-color="#F6921E"/>
</linearGradient>
<linearGradient id="paint13_linear_1280_6025" x1="26.5757" y1="37.2903" x2="18.5356" y2="40.0868" gradientUnits="userSpaceOnUse">
<stop offset="0.001" stop-color="#F9EC31" stop-opacity="0"/>
<stop offset="1" stop-color="#F6921E"/>
</linearGradient>
<linearGradient id="paint14_linear_1280_6025" x1="3.986" y1="42.6167" x2="2.6331" y2="32.7547" gradientUnits="userSpaceOnUse">
<stop offset="0.198" stop-color="white" stop-opacity="0"/>
<stop offset="0.972" stop-color="white"/>
</linearGradient>
<clipPath id="clip0_1280_6025">
<rect width="110.659" height="24.4255" fill="white" transform="translate(50.3398 19.9766)"/>
</clipPath>
</defs>
</svg>
