<svg width="158" height="158" viewBox="0 0 158 158" fill="none" xmlns="http://www.w3.org/2000/svg">
    <rect width="158" height="158" rx="32" fill="#1536FC" />
    <path
        d="M36.0409 108.431L36.0409 99.9521C36.0409 98.1925 37.4773 96.7931 39.2143 96.512C48.5888 94.9947 55.7452 86.8652 55.7452 77.0618C55.7452 66.1781 46.9247 57.3576 36.0409 57.3576L30 57.3576"
        stroke="#F1F1F1" stroke-width="12.8188" stroke-miterlimit="10" />
    <path
        d="M51.1562 36.0409H59.6353C61.3949 36.0409 62.7943 37.4773 63.0754 39.2143C64.5927 48.5888 72.7222 55.7452 82.5256 55.7452C93.4093 55.7452 102.23 46.9247 102.23 36.0409V30"
        stroke="#F1F1F1" stroke-width="12.8188" stroke-miterlimit="10" />
    <path
        d="M121.705 53L121.705 61.4791C121.705 63.2386 120.269 64.638 118.532 64.9192C109.157 66.4364 102.001 74.5659 102.001 84.3693C102.001 95.2531 110.821 104.074 121.705 104.074L127.746 104.074"
        stroke="#F1F1F1" stroke-width="12.8188" stroke-miterlimit="10" />
    <path
        d="M106.59 121.705H98.1108C96.3512 121.705 94.9518 120.269 94.6707 118.532C93.1534 109.157 85.0239 102.001 75.2205 102.001C64.3368 102.001 55.5163 110.821 55.5163 121.705V127.746"
        stroke="#F1F1F1" stroke-width="12.8188" stroke-miterlimit="10" />
</svg>
    